<?xml version="1.0" encoding="UTF-8" standalone="no"?>
<!DOCTYPE svg PUBLIC "-//W3C//DTD SVG 1.1//EN" "http://www.w3.org/Graphics/SVG/1.1/DTD/svg11.dtd">
<svg width="100%" height="100%" viewBox="0 0 1200 800" version="1.1" xmlns="http://www.w3.org/2000/svg" xmlns:xlink="http://www.w3.org/1999/xlink" xml:space="preserve" xmlns:serif="http://www.serif.com/" style="fill-rule:evenodd;clip-rule:evenodd;stroke-linecap:round;stroke-linejoin:round;">
    <g id="Background" transform="matrix(1,0,0,1,-83,-112)">
        <rect x="0" y="0" width="1366" height="1024" style="fill:none;"/>
    </g>
    <g id="Layer_1" transform="matrix(1,0,0,1,-83,-112)">
        <path d="M554.308,275.765L553.59,276.172L552.056,277.122L550.483,278.209L548.901,279.397L547.315,280.693L545.726,282.089L544.136,283.572L542.551,285.151L540.973,286.811L539.4,288.548L537.847,290.377L536.307,292.275L534.783,294.237L533.285,296.271L531.808,298.361L530.353,300.504L528.924,302.695L527.523,304.93L526.152,307.207L524.813,309.521L523.509,311.869L522.242,314.247L521.015,316.653L519.831,319.082L518.691,321.531L517.598,323.996L516.556,326.474L515.565,328.962L514.631,331.456L513.754,333.952L512.937,336.448L512.184,338.94L511.498,341.423L510.881,343.895L510.336,346.352L509.873,348.789L509.488,351.203L509.186,353.588L508.98,355.938L508.874,358.245L508.859,360.508L508.939,362.722L509.124,364.876L509.332,366.475L509.504,367.528L509.7,368.541L509.922,369.536L510.174,370.51L510.453,371.464L510.76,372.398L511.094,373.312L511.456,374.204L511.846,375.074L512.263,375.922L512.712,376.743L513.189,377.54L513.695,378.312L514.229,379.061L514.785,379.792L515.367,380.505L515.973,381.199L516.609,381.869L517.267,382.526L517.956,383.156L518.676,383.761L519.421,384.348L520.198,384.909L521.006,385.442L521.845,385.951L522.716,386.431L523.621,386.88L524.56,387.298L525.532,387.683L526.542,388.028L527.589,388.33L528.677,388.581L529.808,388.771L530.986,388.882L532.201,388.949L533.454,388.956L534.745,388.911L536.084,388.772L537.467,388.552L538.917,388.148L540.448,387.495L541.221,387.171C541.653,387.152 542.128,386.612 542.282,385.966C542.436,385.319 542.211,384.81 541.779,384.829L541.169,384.566L539.988,383.984L538.801,383.582L537.618,383.297L536.464,383.028L535.333,382.787L534.236,382.534L533.169,382.277L532.136,382.003L531.123,381.746L530.136,381.491L529.176,381.227L528.245,380.947L527.343,380.65L526.473,380.33L525.634,379.985L524.825,379.617L524.048,379.224L523.302,378.802L522.588,378.356L521.904,377.887L521.255,377.385L520.636,376.86L520.046,376.313L519.492,375.733L518.967,375.132L518.476,374.503L518.016,373.85L517.591,373.171L517.193,372.474L516.821,371.76L516.476,371.03L516.154,370.287L515.856,369.529L515.584,368.755L515.336,367.967L515.111,367.164L514.911,366.347L514.732,365.516L514.573,364.674L514.437,363.818L514.325,362.972L514.195,361.667L514.093,359.851L514.067,357.99L514.12,356.082L514.253,354.128L514.451,352.135L514.714,350.105L515.049,348.036L515.454,345.931L515.923,343.796L516.459,341.633L517.06,339.445L517.724,337.238L518.448,335.015L519.23,332.78L520.068,330.537L520.958,328.292L521.9,326.047L522.89,323.808L523.926,321.578L525.005,319.362L526.123,317.164L527.28,314.988L528.472,312.838L529.695,310.719L530.949,308.635L532.229,306.588L533.533,304.585L534.859,302.629L536.202,300.724L537.561,298.872L538.925,297.066L540.299,295.323L541.68,293.644L543.057,292.014L544.439,290.457L545.82,288.975L547.196,287.562L548.567,286.233L549.93,284.984L551.282,283.814L552.623,282.739L553.978,281.729L554.692,281.235C555.882,280.485 556.761,278.654 556.655,277.144C556.55,275.633 555.499,275.016 554.308,275.765" style="fill-rule:nonzero;"/>
        <path d="M513.302,276.639L513.259,276.227L513.094,275.331L512.855,274.44L512.558,273.59L512.154,272.863L511.366,272.697L510.46,272.086L509.458,270.913L508.564,269.527L507.511,268.461L506.153,268.028L505.431,267.94C504.976,267.497 504.19,267.837 503.676,268.699C503.161,269.561 503.114,270.618 503.569,271.06L503.87,271.965L504.648,273.48L505.791,274.343L507.073,274.911L508.151,275.756L508.694,276.724L508.801,277.654L509.223,278.06L509.675,278.388L510.099,278.725L510.498,279.111L510.698,279.361C510.99,280.156 511.809,280.192 512.528,279.44C513.247,278.689 513.593,277.435 513.302,276.639" style="fill-rule:nonzero;"/>
        <path d="M618.827,251.981L618.608,251.961L618.203,251.939L617.841,251.934L617.518,251.943L617.227,251.971L616.961,252.009L616.706,252.07L616.439,252.161L615.994,252.397L614.936,253.552L614.288,256.124L614.538,257.073L614.767,257.52L614.966,257.9L615.159,258.29L615.344,258.724L615.47,259.067L615.544,259.309L615.618,259.595L615.686,259.904L615.743,260.244L615.788,260.618L615.817,261.028L615.826,261.48L615.824,261.69C615.753,262.943 616.446,263.65 617.372,263.268C618.297,262.887 619.105,261.562 619.176,260.31L619.209,259.894L619.248,259.16L619.256,258.467L619.235,257.819L619.187,257.215L619.115,256.654L619.021,256.139L618.903,255.648L618.708,255.009L618.431,254.335L618.165,253.821L617.949,253.473L617.85,253.343L617.9,253.833L617.226,256.041L616.356,256.896L616.218,256.933L616.246,256.898L616.363,256.832L616.553,256.741L616.806,256.633L617.12,256.496L617.495,256.333L617.93,256.135L618.173,256.019C618.951,255.858 619.728,254.824 619.909,253.708C620.089,252.593 619.605,251.82 618.827,251.981" style="fill-rule:nonzero;"/>
        <path d="M516.831,425.964L516.592,425.453L516.156,424.431L515.725,423.491L515.285,422.654L514.83,421.93L514.377,421.292L513.92,420.75L513.468,420.282L513.016,419.897L512.569,419.583L512.124,419.337L511.677,419.166L511.229,419.062L510.776,419.027L510.315,419.07L509.846,419.198L509.371,419.414L508.899,419.723L508.443,420.124L508.019,420.605L507.639,421.142L507.311,421.715L507.035,422.305L506.81,422.904L506.632,423.504L506.494,424.1L506.356,424.958L506.271,426.11L506.294,427.266L506.417,428.39L506.634,429.471L506.933,430.501L507.197,431.259L507.383,431.767L507.589,432.244L507.817,432.704L508.072,433.136L508.355,433.537L508.662,433.914L508.997,434.257L509.363,434.559L509.758,434.825L510.182,435.05L510.64,435.223L511.127,435.354L511.649,435.433L512.203,435.462L512.792,435.438L513.415,435.374L514.079,435.245L514.783,435.077L515.533,434.836L516.326,434.513L517.161,434.091L518.029,433.547L518.92,432.864L519.828,432.05L520.74,431.094L521.216,430.518C521.225,430.507 521.235,430.495 521.244,430.484L521.386,430.279L521.682,429.839L521.988,429.375L522.305,428.893L522.811,428.136L523.537,427.088L524.315,426.025L525.149,424.967L526.035,423.928L526.969,422.943L527.945,422.029L528.956,421.204L529.719,420.675L530.229,420.359L530.758,420.068L531.292,419.82L531.829,419.609L532.369,419.436L532.912,419.306L533.455,419.229L534.001,419.198L534.548,419.216L535.097,419.284L535.643,419.418L535.903,419.503L535.848,419.48L535.93,419.517L536.001,419.578L536.091,419.681L536.218,419.851L536.367,420.082L536.53,420.369L536.793,420.901L537.151,421.751L537.516,422.717L537.875,423.776L538.223,424.887L538.559,426.011L538.883,427.109L539.189,428.148L539.403,428.872L539.539,429.321L539.671,429.736L539.796,430.114L539.918,430.455L540.036,430.756L540.156,431.02L540.285,431.253L540.458,431.475L540.809,431.69L541.458,431.616C541.559,431.569 541.66,431.505 541.759,431.426L542.136,431.139L542.917,430.546L543.737,429.943L544.591,429.319L545.479,428.675L546.405,428.05L547.35,427.345L548.313,426.558L549.811,425.356L551.898,423.731L554.075,422.11L556.398,421.186L558.732,419.94L561.09,418.507L563.48,417.047L565.888,415.147L568.332,413.717L570.166,412.778L571.384,412.241L572.603,411.755L573.814,411.346L575.016,410.984L576.201,410.714L576.782,410.601L576.742,410.61L576.938,410.586L577.244,410.596L577.541,410.653L577.861,410.751L578.199,410.9L578.552,411.099L578.918,411.34L579.298,411.623L579.896,412.123L580.713,412.916L581.559,413.81L582.441,414.776L583.37,415.769L584.356,416.742L585.413,417.639L586.545,418.427L587.761,419.047L588.739,419.374L589.414,419.534L590.101,419.612L590.804,419.617L591.519,419.546L592.241,419.393L592.615,419.284C593.071,419.33 593.614,418.792 593.827,418.083C594.04,417.373 593.842,416.762 593.385,416.716L593.17,416.549L592.722,416.202L592.276,415.842L591.828,415.47L591.375,415.088L590.919,414.715L590.223,414.12L589.243,413.319L588.222,412.519L587.173,411.721L586.099,410.948L585.015,410.201L583.934,409.493L582.866,408.836L581.821,408.259L581.056,407.885L580.544,407.671L580.032,407.493L579.521,407.358L579.007,407.265L578.49,407.221L577.964,407.242L577.461,407.33L577.258,407.39C577.245,407.393 577.232,407.396 577.218,407.399L576.584,407.601L575.326,408.031L574.069,408.458L572.807,408.922L571.545,409.388L570.275,409.877L568.373,410.607L565.841,411.616L563.304,412.365L560.804,413.723L558.353,415.24L555.984,417.034L553.735,419.204L551.495,420.69L549.345,422.146L547.801,423.215L546.804,423.913L545.849,424.665L544.936,425.463L544.052,426.205L543.202,426.923L542.39,427.613L541.614,428.262L541.241,428.574L541.542,428.384L542.131,428.338L542.342,428.506L542.354,428.548L542.302,428.48L542.219,428.327L542.116,428.106L541.998,427.827L541.868,427.498L541.728,427.125L541.579,426.715L541.338,426.035L540.997,425.033L540.635,423.96L540.254,422.851L539.864,421.738L539.47,420.648L539.079,419.612L538.685,418.673L538.391,418.046L538.189,417.664L537.978,417.318L537.753,417.011L537.498,416.748L537.234,416.56L537.152,416.52C537.134,416.511 537.116,416.503 537.097,416.497L536.761,416.375L536.113,416.187L535.462,416.054L534.807,415.983L534.148,415.971L533.487,416.015L532.827,416.103L532.168,416.238L531.511,416.42L530.856,416.645L530.205,416.899L529.545,417.197L528.574,417.704L527.32,418.444L526.099,419.264L524.915,420.137L523.775,421.033L522.689,421.943L521.664,422.835L520.717,423.682L520.062,424.28L519.653,424.66L519.271,425.017L518.921,425.353L518.756,425.516L518.784,425.482L518.465,425.846L517.828,426.632L517.242,427.385L516.694,428.098L516.177,428.786L515.68,429.436L515.195,430.034L514.718,430.566L514.249,431.028L513.791,431.395L513.344,431.696L512.913,431.913L512.499,432.066L512.101,432.156L511.719,432.192L511.358,432.168L511.01,432.101L510.682,431.986L510.374,431.824L510.081,431.626L509.808,431.389L509.557,431.111L509.325,430.804L509.11,430.469L508.92,430.104L508.754,429.726L508.573,429.089L508.432,428.163L508.381,427.222L508.403,426.304L508.49,425.445L508.63,424.653L508.764,424.13L508.855,423.852L508.946,423.622L509.026,423.442L509.093,423.308L509.145,423.219L509.183,423.162L509.212,423.122L509.244,423.081L509.295,423.033L509.379,422.984L509.503,422.942L509.669,422.918L509.876,422.925L510.121,422.976L510.4,423.08L510.713,423.235L511.055,423.453L511.423,423.737L511.824,424.082L512.248,424.501L512.708,424.979L513.194,425.531L513.725,426.137L514.293,426.811L514.884,427.582L515.169,428.036C515.426,428.507 516.005,428.426 516.464,427.854C516.923,427.282 517.087,426.436 516.831,425.964" style="fill-rule:nonzero;"/>
        <path d="M520.383,474.486L521.229,474.588L522.89,474.773L524.508,474.941L526.085,475.094L527.621,475.229L529.116,475.35L530.569,475.463L531.983,475.563L533.356,475.655L534.689,475.741L535.982,475.817L537.236,475.892L538.452,475.958L539.628,476.025L540.768,476.084L541.87,476.144L542.935,476.2L543.964,476.254L544.956,476.31L545.913,476.369L546.836,476.419L547.725,476.472L548.995,476.557L550.572,476.68L552.021,476.803L553.346,476.935L554.551,477.08L555.638,477.24L556.615,477.407L557.486,477.583L558.252,477.773L558.918,477.976L559.487,478.189L559.962,478.409L560.349,478.634L560.653,478.856L560.88,479.067L561.038,479.263L561.14,479.44L561.197,479.593L561.227,479.73L561.242,479.862L561.249,480.01L561.251,480.198L561.247,480.44L561.221,480.966L561.154,481.86L561.074,482.989L561.027,484.015L561.015,484.787L561.028,485.578L561.073,486.405L561.155,487.262L561.284,488.142L561.463,489.039L561.695,489.952L561.984,490.879L562.335,491.816L562.751,492.764L563.236,493.722L563.798,494.687L564.437,495.665L565.158,496.655L565.964,497.659L566.864,498.677L567.861,499.708L568.96,500.754L570.165,501.819L571.484,502.899L572.92,503.994L574.081,504.831L574.895,505.396L575.738,505.962L576.614,506.534L577.067,506.824C577.079,506.832 577.091,506.84 577.102,506.847L577.344,506.989L577.934,507.269L578.576,507.475L579.234,507.587L579.905,507.61L580.583,507.546L581.263,507.402L581.939,507.186L582.609,506.906L583.269,506.571L584.207,506.001L585.433,505.113L586.634,504.114L587.781,503.069L588.876,502.016L589.919,500.993L590.906,500.034L591.831,499.175L592.465,498.629L592.85,498.322L593.227,498.047L593.577,497.817L593.901,497.634L594.197,497.498L594.296,497.462L594.233,497.483L594.555,497.374L595.085,497.225L595.531,497.139L595.921,497.103L596.261,497.109L596.553,497.152L596.806,497.227L597.025,497.328L597.218,497.453L597.391,497.599L597.549,497.768L597.697,497.962L597.836,498.181L597.97,498.426L598.17,498.864L598.42,499.518L598.667,500.237L598.936,501.017L599.251,501.828L599.543,502.452L599.776,502.871L600.03,503.257L600.32,503.62L600.648,503.951L601.018,504.242L601.43,504.485L601.885,504.672L602.157,504.752C602.171,504.756 602.184,504.76 602.198,504.763L602.58,504.847L603.379,504.991L604.187,505.095L604.991,505.157L605.792,505.181L606.59,505.167L607.384,505.114L608.174,505.025L609.337,504.826L610.874,504.45L612.397,503.957L613.893,503.353L615.358,502.65L616.79,501.873L618.186,501.019L619.543,500.101L620.86,499.142L622.134,498.143L623.362,497.114L624.546,496.077L625.679,495.034L626.76,493.993L627.789,492.976L628.762,491.987L629.673,491.032L630.522,490.128L631.307,489.288L632.018,488.519L632.502,487.998L632.798,487.684L633.071,487.397L633.321,487.138L633.545,486.911L633.741,486.718L633.905,486.567L634.031,486.461L634.11,486.406L634.129,486.41L634.062,486.484L633.867,486.63L633.481,486.81L632.872,486.859L632.23,486.49L631.877,485.795L631.8,485.292L631.797,485.14L631.773,485.576L631.727,486.462L631.696,487.334L631.677,488.184L631.674,489.015L631.691,489.826L631.727,490.622L631.788,491.401L631.88,492.161L632.036,492.874L632.233,493.555L632.467,494.209L632.741,494.827L633.059,495.403L633.417,495.939L633.814,496.43L634.249,496.875L634.721,497.273L635.229,497.625L635.771,497.931L636.347,498.194L636.957,498.417L637.601,498.6L638.279,498.748L638.993,498.861L639.745,498.943L640.537,498.995L641.369,499.017L642.246,499.006L643.201,498.834L644.201,498.631L645.248,498.401L645.796,498.276C645.802,498.275 645.808,498.275 645.815,498.274L646.418,497.428L647.434,496.629L648.303,496.406L649.144,496.164L649.956,495.91L650.739,495.659L651.496,495.387L652.228,495.096L652.934,494.791L653.616,494.474L654.275,494.137L654.91,493.781L655.522,493.406L656.112,493.011L656.68,492.604L657.226,492.18L657.994,491.518L658.946,490.573L659.823,489.553L660.616,488.475L661.325,487.344L661.949,486.163L662.488,484.943L662.945,483.691L663.327,482.415L663.637,481.117L663.876,479.803L664.051,478.475L664.164,477.135L664.22,475.788L664.225,474.432L664.18,473.072L664.089,471.709L663.954,470.348L663.779,468.99L663.566,467.638L663.32,466.294L663.041,464.964L662.732,463.65L662.397,462.354L662.04,461.08L661.66,459.831L661.262,458.611L660.852,457.42L660.427,456.266L659.993,455.148L659.553,454.071L659.107,453.04L658.664,452.051L658.221,451.114L657.791,450.219L657.362,449.386L656.975,448.569L656.734,447.625L656.518,446.707L656.151,446.076L655.784,445.525L655.578,444.778L655.507,443.787L655.295,442.944L654.722,442.688L653.923,442.676L652.777,443.115L651.393,444.407L650.491,445.936L650.121,446.924L649.934,447.648L649.817,448.293L649.747,448.885L649.709,449.441L649.697,449.979L649.704,450.512L649.728,451.047L649.767,451.593L649.821,452.153L649.89,452.732L649.973,453.333L650.07,453.958L650.181,454.61L650.308,455.29L650.379,455.652C650.382,455.667 650.385,455.682 650.388,455.697L650.437,455.927L650.566,456.463L650.723,457.001L650.903,457.507L651.109,457.98L651.345,458.42L651.613,458.821L651.919,459.179L652.266,459.487L652.654,459.734L653.082,459.912L653.546,460.01L654.038,460.025L654.546,459.957L655.06,459.809L655.569,459.593L656.068,459.317L656.551,458.993L657.018,458.629L657.469,458.232L657.905,457.807L658.328,457.357L658.915,456.674L659.694,455.672L660.481,454.558L661.257,453.366L662.029,452.097L662.803,450.751L663.581,449.329L664.36,447.83L665.144,446.259L665.93,444.616L666.679,442.885L667.43,441.095L668.183,439.248L668.937,437.349L669.693,435.402L670.448,433.411L671.201,431.381L672.323,428.278L673.815,424.042L675.287,419.723L676.738,415.368L678.156,411.014L679.531,406.697L680.533,403.504L681.185,401.405L681.822,399.34L682.442,397.31L683.045,395.32L683.629,393.373L684.195,391.475L684.738,389.628L685.296,387.841L686.132,386.118L687.105,384.445L687.87,382.818L688.235,381.261L688.562,379.779L688.85,378.372L689.097,377.042L689.302,375.789L689.43,374.879L689.501,374.284L689.557,373.726L689.601,373.184L689.63,372.656L689.645,372.14L689.642,371.634L689.619,371.136L689.573,370.644L689.498,370.154L689.384,369.667L689.223,369.188L688.998,368.727L688.696,368.305L688.441,368.054C688.382,368.003 688.32,367.957 688.255,367.917L688.194,367.88L687.658,367.677L686.818,367.691L685.91,368.066L685.103,368.687L684.464,369.387L683.97,370.073L683.576,370.724L683.247,371.349L682.957,371.961L682.692,372.571L682.444,373.19L682.206,373.822L681.974,374.472L681.64,375.466L681.196,376.885L680.748,378.413L680.302,380.026L679.857,381.716L679.414,383.473L678.973,385.287L678.324,388.08L677.482,391.894L676.876,394.779L676.49,396.683L676.122,398.546L675.783,400.363L675.472,402.119L675.184,403.804L674.986,405.391L674.825,406.878L674.718,407.928L674.654,408.593L674.597,409.221L674.547,409.818L674.503,410.382L674.465,410.912L674.435,411.409L674.411,411.872L674.394,412.305L674.385,412.707L674.384,413.089L674.394,413.461L674.406,413.705C674.407,413.729 674.408,413.752 674.409,413.776L674.471,414.271L674.599,415.254L674.734,416.202L674.871,417.106L675.014,417.966L675.163,418.783L675.314,419.56L675.47,420.297L675.631,420.994L675.796,421.651L675.965,422.272L676.137,422.857L676.315,423.406L676.497,423.919L676.685,424.397L676.876,424.844L677.071,425.259L677.273,425.642L677.58,426.143L678.011,426.706L678.477,427.167L678.977,427.506L679.516,427.713L680.091,427.782L680.693,427.707L681.305,427.496L681.91,427.156L682.496,426.715L683.053,426.191L683.581,425.605L684.078,424.965L684.555,424.291L685.009,423.582L685.452,422.852L685.882,422.098L686.493,420.956L687.25,419.359L687.761,418.075L688.062,417.199L688.321,416.355L688.547,415.515L688.728,414.681L688.86,413.86L688.946,413.05L688.979,412.253L688.948,411.472L688.838,410.712L688.629,409.991L688.293,409.345L687.819,408.822L687.213,408.481L686.641,408.359L686.221,408.362L685.841,408.418L685.455,408.521L685.066,408.665L684.675,408.846L684.281,409.062L683.886,409.309L683.486,409.59L683.082,409.902L682.672,410.243L682.255,410.613L681.829,411.014L681.394,411.444L680.948,411.906L680.489,412.401L680.02,412.933L679.538,413.499L679.042,414.099L678.531,414.735L678.004,415.409L677.462,416.121L676.906,416.876L676.332,417.671L675.742,418.507L675.134,419.384L674.508,420.305L673.866,421.273L673.206,422.286L672.527,423.346L671.828,424.451L671.109,425.605L670.373,426.81L669.617,428.064L668.841,429.368L668.045,430.724L667.227,432.134L666.388,433.595L665.529,435.112L664.647,436.683L664.195,437.494C664.194,437.496 664.193,437.498 664.192,437.5L664.017,437.815L663.706,438.373L663.447,438.837L663.237,439.211L663.077,439.493L662.97,439.681L662.925,439.756L663.016,439.606L667.11,441.079L666.647,442.507L666.664,442.477L666.758,442.297L666.899,442.028L667.08,441.685L667.296,441.277L667.544,440.806L667.824,440.278L668.133,439.694L668.469,439.06L668.833,438.374L669.221,437.643L669.633,436.868L670.063,436.048L670.513,435.188L670.982,434.29L671.462,433.353L671.867,432.315L672.073,431.084L672.87,429.541L673.973,427.402L675.123,425.198L676.299,422.94L678.091,419.496L679.889,416.047L681.07,413.772L682.223,411.542L683.339,409.375L684.147,407.802L684.668,406.783L685.174,405.792L685.662,404.828L686.133,403.896L686.584,402.997L687.015,402.134L687.424,401.309L687.81,400.523L688.171,399.779L688.507,399.078L688.817,398.423L689.1,397.814L689.356,397.252L689.583,396.736L689.783,396.264L689.882,396.02C689.885,396.012 689.889,396.004 689.892,395.996L690.153,395.339L690.661,394.063L691.149,392.838L691.617,391.663L692.067,390.538L692.498,389.46L692.911,388.431L693.306,387.448L693.685,386.512L694.054,385.625L694.41,384.784L694.764,383.993L695.111,383.249L695.455,382.554L695.797,381.907L696.137,381.307L696.463,380.752L696.767,380.235L697.049,379.757L697.311,379.319L697.538,378.913L697.742,378.545L697.928,378.217L698.095,377.93L698.243,377.685L698.367,377.482L698.463,377.321L698.535,377.211L698.578,377.159L698.583,377.173L698.53,377.288L698.168,377.796L696.818,378.792L695.065,378.364L694.631,377.34L694.576,376.952L694.547,376.95L694.509,377.163L694.453,377.522L694.375,377.99L694.278,378.545L694.171,379.173L694.053,379.861L693.864,380.983L693.604,382.61L693.357,384.348L693.144,386.15L693.022,387.541L692.969,388.482L692.948,389.389L692.982,390.272L693.049,391.139L693.15,391.985L693.295,392.807L693.492,393.596L693.75,394.346L694.081,395.044L694.498,395.668L695.009,396.192L695.618,396.586L696.171,396.793L696.581,396.873L696.969,396.897L697.37,396.877L697.784,396.814L698.206,396.711L698.637,396.568L699.075,396.387L699.519,396.169L699.971,395.917L700.43,395.631L700.897,395.311L701.371,394.958L701.855,394.573L702.349,394.158L702.854,393.709L703.371,393.226L703.901,392.709L704.444,392.157L705.002,391.569L705.574,390.945L706.162,390.283L706.766,389.583L707.387,388.845L708.027,388.07L708.686,387.255L709.364,386.399L710.061,385.501L710.779,384.56L711.516,383.574L711.897,383.059C711.906,383.048 711.914,383.037 711.923,383.025L712.116,382.757L712.563,382.11L713.022,381.405L713.473,380.668L714.126,379.529L714.985,377.907L715.829,376.171L716.645,374.351L717.43,372.462L718.182,370.519L718.894,368.535L719.567,366.527L720.191,364.508L720.76,362.496L721.273,360.505L721.742,358.549L722.063,357.101L722.257,356.148L722.438,355.219L722.6,354.306L722.745,353.41L722.871,352.531L722.974,351.672L723.057,350.831L723.113,350.011L723.146,349.211L723.147,348.436L723.111,347.687L723.043,346.964L722.936,346.269L722.783,345.609L722.581,344.991L722.326,344.419L722.016,343.902L721.651,343.445L721.23,343.06L720.753,342.752L720.225,342.527L719.649,342.389L719.03,342.337L718.37,342.374L717.673,342.499L716.94,342.716L716.173,343.042L715.376,343.509L714.557,344.146L713.719,344.872L712.863,345.716L711.991,346.675L711.112,347.782L710.22,349.003L709.326,350.372L708.871,351.1C708.676,351.294 708.575,351.63 708.646,351.85C708.717,352.071 708.933,352.093 709.129,351.9L709.695,351.619L710.769,351.104L711.749,350.621L712.648,350.197L713.463,349.797L714.201,349.447L714.869,349.14L715.468,348.902L716.003,348.647L716.484,348.4L716.916,348.188L717.304,348.024L717.649,347.909L717.959,347.835L718.235,347.803L718.485,347.808L718.714,347.849L718.928,347.926L719.129,348.042L719.318,348.203L719.496,348.413L719.663,348.672L719.817,348.984L719.956,349.349L720.074,349.77L720.169,350.246L720.243,350.772L720.297,351.344L720.321,351.965L720.321,352.628L720.294,353.33L720.241,354.068L720.162,354.839L720.055,355.64L719.926,356.467L719.769,357.306L719.492,358.609L719.038,360.411L718.495,362.252L717.891,364.109L717.236,365.966L716.54,367.804L715.804,369.602L715.043,371.342L714.266,373.005L713.481,374.571L712.7,376.019L711.922,377.348L711.35,378.247L710.987,378.777L710.637,379.261L710.282,379.721L710.077,379.975L710.103,379.941L709.731,380.39L708.999,381.263L708.293,382.09L707.613,382.873L706.959,383.61L706.33,384.304L705.726,384.954L705.146,385.558L704.592,386.12L704.063,386.641L703.558,387.122L703.08,387.563L702.627,387.965L702.2,388.329L701.798,388.655L701.422,388.946L701.071,389.201L700.747,389.42L700.448,389.606L700.177,389.761L699.932,389.886L699.713,389.986L699.52,390.06L699.352,390.114L699.208,390.148L699.087,390.168L698.987,390.175L698.904,390.173L698.836,390.165L698.817,390.164L698.78,390.163L698.693,390.122L698.607,390.044L698.52,389.911L698.436,389.708L698.362,389.428L698.305,389.069L698.267,388.635L698.252,388.133L698.263,387.568L698.297,386.951L698.326,386.301L698.369,385.639L698.459,384.568L698.635,383.043L698.854,381.494L699.097,379.97L699.281,378.878L699.4,378.183L699.513,377.517L699.616,376.88L699.71,376.269L699.793,375.674L699.858,375.072L699.887,374.406L699.841,373.516L699.362,372.164L697.504,371.594L695.983,372.649L695.38,373.426L695.096,373.888L694.923,374.207L694.765,374.519L694.616,374.834L694.468,375.161L694.327,375.51L694.184,375.883L694.037,376.28L693.884,376.707L693.724,377.163L693.56,377.654L693.403,378.185L693.24,378.752L693.069,379.355L692.892,379.999L692.699,380.678L692.477,381.39L692.227,382.137L691.948,382.92L691.643,383.74L691.307,384.598L690.95,385.499L690.568,386.441L690.168,387.427L689.749,388.46L689.312,389.54L688.856,390.668L688.381,391.845L687.887,393.071L687.373,394.346L687.108,395.004L687.118,394.98L687.067,395.104L686.916,395.458L686.725,395.886L686.497,396.379L686.236,396.933L685.943,397.543L685.62,398.205L685.269,398.917L684.892,399.674L684.49,400.475L684.064,401.315L683.616,402.194L683.148,403.108L682.661,404.053L682.156,405.03L681.635,406.032L680.827,407.581L679.702,409.72L678.535,411.923L677.341,414.169L675.518,417.582L673.685,420.98L672.478,423.207L671.296,425.381L670.142,427.476L669.308,428.989L668.461,429.73L667.843,430.605L667.334,431.518L666.85,432.403L666.386,433.252L665.944,434.065L665.527,434.838L665.134,435.569L664.766,436.254L664.423,436.891L664.108,437.478L663.821,438.013L663.563,438.494L663.336,438.921L663.14,439.292L662.974,439.609L662.831,439.885L662.685,440.175L662.136,441.782L666.224,443.288L666.39,443.02L666.507,442.821L666.648,442.575L666.826,442.259L667.049,441.863L667.317,441.383L667.632,440.817L667.808,440.5L667.805,440.506L668.238,439.727L669.093,438.202L669.925,436.734L670.733,435.319L671.516,433.96L672.278,432.654L673.017,431.401L673.732,430.2L674.424,429.052L675.092,427.951L675.739,426.901L676.363,425.9L676.967,424.948L677.549,424.044L678.106,423.184L678.643,422.37L679.159,421.603L679.653,420.882L680.128,420.205L680.578,419.569L681.008,418.975L681.418,418.425L681.806,417.916L682.174,417.45L682.519,417.025L682.842,416.636L683.142,416.286L683.421,415.974L683.676,415.702L683.908,415.466L684.115,415.265L684.297,415.1L684.452,414.965L684.581,414.856L684.683,414.775L684.757,414.717L684.805,414.676L684.828,414.648L684.829,414.626L684.762,414.6L684.67,414.528L684.613,414.413L684.587,414.29L684.603,414.202L684.653,414.186L684.713,414.264L684.768,414.441L684.806,414.71L684.819,415.059L684.806,415.478L684.773,415.953L684.718,416.475L684.637,417.035L684.539,417.592L684.353,418.483L684.017,419.763L683.702,420.705L683.472,421.28L683.225,421.817L682.963,422.298L682.701,422.726L682.443,423.085L682.2,423.382L681.976,423.614L681.774,423.785L681.59,423.905L681.414,423.985L681.232,424.02L681.034,424.006L680.812,423.923L680.57,423.751L680.313,423.469L680.047,423.042L679.85,422.631L679.725,422.322L679.603,421.977L679.485,421.593L679.373,421.168L679.266,420.704L679.165,420.2L679.069,419.655L678.981,419.067L678.902,418.437L678.83,417.762L678.766,417.045L678.711,416.282L678.667,415.473L678.632,414.618L678.607,413.717L678.593,412.767L678.589,411.76L678.591,411.224L678.594,411.295L678.599,411.342L678.611,411.245L678.634,411.06L678.671,410.802L678.721,410.483L678.784,410.108L678.861,409.682L678.949,409.211L679.05,408.696L679.162,408.14L679.286,407.547L679.419,406.924L679.637,405.925L679.963,404.481L680.31,402.935L680.617,401.312L680.949,399.614L681.295,397.858L681.651,396.057L682.02,394.234L682.6,391.471L683.411,387.794L684.032,385.118L684.446,383.412L684.857,381.78L685.262,380.241L685.656,378.811L686.034,377.512L686.396,376.349L686.651,375.581L686.804,375.147L686.943,374.773L687.064,374.464L687.16,374.23L687.222,374.085L687.234,374.044L687.171,374.122L686.997,374.333L686.667,374.658L686.156,375.009L685.532,375.221L684.962,375.184L684.683,375.044L684.745,375.083L684.559,374.946L684.412,374.788L684.305,374.602L684.247,374.445L684.225,374.337L684.224,374.286L684.234,374.297L684.247,374.367L684.258,374.495L684.263,374.674L684.259,374.903L684.246,375.178L684.223,375.495L684.189,375.853L684.146,376.227L684.058,376.87L683.898,377.867L683.692,378.983L683.443,380.206L683.152,381.531L682.821,382.946L682.816,384.448L682.948,386.049L682.873,387.738L682.456,389.489L681.961,391.298L681.432,393.162L680.864,395.075L680.263,397.032L679.63,399.027L678.967,401.056L678.276,403.108L677.19,406.229L675.662,410.444L674.061,414.678L672.402,418.889L670.701,423.035L668.982,427.087L667.684,430.034L666.825,431.941L665.973,433.799L665.128,435.602L664.294,437.345L663.472,439.021L662.666,440.626L661.877,442.152L661.149,443.619L660.446,445.001L659.767,446.288L659.121,447.475L658.506,448.55L657.93,449.507L657.399,450.334L656.924,451.023L656.491,451.597L656.204,451.943L656.06,452.103L655.944,452.226L655.8,452.37L655.775,452.401L655.781,452.413L655.814,452.416L655.867,452.419L655.932,452.43L655.997,452.453L656.052,452.487L656.09,452.525L656.105,452.558L656.097,452.574L656.069,452.563L656.022,452.516L655.962,452.427L655.893,452.29L655.819,452.102L655.743,451.863L655.661,451.536L655.612,451.303L655.621,451.348L655.563,451.053L655.454,450.471L655.36,449.928L655.281,449.426L655.216,448.966L655.166,448.549L655.128,448.177L655.102,447.855L655.087,447.584L655.08,447.373L655.079,447.227L655.077,447.159L655.065,447.186L655.029,447.325L654.944,447.6L654.699,448.194L654.022,449.236L653.008,450.067L652.304,450.255L652.016,450.192L652.016,450.08L652.435,449.568L653.048,449.089L653.572,449.026L653.976,449.324L654.416,449.701L655.039,449.942L655.661,450.301L656.157,450.924L656.627,451.661L657.105,452.459L657.574,453.33L658.042,454.257L658.5,455.242L658.952,456.276L659.393,457.356L659.82,458.478L660.234,459.636L660.627,460.83L660.999,462.053L661.35,463.301L661.674,464.571L661.969,465.859L662.234,467.161L662.466,468.471L662.661,469.787L662.819,471.105L662.934,472.419L663.006,473.727L663.034,475.022L663.013,476.3L662.94,477.558L662.817,478.789L662.641,479.989L662.413,481.152L662.13,482.276L661.789,483.356L661.389,484.389L660.931,485.376L660.412,486.316L659.827,487.212L659.171,488.062L658.436,488.862L657.61,489.623L656.932,490.161L656.459,490.497L655.963,490.817L655.444,491.117L654.901,491.401L654.334,491.669L653.743,491.921L653.128,492.154L652.489,492.362L651.825,492.545L651.136,492.707L650.423,492.85L649.687,492.947L648.929,493.013L648.145,493.056L647.455,492.478L647.185,491.726L647.204,491.724L646.732,491.696L645.82,491.626L644.97,491.533L644.178,491.422L643.411,491.423L642.698,491.405L642.04,491.365L641.435,491.303L640.883,491.219L640.381,491.115L639.928,490.992L639.523,490.852L639.162,490.696L638.842,490.526L638.56,490.343L638.311,490.148L638.092,489.94L637.897,489.718L637.724,489.478L637.567,489.217L637.422,488.934L637.287,488.624L637.163,488.277L637.044,487.895L636.904,487.495L636.772,487.046L636.651,486.547L636.546,485.994L636.449,485.391L636.365,484.738L636.294,484.035L636.23,483.274L636.203,482.86C636.203,482.809 636.202,482.758 636.2,482.708L636.118,482.084L635.722,481.207L634.994,480.735L634.259,480.756L633.705,480.983L633.303,481.245L632.988,481.504L632.719,481.759L632.473,482.017L632.235,482.283L631.998,482.563L631.756,482.856L631.506,483.167L631.246,483.495L630.975,483.842L630.692,484.207L630.244,484.781L629.598,485.602L628.899,486.483L628.143,487.409L627.331,488.37L626.469,489.364L625.556,490.375L624.592,491.386L623.582,492.399L622.53,493.4L621.434,494.37L620.3,495.31L619.132,496.208L617.929,497.045L616.696,497.822L615.435,498.531L614.149,499.15L612.839,499.68L611.506,500.114L610.142,500.435L609.103,500.597L608.414,500.665L607.719,500.7L607.021,500.703L606.319,500.669L605.614,500.596L604.905,500.485L604.182,500.333L603.802,500.237L603.843,500.248L603.744,500.221L603.512,500.13L603.305,500.014L603.119,499.871L602.949,499.702L602.792,499.505L602.644,499.277L602.514,499.035L602.321,498.597L602.073,497.894L601.828,497.1L601.563,496.241L601.255,495.367L600.979,494.725L600.756,494.296L600.501,493.884L600.21,493.498L599.88,493.146L599.508,492.835L599.095,492.574L598.64,492.368L598.145,492.222L597.609,492.137L597.036,492.114L596.421,492.156L595.765,492.261L595.089,492.423L594.767,492.517C594.746,492.524 594.725,492.531 594.704,492.539L594.379,492.656L593.81,492.906L593.249,493.206L592.695,493.548L592.147,493.924L591.591,494.34L590.785,494.992L589.74,495.898L588.709,496.832L587.696,497.76L586.708,498.648L585.752,499.465L584.842,500.179L583.958,500.785L583.32,501.15L582.933,501.334L582.563,501.48L582.206,501.587L581.86,501.656L581.522,501.685L581.187,501.672L580.851,501.612L580.512,501.5L580.134,501.307L579.897,501.153L579.933,501.176L579.509,500.877L578.682,500.281L577.888,499.693L577.13,499.115L576.052,498.263L574.718,497.149L573.503,496.069L572.401,495.024L571.409,494.011L570.522,493.03L569.732,492.085L569.035,491.176L568.427,490.3L567.902,489.46L567.455,488.655L567.076,487.889L566.762,487.16L566.507,486.468L566.304,485.81L566.147,485.185L566.03,484.591L565.946,484.024L565.889,483.479L565.857,482.949L565.845,482.428L565.85,481.931L565.886,481.137L565.968,479.99L566.046,478.779L566.069,477.838L566.05,477.153L565.987,476.455L565.869,475.759L565.688,475.088L565.441,474.462L565.131,473.893L564.764,473.386L564.341,472.939L563.866,472.546L563.335,472.202L562.745,471.9L562.091,471.632L561.368,471.395L560.569,471.185L559.686,470.999L558.715,470.837L557.647,470.703L556.475,470.597L555.196,470.514L553.803,470.452L552.289,470.418L550.648,470.419L549.331,470.435L548.41,470.452L547.454,470.477L546.461,470.517L545.431,470.564L544.365,470.618L543.261,470.681L542.116,470.757L540.933,470.841L539.708,470.94L538.443,471.048L537.135,471.172L535.784,471.307L534.388,471.458L532.948,471.625L531.463,471.806L529.93,472.01L528.35,472.229L526.72,472.471L525.041,472.738L523.31,473.029L521.528,473.344L520.617,473.514C520.438,473.521 520.24,473.744 520.176,474.013C520.111,474.281 520.204,474.493 520.383,474.486" style="fill-rule:nonzero;"/>
        <path d="M568.426,178.077L568.564,177.74L568.832,177.18L569.109,176.681L569.41,176.204L569.728,175.739L570.071,175.288L570.438,174.842L570.832,174.4L571.254,173.963L571.703,173.525L572.182,173.09L572.69,172.655L573.228,172.222L573.796,171.792L574.716,171.135L576.033,170.28L577.439,169.452L578.945,168.641L580.543,167.847L582.228,167.071L583.991,166.313L585.827,165.575L587.728,164.857L589.688,164.158L591.701,163.479L593.758,162.818L595.854,162.176L597.982,161.55L600.136,160.942L602.309,160.348L604.495,159.768L606.688,159.201L608.882,158.644L611.073,158.082L613.249,157.545L615.411,156.996L617.553,156.441L619.673,155.849L621.762,155.249L622.796,154.922C623.139,154.895 623.509,154.459 623.622,153.95C623.735,153.44 623.548,153.05 623.204,153.078L622.267,152.911L620.335,152.684L618.341,152.539L616.287,152.502L614.187,152.546L612.048,152.674L609.882,152.851L607.693,153.108L605.488,153.427L603.276,153.809L601.063,154.252L598.857,154.754L596.664,155.315L594.491,155.934L592.344,156.611L590.231,157.344L588.158,158.135L586.131,158.982L584.157,159.887L582.243,160.848L580.394,161.869L578.618,162.948L576.919,164.088L575.306,165.29L573.802,166.542L572.744,167.517L572.061,168.2L571.406,168.899L570.78,169.616L570.185,170.353L569.621,171.106L569.094,171.88L568.603,172.67L568.154,173.475L567.748,174.294L567.388,175.121L567.082,175.955L566.826,176.786L566.636,177.577L566.574,177.923C566.342,178.714 566.568,179.39 567.08,179.433C567.591,179.475 568.194,178.869 568.426,178.077" style="fill-rule:nonzero;"/>
        <path d="M650.974,171.446L650.83,171.959L650.564,173.051L650.359,174.138L650.222,175.188L650.155,176.198L650.154,177.165L650.218,178.089L650.344,178.968L650.531,179.8L650.774,180.584L651.07,181.323L651.417,182.016L651.81,182.668L652.246,183.278L652.723,183.85L653.239,184.386L653.791,184.888L654.377,185.359L654.995,185.799L655.642,186.216L656.317,186.605L657.018,186.971L657.744,187.312L658.493,187.632L659.65,188.073L661.26,188.598L662.929,189.068L664.642,189.487L666.384,189.86L668.139,190.204L670.76,190.684L673.326,191.154L674.98,191.471L676.558,191.832L678.06,192.203L679.447,192.65L680.409,193.001L681.008,193.241L681.577,193.489L682.109,193.742L682.603,194.003L683.054,194.269L683.46,194.54L683.827,194.794L684.143,195.051L684.405,195.308L684.611,195.559L684.757,195.797L684.845,196.01L684.878,196.183L684.849,196.174L684.81,196.048L684.851,196.223L684.886,196.461L684.905,196.691L684.917,196.96L684.92,197.269L684.915,197.616L684.887,198.232L684.819,199.149L684.714,200.16L684.571,201.279L684.396,202.493L684.202,203.786L683.988,205.149L683.64,207.301L683.177,210.298L682.813,213.374L682.655,215.704L682.59,217.266L682.57,218.786L682.604,220.278L682.696,221.733L682.855,223.142L683.027,224.188L683.171,224.874L683.335,225.518L683.523,226.142L683.735,226.743L683.974,227.321L684.24,227.872L684.535,228.393L684.859,228.883L685.214,229.339L685.6,229.758L686.016,230.139L686.464,230.478L686.942,230.775L687.452,231.028L687.992,231.235L688.561,231.398L689.161,231.514L689.791,231.583L690.451,231.605L690.811,231.598L690.855,231.598L691.081,231.582L691.613,231.519L692.179,231.412L692.752,231.265L693.332,231.079L693.919,230.857L694.511,230.602L695.108,230.315L696.001,229.841L697.217,229.116L698.463,228.291L699.724,227.385L700.998,226.415L702.283,225.383L703.577,224.309L704.877,223.199L706.826,221.495L709.419,219.197L711.344,217.507L712.607,216.424L713.849,215.391L715.067,214.423L716.256,213.539L717.407,212.75L718.505,212.028L719.542,211.381L720.51,210.823L721.173,210.478L721.58,210.286L721.977,210.113L722.349,209.969L722.695,209.854L723.012,209.77L723.301,209.714L723.559,209.686L723.785,209.684L723.98,209.706L724.143,209.75L724.277,209.811L724.383,209.887L724.468,209.976L724.462,209.997L724.396,209.948L724.548,210.09L724.77,210.343L724.961,210.611L725.148,210.915L725.333,211.255L725.514,211.632L725.688,212.046L725.858,212.498L726.021,212.987L726.177,213.511L726.326,214.07L726.468,214.663L726.673,215.63L726.959,216.979L727.245,218.404L727.51,219.934L727.763,221.552L728.003,223.251L728.232,225.02L728.453,226.85L728.775,229.689L729.206,233.581L729.667,237.529L730.052,240.493L730.335,242.457L730.642,244.384L730.979,246.275L731.409,248.073L732.06,249.654L732.747,251.156L733.401,252.638L733.919,253.703L734.278,254.387L734.643,255.037L735.018,255.662L735.403,256.261L735.797,256.835L736.201,257.383L736.613,257.908L736.829,258.174C736.835,258.182 736.841,258.191 736.848,258.199L737.06,258.44L737.525,258.96L738.015,259.479L738.517,259.995L739.032,260.509L739.569,261.005L740.136,261.472L740.736,261.897L741.368,262.281L742.03,262.623L742.716,262.936L743.428,263.21L744.167,263.441L744.926,263.645L745.702,263.825L746.498,263.976L747.718,264.135L749.4,264.269L751.145,264.303L752.937,264.233L754.942,263.25L756.849,262.701L758.712,262.367L760.579,262.009L763.361,261.472L766.114,260.926L767.911,260.63L769.655,260.446L771.35,260.325L772.988,260.267L774.584,260.101L776.116,259.918L777.598,259.56L778.994,259.224L780.292,258.93L781.189,258.741L781.747,258.633L782.28,258.538L782.779,258.457L783.244,258.393L783.672,258.345L784.06,258.313L784.406,258.298L784.542,258.298L784.242,258.273L784.28,258.28L783.632,257.986L783.165,257.329L783.014,256.812L782.978,256.528L782.97,256.429L782.962,256.462L782.942,256.594L782.91,256.799L782.864,257.064L782.769,257.566L782.609,258.334L782.422,259.181L782.1,260.561L781.768,261.946L781.554,262.838L781.354,263.682L781.217,264.275L781.132,264.657L781.056,265.013L780.988,265.358L780.925,265.703L780.869,266.073L780.834,266.369C780.829,266.425 780.824,266.48 780.82,266.535L780.793,266.924L780.756,267.893L780.782,269.351L780.948,271.255L781.243,273.124L781.639,274.918L782.113,276.64L782.647,278.282L783.221,279.841L783.843,281.277L784.553,282.511L785.074,283.368L785.41,283.903L785.738,284.392L786.063,284.836L786.37,285.246L786.657,285.622L786.922,285.962L787.162,286.265L787.382,286.519L787.582,286.721L787.746,286.886L787.872,287.011L787.92,287.059C788.446,287.937 789.579,287.726 790.451,286.589C791.323,285.451 791.605,283.818 791.08,282.941L791.057,282.871L790.998,282.684L790.92,282.437L790.826,282.133L790.706,281.789L790.563,281.406L790.405,280.976L790.236,280.503L790.057,279.989L789.871,279.436L789.668,278.862L789.457,278.268L789.134,277.323L788.704,275.967L788.201,274.629L787.699,273.262L787.242,271.858L786.845,270.444L786.526,269.046L786.296,267.696L786.164,266.387L786.135,265.459L786.152,264.856L786.18,264.465L786.166,264.631L786.146,264.778L786.142,264.782L786.16,264.677L786.196,264.493L786.247,264.249L786.31,263.963L786.429,263.448L786.619,262.644L786.836,261.742L787.187,260.275L787.539,258.764L787.762,257.748L787.964,256.765L788.096,256.057L788.176,255.578L788.246,255.096L788.305,254.603L788.346,254.083L788.359,253.505L788.311,252.826L788.114,252.004L787.565,251.136L786.796,250.734L786.758,250.727C786.661,250.709 786.56,250.701 786.458,250.702L786.208,250.706L785.732,250.729L785.234,250.772L784.714,250.832L784.171,250.908L783.604,251L783.015,251.106L782.397,251.226L781.436,251.428L780.085,251.735L778.655,252.079L777.151,252.466L775.554,253.08L773.892,253.748L772.163,254.548L770.396,255.296L768.601,255.976L766.799,256.527L764.076,257.189L761.339,257.744L759.532,258.025L757.744,258.245L756.039,258.149L754.489,257.505L752.799,257.647L751.152,257.752L749.548,257.801L748.384,257.786L747.632,257.765L746.897,257.726L746.182,257.665L745.488,257.579L744.81,257.485L744.149,257.377L743.511,257.242L742.892,257.092L742.291,256.925L741.709,256.739L741.154,256.521L740.632,256.256L740.157,255.928L739.731,255.536L739.342,255.077L739.152,254.801L739.171,254.826L739.022,254.592L738.729,254.068L738.456,253.502L738.203,252.899L737.969,252.261L737.751,251.592L737.55,250.892L737.368,250.174L737.12,249.041L736.831,247.429L736.659,245.669L736.527,243.838L736.244,242.092L735.929,240.329L735.637,238.509L735.369,236.651L734.996,233.786L734.541,229.883L734.107,225.97L733.779,223.078L733.55,221.181L733.309,219.322L733.051,217.508L732.77,215.75L732.459,214.057L732.116,212.433L731.717,210.927L731.365,209.889L731.114,209.216L730.851,208.568L730.575,207.946L730.286,207.352L729.981,206.788L729.66,206.254L729.321,205.753L728.961,205.289L728.579,204.865L728.175,204.482L727.773,204.165L727.604,204.052C727.582,204.035 727.561,204.019 727.538,204.003L727.284,203.853L726.841,203.664L726.379,203.545L725.903,203.493L725.418,203.501L724.926,203.563L724.429,203.674L723.929,203.83L723.424,204.027L722.915,204.259L722.402,204.525L721.885,204.822L721.362,205.148L720.821,205.511L720.01,206.095L718.923,206.947L717.811,207.885L716.675,208.904L715.517,209.99L714.33,211.095L713.115,212.211L711.876,213.335L710.619,214.463L708.712,216.145L706.146,218.338L704.229,219.911L702.97,220.903L701.731,221.842L700.518,222.715L699.339,223.517L698.199,224.235L697.107,224.861L696.057,225.397L695.304,225.731L694.831,225.913L694.376,226.067L693.939,226.192L693.522,226.289L693.125,226.357L692.747,226.397L692.365,226.408L692.145,226.402L692.189,226.402L691.953,226.385L691.472,226.326L691.027,226.236L690.616,226.117L690.237,225.97L689.891,225.796L689.573,225.598L689.282,225.377L689.017,225.133L688.775,224.868L688.554,224.58L688.355,224.271L688.175,223.94L688.013,223.586L687.869,223.21L687.742,222.812L687.631,222.39L687.537,221.945L687.459,221.478L687.399,221.013L687.334,220.26L687.294,219.15L687.309,217.965L687.375,216.712L687.484,215.401L687.631,214.063L687.917,211.956L688.311,209.044L688.702,206.101L688.992,203.917L689.178,202.478L689.349,201.063L689.488,199.679L689.598,198.329L689.671,197.016L689.691,195.774L689.664,194.89L689.624,194.296L689.564,193.716L689.481,193.15L689.371,192.6L689.244,192.116L689.19,191.952C689.178,191.909 689.165,191.867 689.151,191.826L688.991,191.429L688.683,190.863L688.329,190.382L687.936,189.968L687.508,189.609L687.047,189.294L686.553,189.015L686.029,188.768L685.464,188.57L684.87,188.397L684.246,188.246L683.594,188.115L682.915,188.001L682.206,187.9L681.102,187.776L679.56,187.646L677.959,187.487L676.293,187.349L674.59,187.179L671.977,186.907L669.335,186.578L667.584,186.318L665.859,186.014L664.173,185.667L662.541,185.265L660.977,184.793L659.856,184.395L659.142,184.108L658.454,183.803L657.793,183.478L657.163,183.133L656.564,182.768L656.001,182.378L655.474,181.966L654.984,181.533L654.533,181.078L654.122,180.602L653.753,180.103L653.427,179.584L653.144,179.044L652.906,178.482L652.712,177.898L652.563,177.29L652.458,176.656L652.4,175.994L652.391,175.298L652.43,174.565L652.522,173.791L652.668,172.971L652.882,172.07L653.026,171.554C653.269,170.685 653.008,169.956 652.441,169.926C651.875,169.896 651.218,170.576 650.974,171.446" style="fill-rule:nonzero;"/>
        <path d="M693.43,189.625L693.238,190.009L692.879,190.759L692.567,191.461L692.305,192.111L692.093,192.714L691.928,193.279L691.813,193.812L691.753,194.321L691.758,194.803L691.84,195.243L692.006,195.611L692.244,195.879L692.532,196.045L692.852,196.122L693.196,196.13L693.559,196.083L693.944,195.99L694.351,195.856L694.78,195.686L695.233,195.482L695.709,195.247L696.207,194.983L696.728,194.692L697.27,194.376L697.832,194.036L698.413,193.674L699.315,193.096L700.576,192.264L701.891,191.377L703.249,190.453L704.636,189.504L706.75,188.071L708.866,186.671L710.254,185.78L711.614,184.939L712.931,184.172L713.88,183.651L714.489,183.333L715.084,183.038L715.658,182.769L716.211,182.529L716.739,182.32L717.241,182.143L717.715,182L718.158,181.891L718.569,181.82L718.945,181.788L719.284,181.794L719.584,181.835L719.843,181.912L720.061,182.021L720.239,182.16L720.294,182.222L720.244,182.171L720.35,182.299L720.42,182.472L720.412,182.586L720.383,182.691L720.339,182.827L720.269,183.028L720.159,183.305L720.003,183.651L719.801,184.053L719.556,184.499L719.108,185.24L718.426,186.277L717.69,187.331L716.939,188.378L716.392,189.138L716.039,189.628L715.706,190.101L715.394,190.558L715.106,191.003L714.843,191.445L714.602,191.908L714.378,192.442L714.193,193.149L714.19,194.08L714.575,194.816L715.027,195.034L715.316,195.054L715.555,195.029L715.792,194.978L716.032,194.907L716.28,194.818L716.421,194.763C716.424,194.762 716.427,194.76 716.43,194.759L717.204,194.451L718.681,193.877L720.068,193.37L721.372,192.915L722.593,192.508L723.733,192.15L724.795,191.837L725.779,191.571L726.688,191.351L727.522,191.176L728.283,191.045L728.971,190.955L729.589,190.906L730.137,190.896L730.616,190.923L731.027,190.982L731.371,191.07L731.652,191.18L731.871,191.307L732.035,191.446L732.149,191.588L732.224,191.73L732.269,191.871L732.294,192.014L732.306,192.169L732.309,192.349L732.302,192.564L732.287,192.823L732.257,193.134L732.209,193.5L732.143,193.92L732.055,194.394L731.948,194.917L731.821,195.489L731.602,196.444L731.263,197.843L730.883,199.378L730.483,201.051L730.083,202.847L729.696,204.757L729.348,206.769L729.061,208.871L728.848,211.052L728.74,213.3L728.733,215.048L728.774,216.238L728.851,217.406L728.982,218.57L729.158,219.734L729.381,220.895L729.648,222.055L729.963,223.21L730.326,224.361L730.739,225.506L730.971,226.097C730.98,226.121 730.989,226.144 730.998,226.168L731.098,226.392L731.384,226.943L731.736,227.471L732.134,227.921L732.573,228.29L733.048,228.577L733.553,228.785L734.081,228.915L734.629,228.975L735.191,228.969L735.764,228.903L736.346,228.785L736.936,228.619L737.533,228.41L738.136,228.161L738.746,227.877L739.362,227.56L739.983,227.214L740.915,226.652L742.184,225.817L743.483,224.9L744.795,223.921L746.116,222.895L748.096,221.308L750.721,219.18L752.639,217.64L753.875,216.678L755.072,215.779L756.219,214.961L757.035,214.417L757.554,214.089L758.06,213.786L758.547,213.513L759.012,213.275L759.454,213.072L759.87,212.904L760.26,212.772L760.621,212.677L760.953,212.619L761.253,212.597L761.521,212.613L761.757,212.664L761.962,212.747L762.14,212.858L762.293,212.999L762.426,213.171L762.541,213.379L762.641,213.63L762.721,213.936L762.746,214.077L762.719,213.927L762.74,214.102L762.706,214.139L762.663,214.15L762.584,214.309L762.435,214.605L762.208,215.007L761.888,215.474L761.507,215.997L761.071,216.566L760.589,217.173L760.067,217.81L759.513,218.472L758.63,219.507L757.405,220.926L756.161,222.364L755.238,223.452L754.633,224.182L754.048,224.905L753.485,225.626L752.947,226.346L752.436,227.069L751.953,227.802L751.501,228.563L751.075,229.374L750.683,230.28L750.336,231.343L750.107,232.618L750.106,233.817L750.266,234.628L750.507,235.204L750.818,235.657L751.053,235.895C751.088,235.926 751.124,235.955 751.161,235.982L751.36,236.126L751.927,236.457L752.579,236.725L753.264,236.899L753.976,236.981L754.711,236.985L755.465,236.917L756.235,236.784L757.02,236.592L757.821,236.345L758.637,236.032L759.465,235.668L760.305,235.26L761.158,234.752L762.019,234.02L762.879,233.14L763.736,232.223L764.59,231.27L765.468,230.64L766.359,230.035L767.707,229.085L769.531,227.749L771.378,226.357L773.232,224.913L776.001,222.698L778.732,220.466L780.511,218.995L782.24,217.562L783.908,216.177L785.114,215.183L785.891,214.546L786.648,213.932L787.384,213.355L788.097,212.817L788.784,212.314L789.443,211.848L790.072,211.419L790.668,211.023L791.228,210.671L791.751,210.358L792.232,210.086L792.668,209.857L793.056,209.675L793.39,209.544L793.664,209.462L793.869,209.428L793.994,209.439L794.028,209.479L793.966,209.517L793.824,209.496L793.661,209.37L793.545,209.173L793.486,209.02L793.477,208.891L793.522,208.636L793.498,208.72L793.527,208.525L793.543,208.41L793.492,208.452L793.381,208.596L793.216,208.814L793.004,209.089L792.751,209.41L792.459,209.77L792.133,210.163L791.775,210.588L791.387,211.042L790.973,211.522L790.533,212.027L790.07,212.555L789.586,213.104L788.82,213.966L787.74,215.175L786.606,216.445L785.427,217.769L783.662,219.929L781.304,222.961L779.572,225.323L778.443,226.908L777.36,228.473L776.326,230.025L775.348,231.557L774.648,232.709L774.197,233.484L773.777,234.234L773.377,234.983L772.998,235.729L772.641,236.478L772.307,237.23L771.999,237.991L771.718,238.764L771.469,239.556L771.258,240.37L771.095,241.211L770.993,242.072L770.967,242.943L771.035,243.796L771.207,244.6L771.482,245.317L771.85,245.921L772.291,246.404L772.789,246.77L773.331,247.034L773.908,247.208L774.255,247.275C774.28,247.28 774.306,247.283 774.332,247.287L774.597,247.318L775.22,247.354L775.874,247.331L776.538,247.197L777.199,246.993L777.858,246.716L778.512,246.362L779.157,245.928L779.786,245.415L780.39,244.828L780.961,244.176L781.49,243.47L781.971,242.725L782.393,241.945L782.755,241.147L783.068,240.346L783.334,239.547L783.56,238.752L783.74,237.959L783.887,237.173L784.046,236.029L784.188,234.487L784.281,232.916L784.346,231.33L784.395,229.721L784.424,228.089L784.43,226.442L784.42,224.785L784.388,223.132L784.335,221.492L784.26,219.878L784.169,218.3L784.061,216.77L783.935,215.303L783.796,213.911L783.647,212.602L783.492,211.389L783.331,210.284L783.167,209.298L783.042,208.637L782.958,208.235L782.875,207.872L782.793,207.543L782.709,207.247L782.623,206.984L782.572,206.847C782.566,206.831 782.559,206.816 782.553,206.8L782.421,206.492L782.079,205.849L781.666,205.264L781.199,204.764L780.685,204.342L780.127,203.998L779.53,203.728L778.898,203.528L778.233,203.392L777.54,203.316L776.82,203.296L776.077,203.326L775.312,203.404L774.529,203.525L773.729,203.68L772.913,203.869L772.085,204.093L771.245,204.347L769.977,204.777L768.263,205.413L766.536,206.119L764.822,206.845L763.138,207.571L761.503,208.342L759.946,209.356L758.838,210.129L758.133,210.627L757.458,211.103L756.814,211.553L756.203,211.976L755.628,212.367L755.093,212.725L754.599,213.046L754.149,213.326L753.749,213.563L753.402,213.754L753.115,213.896L752.898,213.985L752.763,214.022L752.733,214.022L752.832,214.038L753.028,214.216L753.137,214.626L753.105,214.943L753.094,214.977L753.175,214.789L753.353,214.444L753.623,213.978L753.88,213.562L754.077,213.253L754.299,212.915L754.542,212.552L754.806,212.165L755.092,211.755L755.399,211.321L755.727,210.863L756.076,210.38L756.447,209.872L756.84,209.339L757.256,208.782L757.694,208.199L758.154,207.591L758.638,206.957L759.144,206.296L759.673,205.609L760.227,204.896L760.512,204.529C760.527,204.512 760.534,204.486 760.527,204.47C760.52,204.454 760.502,204.455 760.488,204.471L760.175,204.778L759.569,205.374L758.988,205.948L758.431,206.5L757.898,207.032L757.388,207.542L756.902,208.033L756.439,208.504L755.998,208.955L755.579,209.386L755.182,209.8L754.807,210.195L754.452,210.573L754.118,210.934L753.804,211.278L753.509,211.606L753.233,211.919L752.973,212.223L752.614,212.657L752.197,213.196L751.834,213.715L751.516,214.255L751.245,214.888L751.085,215.678L751.194,216.443L751.513,216.862L751.855,217.01L752.182,217.04L752.513,217.011L752.866,216.941L753.249,216.838L753.668,216.704L754.124,216.541L754.616,216.351L755.145,216.138L755.709,215.903L756.305,215.649L756.933,215.378L757.589,215.093L758.272,214.797L758.978,214.492L760.075,214.014L761.599,213.301L763.173,212.321L764.786,211.315L766.421,210.371L768.057,209.513L769.682,208.735L770.88,208.231L771.657,207.932L772.419,207.664L773.162,207.431L773.883,207.236L774.58,207.086L775.25,206.978L775.89,206.911L776.499,206.889L777.074,206.913L777.614,206.983L778.115,207.1L778.578,207.266L779.002,207.48L779.386,207.744L779.728,208.064L780.031,208.438L780.307,208.9L780.448,209.2L780.428,209.153L780.449,209.198L780.511,209.363L780.581,209.579L780.656,209.841L780.737,210.146L780.82,210.486L780.95,211.071L781.13,211.977L781.313,213.007L781.495,214.147L781.669,215.387L781.832,216.714L781.982,218.114L782.116,219.575L782.227,221.087L782.308,222.64L782.358,224.218L782.368,225.812L782.335,227.406L782.245,228.992L782.099,230.55L781.886,232.064L781.599,233.51L781.24,234.858L780.824,236.096L780.491,236.932L780.274,237.411L780.06,237.835L779.861,238.206L779.671,238.519L779.494,238.774L779.335,238.97L779.199,239.123L779.09,239.245L778.991,239.338L778.898,239.412L778.801,239.477L778.691,239.539L778.557,239.598L778.393,239.654L778.192,239.701L777.953,239.731L777.674,239.739L777.342,239.762L776.934,239.745L776.668,239.713L776.745,239.725L776.674,239.719L776.498,239.688L776.39,239.663L776.34,239.664L776.333,239.704L776.348,239.793L776.364,239.923L776.367,240.072L776.352,240.205L776.328,240.291L776.309,240.309L776.306,240.247L776.332,240.103L776.391,239.885L776.489,239.597L776.624,239.249L776.797,238.847L777.008,238.398L777.254,237.908L777.533,237.381L777.844,236.822L778.172,236.255L778.725,235.339L779.561,234.023L780.48,232.643L781.467,231.214L782.5,229.761L784.134,227.531L786.367,224.481L788.019,222.201L789.06,220.659L790.073,219.165L791.043,217.73L791.737,216.701L792.182,216.038L792.611,215.395L793.023,214.774L793.417,214.175L793.791,213.599L794.145,213.046L794.477,212.516L794.79,212.01L795.082,211.524L795.354,211.054L795.609,210.592L795.849,210.125L796.08,209.624L796.304,209.038L796.465,208.448L796.478,208.364C796.497,208.278 796.512,208.193 796.523,208.109L796.563,207.621L796.525,206.849L796.327,206.165L795.982,205.678L795.562,205.418L795.128,205.333L794.7,205.366L794.275,205.478L793.845,205.651L793.401,205.876L792.939,206.148L792.454,206.463L791.944,206.819L791.409,207.216L790.847,207.652L790.258,208.125L789.643,208.626L789.002,209.16L788.336,209.72L787.644,210.303L786.928,210.905L786.187,211.519L785.423,212.141L784.638,212.783L783.428,213.777L781.758,215.151L780.034,216.568L778.268,218.006L775.564,220.176L772.822,222.305L771,223.669L769.196,224.976L767.416,226.195L766.106,227.047L765.252,227.581L764.411,228.037L763.574,228.109L762.77,228.154L762.002,228.17L761.272,228.261L760.574,228.501L759.905,228.761L759.27,228.98L758.671,229.162L758.107,229.319L757.582,229.432L757.099,229.504L756.658,229.536L756.262,229.53L755.909,229.489L755.596,229.422L755.322,229.326L755.038,229.167L754.839,229.018L754.947,229.105L755.079,229.251L755.221,229.496L755.338,229.829L755.419,230.363L755.378,231.089L755.238,231.625L755.132,231.834L755.121,231.782L755.205,231.535L755.38,231.15L755.63,230.657L755.948,230.081L756.321,229.437L756.742,228.738L757.201,227.995L757.689,227.218L758.474,225.992L759.572,224.284L760.681,222.55L761.488,221.257L762.012,220.398L762.514,219.551L762.991,218.718L763.439,217.899L763.853,217.096L764.231,216.304L764.591,215.526L764.907,214.727L765.161,213.885L765.307,212.998L765.305,212.247L765.281,212.073C765.274,212.022 765.265,211.972 765.254,211.923L765.169,211.575L764.982,210.997L764.75,210.482L764.472,210.041L764.151,209.675L763.792,209.386L763.402,209.172L762.986,209.028L762.547,208.949L762.092,208.927L761.621,208.956L761.135,209.033L760.635,209.154L760.122,209.314L759.595,209.512L759.056,209.743L758.505,210.004L757.941,210.291L757.366,210.605L756.773,210.948L755.87,211.501L754.64,212.296L753.378,213.153L752.088,214.059L750.13,215.461L747.504,217.358L745.557,218.728L744.295,219.587L743.071,220.386L741.897,221.109L740.772,221.745L739.97,222.157L739.47,222.391L738.992,222.595L738.539,222.768L738.114,222.909L737.716,223.018L737.349,223.095L737.012,223.14L736.708,223.156L736.436,223.143L736.194,223.105L735.981,223.043L735.793,222.96L735.626,222.854L735.477,222.724L735.342,222.563L735.219,222.366L735.088,222.074L735.002,221.832L735.029,221.903L734.873,221.406L734.581,220.375L734.333,219.355L734.127,218.345L733.958,217.347L733.826,216.36L733.723,215.386L733.648,214.425L733.588,213.482L733.554,212.577L733.547,211.218L733.621,209.392L733.769,207.595L733.987,205.827L734.253,204.09L734.557,202.388L734.889,200.72L735.229,199.09L735.561,197.499L735.874,195.962L736.082,194.848L736.204,194.106L736.31,193.371L736.398,192.643L736.463,191.92L736.5,191.203L736.504,190.493L736.465,189.794L736.376,189.117L736.231,188.471L736.027,187.869L735.763,187.326L735.442,186.851L735.069,186.452L734.649,186.129L734.189,185.879L733.69,185.697L733.154,185.577L732.579,185.519L731.963,185.515L731.303,185.564L730.597,185.664L729.841,185.814L729.031,186.014L728.165,186.264L727.239,186.565L726.25,186.917L725.197,187.32L724.074,187.776L722.881,188.286L721.613,188.851L720.27,189.473L718.848,190.147L717.348,190.863L716.57,191.241L716.579,191.237L716.511,191.272L716.377,191.335L716.28,191.378L716.223,191.404L716.211,191.419L716.291,191.444L716.503,191.607L716.699,192.157L716.647,192.779L716.541,193.065L716.515,193.073L716.577,192.913L716.713,192.643L716.909,192.296L717.153,191.889L717.437,191.434L717.753,190.94L718.281,190.138L719.037,188.985L719.812,187.765L720.555,186.519L721.067,185.582L721.388,184.941L721.681,184.291L721.938,183.628L722.147,182.948L722.291,182.252L722.346,181.559L722.288,180.91L722.113,180.355L721.867,179.951L721.756,179.829C721.74,179.811 721.724,179.794 721.706,179.778L721.523,179.625L721.171,179.41L720.788,179.263L720.377,179.178L719.942,179.148L719.484,179.17L719.003,179.237L718.501,179.345L717.979,179.49L717.436,179.673L716.874,179.89L716.294,180.138L715.697,180.417L715.084,180.724L714.455,181.056L713.808,181.415L712.819,181.992L711.466,182.826L710.08,183.714L708.669,184.649L706.541,186.102L704.427,187.572L703.045,188.534L701.699,189.466L700.402,190.352L699.164,191.176L698.282,191.746L697.722,192.098L697.185,192.426L696.672,192.728L696.186,193.002L695.729,193.245L695.304,193.456L694.912,193.634L694.556,193.777L694.241,193.884L693.97,193.954L693.746,193.991L693.574,194L693.454,193.99L693.379,193.976L693.335,193.97L693.302,193.965L693.272,193.929L693.255,193.829L693.265,193.645L693.316,193.371L693.416,193.011L693.57,192.567L693.779,192.044L694.046,191.445L694.376,190.759L694.57,190.375C694.85,189.818 694.822,189.199 694.508,188.991C694.193,188.784 693.711,189.068 693.43,189.625" style="fill-rule:nonzero;"/>
        <path d="M750.587,190.196L750.103,190.164L749.143,190.145L748.196,190.18L747.26,190.253L745.869,190.406L744.008,190.618L743.067,190.697C742.954,190.706 742.832,190.85 742.795,191.017C742.758,191.185 742.82,191.313 742.933,191.303L743.883,191.224L745.743,191.012L747.125,190.86L748.049,190.787L748.981,190.753L749.929,190.771L750.413,190.804C750.522,190.811 750.649,190.681 750.697,190.513C750.745,190.346 750.696,190.204 750.587,190.196" style="fill-rule:nonzero;"/>
        <path d="M909,504.5C905.676,516.695 897.376,528.882 900,542C902.406,554.032 912.974,551.711 918.5,560C919.906,562.11 920.075,565.688 921,568C924.297,576.242 924.624,585.237 925.5,594C925.633,595.327 925.335,596.677 925.5,598C925.687,599.498 925.704,601.02 926,602.5C926.434,604.668 927.634,606.803 928,609C928.164,609.986 927.606,611.081 928,612C928.981,614.288 932.187,614.67 934.5,615C934.995,615.071 935.553,614.776 936,615C938.149,616.075 938.356,618.785 939.5,620.5C939.892,621.088 940.608,621.412 941,622C941.62,622.93 942,624 942.5,625C943.877,627.754 943.474,631.33 945,634C945.413,634.724 946.127,635.255 946.5,636C947.335,637.669 947.643,639.787 948.5,641.5C950.52,645.54 954.691,650.384 959,652C961.992,653.122 965.853,652.5 969,652.5" style="fill-opacity:0;fill-rule:nonzero;stroke:black;stroke-width:3.5px;"/>
        <path d="M952.5,480.5C952.115,491.103 946.5,501.126 942,510.5C940.047,514.569 936.017,518.811 937.5,524C938.338,526.934 944.596,528.298 946,529C947.935,529.968 950.145,531.876 952.5,532C952.724,532.012 962.68,531.455 964.5,531C965.223,530.819 965.774,530.168 966.5,530C970.308,529.121 974.722,528.87 978.5,529.5C980.958,529.91 983.988,533.159 986,534.5" style="fill-opacity:0;fill-rule:nonzero;stroke:black;stroke-width:3.5px;"/>
        <path d="M935.5,584.5C938.652,582.551 942.798,582.202 945.5,579.5C945.985,579.015 947.912,575 948.5,575C951.656,575 948.93,579.331 953.5,578.5C958.078,577.668 954.941,577.686 958.5,576.5C962.52,575.16 966.838,575.5 971,575.5C972.167,575.5 973.551,574.822 974.5,575.5C980.039,579.457 974.577,576.471 977,579.5C978.487,581.359 986.321,582.928 989,584C995.891,586.757 1000.24,590 1008,590C1009.33,590 1010.7,590.279 1012,590C1016.74,588.985 1019.23,584.071 1021.5,580.5" style="fill-opacity:0;fill-rule:nonzero;stroke:black;stroke-width:3.5px;"/>
        <path d="M930.5,579.5C930.893,574.276 928.5,575.391 928.5,579" style="fill-opacity:0;fill-rule:nonzero;stroke:black;stroke-width:3.5px;"/>
        <path d="M952.5,596C969.714,601.738 962.23,601 974.5,601" style="fill-opacity:0;fill-rule:nonzero;stroke:black;stroke-width:3.5px;"/>
        <path d="M956,594C967.492,600.713 972.54,605.046 985.5,603C990.818,602.16 990.498,601.857 995.5,601.5C996.331,601.441 997.167,601.5 998,601.5C998.5,601.5 999.071,601.243 999.5,601.5C1000.8,602.28 1001.13,604.963 1004.5,604C1006.73,603.363 1007.66,599.506 1009,598C1010.22,596.631 1016.43,594.691 1018.5,594" style="fill-opacity:0;fill-rule:nonzero;stroke:black;stroke-width:3.5px;"/>
        <path d="M958,595.5C968.315,597.741 978.562,594.051 989,595C989.846,595.077 990.654,595.423 991.5,595.5C994.637,595.785 997.859,595.276 1001,595.5C1004.06,595.719 1006.93,597.23 1010,596C1011.68,595.329 1012.98,593.27 1014,592" style="fill-opacity:0;fill-rule:nonzero;stroke:black;stroke-width:3.5px;"/>
        <path d="M996,455.5C997.333,456.333 998.496,457.542 1000,458C1007.17,460.183 1005.5,458.583 1010.5,459C1011.82,459.11 1018.14,460.424 1018.5,460.5C1029.31,462.775 1041.75,469.572 1052.5,463C1055.21,461.346 1057.47,458.367 1059.5,456" style="fill-opacity:0;fill-rule:nonzero;stroke:black;stroke-width:3.5px;"/>
        <path d="M940,451.5C937.667,452.167 935.383,453.042 933,453.5C928.613,454.344 910.995,454.957 907.5,452C905.043,449.921 904.707,446.827 904,444" style="fill-opacity:0;fill-rule:nonzero;stroke:black;stroke-width:3.5px;"/>
        <path d="M909,454.5C906.467,456.4 907,455.167 907,458" style="fill-opacity:0;fill-rule:nonzero;stroke:black;stroke-width:3.5px;"/>
        <path d="M930.5,453L927,456.5" style="fill:none;fill-rule:nonzero;stroke:black;stroke-width:3.5px;"/>
        <path d="M933,457C928.963,460.46 930.587,458.913 928,461.5" style="fill-opacity:0;fill-rule:nonzero;stroke:black;stroke-width:3.5px;"/>
        <path d="M902.5,458C900.667,458.167 898.833,458.333 897,458.5" style="fill-opacity:0;fill-rule:nonzero;stroke:black;stroke-width:3.5px;"/>
        <path d="M907.5,455.5C898.167,455.5 901.267,457.2 897,454" style="fill-opacity:0;fill-rule:nonzero;stroke:black;stroke-width:3.5px;"/>
        <path d="M1020.5,459C1030.8,468.698 1026.38,464.121 1034,472.5" style="fill-opacity:0;fill-rule:nonzero;stroke:black;stroke-width:3.5px;"/>
        <path d="M1056.5,464.5C1057.09,469.206 1060.48,468.086 1064,467.5" style="fill-opacity:0;fill-rule:nonzero;stroke:black;stroke-width:3.5px;"/>
        <path d="M1071,461.5L1074,464" style="fill:none;fill-rule:nonzero;stroke:black;stroke-width:3.5px;"/>
        <path d="M935.5,414.5C932.167,414.5 928.827,414.292 925.5,414.5C923.476,414.626 921.5,415.167 919.5,415.5C917.701,415.8 913.335,416.167 916,417.5C917.378,418.189 920.727,415.296 922.5,415C932.981,413.253 945.643,410.541 956,413.5" style="fill-opacity:0;fill-rule:nonzero;stroke:black;stroke-width:3.5px;"/>
        <path d="M1021.5,416C1026.33,416.667 1031.24,416.952 1036,418C1043.66,419.685 1046.28,420.993 1052,425C1054.62,426.836 1056.64,429.568 1059.5,431C1060.1,431.298 1060.83,431 1061.5,431" style="fill-opacity:0;fill-rule:nonzero;stroke:black;stroke-width:3.5px;"/>
        <path d="M966.5,346C973.373,340.415 973.83,338.728 982,336.5C989.105,334.562 990.571,341.851 991,347C991.055,347.664 991,348.333 991,349C991,349.5 991.354,350.146 991,350.5C990.514,350.986 989.682,350.915 989,351C988.339,351.083 987.667,351 987,351C986.5,351 985.276,351.447 985.5,351C985.85,350.301 996.264,345.262 997.5,345C1017.87,340.68 1034.52,346.77 1054,352.5" style="fill-opacity:0;fill-rule:nonzero;stroke:black;stroke-width:3.5px;"/>
        <path d="M968,349.5C973.833,347.667 979.493,345.141 985.5,344C992.734,342.626 1000.15,342.477 1007.5,342C1030.74,340.491 1054.73,343.148 1077,350" style="fill-opacity:0;fill-rule:nonzero;stroke:black;stroke-width:3.5px;"/>
        <path d="M1037.5,345C1046.5,342.667 1055.26,339.005 1064.5,338C1081.38,336.165 1097.84,344.101 1111,353.5C1117.29,357.995 1124.71,367.904 1129.5,373C1131.04,374.634 1132.83,376 1134.5,377.5" style="fill-opacity:0;fill-rule:nonzero;stroke:black;stroke-width:3.5px;"/>
        <path d="M1067.5,352C1097.83,363.238 1118.84,369.166 1135.5,398C1137.44,401.357 1139.31,404.812 1140.5,408.5C1141.8,412.505 1141.01,422.068 1141.5,427" style="fill-opacity:0;fill-rule:nonzero;stroke:black;stroke-width:3.5px;"/>
        <path d="M1113.5,383C1108.12,380.854 1103.12,377.606 1099.5,373C1098.39,371.582 1097.68,369.862 1096.5,368.5C1095.49,367.339 1094.09,366.587 1093,365.5C1087.86,360.361 1087.32,357.44 1080,355" style="fill-opacity:0;fill-rule:nonzero;stroke:black;stroke-width:3.5px;"/>
        <path d="M1070,361.5C1086.64,366.46 1094.66,366.266 1103,382.5C1109.66,395.478 1108.31,407.653 1106.5,421.5C1105.18,431.602 1102.4,443.407 1107.5,453C1112.29,462.025 1120.33,469.032 1128,475.5C1134.8,481.236 1136.32,483.955 1144.5,486C1150.75,487.562 1159.51,486.5 1166,486.5C1167.17,486.5 1168.34,486.583 1169.5,486.5C1170.68,486.416 1171.88,485.627 1173,486C1176.84,487.278 1179.26,499.064 1181,502C1185.37,509.364 1189.8,512.667 1196,518.5" style="fill-opacity:0;fill-rule:nonzero;stroke:black;stroke-width:3.5px;"/>
        <path d="M1119.5,371C1149.71,397.724 1139.13,388.925 1168,412.5C1178.07,420.726 1181.52,422.276 1191,435.5C1201.52,450.183 1202.19,475.63 1204,492.5C1205.18,503.517 1206.91,514.473 1208,525.5C1209.28,538.484 1209,540.622 1209,553" style="fill-opacity:0;fill-rule:nonzero;stroke:black;stroke-width:3.5px;"/>
        <path d="M1107.5,525.5L1110,521.5" style="fill:none;fill-rule:nonzero;stroke:black;stroke-width:3.5px;"/>
        <path d="M1124.5,505C1126.5,504.833 1128.52,504.179 1130.5,504.5C1140.92,506.19 1151.44,507.805 1161.5,511C1162.05,511.176 1162.07,516.982 1162,517.5C1161.81,518.861 1161.62,520.271 1161,521.5C1160.26,522.991 1158.94,524.123 1158,525.5C1147.5,540.906 1160.21,523.549 1147.5,540.5C1146,542.5 1144.48,544.482 1143,546.5C1138.87,552.156 1137.76,552.984 1135.5,559C1135.2,559.796 1134.4,560.899 1135,561.5C1135.83,562.333 1137.33,561.833 1138.5,562" style="fill-opacity:0;fill-rule:nonzero;stroke:black;stroke-width:3.5px;"/>
        <path d="M1174,461.5C1180.17,465.333 1187.22,468.014 1192.5,473C1204.42,484.261 1202.86,502.316 1205,517C1207.38,533.363 1211.15,549.486 1212.5,566C1213.65,580.035 1211.7,582.707 1215.5,596" style="fill-opacity:0;fill-rule:nonzero;stroke:black;stroke-width:3.5px;"/>
        <path d="M1155.5,616C1162.7,633.446 1163.18,652.175 1166,670.5C1166.7,675.023 1167.08,679.651 1168.5,684C1173.57,699.482 1188.78,722.882 1202,732.5C1204.96,734.652 1208.33,736.167 1211.5,738" style="fill-opacity:0;fill-rule:nonzero;stroke:black;stroke-width:3.5px;"/>
        <path d="M1190,617C1196.6,631.076 1204.84,675.735 1221,687C1223.39,688.664 1226.67,688.333 1229.5,689" style="fill-opacity:0;fill-rule:nonzero;stroke:black;stroke-width:3.5px;"/>
        <path d="M996.5,652C1004.9,653.345 1010.27,655.316 1018.5,653C1020.87,652.334 1022.82,650.633 1025,649.5C1032.36,645.683 1031.46,646.232 1039,643" style="fill-opacity:0;fill-rule:nonzero;stroke:black;stroke-width:3.5px;"/>
        <path d="M684,675.5C679.333,677.667 674.227,679.067 670,682C662.284,687.354 655.078,696.3 654,706C653.834,707.491 654,709 654,710.5C654,714.833 653.904,719.168 654,723.5C654.292,736.661 655.148,741.959 652,753.5" style="fill-opacity:0;fill-rule:nonzero;stroke:black;stroke-width:3.5px;"/>
        <path d="M638,654.5C628.407,664.494 610.385,681.927 598,687.5C588.487,691.781 597.225,687.944 589,690C583.388,691.403 578.74,695.871 575.5,700.5C573.115,703.907 573.149,707.285 574.5,711C575.515,713.791 576.687,717.892 579.5,719.5C580.097,719.841 580.868,719.729 581.5,720C584.986,721.494 588.026,723.639 592,724C592.83,724.075 593.673,723.897 594.5,724C599.765,724.658 592.351,724.5 597.5,724.5" style="fill-opacity:0;fill-rule:nonzero;stroke:black;stroke-width:3.5px;"/>
        <path d="M677,659C681.974,661.205 687.234,662.684 692.5,664C693.324,664.206 694.17,664.316 695,664.5C695.671,664.649 696.514,665.486 697,665C697.425,664.575 696.058,664.223 695.5,664C689.155,661.462 683.156,662.52 677.5,660.5C675.308,659.717 673.369,658.023 674,655.5C674.181,654.777 674.667,652.833 675,653.5C675.453,654.407 674.681,655.503 674.5,656.5C673.745,660.651 674.574,661.93 678.5,663.5" style="fill-opacity:0;fill-rule:nonzero;stroke:black;stroke-width:3.5px;"/>
        <path d="M614.5,637C606.821,637 610.145,637.306 604.5,636.5" style="fill-opacity:0;fill-rule:nonzero;stroke:black;stroke-width:3.5px;"/>
        <path d="M629,651.5C626.255,651.5 627.596,651.798 625,650.5" style="fill-opacity:0;fill-rule:nonzero;stroke:black;stroke-width:3.5px;"/>
        <path d="M672,667.5C672.167,668.667 672.333,669.833 672.5,671" style="fill-opacity:0;fill-rule:nonzero;stroke:black;stroke-width:3.5px;"/>
        <path d="M571,668.5C569.723,669.595 566.195,672.463 565,674C560.427,679.88 558.551,691.324 559,698.5C559.287,703.099 560.5,707.383 560.5,712" style="fill-opacity:0;fill-rule:nonzero;stroke:black;stroke-width:3.5px;"/>
        <path d="M553.5,752.5C555.001,762.658 547.011,769.96 544.5,779C541.617,789.38 542.718,795.655 546,805.5C546.734,807.702 547.151,810.111 548.5,812C549.741,813.737 551.833,814.667 553.5,816" style="fill-opacity:0;fill-rule:nonzero;stroke:black;stroke-width:3.5px;"/>
        <path d="M567,754.5C573.663,749.232 561.373,761.494 561.5,762C561.863,763.451 565.437,760.968 566.5,761.5C568.456,762.478 568.511,767.005 572,768.5C579.154,771.566 582.848,769.475 589,770.5C590.04,770.673 590.956,771.351 592,771.5C593.155,771.665 594.349,771.308 595.5,771.5C599.065,772.094 598.671,776.602 601,778C603.675,779.605 601.394,776.349 604,777C604.511,777.128 604.078,778.184 604.5,778.5C605.878,779.533 606.879,777.034 609.5,779C610.242,779.557 611.412,781.953 613,781C615.629,779.423 611.978,776.978 611,776" style="fill-opacity:0;fill-rule:nonzero;stroke:black;stroke-width:3.5px;"/>
        <path d="M591.5,777C586.942,774.487 579.658,775.737 576.5,771C576.002,770.253 575.976,769.261 575.5,768.5C574.75,767.301 573.284,766.677 572.5,765.5C572.208,765.061 571.833,763.5 572,764C575.763,775.288 582.315,775.072 593,777.5C598.779,778.813 599.697,779.773 605,777.5" style="fill-opacity:0;fill-rule:nonzero;stroke:black;stroke-width:3.5px;"/>
        <path d="M681,564C659.605,562.398 648.308,563.202 630,573.5C626.212,575.631 622.36,577.743 619,580.5C615.81,583.117 612.68,585.996 610.5,589.5C602.516,602.331 601.282,622.347 606,636.5C606.559,638.178 620.46,660.624 624,658.5C624.589,658.146 624.5,657.187 624.5,656.5C624.5,647.995 623.814,648.832 620,640C616.557,632.027 608.63,618.352 610.5,609C611.144,605.781 612.458,602.571 614.5,600C618.389,595.103 634.172,584.885 638.5,583C643.727,580.724 649.32,578.987 655,578.5C677.762,576.549 698.961,587.961 714.5,603.5C718.234,607.234 719.5,607.406 719.5,612C719.5,614.074 719.167,615.593 716.5,615C712.426,614.095 712.729,607.594 712,606.5C711.708,606.061 710.939,607.292 710.5,607C710.188,606.792 711,602.079 711,601C711,598.494 710.875,595.977 710.5,593.5C708.321,579.119 702.244,561.802 685,561C671.066,560.352 657.919,568.733 646.5,575.5C632.933,583.54 610.5,597.589 610.5,616C610.5,619.274 612.167,622.333 613,625.5" style="fill-opacity:0;fill-rule:nonzero;stroke:black;stroke-width:3.5px;"/>
        <path d="M646.5,569C639.5,569.167 632.283,567.763 625.5,569.5C604.054,574.992 593.349,591.857 583.5,610C580.022,616.408 576.597,622.511 574.5,629.5" style="fill-opacity:0;fill-rule:nonzero;stroke:black;stroke-width:3.5px;"/>
        <path d="M728.5,629.5C729.333,636 731.43,642.461 731,649C729.936,665.172 720.367,677.66 710.5,689.5" style="fill-opacity:0;fill-rule:nonzero;stroke:black;stroke-width:3.5px;"/>
        <path d="M729.5,637C735.581,668.51 736.381,659.87 733.5,689.5C733.108,693.536 732.062,697.484 731.5,701.5C730.505,708.61 729.5,716.238 729.5,723.5" style="fill-opacity:0;fill-rule:nonzero;stroke:black;stroke-width:3.5px;"/>
        <path d="M748.5,665.5C749,672.167 749.5,678.833 750,685.5" style="fill-opacity:0;fill-rule:nonzero;stroke:black;stroke-width:3.5px;"/>
        <path d="M799.5,665.5C800.833,670 802.744,674.368 803.5,679C807.225,701.817 804.383,684.47 802.5,692C802.174,693.304 802.601,694.798 802,696C801.394,697.212 801.5,693.774 801.5,690C801.5,685.383 801.823,674.691 803.5,670.5C804.171,668.821 806.23,667.516 807.5,666.5" style="fill-opacity:0;fill-rule:nonzero;stroke:black;stroke-width:3.5px;"/>
        <path d="M817,668C844.131,653.105 837.247,650.19 866,657.5C868.33,658.092 870.383,659.721 872,661.5C884.375,675.112 886.554,688.947 887,707C887.45,725.243 884.734,746.565 873,761.5C859.759,778.353 838.92,786.509 819.5,793.5C819.175,793.617 801.999,800.421 798.5,799.5C793.785,798.259 795.807,792.004 796,789.5" style="fill-opacity:0;fill-rule:nonzero;stroke:black;stroke-width:3.5px;"/>
        <path d="M819.5,687C828.935,678.096 850.062,660.763 865,667.5C875.25,672.122 878.263,691.182 880,699C884.445,719.002 885.456,735.72 877,755C875.567,758.266 873.261,761.241 870.5,763.5C865.81,767.337 860.461,770.374 855,773C851.719,774.577 848.123,775.652 844.5,776C828.847,777.505 829.694,775.154 815.5,771C806.345,768.321 810.877,771.283 806.5,768" style="fill-opacity:0;fill-rule:nonzero;stroke:black;stroke-width:3.5px;"/>
        <path d="M810.5,680C809.49,676.97 805.173,667.138 817.5,670.5C835.932,675.527 853.929,683.168 870,693.5C873.775,695.927 873.16,702.025 873.5,706.5C875.329,730.577 871.201,747.666 859.5,768.5C858.603,770.098 848.51,785.616 843.5,790C842.489,790.885 841.167,791.333 840,792" style="fill-opacity:0;fill-rule:nonzero;stroke:black;stroke-width:3.5px;"/>
        <path d="M793,670.5C785.19,662.787 779.16,653.639 772.5,645C769.099,640.588 765.414,636.402 762,632C754.482,622.306 755.244,621.744 748,614.5C745.809,612.309 741.228,607.386 739,608.5C736.768,609.616 737.412,617.384 737.5,618C738.19,622.834 739.382,631.382 743.5,635.5C748.637,640.638 753.617,640.486 760,643.5C767.651,647.113 774.965,652.31 782,657" style="fill-opacity:0;fill-rule:nonzero;stroke:black;stroke-width:3.5px;"/>
        <path d="M776,669C771.697,661.68 762.547,648.033 755.5,643C755.223,642.802 748.675,638.43 747,641.5C744.976,645.21 750.623,653.214 751.5,654.5C760.299,667.405 760.119,666.354 770,675" style="fill-opacity:0;fill-rule:nonzero;stroke:black;stroke-width:3.5px;"/>
        <path d="M725,721C728.167,720 731.181,717.902 734.5,718C737.258,718.081 739.755,719.896 742,721.5C743.95,722.893 746.29,726.815 745.5,729.5C743.867,735.051 731.409,745.461 726.5,748.5C724.916,749.481 723.167,750.167 721.5,751C720.167,751.667 718.638,752.037 717.5,753C713.906,756.041 714.417,759.918 715,764" style="fill-opacity:0;fill-rule:nonzero;stroke:black;stroke-width:3.5px;"/>
        <path d="M711,758.5C709.5,757.5 708,756.5 706.5,755.5" style="fill-opacity:0;fill-rule:nonzero;stroke:black;stroke-width:3.5px;"/>
        <path d="M589,830C592.333,831 595.609,832.217 599,833C602.124,833.721 605.39,833.722 608.5,834.5C612.979,835.62 620.551,840.4 625.5,839.5C633.107,838.117 639.969,832.81 646.5,829" style="fill-opacity:0;fill-rule:nonzero;stroke:black;stroke-width:3.5px;"/>
        <path d="M615.5,647.5C614.292,648.894 605.795,642.705 605,643.5C604.514,643.986 604.928,645.119 605.5,645.5C606.917,646.445 613.653,645.116 615.5,644.5" style="fill-opacity:0;fill-rule:nonzero;stroke:black;stroke-width:3.5px;"/>
        <path d="M607,643C604.167,643.667 601.379,644.573 598.5,645C596.851,645.244 594.991,645.745 593.5,645C592.833,644.667 593.88,643.413 594.5,643C594.91,642.727 610.112,643.626 612,643.5C613.888,643.374 616.31,643.056 618,642C618.6,641.625 620,641 619.5,640.5C619.356,640.356 614.145,643.618 611.5,644.5" style="fill-opacity:0;fill-rule:nonzero;stroke:black;stroke-width:3.5px;"/>
        <path d="M674,665.5C666.083,673.223 679.691,665.155 681,664.5" style="fill-opacity:0;fill-rule:nonzero;stroke:black;stroke-width:3.5px;"/>
        <path d="M249.5,524.5C234.238,547.691 219.931,571.73 209.5,597.5C208.926,598.919 201.235,614.382 206,616.5C211.004,618.724 233.836,606.659 237.5,605C241.986,602.969 246.478,600.951 251,599C254.979,597.284 259.141,595.971 263,594C272.334,589.234 275.542,586.19 283.5,580" style="fill-opacity:0;fill-rule:nonzero;stroke:black;stroke-width:3.5px;"/>
        <path d="M173.5,517.5C172.771,517.5 169.868,516.868 172,519C174.758,521.758 180.477,522.577 184,523C190.999,523.84 197.674,523.95 204.5,522C206.882,521.319 209.124,520.204 211.5,519.5C213.632,518.868 215.859,518.6 218,518C220.03,517.432 221.973,516.579 224,516C227.962,514.868 232.096,514.801 236,513.5" style="fill-opacity:0;fill-rule:nonzero;stroke:black;stroke-width:3.5px;"/>
        <path d="M285.5,522C302.682,520.475 319.819,521.5 337,521.5C345.659,521.5 355.875,521.075 363.5,516.5" style="fill-opacity:0;fill-rule:nonzero;stroke:black;stroke-width:3.5px;"/>
        <path d="M205.5,482C206.833,481.5 208.093,480.283 209.5,480.5C216.145,481.522 223.227,486.621 229.5,489C232.112,489.991 234.796,490.799 237.5,491.5C240.007,492.15 245.238,492.959 245.5,492.5C248.35,487.512 228.27,477.759 225.5,476.5C218.792,473.451 212.278,472.383 205,472C203.669,471.93 202.315,471.781 201,472C200.265,472.123 199.667,473.333 199,473C197.629,472.314 197.253,463.325 190.5,464C183.543,464.696 180.354,472.911 174,474.5C172.868,474.783 171.622,474.82 170.5,474.5C165.539,473.083 170.453,466.992 164.5,466C157.541,464.84 151.76,470.122 145.5,472C138.374,474.138 130.665,474.393 123.5,476.5C121.445,477.104 118.465,478.758 118.5,479C118.651,480.056 119.646,480.86 120.5,481.5C121.05,481.912 121.822,481.887 122.5,482C123.825,482.221 125.182,482.764 126.5,482.5C130.804,481.639 136.396,474.903 140,472.5C142.993,470.505 146.443,470.146 149.5,468.5C155.769,465.125 159.812,458.926 166.5,456C168.229,455.244 175.188,453.671 177,454C179.655,454.483 180.234,458.455 182,460C184.549,462.23 188.009,462.304 191,463.5C192.384,464.054 193.586,465.029 195,465.5C200.872,467.457 206.991,466.538 213,467C221.974,467.69 231.962,469.962 238.5,476.5" style="fill-opacity:0;fill-rule:nonzero;stroke:black;stroke-width:3.5px;"/>
        <path d="M291,484.5C303.525,479.697 316.356,463.605 331,465C337.303,465.6 339.491,471.998 345.5,473.5C350.264,474.691 356.563,471.205 360.5,475.5C361.81,476.93 363.462,482.585 364.5,484C368.955,490.075 382.947,493.473 390,497" style="fill-opacity:0;fill-rule:nonzero;stroke:black;stroke-width:3.5px;"/>
        <path d="M203,536C203.5,534.333 204.367,532.735 204.5,531C204.96,525.018 196.92,537.516 202,536.5C203.462,536.208 203,532.965 203,532.5C203,532 203.224,530.553 203,531C200.992,535.016 204.19,532.373 201,534.5" style="fill-opacity:0;fill-rule:nonzero;stroke:black;stroke-width:3.5px;"/>
        <path d="M193.5,533C185.372,538.582 196.836,534.84 195.5,531.5C193.771,527.178 192.228,537.139 192.5,538.5C192.86,540.298 196.015,544.134 197.5,545C198.376,545.511 199.486,545.5 200.5,545.5C205.918,545.5 206.16,539.422 206.5,535C206.564,534.169 206.5,533.333 206.5,532.5C206.5,532 206.89,531.312 206.5,531C202.408,527.726 190.828,536.071 193,541.5C194.419,545.048 200.532,544.346 203,543C205.864,541.438 203.181,536.089 202.5,534.5" style="fill-opacity:0;fill-rule:nonzero;stroke:black;stroke-width:3.5px;"/>
        <path d="M310.5,537.5C309.485,538.007 307.206,538.514 308,540.5C308.282,541.204 317.921,541.553 316.5,538C315.737,536.093 313.006,538.991 313,539C312.415,539.877 312.149,540.956 312,542C311.353,546.528 312.164,547.712 316.5,548.5C317.156,548.619 317.904,548.798 318.5,548.5C322.827,546.337 320.499,540.5 326.5,540.5" style="fill-opacity:0;fill-rule:nonzero;stroke:black;stroke-width:3.5px;"/>
        <path d="M202.5,665.5C209.5,665.667 216.527,666.634 223.5,666C278.704,660.981 232.196,663.074 251.5,660.5C260.81,659.259 260.01,659.773 268,659C274.436,658.377 276.303,658.665 281.5,656.5C282.055,656.269 283,656.101 283,655.5C283,654.039 280.623,655.397 277,656.5C269.491,658.785 261.882,660 254,660C244.772,660 236.241,657.141 227,658.5C219.683,659.576 212.075,663.342 204.5,662.5C201.719,662.191 200.265,659.258 198,658C189.808,653.449 186.5,654.003 186.5,642.5L186.5,639.5C186.5,639 186.2,638.4 186.5,638C187.257,636.991 188.743,637.676 189.5,638C197.564,641.456 200.48,653.179 206.5,659.5C221.132,674.863 232.602,663.982 249,661C254.232,660.049 259.784,660.186 265,659C266.922,658.563 271.713,656.471 273,655C273.9,653.972 269.854,651.066 269.5,650.5C269.024,649.739 269.201,648.561 268.5,648C267.542,647.234 265.763,650.158 263,652C258.551,654.966 237.133,666.384 236,667C225.136,672.909 213.402,680.5 200.5,680.5C198.744,680.5 192.555,678.114 193,675C193.361,672.47 197.109,673 198.5,673C200.673,673 202.861,673.118 205,673.5C207.609,673.966 225.5,679.596 225.5,673C225.5,666.651 216.164,661.056 211.5,663C207.538,664.651 208.098,670.858 210.5,673.5C215.487,678.985 226.295,675.835 232.5,676.5C241.802,677.497 237.138,678.228 246,680C249.285,680.657 252.689,680.491 256,681C259.34,681.514 262.97,683.814 266,681C270.018,677.269 273.322,669.321 276,664.5C276.122,664.28 278.754,659.541 279,659.5C279.735,659.377 280.283,660.295 281,660.5C283.928,661.336 286.604,655.333 281.5,663.5" style="fill-opacity:0;fill-rule:nonzero;stroke:black;stroke-width:3.5px;"/>
        <path d="M194.5,622C192,624 189.5,626 187,628" style="fill-opacity:0;fill-rule:nonzero;stroke:black;stroke-width:3.5px;"/>
        <path d="M192.5,626C184.463,629.422 177.016,638.5 168,638.5" style="fill-opacity:0;fill-rule:nonzero;stroke:black;stroke-width:3.5px;"/>
        <path d="M195,640C182.666,647.141 189.039,644.569 176,648" style="fill-opacity:0;fill-rule:nonzero;stroke:black;stroke-width:3.5px;"/>
        <path d="M172,626.5C168.5,629 165,631.5 161.5,634" style="fill-opacity:0;fill-rule:nonzero;stroke:black;stroke-width:3.5px;"/>
        <path d="M174.5,629C165.741,636.592 169.647,633.515 163,638.5" style="fill-opacity:0;fill-rule:nonzero;stroke:black;stroke-width:3.5px;"/>
        <path d="M196,634.5C189.675,642.722 192.468,638.694 187.5,646.5" style="fill-opacity:0;fill-rule:nonzero;stroke:black;stroke-width:3.5px;"/>
        <path d="M210.5,636.5C206.201,641.681 201.76,646.74 197,651.5" style="fill-opacity:0;fill-rule:nonzero;stroke:black;stroke-width:3.5px;"/>
        <path d="M221,628.5C216.037,635.296 209.721,640.901 203.5,646.5" style="fill-opacity:0;fill-rule:nonzero;stroke:black;stroke-width:3.5px;"/>
        <path d="M221.5,629.5C216.675,637.173 210.898,644.084 206.5,652" style="fill-opacity:0;fill-rule:nonzero;stroke:black;stroke-width:3.5px;"/>
        <path d="M231.5,629.5C226.254,637.252 220.524,644.606 215.5,652.5" style="fill-opacity:0;fill-rule:nonzero;stroke:black;stroke-width:3.5px;"/>
        <path d="M234,643C228.439,649.117 230.982,647.013 227,650" style="fill-opacity:0;fill-rule:nonzero;stroke:black;stroke-width:3.5px;"/>
        <path d="M245.5,625.5C246.333,628.5 246.177,631.976 248,634.5C255.565,644.975 271.757,650.764 283.5,654.5" style="fill-opacity:0;fill-rule:nonzero;stroke:black;stroke-width:3.5px;"/>
        <path d="M244,628C262.627,633.961 252.307,630.753 275,637.5" style="fill-opacity:0;fill-rule:nonzero;stroke:black;stroke-width:3.5px;"/>
        <path d="M265.5,640.5C271.042,645.481 275.025,647 282.5,647" style="fill-opacity:0;fill-rule:nonzero;stroke:black;stroke-width:3.5px;"/>
        <path d="M285.5,648C293.479,657.309 288.469,654.495 300.5,656.5" style="fill-opacity:0;fill-rule:nonzero;stroke:black;stroke-width:3.5px;"/>
        <path d="M290,645C292.708,653.899 297.516,662.92 307.5,665C309.14,665.342 310.833,664.667 312.5,664.5" style="fill-opacity:0;fill-rule:nonzero;stroke:black;stroke-width:3.5px;"/>
        <path d="M279,637.5C282.522,645.761 288.164,653.555 297,656.5" style="fill-opacity:0;fill-rule:nonzero;stroke:black;stroke-width:3.5px;"/>
        <path d="M250.5,641.5C257.938,650.287 267.557,651.736 278.5,649" style="fill-opacity:0;fill-rule:nonzero;stroke:black;stroke-width:3.5px;"/>
        <path d="M234.5,659C228.81,667.467 234.97,665.265 239.5,663" style="fill-opacity:0;fill-rule:nonzero;stroke:black;stroke-width:3.5px;"/>
        <path d="M276,639C276.167,641.5 275.763,644.105 276.5,646.5C277.642,650.21 281.745,654.169 285,656C285.884,656.497 287,656.333 288,656.5" style="fill-opacity:0;fill-rule:nonzero;stroke:black;stroke-width:3.5px;"/>
        <path d="M301,658.5C302,659.667 303,660.833 304,662" style="fill-opacity:0;fill-rule:nonzero;stroke:black;stroke-width:3.5px;"/>
        <path d="M157,700.5C155.833,704.333 154.667,708.167 153.5,712" style="fill-opacity:0;fill-rule:nonzero;stroke:black;stroke-width:3.5px;"/>
        <path d="M164,694.5C164.333,693.5 166.054,691.5 165,691.5C160.157,691.5 150.457,701.422 149,703C144.253,708.143 131.736,722.708 134.5,731" style="fill-opacity:0;fill-rule:nonzero;stroke:black;stroke-width:3.5px;"/>
        <path d="M153,716.5C148.02,720.857 150.134,718.639 146.5,723" style="fill-opacity:0;fill-rule:nonzero;stroke:black;stroke-width:3.5px;"/>
        <path d="M169,694.5C163.104,707.82 159.542,722.415 161,737" style="fill-opacity:0;fill-rule:nonzero;stroke:black;stroke-width:3.5px;"/>
        <path d="M193,728C193.833,728.333 194.667,728.667 195.5,729" style="fill-opacity:0;fill-rule:nonzero;stroke:black;stroke-width:3.5px;"/>
        <path d="M187,757.5C188.167,758 189.321,759.471 190.5,759C198.176,755.93 200.177,751.553 204.5,745.5" style="fill-opacity:0;fill-rule:nonzero;stroke:black;stroke-width:3.5px;"/>
        <path d="M203,722.5C201.695,732.02 196.652,749.076 208.5,755C210.587,756.044 213.167,755 215.5,755" style="fill-opacity:0;fill-rule:nonzero;stroke:black;stroke-width:3.5px;"/>
        <path d="M210.5,715C205.044,721.547 208.169,731.148 212.5,737.5C213.562,739.058 215.167,740.167 216.5,741.5" style="fill-opacity:0;fill-rule:nonzero;stroke:black;stroke-width:3.5px;"/>
        <path d="M229,715.5C228,715 226.93,713.38 226,714C223.092,715.939 223.5,731.918 223.5,736" style="fill-opacity:0;fill-rule:nonzero;stroke:black;stroke-width:3.5px;"/>
        <path d="M232.5,729C233.5,731 234.5,733 235.5,735" style="fill-opacity:0;fill-rule:nonzero;stroke:black;stroke-width:3.5px;"/>
        <path d="M259,727C260.835,731.281 259.255,730.251 263,731" style="fill-opacity:0;fill-rule:nonzero;stroke:black;stroke-width:3.5px;"/>
        <path d="M278.5,732C281.193,740.308 281.508,743.372 290.5,740" style="fill-opacity:0;fill-rule:nonzero;stroke:black;stroke-width:3.5px;"/>
        <path d="M306.5,718.5C308.427,726.852 305.855,724.415 313.5,726.5" style="fill-opacity:0;fill-rule:nonzero;stroke:black;stroke-width:3.5px;"/>
        <path d="M339,695.5C339.826,698.145 344.937,706.845 348.5,701.5" style="fill-opacity:0;fill-rule:nonzero;stroke:black;stroke-width:3.5px;"/>
        <path d="M380.5,671.5C380.667,672.333 380.833,673.167 381,674" style="fill-opacity:0;fill-rule:nonzero;stroke:black;stroke-width:3.5px;"/>
        <path d="M171,660.5C170.5,662.833 170,665.167 169.5,667.5" style="fill-opacity:0;fill-rule:nonzero;stroke:black;stroke-width:3.5px;"/>
        <path d="M131,651.5C129.667,654.833 127.704,657.98 127,661.5C126.494,664.031 125.614,681.72 134.5,675.5C144.087,668.789 156.294,641.793 151,630.5C149.022,626.28 142.662,619.847 137,620.5C128.297,621.504 127.595,635.933 130.5,641.5C131.334,643.098 133.5,643.5 135,644.5" style="fill-opacity:0;fill-rule:nonzero;stroke:black;stroke-width:3.5px;"/>
        <path d="M145,599C142.838,608.728 140.251,606.626 145,609" style="fill-opacity:0;fill-rule:nonzero;stroke:black;stroke-width:3.5px;"/>
        <path d="M144.5,602C141.659,609.955 141.593,606.556 142.5,612" style="fill-opacity:0;fill-rule:nonzero;stroke:black;stroke-width:3.5px;"/>
        <path d="M143.5,591.5C143.167,593.667 142.833,595.833 142.5,598" style="fill-opacity:0;fill-rule:nonzero;stroke:black;stroke-width:3.5px;"/>
        <path d="M327,641C320.371,681.413 341.483,659.411 354,646" style="fill-opacity:0;fill-rule:nonzero;stroke:black;stroke-width:3.5px;"/>
        <path d="M367,619.5C367,622.877 365.486,635.7 369.5,640C370.53,641.103 372.5,640.333 374,640.5" style="fill-opacity:0;fill-rule:nonzero;stroke:black;stroke-width:3.5px;"/>
        <path d="M390.5,631C389.833,634.5 389.167,638 388.5,641.5C388.5,642.5 388.094,645.414 388.5,644.5C389.551,642.136 389.833,639.5 390.5,637" style="fill-opacity:0;fill-rule:nonzero;stroke:black;stroke-width:3.5px;"/>
        <path d="M402.5,592.5C402.037,593.735 398.188,602.695 398.5,605.5C398.558,606.024 399.5,605.167 400,605" style="fill-opacity:0;fill-rule:nonzero;stroke:black;stroke-width:3.5px;"/>
        <path d="M412.5,580.5C412.5,583.096 411.535,593.303 414,597C414.333,597.5 415,596.333 415.5,596" style="fill-opacity:0;fill-rule:nonzero;stroke:black;stroke-width:3.5px;"/>
        <path d="M418,561.5L421.5,563.5" style="fill:none;fill-rule:nonzero;stroke:black;stroke-width:3.5px;"/>
        <path d="M276,421C274.333,421.167 270.725,423.152 271,421.5C274.581,400.013 279.69,390.497 292.5,375.5C298.003,369.058 304.619,362.338 314.5,364.5C316.684,364.978 316.558,368.472 317.5,370.5C318.726,373.14 319.213,376.202 321,378.5C321.745,379.458 323.333,379.167 324.5,379.5" style="fill-opacity:0;fill-rule:nonzero;stroke:black;stroke-width:3.5px;"/>
        <path d="M321.5,368.5C311.197,376.004 301.028,383.972 292,393" style="fill-opacity:0;fill-rule:nonzero;stroke:black;stroke-width:3.5px;"/>
        <path d="M292,387C291.833,387.833 291.667,388.667 291.5,389.5" style="fill-opacity:0;fill-rule:nonzero;stroke:black;stroke-width:3.5px;"/>
        <path d="M213.5,417C212.5,417.667 211.404,419.791 210.5,419C209.098,417.773 209.448,415.363 209.5,413.5C209.617,409.305 210.5,405.167 211,401" style="fill-opacity:0;fill-rule:nonzero;stroke:black;stroke-width:3.5px;"/>
        <path d="M202.5,389.5C199.5,393 195.916,396.074 193.5,400C186.81,410.872 179.501,433.517 180.5,446.5C180.649,448.438 181.739,452.322 183.5,451.5C192.822,447.15 186.525,433.032 179.5,428.5C167.534,420.78 142.532,419.217 129.5,424.5C127.058,425.49 124.991,427.274 123,429C122.437,429.488 121.333,430.667 122,431C124.524,432.262 131.457,424.609 132.5,426C133.132,426.843 131.875,428.015 131.5,429C128.084,437.967 124.419,447.165 118,454.5C115.821,456.99 113.147,459.015 110.5,461C106.027,464.355 97.167,466.077 100,472C105.817,484.163 116.167,483 127.5,483" style="fill-opacity:0;fill-rule:nonzero;stroke:black;stroke-width:3.5px;"/>
        <path d="M140,441C134.753,444.411 127.513,449.54 121.5,452C120.729,452.316 119.092,452.828 119,452C118.819,450.369 119.754,448.568 121,447.5C124.581,444.43 128.972,442.455 133,440C139.639,435.954 146.494,432.257 153,428C161.512,422.43 169.536,416.142 178,410.5" style="fill-opacity:0;fill-rule:nonzero;stroke:black;stroke-width:3.5px;"/>
        <path d="M364,452.5C375.491,435.705 366.887,449.984 377,425C377.164,424.595 380.218,419.658 381.5,420C383.562,420.55 385.048,422.436 386.5,424C391.568,429.458 396.163,435.337 401,441C412.188,454.099 412.31,455.086 417,471.5" style="fill-opacity:0;fill-rule:nonzero;stroke:black;stroke-width:3.5px;"/>
        <path d="M447.5,525.5C451.687,529.687 449.506,529.07 453,521.5" style="fill-opacity:0;fill-rule:nonzero;stroke:black;stroke-width:3.5px;"/>
        <path d="M457.5,542.5C457,545 456.201,547.458 456,550C455.7,553.796 456.092,567.916 456.5,572C456.653,573.529 456.516,577.68 457.5,576.5C459.915,573.602 459.381,557.648 452.5,563C450.634,564.452 443.843,576.303 446,579C447.502,580.877 450.436,576.825 452,575C454.53,572.049 455.987,568.326 458,565C458.93,563.463 463.622,553.793 467.5,552.5C468.523,552.159 475.508,556.449 476,553.5C476.279,551.823 475.333,550.167 475,548.5" style="fill-opacity:0;fill-rule:nonzero;stroke:black;stroke-width:3.5px;"/>
        <path d="M422,533.5C416.133,527.721 412.044,536.504 407,536C406.316,535.932 406.203,534.62 406.5,534C406.733,533.514 413.528,522.655 415.5,519.5" style="fill-opacity:0;fill-rule:nonzero;stroke:black;stroke-width:3.5px;"/>
        <path d="M433,492L430.5,495.5" style="fill:none;fill-rule:nonzero;stroke:black;stroke-width:3.5px;"/>
    </g>
</svg>
