<?xml version="1.0" encoding="UTF-8" standalone="no"?>
<!DOCTYPE svg PUBLIC "-//W3C//DTD SVG 1.1//EN" "http://www.w3.org/Graphics/SVG/1.1/DTD/svg11.dtd">
<svg width="100%" height="100%" viewBox="0 0 600 800" version="1.1" xmlns="http://www.w3.org/2000/svg" xmlns:xlink="http://www.w3.org/1999/xlink" xml:space="preserve" xmlns:serif="http://www.serif.com/" style="fill-rule:evenodd;clip-rule:evenodd;stroke-linejoin:round;stroke-miterlimit:2;">
    <g id="Background" transform="matrix(1,0,0,1,-200,0)">
        <rect x="0" y="0" width="1000" height="1000" style="fill:none;"/>
    </g>
    <g id="Layer_1" transform="matrix(1,0,0,1,-200,0)">
        <path d="M370.089,150.523L369.353,150.844L367.839,151.582L366.304,152.431L364.763,153.383L363.224,154.431L361.692,155.573L360.174,156.801L358.675,158.111L357.201,159.499L355.76,160.959L354.356,162.486L352.996,164.076L351.686,165.723L350.433,167.422L349.243,169.168L348.121,170.956L347.074,172.782L346.109,174.639L345.232,176.522L344.449,178.426L343.767,180.346L343.191,182.275L342.728,184.21L342.384,186.144L342.165,188.071L342.078,189.987L342.102,191.419L342.162,192.369L342.259,193.307L342.392,194.239L342.563,195.163L342.772,196.08L343.02,196.988L343.307,197.888L343.635,198.777L344.004,199.656L344.415,200.525L344.868,201.382L345.113,201.809C345.114,201.811 345.115,201.812 345.116,201.814L345.352,202.212L345.878,203.07L346.466,204.004L347.112,205.007L347.81,206.073L348.554,207.198L349.341,208.377L350.165,209.605L351.02,210.876L351.902,212.185L352.806,213.528L353.727,214.898L355.128,216.995L357.006,219.839L358.859,222.701L360.207,224.833L361.075,226.238L361.914,227.624L362.719,228.986L363.483,230.318L364.203,231.614L364.871,232.87L365.485,234.081L366.037,235.239L366.523,236.339L366.938,237.376L367.198,238.104L367.346,238.564L367.474,239.007L367.58,239.427L367.665,239.825L367.727,240.197L367.748,240.363L367.745,240.337L367.799,240.904L367.828,241.986L367.769,243.045L367.629,244.098L367.417,245.149L367.139,246.2L366.801,247.253L366.409,248.311L365.967,249.375L365.483,250.449L364.68,252.089L363.519,254.302L362.3,256.548L361.072,258.842L359.894,261.188L359.073,262.994L358.571,264.224L358.125,265.45L357.738,266.684L357.419,267.926L357.178,269.171L357.023,270.418L356.962,271.664L357.001,272.905L357.149,274.142L357.411,275.372L357.793,276.595L358.036,277.218C358.039,277.226 358.043,277.233 358.046,277.241L358.236,277.675L358.663,278.539L359.136,279.37L359.65,280.163L360.202,280.919L360.788,281.641L361.406,282.331L362.053,282.993L362.726,283.629L363.422,284.241L364.5,285.118L365.996,286.229L367.539,287.294L369.104,288.329L370.671,289.353L372.218,290.385L373.724,291.444L375.169,292.548L376.198,293.414L376.852,294.012L377.482,294.634L378.084,295.28L378.653,295.951L379.189,296.649L379.439,297.003L379.427,296.985L379.673,297.359L380.117,298.137L380.527,298.984L380.91,299.906L381.268,300.897L381.6,301.951L381.908,303.06L382.194,304.219L382.459,305.422L382.705,306.661L383.043,308.58L383.442,311.206L383.795,313.865L384.118,316.51L384.426,319.093L384.658,320.96L384.817,322.162L384.98,323.322L385.15,324.432L385.33,325.49L385.521,326.487L385.725,327.421L385.946,328.285L386.187,329.074L386.451,329.785L386.743,330.413L387.072,330.954L387.27,331.212C387.279,331.223 387.288,331.234 387.298,331.245L387.709,331.704L388.586,332.584L389.505,333.392L390.451,334.129L391.419,334.807L392.402,335.435L393.888,336.31L395.874,337.414L397.341,338.242L398.293,338.811L399.225,339.409L400.131,340.046L401.005,340.731L401.845,341.477L402.242,341.867L402.229,341.854L402.502,342.137L403.021,342.706L403.766,343.595L404.718,344.837L405.644,346.124L406.569,347.436L407.519,348.753L408.516,350.049L409.313,350.997L409.875,351.613L410.168,351.917C410.172,351.921 410.177,351.925 410.181,351.93L410.56,352.302L411.364,353.032L412.201,353.721L413.056,354.369L414.358,355.284L416.109,356.445L417.836,357.597L419.083,358.49L419.878,359.111L420.648,359.767L421.382,360.463L422.077,361.206L422.729,362.003L423.029,362.414L423.008,362.385L423.267,362.774L423.688,363.534L424.031,364.317L424.318,365.141L424.559,365.999L424.764,366.891L425.026,368.288L425.341,370.208L425.599,371.673L425.805,372.662L426.05,373.639L426.348,374.601L426.711,375.54L427.152,376.448L427.416,376.905C427.42,376.913 427.425,376.92 427.429,376.927L427.815,377.545L428.619,378.798L429.872,380.691L431.573,383.246L432.833,385.184L433.644,386.487L434.422,387.804L435.156,389.134L435.838,390.478L436.457,391.836L437.004,393.208L437.469,394.593L437.844,395.99L438.121,397.399L438.216,398.083L438.211,398.049L438.288,398.712L438.41,400.024L438.495,401.34L438.544,402.666L438.559,404L438.537,405.337L438.481,406.675L438.391,408.01L438.265,409.338L438.105,410.656L437.912,411.96L437.685,413.245L437.426,414.509L437.134,415.747L436.813,416.954L436.462,418.127L436.284,418.674L436.284,418.675L436.106,419.223L435.754,420.397L435.287,422.162L434.753,424.503L434.277,426.825L433.82,429.107L433.34,431.343L432.797,433.521L432.335,435.087L431.997,436.088L431.823,436.561L431.847,436.497L431.61,437.109L431.143,438.213L430.651,439.258L430.122,440.284L429.559,441.294L428.962,442.292L428.332,443.282L427.67,444.265L426.604,445.757L425.098,447.729L423.513,449.69L421.852,451.675L419.26,454.725L416.634,457.876L414.875,460.089L413.17,462.375L411.919,464.176L411.107,465.423L410.34,466.673L409.606,467.949L408.911,469.253L408.258,470.583L407.933,471.292C407.928,471.305 407.922,471.318 407.916,471.331L407.506,472.257L406.699,474.094L405.915,475.901L405.156,477.674L404.421,479.415L403.71,481.125L403.022,482.806L402.357,484.457L401.714,486.08L401.094,487.677L400.495,489.249L399.917,490.797L399.359,492.323L398.822,493.826L398.304,495.31L397.805,496.773L397.094,498.93L396.209,501.75L395.39,504.52L394.636,507.242L393.944,509.927L393.309,512.583L392.728,515.22L392.197,517.846L391.712,520.472L391.27,523.106L390.866,525.758L390.496,528.438L390.156,531.155L389.843,533.919L389.553,536.74L389.281,539.628L389.023,542.591L388.776,545.643L388.536,548.789L388.299,552.043L388.06,555.413L387.817,558.91L387.629,561.621L387.5,563.473L387.368,565.362L387.232,567.29L387.162,568.268L387.163,568.252L387.118,568.819L387.006,569.893L386.785,571.471L386.417,573.549L386.002,575.627L385.577,577.752L385.183,579.946L384.936,581.66L384.806,582.841L384.714,584.031L384.665,585.246L384.657,585.88L384.657,585.896L384.654,587.861L384.629,591.88L384.584,596.014L384.521,600.258L384.444,604.603L384.357,609.041L384.264,613.562L384.168,618.158L384.073,622.82L383.983,627.54L383.901,632.308L383.832,637.116L383.778,641.956L383.743,646.819L383.736,654.135L383.793,661.455L383.874,666.325L383.992,671.171L384.152,675.989L384.358,680.77L384.612,685.503L384.92,690.183L385.284,694.798L385.709,699.342L386.09,702.686L386.366,704.89L386.658,707.067L386.968,709.22L387.296,711.349L387.643,713.451L388.009,715.526L388.393,717.572L388.798,719.59L389.224,721.577L389.67,723.533L390.137,725.456L390.627,727.345L391.139,729.199L391.404,730.117C391.405,730.119 391.405,730.121 391.406,730.123L391.481,730.377L391.648,730.938L391.835,731.559L392.043,732.234L392.271,732.959L392.518,733.728L392.785,734.535L393.071,735.377L393.376,736.247L393.699,737.14L394.217,738.511L394.97,740.374L395.794,742.242L396.687,744.072L397.402,745.401L397.901,746.256L398.415,747.074L398.945,747.856L399.493,748.597L400.058,749.29L400.641,749.932L401.243,750.517L401.865,751.04L402.51,751.496L403.179,751.879L403.878,752.182L404.61,752.398L405.384,752.516L405.832,752.537C405.855,752.538 405.878,752.538 405.901,752.537L406.169,752.531L406.764,752.486L407.372,752.397L407.972,752.266L408.563,752.096L409.142,751.889L409.951,751.537L410.982,750.994L411.956,750.407L412.835,749.845L413.632,749.343L413.98,749.137L413.978,749.138L414.802,748.649L416.516,747.556L418.215,746.368L419.864,745.107L421.461,743.78L423.006,742.39L424.499,740.943L425.938,739.445L427.324,737.898L428.659,736.309L429.944,734.681L431.18,733.018L432.369,731.323L433.514,729.599L434.616,727.849L435.677,726.075L436.699,724.281L437.684,722.468L438.635,720.639L439.553,718.797L440.44,716.943L441.297,715.081L442.527,712.284L444.081,708.542L445.548,704.802L446.935,701.094L448.253,697.438L448.89,695.633C448.893,695.626 448.895,695.619 448.898,695.612L449.448,694.003L450.266,691.564L450.824,689.984L451.418,688.454L452.066,686.992L452.586,685.968L452.947,685.328L453.337,684.695L453.748,684.09L453.94,683.828L453.911,683.867L455.456,681.802L458.565,677.724L461.716,673.686L464.911,669.676L468.145,665.692L471.411,661.732L474.708,657.792L478.034,653.873L483.069,648.029L489.832,640.286L496.61,632.575L503.363,624.866L506.721,620.998L506.71,621.01L507.73,619.848L509.772,617.621L511.855,615.458L513.989,613.333L516.168,611.237L518.383,609.165L521.761,606.077L526.311,601.975L529.729,598.867L532.003,596.757L534.256,594.617L536.483,592.433L538.676,590.196L540.826,587.897L541.902,586.7C541.912,586.688 541.923,586.676 541.934,586.664L543.244,585.172L545.872,582.106L548.473,578.98L551.038,575.812L553.568,572.609L556.067,569.374L558.538,566.115L560.982,562.837L564.601,557.901L569.356,551.295L574.052,544.704L578.701,538.177L581.009,534.957C581.016,534.948 581.022,534.939 581.029,534.929L581.326,534.507L581.99,533.518L582.662,532.452L583.321,531.343L583.969,530.191L584.607,528.997L585.239,527.761L585.863,526.482L586.482,525.163L587.095,523.803L587.701,522.404L588.302,520.968L588.898,519.496L589.491,517.988L590.369,515.67L591.526,512.466L592.661,509.143L593.776,505.721L594.866,502.214L595.931,498.635L596.965,495L597.973,491.322L598.949,487.616L599.891,483.895L600.806,480.173L601.676,476.468L602.501,472.796L603.259,469.179L603.783,465.697L604.355,462.254L605.342,458.71L606.053,456.114L606.512,454.417L606.959,452.75L607.393,451.115L607.814,449.512L608.222,447.945L608.616,446.414L608.9,444.965L609.171,443.555L609.43,442.188L609.677,440.863L609.912,439.585L610.134,438.353L610.344,437.169L610.542,436.036L610.726,434.956L610.814,434.433L610.812,434.443L611.109,432.715L611.755,429.258L612.461,425.762L613.211,422.219L613.987,418.635L614.771,415.017L615.546,411.37L616.292,407.7L616.992,404.013L617.626,400.316L618.175,396.615L618.621,392.916L618.878,390.139L619.006,388.288L619.097,386.452L619.149,384.619L619.16,382.794L619.127,380.976L619.048,379.165L618.92,377.365L618.836,376.457C618.835,376.445 618.834,376.433 618.832,376.421L618.787,376.033L618.646,375.199L618.452,374.371L618.216,373.569L617.802,372.42L617.16,370.937L616.461,369.496L615.756,368.089L615.091,366.702L614.51,365.325L614.272,364.657L614.282,364.687L614.059,363.998L613.654,362.634L613.113,360.565L612.478,357.767L611.891,354.934L611.292,352.075L610.799,349.92L610.436,348.48L610.037,347.048L609.596,345.623L609.103,344.207L608.552,342.804L608.249,342.098C608.246,342.093 608.244,342.088 608.242,342.082L607.529,340.501L606.068,337.382L604.58,334.325L603.08,331.323L600.839,326.892L598.646,322.504L597.236,319.585L595.882,316.651L594.596,313.691L593.687,311.448L593.109,309.94L592.555,308.414L592.028,306.872L591.528,305.313L591.057,303.735L590.618,302.135L590.212,300.514L589.839,298.869L589.503,297.197L589.204,295.498L588.944,293.771L588.83,292.903L588.833,292.928L588.784,292.495L588.72,291.664L588.693,290.835L588.7,289.988L588.738,289.125L588.808,288.245L588.908,287.349L589.037,286.435L589.194,285.505L589.378,284.558L589.587,283.595L589.82,282.615L590.217,281.103L590.82,279.038L591.496,276.925L592.238,274.753L593.036,272.526L593.879,270.247L594.756,267.92L595.656,265.548L597.022,261.916L598.375,258.205L599.254,255.681L600.094,253.137L600.886,250.569L601.619,247.982L602.279,245.379L602.855,242.764L603.333,240.141L603.703,237.516L603.951,234.891L604.05,232.915L604.072,231.596L604.055,230.292L604,228.992L603.905,227.696L603.769,226.405L603.589,225.119L603.366,223.838L603.096,222.564L602.78,221.297L602.415,220.037L602,218.784L601.77,218.152C601.768,218.147 601.767,218.143 601.765,218.138L601.376,217.112L600.561,215.032L599.705,212.935L598.811,210.827L597.88,208.713L596.915,206.599L595.917,204.488L594.888,202.384L593.831,200.293L592.747,198.219L591.638,196.166L590.505,194.139L589.352,192.142L588.179,190.181L586.989,188.258L585.783,186.38L585.172,185.456C585.168,185.449 585.164,185.443 585.159,185.436L584.961,185.153L584.503,184.576L584.002,184.035L583.476,183.539L582.66,182.869L581.534,182.058L580.407,181.296L579.331,180.54L578.587,179.953L578.133,179.545L577.705,179.109L577.314,178.645L577.144,178.415L577.16,178.437L576.845,177.985L576.249,177.066L575.679,176.107L575.127,175.103L574.588,174.055L574.06,172.966L573.279,171.26L572.247,168.872L571.199,166.376L570.105,163.791L568.937,161.139L567.667,158.445L566.629,156.406L565.888,155.044L565.108,153.688L564.283,152.338L563.408,150.996L562.481,149.666L561.498,148.351L560.455,147.053L559.348,145.775L558.175,144.521L556.931,143.293L555.613,142.094L554.218,140.928L552.742,139.796L551.965,139.239C551.96,139.236 551.956,139.233 551.951,139.23L551.214,138.723L549.719,137.752L548.215,136.848L546.707,136.011L545.196,135.24L543.681,134.53L542.162,133.88L540.636,133.289L539.104,132.753L537.568,132.267L536.027,131.828L534.481,131.432L532.931,131.076L531.375,130.758L529.039,130.345L525.9,129.895L522.732,129.536L519.539,129.244L516.319,128.994L513.068,128.761L509.785,128.519L506.465,128.245L503.104,127.914L501.414,127.72L501.427,127.721L499.16,127.433L494.64,126.802L490.114,126.136L485.566,125.491L482.135,125.055L479.834,124.799L477.526,124.582L475.208,124.408L472.878,124.287L470.534,124.224L468.176,124.228L465.803,124.306L464.597,124.376C464.588,124.376 464.578,124.377 464.568,124.377L463.913,124.428L462.559,124.574L461.2,124.77L459.851,125.009L457.86,125.432L455.233,126.087L452.636,126.8L450.079,127.517L447.555,128.189L445.056,128.77L443.833,129.009L443.867,129.003L442.761,129.197L440.572,129.54L438.383,129.836L436.184,130.094L432.866,130.426L428.424,130.805L423.966,131.167L419.493,131.574L416.124,131.955L413.871,132.257L411.622,132.605L409.372,133.008L408.237,133.234L408.237,133.235L408.132,133.256L407.893,133.3L407.583,133.354L407.207,133.418L406.774,133.492L406.29,133.575L405.763,133.668L405.198,133.771L404.294,133.944L403.008,134.211L401.662,134.523L400.3,134.884L398.957,135.297L397.968,135.652L397.316,135.917L396.695,136.201L396.086,136.515L395.485,136.871L394.882,137.289L394.268,137.799L393.65,138.44L393.08,139.221L392.665,140.064L392.467,140.85L392.463,141.521L392.601,142.099L392.852,142.619L393.027,142.886C393.035,142.898 393.043,142.909 393.052,142.921L393.197,143.103L393.575,143.493L394.028,143.86L394.541,144.19L395.109,144.488L395.732,144.755L396.408,144.995L397.133,145.207L397.906,145.394L398.726,145.556L399.591,145.695L400.495,145.816L401.437,145.92L402.418,146.002L403.435,146.066L404.487,146.11L405.572,146.135L406.688,146.141L407.833,146.129L409.006,146.099L410.203,146.051L411.424,145.987L413.29,145.859L415.841,145.634L418.451,145.349L421.1,145.007L423.771,144.613L426.448,144.168L429.115,143.676L431.755,143.141L434.352,142.566L436.89,141.954L439.352,141.307L441.723,140.63L443.438,140.101L444.547,139.739L445.619,139.373L446.659,139L447.664,138.621L448.634,138.235L449.566,137.844L450.459,137.446L451.313,137.041L452.127,136.628L452.901,136.206L453.635,135.772L454.331,135.323L454.99,134.854L455.617,134.357L456.211,133.821L456.771,133.236L457.285,132.592L457.568,132.173C457.613,132.104 457.653,132.034 457.69,131.965L457.752,131.85L457.986,131.244L458.062,130.614L457.958,130.154L457.751,129.825L457.48,129.577L457.16,129.379L456.793,129.215L456.381,129.077L455.924,128.96L455.422,128.86L454.878,128.777L454.292,128.71L453.665,128.657L452.999,128.618L452.296,128.594L451.558,128.583L450.788,128.585L449.986,128.6L449.155,128.629L447.862,128.696L446.054,128.829L444.166,129.012L442.218,129.244L440.228,129.524L438.213,129.851L436.191,130.225L434.178,130.644L432.193,131.108L430.252,131.617L428.372,132.17L426.568,132.77L425.265,133.253L424.421,133.593L423.613,133.942L422.831,134.306L422.077,134.685L421.352,135.081L420.654,135.498L419.983,135.938L419.339,136.407L418.722,136.911L418.132,137.458L417.575,138.053L417.066,138.699L416.623,139.385L416.271,140.09L416.025,140.789L415.887,141.462L415.852,142.1L415.909,142.708L416.05,143.29L416.157,143.593C416.16,143.604 416.164,143.614 416.169,143.624L416.282,143.889L416.555,144.425L416.874,144.929L417.233,145.39L417.628,145.81L418.06,146.187L418.526,146.525L419.024,146.824L419.551,147.084L420.108,147.308L420.691,147.497L421.3,147.651L421.932,147.772L422.586,147.861L423.261,147.92L423.955,147.949L424.666,147.95L425.393,147.923L426.502,147.836L428.027,147.634L429.599,147.342L431.2,146.969L432.817,146.522L434.441,146.009L436.06,145.439L437.665,144.818L439.244,144.154L440.787,143.454L442.285,142.725L443.726,141.975L445.102,141.209L446.402,140.434L447.619,139.654L448.744,138.875L449.538,138.281L450.044,137.878L450.512,137.483L450.956,137.085L451.375,136.681L451.77,136.269L452.141,135.844L452.484,135.4L452.795,134.935L453.063,134.449L453.27,133.952L453.396,133.464L453.429,133.012L453.369,132.618L453.294,132.411C453.287,132.394 453.279,132.377 453.27,132.362L453.2,132.233L453.004,131.943L452.76,131.665L452.481,131.412L452.168,131.183L451.824,130.974L451.451,130.785L451.049,130.614L450.619,130.459L450.164,130.32L449.44,130.141L448.391,129.95L447.253,129.809L446.04,129.715L444.762,129.667L443.428,129.66L442.048,129.692L440.631,129.761L439.188,129.863L436.998,130.072L434.797,130.344L433.338,130.555L431.906,130.787L430.506,131.037L429.147,131.304L427.839,131.585L426.591,131.877L425.413,132.179L424.312,132.489L423.297,132.805L422.374,133.127L421.544,133.457L420.805,133.802L420.272,134.096L419.899,134.337L419.539,134.609L419.149,134.967L418.735,135.455L418.378,136.066L418.232,136.49C418.219,136.542 418.209,136.592 418.203,136.64L418.179,136.825L418.165,137.294L418.225,137.754L418.359,138.156L418.557,138.502L418.81,138.796L419.112,139.043L419.457,139.249L419.84,139.417L420.258,139.551L420.709,139.654L421.189,139.73L421.695,139.779L422.228,139.804L422.782,139.806L423.358,139.787L424.248,139.72L425.491,139.568L426.783,139.348L428.1,139.069L429.423,138.739L430.734,138.365L432.015,137.952L433.249,137.508L434.418,137.038L435.51,136.545L436.511,136.03L437.218,135.617L437.677,135.318L438.1,135.011L438.512,134.674L438.917,134.291L439.315,133.84L439.683,133.306L439.961,132.719L440.09,132.16L440.064,131.701L439.925,131.346L439.707,131.071L439.426,130.85L439.086,130.666L438.686,130.51L438.222,130.377L437.691,130.265L437.089,130.172L436.413,130.098L435.659,130.043L434.825,130.008L433.907,129.993L432.903,129.999L431.809,130.026L430.623,130.076L429.343,130.15L428.663,130.196C428.655,130.196 428.647,130.197 428.638,130.198L428.284,130.231L427.518,130.352L426.384,130.63L424.927,131.102L423.547,131.571L422.911,131.762C422.268,131.952 421.562,132.661 421.336,133.344C421.109,134.028 421.446,134.428 422.089,134.238L422.823,134.023L424.165,133.579L425.436,133.171L426.373,132.936L427.008,132.835L427.362,132.802L427.337,132.804L427.996,132.762L429.248,132.695L430.402,132.651L431.461,132.628L432.428,132.625L433.304,132.643L434.091,132.678L434.792,132.731L435.408,132.8L435.941,132.883L436.393,132.978L436.765,133.083L437.058,133.192L437.274,133.3L437.417,133.395L437.495,133.459L437.529,133.464L437.559,133.382L437.631,133.219L437.745,133.043L437.846,132.933L437.88,132.917L437.828,132.98L437.695,133.098L437.49,133.251L437.243,133.417L436.756,133.707L435.94,134.128L434.991,134.557L433.939,134.981L432.807,135.387L431.62,135.769L430.399,136.116L429.166,136.423L427.943,136.681L426.751,136.883L425.605,137.023L424.79,137.083L424.279,137.1L423.794,137.099L423.336,137.078L422.91,137.037L422.518,136.977L422.162,136.898L421.845,136.8L421.569,136.685L421.335,136.554L421.144,136.411L420.996,136.257L420.888,136.098L420.816,135.934L420.776,135.767L420.772,135.545L420.797,135.36L420.768,135.51L420.654,135.804L420.423,136.149L420.216,136.365L420.111,136.444L420.111,136.433L420.171,136.385L420.419,136.239L420.952,135.985L421.642,135.709L422.464,135.423L423.4,135.132L424.436,134.842L425.56,134.556L426.76,134.277L428.024,134.008L429.342,133.752L430.703,133.512L432.097,133.289L433.508,133.087L435.65,132.827L437.788,132.627L439.188,132.531L440.558,132.468L441.887,132.44L443.165,132.448L444.38,132.496L445.523,132.586L446.582,132.718L447.552,132.895L448.213,133.059L448.614,133.181L448.985,133.314L449.326,133.458L449.633,133.612L449.907,133.775L450.146,133.946L450.35,134.124L450.518,134.307L450.659,134.509L450.73,134.638L450.706,134.589L450.71,134.57L450.736,134.578L450.76,134.563L450.785,134.545L450.801,134.548L450.792,134.592L450.743,134.684L450.645,134.822L450.497,135.001L450.297,135.215L450.05,135.457L449.757,135.723L449.421,136.007L449.06,136.297L448.438,136.765L447.479,137.432L446.404,138.122L445.229,138.822L443.969,139.524L442.634,140.218L441.24,140.895L439.797,141.548L438.317,142.169L436.814,142.75L435.298,143.283L433.78,143.761L432.274,144.177L430.791,144.523L429.342,144.792L427.929,144.979L426.904,145.06L426.246,145.084L425.606,145.083L424.985,145.057L424.384,145.005L423.804,144.927L423.248,144.821L422.715,144.687L422.208,144.525L421.727,144.333L421.273,144.111L420.848,143.859L420.452,143.575L420.087,143.259L419.753,142.91L419.452,142.527L419.183,142.109L418.944,141.643L418.831,141.376L418.843,141.407L418.774,141.226L418.672,140.852L418.625,140.519L418.622,140.233L418.649,139.997L418.694,139.803L418.755,139.633L418.844,139.46L418.979,139.263L419.175,139.034L419.443,138.773L419.782,138.487L420.189,138.184L420.661,137.87L421.191,137.551L421.775,137.231L422.407,136.912L423.084,136.596L423.802,136.286L424.548,135.985L425.737,135.544L427.434,134.982L429.226,134.456L431.091,133.97L433.01,133.524L434.963,133.12L436.93,132.76L438.894,132.444L440.834,132.174L442.732,131.951L444.57,131.776L446.331,131.649L447.588,131.586L448.39,131.559L449.161,131.546L449.898,131.545L450.6,131.556L451.263,131.58L451.886,131.617L452.464,131.667L452.996,131.728L453.478,131.801L453.907,131.885L454.28,131.979L454.592,132.08L454.84,132.184L455.019,132.282L455.129,132.358L455.18,132.381L455.205,132.303L455.277,132.084L455.372,131.919L455.31,132.035L455.432,131.827L455.464,131.798L455.377,131.937L455.206,132.136L454.944,132.385L454.594,132.672L454.16,132.986L453.65,133.319L453.07,133.663L452.426,134.016L451.722,134.373L450.962,134.734L450.15,135.095L449.291,135.455L448.385,135.814L447.436,136.171L446.447,136.524L445.421,136.873L444.364,137.216L442.716,137.722L440.411,138.377L438.008,139.004L435.524,139.599L432.978,140.159L430.387,140.68L427.767,141.158L425.136,141.59L422.512,141.973L419.912,142.303L417.352,142.577L414.847,142.793L413.016,142.913L411.824,142.973L410.656,143.017L409.515,143.044L408.402,143.053L407.32,143.044L406.271,143.018L405.257,142.973L404.281,142.909L403.345,142.825L402.451,142.722L401.604,142.595L400.807,142.444L400.058,142.273L399.361,142.084L398.717,141.876L398.13,141.65L397.6,141.405L397.131,141.145L396.724,140.869L396.38,140.581L396.089,140.268L395.948,140.079L395.973,140.114L395.878,139.971L395.734,139.695L395.663,139.509L395.625,139.447L395.559,139.529L395.428,139.698L395.287,139.834L395.228,139.859L395.297,139.781L395.487,139.639L395.779,139.461L396.153,139.268L396.593,139.07L397.071,138.88L397.881,138.597L399.075,138.244L400.328,137.929L401.592,137.654L402.822,137.416L403.693,137.262L404.239,137.171L404.75,137.088L405.224,137.014L405.655,136.947L406.039,136.887L406.376,136.833L406.658,136.785L406.763,136.765C407.622,136.6 408.648,135.676 409.054,134.701C409.461,133.726 409.095,133.069 408.237,133.234C407.378,133.4 406.353,134.324 405.946,135.299C405.539,136.274 405.905,136.931 406.763,136.765L407.83,136.568L409.994,136.212L412.168,135.908L414.346,135.649L417.635,135.326L422.057,134.971L426.501,134.658L430.96,134.325L434.31,134.025L436.55,133.786L438.794,133.506L441.03,133.178L442.133,132.997C442.144,132.995 442.155,132.993 442.167,132.991L443.51,132.739L446.119,132.157L448.686,131.5L451.213,130.817L453.707,130.156L456.191,129.556L458.054,129.173L459.288,128.963L460.523,128.793L461.777,128.668L462.432,128.623L462.403,128.624L463.531,128.568L465.809,128.513L468.082,128.528L470.35,128.609L472.614,128.747L474.874,128.937L477.131,129.171L479.383,129.442L482.763,129.905L487.274,130.589L491.79,131.298L496.314,131.973L498.573,132.279C498.577,132.279 498.582,132.28 498.586,132.28L500.307,132.491L503.692,132.851L507.02,133.152L510.294,133.418L513.515,133.673L516.686,133.944L519.811,134.253L522.894,134.626L525.943,135.087L528.21,135.506L529.707,135.824L531.198,136.178L532.681,136.57L534.158,137.004L535.63,137.483L537.097,138.009L538.561,138.585L540.024,139.21L541.484,139.893L542.942,140.636L544.398,141.443L545.852,142.316L547.311,143.263L548.049,143.77L548.035,143.761L548.77,144.286L550.192,145.374L551.536,146.496L552.806,147.649L554.005,148.831L555.136,150.038L556.203,151.269L557.211,152.521L558.161,153.791L559.058,155.077L559.906,156.376L560.707,157.685L561.466,159.002L562.184,160.321L563.197,162.308L564.446,164.957L565.602,167.583L566.694,170.164L567.751,172.679L568.8,175.103L569.599,176.849L570.146,177.976L570.709,179.07L571.291,180.126L571.897,181.143L572.524,182.109L572.84,182.563C572.845,182.57 572.851,182.578 572.856,182.585L573.091,182.896L573.564,183.45L574.066,183.957L574.597,184.429L575.413,185.07L576.515,185.844L577.602,186.578L578.647,187.326L579.38,187.924L579.83,188.343L580.248,188.787L580.642,189.279L580.841,189.564L580.828,189.544L581.426,190.45L582.617,192.304L583.793,194.203L584.952,196.142L586.093,198.116L587.213,200.121L588.31,202.151L589.383,204.203L590.429,206.272L591.447,208.353L592.434,210.441L593.389,212.532L594.309,214.621L595.193,216.703L596.038,218.775L596.845,220.833L597.235,221.862L597.23,221.848L597.44,222.424L597.83,223.597L598.173,224.775L598.47,225.958L598.722,227.144L598.932,228.335L599.1,229.529L599.228,230.727L599.318,231.928L599.37,233.131L599.387,234.338L599.369,235.534L599.282,237.34L599.057,239.771L598.718,242.21L598.275,244.654L597.738,247.102L597.119,249.553L596.427,252.003L595.673,254.452L594.866,256.897L594.021,259.327L592.693,262.971L591.333,266.584L590.428,268.971L589.536,271.339L588.669,273.684L587.838,276.005L587.055,278.299L586.334,280.563L585.688,282.781L585.261,284.415L585.003,285.5L584.771,286.575L584.567,287.638L584.391,288.689L584.247,289.728L584.134,290.754L584.056,291.766L584.014,292.763L584.01,293.743L584.044,294.708L584.118,295.638L584.167,296.072C584.168,296.08 584.169,296.089 584.17,296.097L584.291,297.014L584.561,298.807L584.872,300.566L585.22,302.294L585.605,303.993L586.025,305.664L586.477,307.31L586.961,308.931L587.474,310.53L588.015,312.108L588.581,313.667L589.173,315.213L590.101,317.5L591.405,320.501L592.773,323.465L594.195,326.407L596.391,330.802L598.628,335.225L600.12,338.21L601.596,341.241L603.045,344.335L603.758,345.918L603.751,345.902L604.031,346.549L604.553,347.876L605.022,349.222L605.446,350.584L605.83,351.963L606.181,353.351L606.664,355.463L607.262,358.316L607.859,361.193L608.512,364.067L609.073,366.209L609.494,367.623L609.718,368.313C609.721,368.323 609.725,368.333 609.728,368.343L610.007,369.116L610.625,370.577L611.305,371.993L612,373.379L612.665,374.746L613.261,376.113L613.636,377.142L613.839,377.819L614.001,378.494L614.122,379.19L614.168,379.58L614.164,379.543L614.242,380.387L614.365,382.105L614.442,383.833L614.475,385.57L614.465,387.316L614.416,389.07L614.33,390.833L614.208,392.594L613.965,395.254L613.534,398.833L613.001,402.432L612.383,406.045L611.696,409.668L610.958,413.295L610.188,416.92L609.404,420.54L608.622,424.148L607.863,427.737L607.144,431.304L606.486,434.828L606.188,436.557C606.187,436.56 606.187,436.563 606.186,436.567L606.101,437.076L605.919,438.14L605.725,439.257L605.518,440.426L605.297,441.644L605.065,442.91L604.82,444.221L604.564,445.576L604.295,446.973L604.016,448.409L603.826,449.841L603.626,451.308L603.418,452.809L603.202,454.343L602.977,455.907L602.743,457.498L602.378,459.936L601.862,463.273L600.856,466.877L599.732,470.58L598.773,474.254L597.815,477.953L596.842,481.668L595.856,485.386L594.843,489.098L593.811,492.785L592.764,496.433L591.699,500.028L590.623,503.554L589.534,506.997L588.437,510.34L587.327,513.57L586.213,516.676L585.371,518.914L584.81,520.352L584.248,521.749L583.686,523.102L583.125,524.407L582.566,525.664L582.01,526.87L581.458,528.021L580.909,529.115L580.365,530.149L579.829,531.119L579.303,532.022L578.789,532.855L578.267,533.647L577.971,534.071L577.991,534.043L575.691,537.3L571.104,543.849L566.508,550.426L561.875,556.995L558.367,561.894L556.01,565.13L553.633,568.34L551.233,571.518L548.81,574.66L546.361,577.76L543.882,580.813L541.359,583.828L540.066,585.336L540.098,585.3L539.149,586.384L537.158,588.567L535.101,590.717L532.987,592.841L530.824,594.946L528.623,597.034L525.255,600.168L520.706,604.364L517.297,607.552L515.033,609.717L512.791,611.919L510.579,614.169L508.406,616.472L506.299,618.819L505.29,619.99C505.286,619.993 505.283,619.997 505.279,620.002L501.977,623.87L495.296,631.611L488.555,639.361L481.792,647.137L476.725,652.998L473.355,656.927L469.997,660.875L466.661,664.85L463.354,668.856L460.08,672.894L456.843,676.97L453.656,681.077L452.089,683.133C452.079,683.146 452.069,683.159 452.06,683.172L451.738,683.612L451.175,684.436L450.659,685.266L450.174,686.118L449.526,687.38L448.777,689.041L448.116,690.699L447.515,692.348L446.673,694.773L446.102,696.388L446.11,696.367L445.459,698.152L444.113,701.769L442.707,705.419L441.23,709.077L439.673,712.726L438.447,715.443L437.603,717.231L436.736,719.001L435.845,720.75L434.929,722.474L433.986,724.17L433.018,725.836L432.024,727.467L431.002,729.061L429.953,730.615L428.876,732.125L427.771,733.59L426.638,735.006L425.474,736.373L424.281,737.687L423.055,738.949L421.795,740.157L420.499,741.31L419.162,742.408L417.783,743.451L416.358,744.436L414.848,745.383L414.022,745.862C414.022,745.862 414.021,745.862 414.02,745.863L413.517,746.157L412.664,746.683L411.926,747.147L411.283,747.536L410.659,747.87L410.181,748.082L409.872,748.195L409.544,748.292L409.191,748.372L408.807,748.429L408.366,748.46L408.099,748.463L408.168,748.463L407.962,748.46L407.446,748.388L406.913,748.233L406.371,747.996L405.826,747.679L405.282,747.285L404.742,746.82L404.21,746.288L403.686,745.694L403.172,745.043L402.67,744.342L402.18,743.594L401.703,742.806L401.242,741.987L400.575,740.701L399.735,738.907L398.958,737.067L398.246,735.222L397.755,733.86L397.451,732.975L397.164,732.112L396.894,731.277L396.643,730.475L396.41,729.711L396.196,728.99L396,728.317L395.824,727.698L395.666,727.136L395.594,726.877L395.596,726.883L395.349,725.98L394.871,724.139L394.415,722.262L393.98,720.351L393.566,718.406L393.173,716.429L392.8,714.422L392.446,712.383L392.113,710.316L391.797,708.221L391.501,706.099L391.222,703.952L390.961,701.779L390.717,699.586L390.381,696.254L389.96,691.753L389.599,687.176L389.293,682.534L389.04,677.833L388.836,673.084L388.677,668.295L388.559,663.474L388.479,658.633L388.421,651.343L388.428,644.048L388.463,639.2L388.517,634.372L388.586,629.573L388.668,624.811L388.758,620.096L388.853,615.436L388.949,610.838L389.042,606.314L389.129,601.87L389.206,597.514L389.269,593.257L389.315,589.106L389.339,585.072L389.343,583.104L389.343,583.12L389.347,582.591L389.389,581.515L389.468,580.455L389.58,579.42L389.801,577.865L390.176,575.769L390.603,573.64L391.038,571.455L391.431,569.213L391.67,567.488L391.791,566.317L391.837,565.748C391.837,565.743 391.838,565.737 391.838,565.732L391.908,564.751L392.044,562.821L392.177,560.931L392.306,559.078L392.493,556.367L392.736,552.875L392.974,549.514L393.211,546.273L393.449,543.144L393.694,540.117L393.949,537.182L394.218,534.33L394.504,531.551L394.811,528.836L395.143,526.174L395.504,523.557L395.897,520.974L396.326,518.416L396.795,515.872L397.307,513.333L397.867,510.788L398.478,508.227L399.145,505.639L399.87,503.016L400.659,500.345L401.517,497.611L402.207,495.516L402.689,494.1L403.19,492.664L403.711,491.206L404.252,489.726L404.813,488.223L405.396,486.694L406,485.139L406.626,483.556L407.275,481.944L407.947,480.303L408.643,478.63L409.362,476.925L410.107,475.185L410.876,473.411L411.673,471.597L412.084,470.669L412.067,470.708L412.296,470.201L412.814,469.134L413.369,468.086L413.959,467.052L414.582,466.029L415.222,465.039L416.253,463.543L417.751,461.528L419.338,459.525L421.895,456.458L424.545,453.339L426.333,451.199L428.108,448.995L429.825,446.738L431.059,445.002L431.864,443.799L432.64,442.572L433.383,441.322L434.088,440.046L434.75,438.747L435.365,437.425L435.916,436.116L436.153,435.503C436.161,435.481 436.169,435.46 436.177,435.439L436.408,434.803L436.818,433.574L437.344,431.773L437.925,429.43L438.42,427.125L438.873,424.862L439.324,422.652L439.814,420.492L440.228,418.913L440.538,417.876L440.716,417.325C441.136,416.032 440.484,415.284 439.26,415.656C438.036,416.029 436.704,417.379 436.284,418.674C435.864,419.968 436.516,420.716 437.74,420.344C438.964,419.971 440.296,418.621 440.716,417.326L440.939,416.635L441.339,415.287L441.698,413.922L442.015,412.54L442.294,411.145L442.534,409.739L442.737,408.323L442.901,406.9L443.028,405.473L443.118,404.045L443.17,402.618L443.185,401.195L443.162,399.78L443.101,398.374L443.003,396.981L442.868,395.614L442.789,394.951C442.788,394.939 442.786,394.928 442.784,394.917L442.662,394.097L442.343,392.539L441.922,391.02L441.411,389.537L440.821,388.087L440.162,386.667L439.444,385.274L438.678,383.906L437.873,382.561L437.037,381.236L435.754,379.291L434.028,376.764L432.769,374.908L431.963,373.686L431.571,373.073L431.584,373.095L431.376,372.752L430.99,371.993L430.664,371.19L430.39,370.345L430.157,369.464L429.956,368.555L429.689,367.127L429.347,365.165L429.051,363.686L428.811,362.7L428.522,361.728L428.173,360.778L427.75,359.86L427.255,359.001L426.992,358.615C426.985,358.605 426.978,358.595 426.972,358.586L426.616,358.115L425.889,357.251L425.122,356.455L424.322,355.717L423.494,355.03L422.641,354.382L421.342,353.476L419.594,352.339L417.859,351.22L416.587,350.353L415.767,349.75L414.974,349.117L414.203,348.439L413.819,348.07L413.832,348.083L413.563,347.813L413.032,347.249L412.264,346.362L411.279,345.117L410.323,343.829L409.373,342.519L408.405,341.213L407.398,339.938L406.603,339.017L406.049,338.426L405.771,338.146C405.767,338.142 405.762,338.137 405.758,338.133L405.304,337.702L404.389,336.914L403.445,336.198L402.48,335.54L401.5,334.93L400.507,334.355L399.017,333.54L397.042,332.477L395.586,331.648L394.641,331.062L393.719,330.437L392.823,329.762L391.959,329.026L391.12,328.209L390.702,327.755L390.73,327.788L390.62,327.66L390.367,327.272L390.119,326.77L389.882,326.163L389.656,325.459L389.442,324.666L389.238,323.792L389.045,322.843L388.86,321.827L388.682,320.75L388.509,319.619L388.34,318.441L388.089,316.596L387.748,314.028L387.389,311.383L386.998,308.71L386.559,306.06L386.189,304.118L385.92,302.852L385.629,301.618L385.315,300.422L384.976,299.269L384.61,298.167L384.214,297.12L383.785,296.135L383.32,295.217L382.824,294.384L382.573,294.015C382.569,294.009 382.565,294.003 382.561,293.997L382.277,293.61L381.693,292.876L381.077,292.175L380.432,291.506L379.759,290.864L379.06,290.245L377.974,289.361L376.473,288.252L374.924,287.2L373.349,286.184L371.769,285.185L370.203,284.185L368.674,283.165L367.197,282.104L366.137,281.271L365.46,280.695L364.808,280.099L364.185,279.482L363.591,278.841L363.029,278.174L362.503,277.478L362.013,276.751L361.563,275.992L361.15,275.189L360.954,274.759L360.964,274.782L360.745,274.253L360.384,273.174L360.133,272.102L359.985,271.039L359.931,269.983L359.964,268.932L360.076,267.883L360.261,266.835L360.513,265.784L360.826,264.728L361.197,263.664L361.612,262.607L362.325,260.983L363.413,258.761L364.596,256.494L365.82,254.184L367.016,251.845L367.856,250.077L368.38,248.879L368.862,247.673L369.292,246.462L369.662,245.248L369.963,244.032L370.186,242.819L370.324,241.609L370.369,240.405L370.317,239.226L370.255,238.663C370.254,238.654 370.253,238.645 370.252,238.637L370.22,238.42L370.141,237.994L370.04,237.554L369.916,237.099L369.772,236.629L369.606,236.141L369.321,235.384L368.877,234.326L368.362,233.213L367.783,232.049L367.143,230.838L366.448,229.584L365.703,228.293L364.913,226.969L364.084,225.618L363.22,224.244L362.326,222.852L360.941,220.742L359.041,217.914L357.117,215.107L355.682,213.041L354.739,211.69L353.813,210.368L352.91,209.079L352.035,207.828L351.193,206.621L350.389,205.462L349.628,204.357L348.917,203.31L348.259,202.329L347.661,201.416L347.127,200.578L346.884,200.186L346.887,200.191L346.648,199.791L346.197,198.975L345.787,198.149L345.418,197.313L345.09,196.467L344.8,195.614L344.549,194.752L344.335,193.883L344.158,193.007L344.017,192.125L343.911,191.238L343.84,190.352L343.795,189.011L343.849,187.205L344.027,185.39L344.324,183.571L344.732,181.751L345.247,179.936L345.863,178.13L346.575,176.338L347.375,174.563L348.259,172.812L349.222,171.087L350.257,169.395L351.359,167.74L352.523,166.126L353.742,164.559L355.011,163.044L356.323,161.585L357.675,160.187L359.058,158.856L360.468,157.596L361.899,156.412L363.345,155.31L364.8,154.294L366.259,153.37L367.714,152.541L369.172,151.81L369.911,151.477C370.185,151.356 370.448,151.043 370.497,150.78C370.546,150.516 370.364,150.401 370.089,150.523" style="fill-rule:nonzero;"/>
        <path d="M410.808,133.201L410.906,133.302L411.093,133.462L411.268,133.565L411.438,133.611L411.622,133.591L411.856,133.463L412.08,133.213L412.213,132.945L412.296,132.67L412.356,132.367L412.4,132.027L412.43,131.647L412.446,131.228L412.45,130.77L412.451,130.269L412.465,129.715L412.5,129.107L412.53,128.462L412.553,127.782L412.57,127.07L412.585,125.948L412.587,124.359L412.569,122.677L412.365,121.038L412.096,119.378L411.808,117.681L411.35,115.099L410.706,111.668L410.216,109.167L409.894,107.56L409.581,106.021L409.281,104.563L408.998,103.201L408.799,102.251L408.674,101.655L408.554,101.093L408.441,100.564L408.336,100.072L408.238,99.617L408.15,99.202L408.07,98.829L407.999,98.5L407.939,98.216L407.889,97.979L407.85,97.793L407.808,97.583L407.809,97.586L407.813,97.614L407.755,97.108L407.647,96.05L407.547,94.926L407.453,93.739L407.365,92.498L407.283,91.208L407.165,89.196L407.019,86.41L406.881,83.552L406.739,80.677L406.591,77.837L406.469,75.763L406.383,74.419L406.292,73.113L406.191,71.854L406.083,70.647L405.969,69.497L405.846,68.412L405.715,67.396L405.566,66.462L405.407,65.611L405.236,64.847L405.053,64.175L404.855,63.6L404.637,63.125L404.391,62.75L404.085,62.487L403.846,62.377C403.816,62.365 403.783,62.356 403.749,62.35L403.684,62.342L403.418,62.347L402.853,62.534L402.005,63.212L401.526,63.887L401.313,64.302L401.202,64.535L401.221,64.551L401.444,64.324L401.701,64.16L401.826,64.12L401.951,64.099L401.905,64.112L401.78,64.142L401.5,64.183L401.099,64.231L400.594,64.287L399.993,64.349L399.307,64.417L398.564,64.455L397.832,64.367L397.045,64.271L396.21,64.168L395.334,64.059L393.956,63.886L392.037,63.644L390.073,63.394L388.116,63.144L386.221,62.903L384.873,62.729L384.021,62.619L383.215,62.517L382.46,62.422L381.763,62.335L381.131,62.259L380.571,62.19L380.09,62.133L379.693,62.089L379.385,62.059L379.265,62.049L379.267,62.05L378.505,61.981L376.981,61.763L375.443,61.444L373.901,61.022L372.352,60.516L370.797,59.945L369.248,59.304L367.723,58.59L365.505,57.379L362.29,56.099L359.867,55.216L358.276,54.655L356.709,54.131L355.171,53.653L354.412,53.435C354.41,53.435 354.409,53.434 354.407,53.434L354.277,53.399L354.054,53.349L353.878,53.323L353.724,53.323L353.356,53.467L352.861,54.306L352.954,54.488L353.074,54.606L353.227,54.727L353.415,54.861L353.636,55.008L353.889,55.168L354.322,55.429L354.987,55.814L355.729,56.228L356.526,56.66L357.764,57.326L358.977,57.988L359.7,58.447L360.267,58.981L360.488,59.534L360.691,59.778L360.795,59.88C360.796,59.881 360.797,59.882 360.799,59.882L361.383,60.357L362.753,61.168L364.293,61.873L365.976,62.467L367.764,62.971L369.642,63.374L371.572,63.701L373.525,63.964L375.487,64.155L377.438,64.275L379.364,64.316L380.786,64.291L381.719,64.247L382.638,64.175L383.54,64.082L384.425,63.962L385.293,63.811L386.142,63.631L386.967,63.425L387.771,63.185L388.551,62.91L388.936,62.757C388.942,62.755 388.948,62.753 388.954,62.75L389.094,62.686L389.401,62.506L389.707,62.267L389.99,61.98L390.242,61.657L390.461,61.305L390.651,60.93L390.817,60.531L390.963,60.108L391.09,59.661L391.2,59.19L391.297,58.695L391.422,57.908L391.546,56.783L391.629,55.578L391.678,54.305L391.703,52.973L391.708,51.592L391.706,49.448L391.739,46.496L391.799,44.273L391.867,42.81L391.939,41.393L392.029,40.028L392.144,38.729L392.265,37.523L392.418,36.412L392.557,35.659L392.66,35.202L392.773,34.775L392.895,34.389L393.021,34.05L393.15,33.767L393.272,33.548L393.375,33.406L393.443,33.35L393.455,33.374L393.417,33.447L393.366,33.518L393.358,33.556L393.425,33.566L393.571,33.573L393.785,33.598L394.053,33.658L394.368,33.76L394.529,33.825L394.508,33.817L395.023,34.043L395.995,34.543L396.922,35.116L397.815,35.761L398.683,36.467L399.523,37.238L400.334,38.068L401.119,38.955L401.88,39.895L402.622,40.878L403.345,41.902L404.05,42.965L404.737,44.062L405.41,45.189L406.399,46.926L407.691,49.293L408.959,51.695L410.221,54.098L411.501,56.459L412.481,58.185L413.148,59.307L413.827,60.397L414.52,61.454L415.231,62.473L415.962,63.448L416.716,64.375L417.496,65.248L417.902,65.669L417.897,65.664L418.123,65.904L418.552,66.426L418.99,67.025L419.441,67.691L420.135,68.767L421.079,70.223L421.805,71.251L422.303,71.873L422.808,72.415L423.335,72.862L423.768,73.132L424.095,73.276L424.438,73.371L424.829,73.414L425.292,73.383L425.852,73.238L426.514,72.934L427.229,72.448L427.686,72.052C427.802,71.942 427.914,71.826 428.019,71.704L428.055,71.662L428.543,70.973L428.832,70.39L428.985,69.963L429.092,69.586L429.179,69.215L429.255,68.832L429.324,68.429L429.42,67.784L429.539,66.823L429.651,65.748L429.754,64.572L429.851,63.302L429.941,61.947L430.025,60.518L430.102,59.024L430.173,57.477L430.239,55.886L430.327,53.443L430.423,50.136L430.498,46.85L430.542,44.451L430.563,42.907L430.581,41.417L430.596,39.992L430.61,38.642L430.615,37.383L430.619,36.22L430.623,35.166L430.627,34.23L430.631,33.425L430.635,32.914L430.636,32.621L430.637,32.368L430.639,32.156L430.64,32.068C430.64,32.066 430.641,32.065 430.641,32.063L430.643,31.85L430.643,31.347L430.639,30.782L430.633,30.175L430.626,29.218L430.625,28.262L430.633,27.659L430.653,27.099L430.685,26.608L430.73,26.215L430.78,25.968L430.785,25.998L430.408,26.657L429.381,27.505L428.784,27.656L428.601,27.622L428.582,27.623L428.627,27.689L428.656,27.735L428.646,27.718L428.782,27.949L429.029,28.419L429.25,28.921L429.444,29.465L429.707,30.342L430.015,31.601L430.293,32.939L430.535,34.364L430.739,35.871L430.911,37.452L431.054,39.101L431.182,40.801L431.294,42.549L431.389,44.341L431.51,47.095L431.665,50.836L431.832,54.608L431.99,57.422L432.116,59.281L432.263,61.112L432.44,62.908L432.646,64.665L432.886,66.374L433.165,68.029L433.491,69.62L433.865,71.142L434.291,72.587L434.65,73.622L434.91,74.288L435.185,74.923L435.476,75.535L435.786,76.119L436.114,76.677L436.462,77.208L436.83,77.71L437.029,77.958C437.175,78.139 437.394,78.243 437.669,78.26L437.673,78.261L440.31,76.705L440.821,75.951L440.965,75.671L441.095,75.392L441.264,75.002L441.453,74.553L441.663,74.042L441.896,73.473L442.146,72.854L442.55,71.854L443.119,70.444L443.691,69.03L444.102,68.029L444.359,67.413L444.479,67.129L444.462,67.167L444.495,67.093L444.551,66.972L444.643,66.784L444.772,66.523L444.935,66.201L445.128,65.825L445.349,65.399L445.598,64.926L445.872,64.409L446.171,63.851L446.492,63.254L446.835,62.621L447.199,61.954L447.583,61.255L447.987,60.527L448.41,59.771L448.849,58.99L449.306,58.186L450.021,56.938L451.018,55.214L452.063,53.439L453.149,51.63L454.268,49.801L455.408,47.97L456.567,46.156L457.736,44.376L458.904,42.647L460.062,40.988L461.206,39.418L462.324,37.956L463.125,36.956L463.638,36.34L464.148,35.75L464.642,35.201L465.117,34.697L465.572,34.24L466.003,33.833L466.406,33.478L466.779,33.176L467.12,32.927L467.425,32.729L467.696,32.581L467.935,32.476L468.149,32.409L468.347,32.374L468.538,32.37L468.732,32.397L468.933,32.464L469.142,32.578L469.352,32.752L469.561,32.991L469.764,33.303L469.85,33.472L469.778,33.276L469.783,33.299L469.815,32.652L470.138,31.942L470.358,31.632L470.427,31.547L470.388,31.577L470.275,31.676L470.104,31.821L469.885,32.002L469.626,32.212L469.33,32.448L469.003,32.708L468.646,32.99L468.262,33.293L467.639,33.785L466.733,34.502L465.749,35.291L464.699,36.146L463.595,37.064L462.447,38.043L461.267,39.08L460.065,40.172L458.853,41.319L457.639,42.515L456.435,43.761L455.252,45.055L454.102,46.396L452.993,47.78L451.939,49.206L450.955,50.671L450.056,52.172L449.256,53.702L448.572,55.252L448.02,56.812L447.62,58.37L447.422,59.556L447.345,60.346L447.316,61.103L447.331,61.852L447.394,62.592L447.503,63.322L447.659,64.042L447.864,64.752L447.99,65.117C447.996,65.134 448.002,65.151 448.009,65.167L448.11,65.411L448.409,65.938L448.801,66.406L449.268,66.779L449.8,67.061L450.388,67.254L451.022,67.366L451.694,67.403L452.396,67.374L453.122,67.286L453.866,67.146L454.623,66.961L455.389,66.737L456.161,66.48L457.303,66.048L458.824,65.396L460.319,64.687L461.74,63.965L462.745,63.432L463.375,63.091L463.963,62.769L464.509,62.467L465.009,62.191L465.455,61.945L465.842,61.736L466.16,61.571L466.393,61.457L466.516,61.405L466.465,61.428L466.236,61.496L466.276,61.486L466.329,61.48L466.58,61.443L466.962,61.391L467.452,61.329L468.036,61.258L468.704,61.181L469.446,61.099L470.253,61.015L471.117,60.929L472.029,60.843L472.979,60.758L474.459,60.639L476.483,60.504L478.497,60.408L479.953,60.373L480.881,60.368L481.77,60.38L482.606,60.411L483.379,60.461L484.08,60.532L484.697,60.625L485.218,60.739L485.631,60.872L485.92,61.017L486.031,61.112L486.051,61.148L486.053,61.172L486.029,61.153L485.998,61.069L485.992,60.898L486.044,60.649L486.16,60.373L486.296,60.15L486.437,59.962L486.23,60.224L485.973,60.484L485.691,60.716L485.294,61.009L484.783,61.346L484.171,61.709L483.47,62.085L482.692,62.465L481.848,62.844L480.947,63.22L479.997,63.59L479.005,63.953L477.448,64.484L475.293,65.159L473.089,65.799L470.873,66.407L468.687,66.986L466.572,67.542L465.054,67.944L464.083,68.207L463.152,68.466L462.263,68.722L461.421,68.977L460.629,69.232L459.887,69.489L459.197,69.75L458.849,69.894C458.838,69.899 458.827,69.903 458.816,69.908L458.511,70.04L457.856,70.33L457.169,70.646L456.46,70.983L455.367,71.522L453.851,72.312L452.279,73.181L450.675,74.124L449.057,75.138L447.444,76.221L445.852,77.369L444.296,78.584L442.795,79.867L441.362,81.217L440.32,82.303L439.647,83.067L439.026,83.825L438.436,84.604L437.886,85.403L437.379,86.22L436.92,87.052L436.517,87.895L436.32,88.363C436.31,88.387 436.301,88.411 436.292,88.435L436.017,89.148L435.467,90.696L434.959,92.317L434.501,93.98L434.086,95.685L433.718,97.427L433.399,99.202L433.124,101.009L432.893,102.845L432.708,104.705L432.579,106.58L432.544,108.443L432.556,110.316L432.614,112.196L432.717,114.079L432.866,115.962L433.06,117.84L433.299,119.711L433.584,121.57L433.913,123.414L434.288,125.238L434.708,127.038L435.172,128.812L435.682,130.554L436.237,132.262L436.836,133.93L437.481,135.556L438.17,137.135L438.905,138.663L439.703,140.12L440.55,141.514L441.443,142.845L441.911,143.493C442.395,144.189 443.722,143.86 444.876,142.759C446.029,141.658 446.572,140.202 446.089,139.507L445.674,138.887L444.865,137.58L444.099,136.21L443.369,134.785L442.663,133.321L442,131.805L441.379,130.242L440.801,128.635L440.265,126.99L439.773,125.309L439.323,123.598L438.917,121.86L438.555,120.099L438.236,118.32L437.961,116.527L437.729,114.724L437.541,112.915L437.398,111.105L437.298,109.298L437.242,107.498L437.229,105.71L437.261,103.939L437.288,102.214L437.349,100.517L437.455,98.847L437.607,97.208L437.805,95.604L438.047,94.041L438.331,92.524L438.664,91.056L439.038,89.646L439.462,88.271L439.707,87.565L439.68,87.637L439.75,87.437L439.953,86.948L440.194,86.456L440.476,85.958L440.798,85.453L441.16,84.94L441.565,84.42L441.986,83.919L442.704,83.138L443.813,82.058L445.041,80.991L446.361,79.944L447.752,78.927L449.19,77.952L450.652,77.026L452.116,76.156L453.561,75.348L454.972,74.606L455.991,74.098L456.641,73.787L457.268,73.497L457.877,73.225L458.184,73.092L458.151,73.106L458.379,73.01L458.949,72.79L459.605,72.561L460.334,72.325L461.13,72.082L461.985,71.833L462.893,71.579L463.846,71.319L465.353,70.919L467.476,70.363L469.69,69.777L471.954,69.158L474.23,68.504L476.474,67.808L478.115,67.255L479.188,66.869L480.238,66.466L481.262,66.044L482.257,65.601L483.222,65.132L484.159,64.633L485.068,64.092L485.954,63.496L486.817,62.827L487.65,62.066L488.352,61.301L488.563,61.038C488.612,60.976 488.659,60.914 488.704,60.85L488.962,60.455L489.265,59.848L489.434,59.285L489.475,58.819L489.424,58.456L489.315,58.175L489.169,57.953L488.98,57.759L488.669,57.538L488.203,57.313L487.658,57.132L487.035,56.985L486.339,56.867L485.577,56.774L484.754,56.703L483.878,56.653L482.957,56.621L481.994,56.607L480.501,56.613L478.463,56.663L476.429,56.751L474.944,56.836L473.988,56.898L473.071,56.964L472.2,57.033L471.385,57.102L470.634,57.17L469.956,57.235L469.359,57.296L468.849,57.351L468.431,57.4L468.099,57.444L467.805,57.495L467.764,57.504C467.689,57.522 467.613,57.545 467.535,57.572L467.287,57.665L466.923,57.821L466.55,57.998L466.15,58.2L465.718,58.425L465.251,58.673L464.751,58.94L464.22,59.225L463.661,59.525L463.083,59.831L462.178,60.3L460.913,60.929L459.623,61.529L458.325,62.075L457.37,62.431L456.767,62.631L456.187,62.8L455.634,62.935L455.113,63.035L454.626,63.098L454.177,63.122L453.766,63.107L453.395,63.053L453.063,62.96L452.769,62.824L452.511,62.642L452.289,62.408L452.091,62.078L451.991,61.833L452.01,61.883L451.915,61.607L451.746,61.028L451.619,60.451L451.53,59.876L451.479,59.305L451.462,58.737L451.479,58.172L451.524,57.636L451.644,56.827L451.909,55.721L452.276,54.616L452.742,53.509L453.304,52.395L453.956,51.275L454.69,50.146L455.501,49.015L456.381,47.885L457.32,46.761L458.309,45.647L459.335,44.549L460.389,43.474L461.461,42.426L462.536,41.41L463.606,40.431L464.659,39.494L465.684,38.604L466.671,37.764L467.609,36.979L468.489,36.25L469.104,35.746L469.491,35.429L469.858,35.128L470.207,34.841L470.536,34.568L470.847,34.307L471.141,34.057L471.423,33.812L471.7,33.562L471.988,33.285L472.314,32.937L472.721,32.408L473.158,31.523L473.228,30.748L473.222,30.724C473.206,30.653 473.182,30.587 473.15,30.528L472.999,30.254L472.688,29.794L472.335,29.408L471.934,29.1L471.485,28.87L470.985,28.726L470.435,28.674L469.841,28.716L469.215,28.849L468.568,29.068L467.912,29.361L467.253,29.72L466.596,30.135L465.945,30.6L465.299,31.108L464.657,31.654L464.018,32.237L463.379,32.854L462.741,33.503L462.103,34.184L461.463,34.893L460.81,35.645L459.838,36.812L458.556,38.435L457.269,40.142L455.984,41.919L454.707,43.752L453.446,45.624L452.204,47.521L450.987,49.425L449.806,51.321L448.664,53.194L447.568,55.025L446.526,56.796L445.788,58.077L445.314,58.906L444.857,59.712L444.418,60.493L443.997,61.246L443.597,61.969L443.216,62.662L442.857,63.32L442.52,63.943L442.207,64.529L441.917,65.076L441.652,65.582L441.411,66.047L441.196,66.468L441.005,66.848L440.838,67.187L440.691,67.493L440.571,67.757L440.538,67.833C440.532,67.846 440.527,67.858 440.521,67.871L440.39,68.184L440.12,68.834L439.698,69.866L439.122,71.295L438.559,72.706L438.165,73.696L437.924,74.3L437.706,74.844L437.515,75.313L437.361,75.686L437.254,75.94L437.224,76.011L437.287,75.897L437.738,75.249L440.337,73.74L440.331,73.74L440.971,74.042L440.811,73.847L440.487,73.416L440.177,72.955L439.881,72.465L439.598,71.946L439.328,71.401L439.07,70.829L438.828,70.238L438.486,69.301L438.069,67.961L437.697,66.536L437.366,65.031L437.071,63.459L436.81,61.824L436.58,60.135L436.378,58.397L436.196,56.623L436.032,54.821L435.815,52.07L435.549,48.366L435.287,44.677L435.068,41.963L434.907,40.187L434.731,38.448L434.53,36.755L434.295,35.121L434.033,33.545L433.738,32.036L433.407,30.6L433.031,29.248L432.595,28.003L432.237,27.134L431.986,26.579L431.733,26.039L431.479,25.523L431.354,25.282C431.351,25.276 431.348,25.271 431.344,25.265L431.273,25.144L431.128,24.946L430.934,24.771L430.589,24.645L429.842,24.785L428.678,25.696L428.118,26.58L427.916,27.132L427.799,27.628L427.71,28.162L427.639,28.748L427.581,29.378L427.533,30.043L427.478,31.058L427.439,32.049L427.416,32.668L427.395,33.229L427.372,33.717L427.359,33.937L427.36,33.932L427.354,34.034L427.341,34.263L427.327,34.531L427.312,34.838L427.291,35.364L427.261,36.188L427.227,37.143L427.189,38.217L427.148,39.401L427.103,40.682L427.062,42.046L427.019,43.485L426.971,44.989L426.921,46.546L426.848,48.952L426.74,52.244L426.622,55.549L426.527,57.983L426.459,59.563L426.386,61.097L426.31,62.572L426.229,63.978L426.144,65.303L426.054,66.534L425.959,67.661L425.86,68.667L425.755,69.544L425.675,70.104L425.623,70.417L425.573,70.678L425.531,70.874L425.506,70.985L425.524,70.966L425.673,70.706L426.018,70.253L425.981,70.296L426.314,69.948L426.544,69.765L426.803,69.625L427.006,69.564L427.105,69.565L427.104,69.586L427.03,69.595L426.905,69.574L426.763,69.525L426.49,69.372L426.07,69.033L425.626,68.572L425.172,68.018L424.468,67.042L423.513,65.598L422.793,64.505L422.309,63.806L421.82,63.153L421.332,62.575L421.103,62.336C421.102,62.334 421.1,62.333 421.098,62.331L420.721,61.948L419.97,61.125L419.235,60.249L418.516,59.322L417.812,58.348L417.121,57.331L416.442,56.277L415.773,55.191L414.782,53.509L413.472,51.192L412.159,48.832L410.832,46.458L409.478,44.111L408.426,42.396L407.706,41.279L406.968,40.188L406.212,39.129L405.434,38.105L404.63,37.124L403.797,36.193L402.936,35.311L402.044,34.484L401.12,33.717L400.159,33.015L399.154,32.391L398.109,31.842L397.032,31.378L396.492,31.183C396.485,31.18 396.478,31.177 396.471,31.175L396.225,31.097L395.764,30.989L395.305,30.933L394.838,30.937L394.348,31.011L393.824,31.176L393.266,31.453L392.707,31.846L392.2,32.318L391.781,32.817L391.454,33.309L391.199,33.785L390.995,34.252L390.831,34.718L390.695,35.191L390.583,35.674L390.491,36.172L390.416,36.694L390.333,37.5L390.269,38.628L390.254,39.819L390.3,41.054L390.378,42.337L390.483,43.66L390.617,45.005L390.814,47.07L391.037,49.859L391.133,51.938L391.161,53.292L391.161,54.6L391.126,55.853L391.053,57.036L390.939,58.136L390.824,58.9L390.73,59.376L390.621,59.822L390.501,60.237L390.368,60.617L390.225,60.959L390.074,61.26L389.917,61.517L389.757,61.732L389.59,61.91L389.407,62.06L389.186,62.19L389.046,62.25L389.064,62.243L388.707,62.376L387.963,62.619L387.194,62.829L386.402,63.007L385.591,63.146L384.762,63.253L383.916,63.33L383.055,63.375L382.185,63.385L381.306,63.368L379.973,63.285L378.179,63.076L376.381,62.762L374.596,62.351L372.832,61.859L371.105,61.294L369.415,60.683L367.752,60.067L366.132,59.449L364.544,58.868L362.992,58.333L362.201,58.118L362.205,58.12L362.052,58.088L361.699,58.038L360.993,58.089L360.183,57.858L359.407,57.467L358.243,56.749L357.09,55.985L356.359,55.479L355.68,54.997L355.074,54.553L354.683,54.253L354.458,54.072L354.264,53.91L354.106,53.769L353.988,53.653L353.919,53.574L353.908,53.604L353.403,54.338L353.121,54.427L353.156,54.426L353.28,54.455L353.471,54.52L353.593,54.566L353.588,54.565L354.287,54.847L355.709,55.46L357.156,56.128L358.625,56.838L360.865,57.956L363.969,59.399L366.538,60.17L368.214,60.705L369.868,61.227L371.51,61.71L373.145,62.127L374.769,62.472L376.371,62.741L377.955,62.909L378.733,62.95C378.734,62.95 378.734,62.95 378.735,62.951L378.849,62.955L379.157,62.974L379.559,63.004L380.048,63.044L380.617,63.094L381.257,63.156L381.964,63.226L382.729,63.303L383.547,63.386L384.411,63.476L385.777,63.619L387.694,63.826L389.671,64.041L391.656,64.259L393.594,64.471L394.985,64.623L395.87,64.718L396.713,64.809L397.508,64.892L398.248,64.969L398.854,65.155L399.379,65.353L399.841,65.524L400.234,65.667L400.555,65.778L400.807,65.856L401.011,65.895L401.049,65.9C401.089,65.897 401.13,65.89 401.174,65.88L401.426,65.808L401.919,65.535L402.455,65.049L402.834,64.588L403.042,64.262L403.133,64.109L402.971,64.28L402.48,64.594L402.224,64.642L402.191,64.635L402.251,64.65L402.154,64.623L402.147,64.606L402.283,64.725L402.447,64.984L402.611,65.38L402.768,65.901L402.913,66.537L403.047,67.279L403.169,68.118L403.281,69.045L403.392,70.049L403.493,71.128L403.586,72.275L403.671,73.483L403.751,74.743L403.829,76.048L403.901,77.393L404.003,79.471L404.134,82.317L404.26,85.202L404.392,88.072L404.532,90.874L404.647,92.899L404.73,94.2L404.819,95.456L404.914,96.66L405.017,97.804L405.129,98.88L405.187,99.386C405.188,99.396 405.189,99.405 405.191,99.414L405.198,99.462L405.216,99.557L405.245,99.698L405.285,99.889L405.336,100.127L405.397,100.412L405.468,100.742L405.549,101.115L405.638,101.529L405.736,101.983L405.842,102.474L405.955,103.001L406.075,103.562L406.202,104.155L406.405,105.1L406.693,106.455L406.998,107.906L407.316,109.437L407.644,111.033L408.143,113.518L408.808,116.921L409.288,119.475L409.59,121.15L409.873,122.787L410.176,124.341L410.612,125.717L411.006,127.021L411.27,127.944L411.429,128.529L411.575,129.088L411.707,129.62L411.822,130.124L411.894,130.615L411.928,131.085L411.94,131.522L411.94,131.917L411.926,132.269L411.898,132.573L411.858,132.823L411.811,133.007L411.784,133.1L411.815,133.107L411.823,133.132L411.749,133.155L411.625,133.13L411.47,133.046L411.291,132.898L411.192,132.799C411.136,132.742 411.004,132.786 410.899,132.897C410.793,133.008 410.752,133.144 410.808,133.201" style="fill-rule:nonzero;"/>
        <path d="M411.247,278.207L411.657,278.065L412.52,277.68L413.368,277.191L414.173,276.596L414.922,275.89L415.579,275.091L416.094,274.254L416.439,273.446L416.63,272.701L416.695,272.028L416.659,271.42L416.543,270.867L416.358,270.363L416.111,269.907L415.813,269.496L415.467,269.132L415.078,268.817L414.648,268.557L414.179,268.357L413.674,268.22L413.132,268.154L412.551,268.169L411.926,268.279L411.249,268.509L410.523,268.882L409.77,269.415L409.033,270.101L408.367,270.905L407.801,271.784L407.335,272.718L407.033,273.475L406.838,274.005L406.653,274.545L406.481,275.109L406.394,275.414C406.389,275.432 406.385,275.451 406.381,275.47L406.304,275.793L406.193,276.585L406.178,277.405L406.253,278.211L406.425,278.989L406.693,279.725L406.958,280.255L407.17,280.589L407.403,280.895L407.663,281.178L407.813,281.319C407.819,281.323 407.825,281.328 407.831,281.333L408.071,281.539L408.577,281.907L409.097,282.199L409.622,282.414L410.155,282.553L410.703,282.612L411.271,282.588L411.866,282.476L412.488,282.269L413.136,281.957L413.791,281.537L414.428,281.025L415.017,280.446L415.543,279.829L415.998,279.196L416.386,278.559L416.715,277.926L416.993,277.297L417.313,276.394L417.603,275.189L417.751,273.989L417.761,273.103L417.716,272.529L417.633,271.994L417.51,271.481L417.346,270.994L417.14,270.536L416.89,270.114L416.592,269.731L416.413,269.541C416.403,269.531 416.394,269.522 416.384,269.513L416.264,269.406L415.969,269.199L415.629,269.043L415.241,268.96L414.781,268.97L414.231,269.109L413.602,269.413L412.964,269.876L412.401,270.426L411.952,270.989L411.607,271.53L411.34,272.044L411.057,272.744L410.796,273.677L410.653,274.617L410.633,275.526L410.701,276.195L410.791,276.627L410.914,277.023L411.074,277.396L411.273,277.742L411.515,278.056L411.802,278.332L412.137,278.565L412.522,278.748L412.959,278.875L413.449,278.939L413.994,278.934L414.316,278.901C414.335,278.899 414.354,278.897 414.373,278.894L414.595,278.855L415.092,278.734L415.607,278.554L416.131,278.3L416.677,277.946L417.228,277.47L417.726,276.895L418.104,276.298L418.345,275.746L418.478,275.257L418.541,274.649L418.473,273.911L418.276,273.227L417.979,272.607L417.6,272.055L417.153,271.581L416.647,271.204L416.222,270.991L415.911,270.889L415.59,270.833L415.244,270.823L414.862,270.871L414.432,270.999L413.949,271.234L413.431,271.595L413.106,271.882C413.075,271.911 413.044,271.941 413.014,271.971L412.811,272.19L412.376,272.691L411.978,273.212L411.645,273.726L411.381,274.228L411.193,274.708L411.084,275.154L411.053,275.553L411.092,275.899L411.19,276.19L411.336,276.43L411.523,276.622L411.742,276.771L411.987,276.88L412.256,276.952L412.544,276.988L412.988,276.975L413.625,276.838L414.175,276.616L414.58,276.387L414.963,276.108L415.344,275.759L415.699,275.347L415.999,274.895L416.226,274.43L416.377,273.969L416.458,273.517L416.478,273.068L416.441,272.616L416.348,272.154L416.279,271.908C416.278,271.903 416.277,271.898 416.275,271.893L416.22,271.727L416.099,271.42L415.969,271.158L415.829,270.944L415.676,270.775L415.503,270.65L415.301,270.571L415.055,270.55L414.636,270.654L414.002,271.063L413.457,271.654L413.074,272.239L412.776,272.817L412.521,273.399L412.302,273.979L412.114,274.544L411.962,275.078L411.85,275.562L411.78,275.982L411.762,276.259L411.772,276.436L411.792,276.536C411.797,276.555 411.803,276.572 411.81,276.588L411.844,276.668L411.994,276.859L412.224,276.991L412.502,277.042L412.807,277.025L413.129,276.954L413.599,276.78L414.233,276.429L414.738,276.047L415.082,275.717L415.378,275.356L415.629,274.941L415.79,274.502L415.824,274.099L415.784,273.889C415.78,273.875 415.775,273.862 415.77,273.849L415.713,273.699L415.576,273.416L415.417,273.178L415.236,272.989L415.031,272.849L414.798,272.76L414.531,272.728L414.224,272.761L413.751,272.932L413.079,273.382L412.455,274.027L411.983,274.718L411.641,275.413L411.414,276.103L411.299,276.777L411.293,277.278L411.335,277.601L411.415,277.888L411.534,278.154L411.693,278.396L411.894,278.609L412.139,278.789L412.428,278.933L412.764,279.035L413.148,279.088L413.376,279.098C413.395,279.099 413.414,279.099 413.433,279.097L413.513,279.094L413.807,279.041L414.219,278.879L414.697,278.565L415.264,277.979L415.72,277.187L415.929,276.494L416,275.88L415.992,275.286L415.922,274.699L415.795,274.124L415.615,273.57L415.381,273.051L415.092,272.583L414.746,272.183L414.441,271.932L414.211,271.794L413.968,271.69L413.703,271.618L413.415,271.584L413.1,271.594L412.908,271.62C412.889,271.622 412.869,271.626 412.849,271.63L412.616,271.688L412.078,271.892L411.493,272.246L410.923,272.772L410.479,273.395L410.211,273.992L410.072,274.537L410.008,275.056L410.001,275.563L410.041,276.064L410.121,276.557L410.24,277.04L410.391,277.506L410.572,277.951L410.778,278.368L411.007,278.751L411.256,279.092L411.523,279.386L411.807,279.627L412.11,279.805L412.44,279.913L412.819,279.931L413.293,279.809L413.884,279.45L414.453,278.861L414.861,278.205L415.144,277.528L415.311,276.972L415.405,276.577L415.485,276.166L415.555,275.727L415.616,275.256L415.667,274.753L415.708,274.216L415.739,273.642L415.76,273.033L415.769,272.384L415.77,272.043C415.771,271.68 415.428,271.59 415.003,271.842C414.578,272.094 414.232,272.593 414.23,272.957L414.228,273.284L414.216,273.913L414.194,274.5L414.162,275.046L414.122,275.552L414.074,276.018L414.018,276.445L413.956,276.833L413.888,277.181L413.82,277.478L413.719,277.841L413.602,278.173L413.571,278.293L413.668,278.263L413.76,278.262L413.717,278.31L413.568,278.325L413.366,278.274L413.141,278.151L412.909,277.962L412.677,277.714L412.455,277.417L412.245,277.079L412.054,276.708L411.885,276.312L411.743,275.9L411.63,275.482L411.551,275.067L411.508,274.668L411.505,274.296L411.536,273.975L411.593,273.733L411.628,273.609L411.602,273.594L411.572,273.58L411.657,273.506L411.926,273.41L412.151,273.37L412.092,273.38L412.141,273.375L412.291,273.375L412.444,273.4L412.599,273.451L412.751,273.527L412.893,273.625L413.1,273.818L413.354,274.16L413.567,274.569L413.737,275.029L413.859,275.517L413.935,276.012L413.964,276.488L413.951,276.913L413.911,277.237L413.902,277.367L414.033,277.246L414.283,277.042L414.517,276.915L414.655,276.884L414.648,276.898L414.567,276.903L414.624,276.902L414.505,276.902L414.26,276.879L414.046,276.836L413.863,276.77L413.709,276.683L413.581,276.577L413.478,276.455L413.397,276.318L413.337,276.169L413.295,276.029L413.261,275.798L413.273,275.458L413.333,275.137L413.412,274.873L413.467,274.706L413.448,274.643L413.431,274.583L413.465,274.531L413.498,274.504L413.566,274.489L413.662,274.501L413.777,274.551L413.902,274.648L414.031,274.797L414.162,275.011L414.23,275.151L414.216,275.111L414.227,275.074L414.268,275.033L414.322,274.972L414.367,274.942L414.374,274.963L414.359,275.003L414.232,275.137L413.923,275.349L413.679,275.465L413.548,275.508L413.438,275.531L413.353,275.539L413.289,275.535L413.227,275.49L413.19,275.412L413.208,275.464L413.207,275.483L413.197,275.451L413.197,275.308L413.238,274.997L413.326,274.599L413.451,274.147L413.608,273.668L413.79,273.194L413.985,272.757L414.171,272.4L414.3,272.18L414.282,272.142L414.18,272.146L414.158,272.122L414.172,272.109L414.226,272.121L414.304,272.174L414.395,272.278L414.489,272.436L414.584,272.652L414.678,272.935L414.725,273.107L414.721,273.092L414.765,273.285L414.822,273.657L414.837,273.983L414.819,274.255L414.782,274.468L414.74,274.615L414.709,274.701L414.694,274.744L414.684,274.772L414.66,274.806L414.604,274.854L414.545,274.896L414.37,274.977L414.027,275.05L413.763,275.05L413.606,275.026L413.46,274.982L413.332,274.921L413.224,274.846L413.139,274.759L413.077,274.665L413.039,274.568L413.021,274.472L413.02,274.376L413.038,274.272L413.081,274.149L413.159,273.994L413.288,273.797L413.481,273.554L413.773,273.239L413.986,273.029L413.894,273.118L413.799,273.191L413.752,273.201L413.752,273.185L413.812,273.156L413.924,273.138L414.072,273.143L414.243,273.179L414.416,273.242L414.695,273.398L415.069,273.71L415.406,274.111L415.686,274.572L415.892,275.06L416.014,275.531L416.05,275.951L416.032,276.187L416.029,276.239L416.064,276.201L416.161,276.089L416.301,275.963L416.412,275.893L416.432,275.898L416.342,275.95L416.151,276.017L415.844,276.08L415.627,276.106L415.684,276.099L415.546,276.11L415.235,276.107L414.954,276.065L414.701,275.986L414.474,275.871L414.273,275.723L414.098,275.543L413.948,275.333L413.823,275.097L413.724,274.838L413.65,274.559L413.602,274.282L413.569,273.842L413.595,273.229L413.686,272.658L413.826,272.157L413.938,271.872L413.975,271.788L413.964,271.787L413.875,271.872L413.694,272.017L413.459,272.155L413.252,272.225L413.139,272.226L413.129,272.203L413.2,272.202L413.325,272.249L413.5,272.375L413.616,272.487L413.587,272.459L413.689,272.57L413.894,272.846L414.07,273.153L414.216,273.489L414.332,273.85L414.419,274.233L414.475,274.633L414.503,275.026L414.501,275.632L414.413,276.459L414.231,277.267L414.05,277.825L413.928,278.132L413.806,278.396L413.693,278.611L413.601,278.773L413.533,278.889L413.484,278.973L413.441,279.045L413.376,279.123L413.265,279.214L413.092,279.308L412.856,279.389L412.561,279.438L412.214,279.445L411.822,279.399L411.394,279.287L410.935,279.104L410.439,278.839L410.169,278.667L410.187,278.681L410.072,278.605L409.838,278.421L409.621,278.215L409.427,277.998L409.166,277.638L408.888,277.096L408.689,276.525L408.567,275.948L408.526,275.391L408.56,274.847L408.619,274.53L408.606,274.586L408.658,274.357L408.777,273.9L408.904,273.479L409.039,273.11L409.266,272.625L409.557,272.101L409.802,271.737L409.99,271.503L410.139,271.348L410.295,271.225L410.491,271.117L410.74,271.031L411.033,270.98L411.354,270.98L411.688,271.033L412.022,271.139L412.346,271.298L412.653,271.501L412.935,271.742L413.185,272.019L413.396,272.324L413.563,272.647L413.686,272.975L413.763,273.298L413.795,273.599L413.792,273.859L413.772,274.061L413.75,274.201L413.733,274.307L413.683,274.433L413.541,274.624L413.26,274.89L412.819,275.213L412.178,275.582L411.753,275.793C411.069,276.082 410.402,276.856 410.262,277.523C410.123,278.189 410.564,278.495 411.247,278.207" style="fill-rule:nonzero;"/>
        <path d="M476.925,272.476L476.707,272.611L476.264,272.904L475.84,273.213L475.443,273.531L475.072,273.859L474.727,274.198L474.283,274.704L473.792,275.406L473.426,276.139L473.224,276.834L473.171,277.459L473.244,278.008L473.419,278.484L473.673,278.9L473.994,279.262L474.371,279.572L474.795,279.832L475.257,280.045L475.749,280.208L476.266,280.318L476.799,280.377L477.344,280.381L477.896,280.327L478.458,280.202L479.036,279.995L479.638,279.679L480.271,279.213L480.891,278.57L481.393,277.806L481.707,277.031L481.829,276.445L481.862,276.064L481.861,275.702L481.831,275.336L481.773,274.962L481.688,274.578L481.574,274.182L481.432,273.772L481.26,273.348L481.057,272.908L480.943,272.679C480.94,272.673 480.937,272.668 480.934,272.663L480.903,272.607L480.8,272.452L480.598,272.198L480.25,271.832L479.83,271.455L479.362,271.099L478.866,270.796L478.479,270.62L478.208,270.534L477.934,270.487L477.633,270.484L477.416,270.516C477.391,270.52 477.366,270.526 477.34,270.533L477.04,270.616L476.42,270.831L475.818,271.104L475.245,271.439L474.696,271.849L474.182,272.341L473.736,272.895L473.39,273.468L473.149,274.024L473,274.547L472.924,275.039L472.903,275.508L472.955,276.166L473.144,277.011L473.446,277.817L473.831,278.563L474.279,279.234L474.776,279.807L475.189,280.156L475.486,280.344L475.788,280.487L476.108,280.586L476.46,280.629L476.866,280.597L477.361,280.452L477.974,280.117L478.427,279.758C478.52,279.674 478.609,279.583 478.692,279.487L478.816,279.349L479.336,278.578L479.691,277.785L479.903,277.059L480.036,276.347L480.111,275.63L480.135,274.911L480.104,274.201L480.022,273.511L479.883,272.857L479.687,272.253L479.427,271.715L479.178,271.357L478.982,271.143L478.769,270.966L478.53,270.82L478.261,270.71L477.956,270.643L477.61,270.63L477.223,270.677L476.971,270.737C476.94,270.744 476.908,270.754 476.875,270.764L476.681,270.834L476.145,271.08L475.545,271.453L474.963,271.939L474.442,272.498L474.013,273.085L473.676,273.667L473.416,274.233L473.219,274.786L473.062,275.332L472.945,275.874L472.858,276.415L472.78,277.214L472.765,278.28L472.822,279.08L472.894,279.602L472.993,280.096L473.121,280.569L473.281,281.016L473.471,281.433L473.69,281.818L473.94,282.168L474.222,282.477L474.54,282.739L474.898,282.948L475.297,283.1L475.744,283.185L476.243,283.193L476.799,283.109L477.41,282.917L477.791,282.752C477.829,282.735 477.867,282.716 477.905,282.695L478.038,282.625L478.466,282.359L478.955,281.979L479.419,281.525L479.822,281.029L480.145,280.531L480.459,279.878L480.704,279.063L480.804,278.296L480.794,277.596L480.702,276.946L480.539,276.347L480.318,275.804L480.043,275.325L479.719,274.923L479.342,274.61L478.893,274.404L478.317,274.35L477.67,274.5L477.087,274.795L476.731,275.047C476.668,275.096 476.605,275.148 476.544,275.204L476.469,275.272L476.076,275.689L475.714,276.169L475.441,276.614L475.143,277.214L474.824,278.035L474.569,278.894L474.373,279.769L474.234,280.65L474.159,281.517L474.151,282.351L474.194,282.952L474.25,283.335L474.329,283.687L474.432,284.015L474.564,284.316L474.727,284.586L474.927,284.82L475.17,285.011L475.463,285.15L475.812,285.225L476.221,285.221L476.687,285.128L477.197,284.938L477.734,284.657L478.052,284.457C478.072,284.445 478.092,284.432 478.112,284.418L478.417,284.204L479.035,283.746L479.621,283.277L480.159,282.805L480.651,282.328L481.098,281.843L481.498,281.35L481.847,280.85L482.139,280.35L482.368,279.858L482.531,279.386L482.628,278.941L482.666,278.529L482.651,278.15L482.589,277.802L482.487,277.482L482.35,277.187L482.182,276.915L481.884,276.549L481.4,276.117L480.83,275.741L480.198,275.423L479.516,275.161L478.801,274.953L478.066,274.799L477.326,274.698L476.595,274.65L475.887,274.657L475.212,274.719L474.578,274.84L473.98,275.033L473.514,275.258L473.161,275.488L472.823,275.779L472.495,276.157L472.238,276.582L472.091,276.988L472.042,277.341L472.057,277.657L472.124,277.951L472.235,278.238L472.39,278.527L472.585,278.824L472.823,279.134L473.106,279.457L473.438,279.794L473.816,280.151L474.247,280.524L474.73,280.915L475.268,281.326L475.864,281.755L476.185,281.978C476.19,281.98 476.195,281.983 476.2,281.986L476.363,282.088L476.725,282.255L477.117,282.349L477.542,282.357L478.02,282.259L478.556,282.028L479.119,281.649L479.642,281.166L480.08,280.642L480.429,280.116L480.708,279.597L480.938,279.086L481.202,278.342L481.463,277.33L481.63,276.309L481.701,275.323L481.697,274.61L481.664,274.157L481.607,273.738L481.527,273.347L481.422,272.987L481.291,272.662L481.131,272.377L480.934,272.136L480.691,271.947L480.387,271.824L480.005,271.79L479.529,271.883L479.19,272.015C479.152,272.032 479.115,272.05 479.077,272.07L479.015,272.105L478.775,272.253L478.414,272.515L477.938,272.918L477.458,273.38L476.99,273.881L476.539,274.415L476.115,274.972L475.731,275.547L475.405,276.133L475.156,276.725L475.036,277.192L475.008,277.506L475.034,277.771L475.112,278.006L475.245,278.202L475.428,278.354L475.658,278.461L475.932,278.525L476.246,278.547L476.601,278.529L476.998,278.475L477.439,278.382L477.687,278.319C478.096,278.222 478.568,277.777 478.741,277.325C478.914,276.872 478.723,276.584 478.313,276.681L478.133,276.719L477.795,276.777L477.513,276.806L477.286,276.808L477.109,276.791L476.978,276.76L476.886,276.721L476.825,276.68L476.786,276.639L476.763,276.597L476.751,276.55L476.745,276.518L476.759,276.417L476.86,276.174L477.039,275.868L477.285,275.523L477.578,275.165L477.894,274.818L478.207,274.504L478.488,274.248L478.716,274.061L478.823,273.984L478.86,273.962L478.922,273.93L478.81,273.985L478.731,274.003L478.741,273.977L478.797,273.963L478.887,273.988L478.993,274.066L479.1,274.199L479.2,274.387L479.286,274.625L479.356,274.906L479.407,275.225L479.441,275.577L479.457,275.943L479.451,276.53L479.38,277.359L479.251,278.174L479.065,278.941L478.898,279.446L478.795,279.707L478.707,279.904L478.654,280.023L478.656,280.067L478.71,280.063L478.771,280.067L478.772,280.109L478.683,280.167L478.51,280.203L478.274,280.188L477.978,280.098L477.8,280.014L477.815,280.022L477.474,279.843L476.839,279.491L476.267,279.151L475.758,278.825L475.309,278.511L474.917,278.212L474.584,277.925L474.303,277.654L474.075,277.401L473.897,277.165L473.769,276.951L473.683,276.765L473.634,276.617L473.612,276.519L473.599,276.489L473.558,276.539L473.474,276.639L473.381,276.72L473.336,276.743L473.331,276.732L473.479,276.65L473.855,276.532L474.342,276.451L474.904,276.42L475.517,276.441L476.161,276.512L476.819,276.634L477.471,276.805L478.103,277.023L478.696,277.287L479.235,277.592L479.704,277.935L480.091,278.315L480.319,278.621L480.433,278.824L480.52,279.028L480.579,279.23L480.611,279.425L480.618,279.612L480.604,279.787L480.571,279.952L480.521,280.11L480.45,280.271L480.352,280.444L480.217,280.639L480.035,280.861L479.797,281.112L479.499,281.391L479.137,281.695L478.708,282.022L478.195,282.38L477.888,282.582L477.948,282.543L477.899,282.576L477.751,282.662L477.634,282.717L477.532,282.75L477.429,282.764L477.322,282.752L477.21,282.708L477.098,282.627L476.993,282.506L476.898,282.345L476.816,282.148L476.75,281.915L476.699,281.652L476.666,281.373L476.645,280.905L476.671,280.212L476.754,279.486L476.883,278.763L477.048,278.079L477.233,277.479L477.417,276.997L477.53,276.756L477.543,276.717L477.474,276.784L477.38,276.864L477.456,276.796L477.269,276.953L477.087,277.07L476.854,277.157L476.729,277.137L476.838,277.105L477.044,277.173L477.28,277.352L477.509,277.628L477.715,277.981L477.884,278.389L478.008,278.828L478.083,279.27L478.105,279.682L478.088,280.017L478.05,280.257L478.035,280.347L478.153,280.251L478.236,280.197L478.29,280.178L478.228,280.232L478.095,280.305L478.209,280.248L478.162,280.281L477.949,280.375L477.723,280.438L477.484,280.461L477.236,280.44L476.986,280.37L476.739,280.251L476.498,280.087L476.267,279.879L476.051,279.631L475.851,279.344L475.671,279.024L475.509,278.675L475.365,278.305L475.242,277.914L475.143,277.517L475.04,276.897L474.993,276.031L475.031,275.387L475.09,274.986L475.173,274.609L475.273,274.269L475.388,273.977L475.497,273.747L475.586,273.59L475.642,273.504L475.665,273.463L475.685,273.43L475.748,273.376L475.934,273.292L476.125,273.236L476.029,273.263L476.026,273.261L476.115,273.246L476.216,273.248L476.329,273.269L476.448,273.315L476.571,273.39L476.692,273.493L476.801,273.615L476.961,273.853L477.154,274.262L477.308,274.744L477.42,275.28L477.493,275.847L477.524,276.425L477.519,276.991L477.479,277.518L477.412,277.973L477.344,278.303L477.34,278.417L477.428,278.369L477.308,278.513L477.573,278.242L477.825,278.065L478.009,278.008L478.043,278.032L477.963,278.066L477.809,278.079L477.608,278.057L477.38,277.995L477.145,277.899L476.765,277.687L476.248,277.293L475.771,276.789L475.368,276.2L475.062,275.561L474.87,274.897L474.811,274.409L474.811,274.119L474.838,273.864L474.88,273.657L474.924,273.505L474.961,273.399L475.004,273.309L475.089,273.198L475.255,273.052L475.519,272.884L475.881,272.712L476.36,272.547L476.66,272.467L476.584,272.484L476.556,272.48L476.657,272.471L476.809,272.493L476.984,272.545L477.286,272.683L477.714,272.955L478.13,273.285L478.503,273.635L478.806,273.966L478.967,274.174L479.035,274.28L479.066,274.337L479.057,274.321L479.157,274.531L479.336,274.942L479.484,275.332L479.603,275.699L479.695,276.042L479.761,276.362L479.802,276.656L479.822,276.923L479.822,277.16L479.811,277.342L479.788,277.539L479.769,277.692L479.797,277.728L479.82,277.759L479.749,277.846L479.56,277.967L479.276,278.082L478.925,278.17L478.528,278.221L478.107,278.229L477.676,278.193L477.247,278.113L476.83,277.994L476.436,277.838L476.078,277.645L475.762,277.423L475.496,277.175L475.291,276.908L475.15,276.634L475.066,276.366L475.037,276.113L475.054,275.872L475.123,275.616L475.298,275.278L475.518,274.974L475.697,274.758L475.917,274.521L476.182,274.264L476.493,273.99L476.86,273.689L477.075,273.524C477.443,273.269 477.708,272.828 477.667,272.538C477.625,272.249 477.293,272.221 476.925,272.476" style="fill-rule:nonzero;"/>
        <path d="M435.32,603.317L435.537,603.323L436.016,603.317L436.542,603.286L437.111,603.232L437.721,603.156L438.372,603.059L439.062,602.944L439.788,602.81L440.551,602.66L441.347,602.494L442.176,602.315L443.037,602.122L444.382,601.812L446.27,601.364L448.255,600.888L450.323,600.393L452.462,599.888L454.658,599.385L456.9,598.893L459.174,598.422L461.467,597.981L463.767,597.582L466.06,597.233L468.334,596.946L470.576,596.729L472.773,596.594L474.382,596.551L475.433,596.553L476.467,596.581L477.481,596.635L478.473,596.719L479.442,596.831L480.386,596.974L481.303,597.149L482.192,597.357L483.052,597.6L483.88,597.878L484.675,598.193L485.436,598.546L486.16,598.938L486.848,599.371L487.495,599.845L488.103,600.362L488.668,600.923L489.189,601.53L489.664,602.183L490.093,602.884L490.474,603.633L490.804,604.434L491.083,605.285L491.202,605.728C491.234,605.849 491.394,605.845 491.559,605.719C491.724,605.593 491.831,605.393 491.798,605.272L491.675,604.814L491.389,603.943L491.051,603.125L490.661,602.359L490.223,601.644L489.736,600.977L489.204,600.358L488.627,599.786L488.007,599.259L487.347,598.777L486.647,598.337L485.91,597.938L485.136,597.58L484.329,597.26L483.488,596.978L482.617,596.732L481.716,596.522L480.787,596.345L479.832,596.2L478.853,596.087L477.85,596.003L476.826,595.948L475.783,595.92L474.72,595.918L473.096,595.961L470.884,596.098L468.628,596.316L466.342,596.606L464.037,596.956L461.728,597.357L459.427,597.799L457.146,598.272L454.899,598.765L452.699,599.269L450.558,599.774L448.49,600.269L446.507,600.745L444.622,601.192L443.28,601.501L442.424,601.693L441.599,601.872L440.809,602.036L440.053,602.185L439.335,602.317L438.655,602.431L438.016,602.526L437.419,602.601L436.866,602.653L436.36,602.684L435.897,602.69L435.68,602.684C435.544,602.68 435.354,602.818 435.255,602.993C435.155,603.168 435.185,603.313 435.32,603.317" style="fill-rule:nonzero;"/>
        <path d="M420.991,554.077L421.012,554.065L420.947,554.103L420.992,554.092L421.108,554.061L421.273,554.021L421.478,553.974L421.722,553.922L422.001,553.864L422.486,553.769L423.245,553.626L424.129,553.468L425.13,553.295L426.245,553.108L427.465,552.909L428.787,552.698L430.203,552.478L431.708,552.248L433.298,552.011L434.965,551.768L436.704,551.519L438.51,551.266L440.376,551.011L442.297,550.754L444.269,550.496L447.307,550.111L451.477,549.607L455.745,549.117L460.064,548.658L464.391,548.231L468.679,547.848L471.842,547.593L473.916,547.44L475.956,547.302L477.956,547.18L479.909,547.075L481.812,546.986L483.658,546.916L485.441,546.865L487.157,546.834L488.798,546.822L490.361,546.832L491.838,546.865L493.224,546.921L494.514,546.998L495.701,547.102L496.777,547.233L497.739,547.386L498.374,547.518L498.755,547.614L499.107,547.717L499.425,547.826L499.708,547.939L499.954,548.058L500.163,548.18L500.332,548.305L500.463,548.428L500.555,548.546L500.61,548.653L500.631,548.741L500.626,548.8L500.609,548.822L500.595,548.804L500.593,548.76L500.598,548.718L500.589,548.708L500.542,548.751L500.438,548.85L500.272,549.001L500.039,549.197L499.742,549.429L499.382,549.694L498.962,549.987L498.482,550.308L497.944,550.654L497.348,551.03L496.693,551.439L495.978,551.887L495.603,552.127C495.077,552.392 494.605,552.998 494.548,553.48C494.491,553.962 494.871,554.138 495.397,553.873L495.792,553.724L496.544,553.413L497.254,553.086L497.924,552.748L498.555,552.405L499.147,552.06L499.704,551.709L500.229,551.353L500.724,550.985L501.193,550.603L501.638,550.198L502.06,549.762L502.45,549.29L502.795,548.788L503.07,548.273L503.255,547.776L503.347,547.325L503.358,546.933L503.303,546.598L503.197,546.311L503.049,546.062L502.865,545.841L502.647,545.645L502.397,545.468L502.116,545.306L501.805,545.158L501.464,545.022L501.093,544.898L500.692,544.785L500.257,544.681L499.554,544.543L498.527,544.39L497.388,544.275L496.146,544.191L494.805,544.137L493.369,544.114L491.844,544.12L490.235,544.151L488.548,544.209L486.789,544.291L484.962,544.396L483.073,544.522L481.129,544.668L479.134,544.833L477.095,545.014L475.017,545.212L472.905,545.424L469.687,545.766L465.334,546.261L460.949,546.789L456.577,547.344L452.265,547.912L448.054,548.49L444.992,548.921L443.005,549.206L441.069,549.488L439.189,549.766L437.372,550.038L435.622,550.304L433.946,550.563L432.348,550.812L430.834,551.053L429.41,551.284L428.081,551.502L426.853,551.708L425.731,551.901L424.72,552.08L423.827,552.244L423.055,552.391L422.56,552.489L422.269,552.55L422.01,552.606L421.782,552.659L421.584,552.708L421.41,552.756L421.237,552.814L421.031,552.911L421.009,552.923C420.639,553.14 420.335,553.573 420.33,553.892C420.325,554.21 420.621,554.293 420.991,554.077" style="fill-rule:nonzero;"/>
        <path d="M428.391,512.073L430.773,511.046L435.578,509.038L440.44,507.1L445.356,505.245L449.074,503.914L451.566,503.061L454.072,502.233L456.588,501.435L459.114,500.667L461.65,499.93L464.195,499.226L466.748,498.556L469.31,497.922L471.879,497.325L474.457,496.765L477.041,496.246L479.632,495.767L482.23,495.329L484.836,494.932L487.447,494.582L490.066,494.275L492.689,494.016L495.32,493.803L497.956,493.641L500.598,493.528L503.247,493.466L505.9,493.458L508.561,493.502L509.889,493.548L509.884,493.548L509.929,493.55L510.069,493.556L510.275,493.567L510.543,493.583L510.867,493.603L511.244,493.629L511.666,493.661L512.13,493.7L512.63,493.747L513.161,493.803L514.006,493.904L515.196,494.072L516.418,494.282L517.633,494.542L518.802,494.852L519.619,495.122L520.125,495.321L520.599,495.535L521.033,495.764L521.421,496.01L521.758,496.272L522.039,496.548L522.259,496.837L522.416,497.138L522.507,497.444L522.532,497.753L522.493,498.062L522.459,498.187C522.37,498.494 522.541,498.66 522.84,498.557C523.139,498.454 523.453,498.121 523.541,497.813L523.628,497.515L523.708,497.008L523.692,496.545L523.594,496.119L523.424,495.726L523.189,495.361L522.896,495.021L522.55,494.702L522.158,494.403L521.723,494.122L521.25,493.859L520.74,493.613L519.927,493.274L518.777,492.875L517.579,492.536L516.376,492.249L515.206,492.015L514.373,491.87L513.848,491.786L513.354,491.713L512.895,491.65L512.477,491.595L512.103,491.55L511.78,491.514L511.511,491.488L511.303,491.468L511.16,491.456L511.116,491.452L511.111,491.452L509.791,491.355L507.156,491.21L504.513,491.138L501.867,491.133L499.217,491.196L496.563,491.325L493.909,491.514L491.254,491.766L488.6,492.074L485.947,492.441L483.298,492.858L480.652,493.329L478.011,493.851L475.375,494.421L472.746,495.034L470.124,495.691L467.511,496.388L464.908,497.124L462.314,497.898L459.731,498.706L457.159,499.546L454.599,500.417L452.052,501.317L449.515,502.244L445.739,503.679L440.76,505.669L435.845,507.731L431.001,509.851L428.609,510.927C428.28,511.072 427.964,511.446 427.904,511.763C427.844,512.079 428.062,512.218 428.391,512.073" style="fill-rule:nonzero;"/>
        <path d="M500.882,438.257L505.825,437.573L515.719,436.215L525.626,434.907L533.065,433.988L538.028,433.416L542.995,432.883L547.965,432.397L552.939,431.962L557.916,431.584L562.897,431.27L567.882,431.026L572.87,430.857L577.862,430.77L580.358,430.759C580.471,430.758 580.626,430.642 580.704,430.499C580.782,430.356 580.754,430.241 580.642,430.241L578.141,430.253L573.143,430.34L568.15,430.509L563.161,430.754L558.175,431.068L553.194,431.446L548.216,431.881L543.242,432.368L538.272,432.901L533.306,433.473L525.864,434.393L515.955,435.701L506.06,437.06L501.118,437.743C500.997,437.76 500.846,437.888 500.781,438.03C500.716,438.172 500.762,438.274 500.882,438.257" style="fill-rule:nonzero;"/>
        <path d="M480.741,395.162L481.847,394.923L484.083,394.412L486.339,393.862L488.612,393.279L492.05,392.355L496.684,391.055L501.367,389.711L506.086,388.366L510.836,387.054L515.604,385.819L519.187,384.964L521.576,384.437L523.97,383.948L526.364,383.504L528.757,383.111L531.148,382.772L533.537,382.493L535.925,382.276L538.308,382.13L540.687,382.056L543.061,382.063L545.429,382.152L547.791,382.332L550.146,382.605L552.492,382.979L554.829,383.458L555.99,383.737C556.27,383.81 556.726,383.539 557.008,383.132C557.289,382.725 557.29,382.336 557.01,382.263L555.852,381.939L553.531,381.381L551.193,380.934L548.84,380.592L546.473,380.353L544.095,380.21L541.704,380.16L539.305,380.195L536.896,380.314L534.482,380.507L532.062,380.774L529.638,381.106L527.212,381.501L524.785,381.948L522.359,382.448L519.931,382.993L516.299,383.885L511.478,385.185L506.688,386.566L501.937,387.994L497.235,389.42L492.587,390.81L489.142,391.8L486.868,392.426L484.613,393.019L482.375,393.575L481.259,393.838C480.93,393.912 480.547,394.269 480.404,394.635C480.262,395 480.412,395.237 480.741,395.162" style="fill-rule:nonzero;"/>
        <path d="M443.65,360.86L443.547,360.684L443.43,360.35L443.422,360.042L443.509,359.77L443.668,359.54L443.895,359.324L444.217,359.092L444.645,358.846L445.173,358.595L445.794,358.347L446.502,358.104L447.292,357.868L448.16,357.639L449.103,357.415L450.116,357.199L451.195,356.99L452.338,356.788L453.542,356.589L454.802,356.398L456.116,356.213L457.482,356.029L458.894,355.852L460.351,355.679L461.85,355.509L463.385,355.345L464.957,355.18L467.372,354.943L470.683,354.635L474.073,354.339L477.514,354.058L480.98,353.792L484.442,353.544L487.873,353.314L491.246,353.104L494.534,352.914L496.927,352.785L498.481,352.706L499.999,352.631L501.477,352.563L502.912,352.499L504.301,352.441L505.639,352.387L506.925,352.34L508.153,352.297L509.322,352.259L510.427,352.227L511.466,352.199L512.434,352.176L513.33,352.158L514.148,352.145L514.886,352.137L515.541,352.133L516.109,352.135L516.586,352.14L516.967,352.151L517.119,352.158C517.397,352.171 517.794,351.887 518.004,351.524C518.215,351.161 518.16,350.856 517.881,350.842L517.718,350.834L517.326,350.821L516.842,350.811L516.271,350.806L515.614,350.805L514.875,350.808L514.056,350.815L513.161,350.826L512.194,350.841L511.158,350.86L510.055,350.884L508.889,350.912L507.664,350.945L506.382,350.982L505.048,351.023L503.664,351.069L502.234,351.119L500.761,351.174L499.248,351.234L497.699,351.298L495.314,351.404L492.037,351.563L488.674,351.744L485.251,351.947L481.793,352.175L478.325,352.429L474.874,352.712L471.466,353.026L468.126,353.373L465.68,353.658L464.086,353.856L462.522,354.067L460.994,354.283L459.505,354.508L458.058,354.742L456.657,354.982L455.305,355.232L454.005,355.488L452.763,355.749L451.579,356.02L450.458,356.296L449.404,356.577L448.419,356.863L447.507,357.158L446.669,357.459L445.91,357.765L445.23,358.08L444.63,358.405L444.108,358.748L443.668,359.119L443.327,359.519L443.116,359.919L443.04,360.29L443.082,360.639L443.234,360.976L443.35,361.14C443.383,361.191 443.477,361.17 443.559,361.092C443.642,361.015 443.683,360.911 443.65,360.86" style="fill-rule:nonzero;"/>
        <path d="M386.234,210.169L390.868,209.203L400.151,207.231L409.461,205.21L418.793,203.173L428.144,201.145L437.515,199.151L446.903,197.22L456.309,195.373L463.374,194.059L468.088,193.222L472.809,192.418L477.533,191.654L482.262,190.93L486.994,190.251L491.732,189.619L496.473,189.036L501.219,188.505L505.969,188.031L510.723,187.616L515.481,187.263L520.243,186.975L525.01,186.754L529.781,186.604L534.555,186.529L536.941,186.519C537.385,186.517 537.995,186.06 538.304,185.497C538.612,184.934 538.503,184.479 538.059,184.481L535.657,184.491L530.863,184.567L526.073,184.716L521.289,184.934L516.51,185.22L511.735,185.57L506.965,185.982L502.199,186.452L497.439,186.979L492.683,187.559L487.932,188.189L483.185,188.868L478.442,189.592L473.704,190.357L468.971,191.161L464.241,192.004L457.154,193.329L447.722,195.201L438.306,197.171L428.907,199.217L419.522,201.319L410.15,203.456L400.791,205.61L391.438,207.765L386.766,208.831C386.435,208.903 386.048,209.261 385.901,209.631C385.754,210.001 385.904,210.242 386.234,210.169" style="fill-rule:nonzero;"/>
        <path d="M408.322,223.535L408.722,223.417L409.58,223.177L410.521,222.932L411.544,222.68L412.645,222.421L413.823,222.158L415.073,221.891L416.393,221.619L417.78,221.345L419.231,221.067L420.742,220.788L422.312,220.508L423.936,220.227L425.613,219.945L427.339,219.664L429.111,219.384L430.928,219.105L432.784,218.829L435.64,218.421L439.563,217.888L443.596,217.375L447.718,216.886L451.906,216.425L456.135,215.998L460.385,215.608L464.631,215.261L468.851,214.961L473.022,214.712L476.103,214.563L478.13,214.482L480.132,214.416L482.106,214.367L484.049,214.334L485.959,214.319L487.832,214.321L489.665,214.342L491.456,214.382L493.201,214.441L494.898,214.521L496.544,214.622L498.137,214.743L499.672,214.887L501.147,215.053L502.56,215.241L503.907,215.454L505.185,215.69L506.392,215.951L507.524,216.236L508.579,216.547L509.553,216.884L510.443,217.247L511.247,217.635L511.961,218.05L512.583,218.491L512.853,218.717L512.842,218.707L512.982,218.837L513.182,219.071L513.294,219.273L513.332,219.435L513.314,219.53L513.285,219.521L513.303,219.415L513.338,219.326L513.295,219.333L513.143,219.413L512.899,219.53L512.583,219.66L512.209,219.795L511.788,219.929L511.078,220.126L510.033,220.371L508.91,220.595L507.738,220.801L506.551,220.989L505.38,221.163L504.257,221.323L503.213,221.474L502.499,221.581L502.06,221.651L501.853,221.686L499.364,222.104L494.384,222.883L486.895,223.954L481.896,224.634L481.898,224.634L481.698,224.661L481.241,224.72L480.71,224.787L480.105,224.862L479.43,224.944L478.688,225.034L477.881,225.131L477.012,225.236L476.083,225.347L475.098,225.465L474.059,225.59L472.969,225.722L471.83,225.861L470.645,226.005L469.416,226.156L468.146,226.313L466.839,226.476L465.496,226.645L463.42,226.909L460.553,227.28L457.591,227.672L454.555,228.085L451.467,228.516L446.783,229.195L442.096,229.914L439.006,230.411L435.969,230.922L433.004,231.448L430.134,231.985L427.377,232.534L425.396,232.954L424.12,233.239L422.885,233.526L421.693,233.818L420.543,234.118L419.434,234.44L418.375,234.767L417.367,235.101L416.415,235.435L415.522,235.771L414.69,236.107L413.922,236.442L413.218,236.778L412.581,237.115L412.01,237.454L411.505,237.8L411.063,238.16L410.681,238.546L410.371,238.972L410.169,239.419L410.113,239.666C410.11,239.681 410.108,239.696 410.107,239.711L410.102,239.88L410.137,240.244L410.233,240.59L410.382,240.907L410.576,241.204L410.807,241.482L411.208,241.875L411.816,242.37L412.463,242.848L413.099,243.326L413.674,243.82L413.923,244.077C413.944,244.101 413.994,244.086 414.037,244.044C414.079,244.001 414.097,243.947 414.077,243.923L413.858,243.626L413.348,243.053L412.784,242.495L412.215,241.942L411.69,241.383L411.354,240.954L411.17,240.664L411.026,240.37L410.925,240.074L410.872,239.778L410.87,239.469L410.893,239.289L410.887,239.334L410.89,239.292L410.936,239.16L411.047,239.004L411.253,238.81L411.558,238.588L411.957,238.351L412.441,238.108L413.004,237.862L413.641,237.616L414.348,237.37L415.12,237.126L415.956,236.883L416.852,236.641L417.805,236.4L418.816,236.153L419.879,235.905L421.001,235.637L422.171,235.365L423.388,235.09L424.644,234.817L426.604,234.408L429.34,233.867L432.195,233.333L435.148,232.809L438.176,232.294L441.258,231.792L445.937,231.066L450.621,230.372L453.709,229.931L456.744,229.509L459.708,229.106L462.577,228.724L464.654,228.451L465.998,228.277L467.307,228.109L468.578,227.947L469.808,227.791L470.995,227.641L472.136,227.498L473.228,227.362L474.269,227.232L475.256,227.109L476.186,226.993L477.058,226.885L477.868,226.783L478.613,226.69L479.291,226.604L479.901,226.526L480.438,226.456L480.901,226.394L481.102,226.366L481.104,226.366L486.122,225.66L493.645,224.55L498.652,223.744L501.147,223.314L501.344,223.279L501.77,223.209L502.478,223.099L503.523,222.943L504.655,222.776L505.842,222.594L507.054,222.396L508.261,222.178L509.435,221.937L510.545,221.671L511.32,221.451L511.811,221.29L512.28,221.116L512.728,220.923L513.163,220.699L513.596,220.424L514.037,220.059L514.447,219.581L514.724,219.067L514.828,218.632L514.812,218.282L514.712,217.979L514.539,217.696L514.299,217.424L514.158,217.293C514.154,217.29 514.151,217.287 514.147,217.283L513.842,217.035L513.176,216.572L512.421,216.141L511.58,215.742L510.655,215.373L509.649,215.032L508.565,214.72L507.406,214.435L506.174,214.177L504.872,213.944L503.503,213.736L502.069,213.553L500.575,213.393L499.021,213.257L497.411,213.142L495.748,213.05L494.035,212.979L492.274,212.928L490.468,212.898L488.621,212.886L486.734,212.894L484.811,212.919L482.855,212.962L480.869,213.022L478.854,213.099L476.814,213.191L473.715,213.357L469.522,213.627L465.282,213.949L461.016,214.319L456.747,214.73L452.5,215.179L448.295,215.661L444.156,216.17L440.107,216.702L436.169,217.252L433.303,217.674L431.439,217.958L429.616,218.244L427.836,218.531L426.103,218.818L424.419,219.106L422.788,219.393L421.211,219.68L419.692,219.964L418.233,220.245L416.838,220.524L415.51,220.8L414.25,221.071L413.061,221.338L411.947,221.599L410.91,221.855L409.952,222.105L409.079,222.348L408.678,222.465C408.401,222.547 408.096,222.852 407.998,223.148C407.899,223.443 408.044,223.616 408.322,223.535" style="fill-rule:nonzero;"/>
    </g>
</svg>
