<?xml version="1.0" encoding="iso-8859-1"?>
<!-- Generator: Adobe Illustrator 19.0.0, SVG Export Plug-In . SVG Version: 6.00 Build 0)  -->
<svg version="1.1" id="Capa_1" xmlns="http://www.w3.org/2000/svg" xmlns:xlink="http://www.w3.org/1999/xlink" x="0px" y="0px"
	 viewBox="0 0 469.336 469.336" style="enable-background:new 0 0 469.336 469.336;" xml:space="preserve" width="30px" height="30px">
<path style="fill:#111111;" d="M456.836,76.168l-64-64.054c-16.125-16.139-44.177-16.17-60.365,0.031L45.763,301.682
	c-1.271,1.282-2.188,2.857-2.688,4.587L0.409,455.729c-1.062,3.722-0.021,7.736,2.719,10.478c2.031,2.033,4.75,3.128,7.542,3.128
	c0.979,0,1.969-0.136,2.927-0.407l149.333-42.703c1.729-0.5,3.302-1.418,4.583-2.69l289.323-286.983
	c8.063-8.069,12.5-18.787,12.5-30.192S464.899,84.237,456.836,76.168z"/>
<g>
	<path style="fill:#FFCA28;" d="M120.193,333.998l-14.712-29.434c-1.813-3.615-5.5-5.896-9.542-5.896H78.857L285.925,89.737
		l39.264,39.264L120.193,333.998z"/>
	<path style="fill:#FFCA28;" d="M164.71,363.793l-29.434-14.712l204.996-204.996l39.264,39.264L170.606,390.417v-17.082
		C170.606,369.293,168.324,365.606,164.71,363.793z"/>
</g>
<path style="fill:#D32F2F;" d="M347.522,27.585c8.063-8.063,22.104-8.063,30.167,0l64,64c4.031,4.031,6.25,9.385,6.25,15.083
	c0,5.698-2.219,11.052-6.219,15.052l-47.033,46.613L300.94,74.586L347.522,27.585z"/>
<path style="fill:#F2F2F2;" d="M112.565,361.594c-1.031-0.516-4.255-3.74-4.771-4.771l-18.385-36.771H61.378l-23.741,83.107
	l29.753,28.262l81.947-23.41V379.98L112.565,361.594z"/>
<polygon style="fill:#000000;" points="67.389,431.421 37.637,403.159 40.095,394.551 40.095,394.551 26.201,443.188 
	74.837,429.293 74.837,429.293 "/>
<path style="opacity:0.1;enable-background:new    ;" d="M149.336,379.98l-36.771-18.385c-1.031-0.516-1.579-1.579-2.385-2.385
	l-83.979,83.979l123.135-35.177V379.98z"/>
<path style="opacity:0.1;enable-background:new    ;" d="M409.753,59.636l-61.875,61.875l46.874,46.874l47.033-46.613
	c4-4,6.219-9.354,6.219-15.052c0-5.698-2.219-11.052-6.25-15.083L409.753,59.636z"/>
<path style="opacity:0.1;enable-background:new    ;" d="M164.774,363.844l-29.434-14.712l204.996-204.996l39.264,39.264
	L170.67,390.468v-17.082C170.67,369.344,168.388,365.657,164.774,363.844z"/>
<linearGradient id="SVGID_1_" gradientUnits="userSpaceOnUse" x1="-62.5033" y1="615.2011" x2="-49.5005" y2="609.1403" gradientTransform="matrix(21.3333 0 0 -21.3333 1430.0814 13315.2549)">
	<stop  offset="0" style="stop-color:#FFFFFF;stop-opacity:0.2"/>
	<stop  offset="1" style="stop-color:#FFFFFF;stop-opacity:0"/>
</linearGradient>
<path style="fill:url(#SVGID_1_);" d="M456.836,76.168l-64-64.054c-16.125-16.139-44.177-16.17-60.365,0.031L45.763,301.682
	c-1.271,1.282-2.188,2.857-2.688,4.587L0.409,455.729c-1.062,3.722-0.021,7.736,2.719,10.478c2.031,2.033,4.75,3.128,7.542,3.128
	c0.979,0,1.969-0.136,2.927-0.407l149.333-42.703c1.729-0.5,3.302-1.418,4.583-2.69l289.323-286.983
	c8.063-8.069,12.5-18.787,12.5-30.192S464.899,84.237,456.836,76.168z"/>
<g>
</g>
<g>
</g>
<g>
</g>
<g>
</g>
<g>
</g>
<g>
</g>
<g>
</g>
<g>
</g>
<g>
</g>
<g>
</g>
<g>
</g>
<g>
</g>
<g>
</g>
<g>
</g>
<g>
</g>
</svg>