<?xml version="1.0" encoding="UTF-8" standalone="no"?>
<!DOCTYPE svg PUBLIC "-//W3C//DTD SVG 1.1//EN" "http://www.w3.org/Graphics/SVG/1.1/DTD/svg11.dtd">
<svg width="100%" height="100%" viewBox="0 0 450 450" version="1.1" xmlns="http://www.w3.org/2000/svg" xmlns:xlink="http://www.w3.org/1999/xlink" xml:space="preserve" xmlns:serif="http://www.serif.com/" style="fill-rule:evenodd;clip-rule:evenodd;stroke-linejoin:round;stroke-miterlimit:2;">
    <g id="Layer_1" transform="matrix(1,0,0,1,-275,-275)">
        <g transform="matrix(1.04954,0,0,1.04954,128.863,163.187)">
            <path d="M338.598,317.455L338.597,317.455C340.099,317.455 342.168,315.909 343.219,314.001C344.27,312.093 343.905,310.546 342.403,310.545L342.402,310.545C340.9,310.546 338.831,312.093 337.78,314C336.73,315.908 337.096,317.455 338.598,317.455" style="fill-rule:nonzero;"/>
        </g>
        <g transform="matrix(1.04954,0,0,1.04954,128.863,163.187)">
            <path d="M340.685,322.78L340.375,322.812L339.871,322.777L339.432,322.652L339.011,322.457L338.602,322.19L338.201,321.848L337.81,321.428L337.392,320.976L336.882,320.559L336.372,320.065L335.864,319.495L335.362,318.853L334.865,318.14L334.376,317.359L333.895,316.514L333.423,315.608L332.96,314.643L332.503,313.626L332.053,312.558L331.614,311.44L331.184,310.276L330.765,309.068L330.356,307.82L329.957,306.533L329.568,305.212L329.185,303.863L328.627,301.784L327.919,298.929L327.253,296.004L326.624,293.028L326.027,290.03L325.469,287.027L324.952,284.041L324.466,281.1L323.998,278.238L323.57,275.462L323.275,273.451L323.09,272.149L322.916,270.88L322.751,269.648L322.583,268.465L322.424,267.325L322.275,266.23L322.137,265.183L322.008,264.188L321.891,263.246L321.783,262.362L321.686,261.536L321.6,260.773L321.524,260.076L321.458,259.448L321.403,258.892L321.359,258.411L321.325,258.011L321.312,257.848L321.313,257.859L321.273,257.295L321.2,256.148L321.133,254.967L321.074,253.75L320.997,251.856L320.916,249.231L320.859,246.51L320.824,243.714L320.808,240.862L320.811,237.978L320.846,233.632L320.911,229.334L320.969,226.531L321.036,223.798L321.111,221.159L321.191,218.635L321.253,216.832L321.296,215.677L321.317,215.115L321.317,215.103L321.38,213.253L321.46,209.521L321.473,203.971L321.347,198.543L321.248,194.991L321.184,191.478L321.183,188.005L321.223,185.44L321.281,183.746L321.371,182.054L321.488,180.373L321.63,178.707L321.811,177.049L322.035,175.399L322.289,173.763L322.59,172.133L322.944,170.509L323.343,168.891L323.801,167.277L324.322,165.664L324.909,164.05L325.568,162.435L326.307,160.815L326.705,160.007C326.788,159.861 326.764,159.739 326.651,159.735C326.538,159.732 326.379,159.847 326.295,159.993L325.755,160.828L324.726,162.514L323.756,164.23L322.85,165.972L322.004,167.738L321.218,169.526L320.49,171.333L319.827,173.154L319.217,174.99L318.657,176.839L318.161,178.693L317.71,180.556L317.3,182.429L316.942,184.303L316.626,186.181L316.343,188.072L315.978,190.91L315.607,194.682L315.325,198.457L315.113,202.231L314.911,207.842L314.823,213.375L314.745,217.045L314.683,218.897L314.683,218.885L314.661,219.453L314.619,220.619L314.555,222.437L314.475,224.979L314.4,227.637L314.332,230.389L314.274,233.218L314.208,237.552L314.173,241.933L314.171,244.848L314.186,247.734L314.222,250.57L314.281,253.335L314.363,256.006L314.442,257.935L314.503,259.185L314.571,260.401L314.647,261.575L314.687,262.141C314.687,262.145 314.687,262.148 314.688,262.152L314.703,262.348L314.739,262.782L314.786,263.289L314.844,263.867L314.911,264.514L314.989,265.228L315.078,266.007L315.176,266.846L315.285,267.746L315.405,268.702L315.535,269.711L315.675,270.771L315.826,271.879L315.987,273.032L316.159,274.228L316.356,275.454L316.563,276.716L316.781,278.014L317.128,280.018L317.627,282.779L318.169,285.627L318.774,288.522L319.429,291.452L320.125,294.401L320.862,297.346L321.648,300.259L322.477,303.123L323.345,305.913L324.021,307.945L324.487,309.269L324.966,310.559L325.455,311.817L325.953,313.04L326.461,314.225L326.979,315.371L327.507,316.473L328.045,317.529L328.594,318.536L329.158,319.488L329.732,320.387L330.318,321.229L330.914,322.013L331.523,322.735L332.145,323.393L332.782,323.984L333.437,324.504L334.11,324.95L334.895,325.204L335.727,325.327L336.568,325.359L337.421,325.293L338.281,325.118L339.142,324.83L339.958,324.439L340.315,324.22C340.71,324.072 341.113,323.629 341.215,323.231C341.317,322.833 341.08,322.631 340.685,322.78" style="fill-rule:nonzero;"/>
        </g>
        <g transform="matrix(1.04954,0,0,1.04954,128.863,163.187)">
            <path d="M339.098,323.455L339.097,323.455C340.599,323.455 342.668,321.909 343.719,320.001C344.77,318.093 344.405,316.546 342.903,316.545L342.902,316.545C341.4,316.546 339.331,318.093 338.28,320C337.23,321.908 337.596,323.455 339.098,323.455" style="fill-rule:nonzero;"/>
        </g>
        <g transform="matrix(1.04954,0,0,1.04954,128.863,163.187)">
            <path d="M325.764,309.949L325.551,308.72L325.073,306.274L324.543,303.842L323.947,301.438L323.302,299.051L322.602,296.685L321.846,294.344L321.038,292.026L320.182,289.728L319.273,287.456L318.318,285.206L317.326,282.973L316.298,280.756L315.227,278.564L313.571,275.3L311.29,270.98L308.924,266.705L306.528,262.446L304.116,258.2L301.725,253.947L299.375,249.681L297.663,246.461L296.549,244.306L295.461,242.138L294.405,239.956L293.891,238.863L293.894,238.869L293.618,238.269L293.084,237.061L292.574,235.833L292.09,234.587L291.638,233.323L291.226,232.046L290.857,230.758L290.536,229.463L290.27,228.164L290.063,226.864L289.921,225.568L289.846,224.279L289.846,223.003L289.922,221.743L290.079,220.507L290.318,219.299L290.459,218.75L290.44,218.823L290.473,218.707L290.536,218.509L290.624,218.26L290.741,217.948L290.885,217.586L291.054,217.181L291.245,216.742L291.458,216.274L291.819,215.521L292.359,214.475L292.948,213.437L293.575,212.441L294.215,211.541L294.658,210.996L294.916,210.712L295.181,210.446L295.419,210.236L295.626,210.081L295.804,209.975L295.96,209.905L296.111,209.861L296.277,209.835L296.476,209.829L296.715,209.854L296.997,209.926L297.317,210.062L297.666,210.276L297.83,210.401L297.778,210.359L297.856,210.429L297.913,210.516L297.956,210.616L298.006,210.759L298.086,211.062L298.181,211.539L298.283,212.059L298.39,212.47L298.497,212.761L298.645,213.033L298.868,213.289L299.223,213.495L299.776,213.569L300.274,213.489C300.875,213.335 301.555,212.867 302.092,212.24L302.1,212.231L302.972,210.352L302.95,209.997L302.908,209.784L302.857,209.567L302.794,209.324L302.719,209.047L302.633,208.736L302.535,208.389L302.426,208.009L302.307,207.594L302.178,207.147L302.042,206.668L301.897,206.159L301.667,205.339L301.342,204.149L300.999,202.859L300.647,201.479L300.291,200.018L299.935,198.489L299.585,196.901L299.25,195.264L298.938,193.587L298.792,192.742L298.793,192.747L298.64,191.823L298.331,189.938L298.024,188.01L297.723,186.046L297.435,184.053L297.166,182.037L296.921,180.005L296.708,177.964L296.536,175.919L296.406,173.88L296.323,171.855L296.299,169.848L296.333,167.869L296.435,165.927L296.609,164.029L296.856,162.188L297.005,161.308L296.981,161.425L297.005,161.327L296.989,161.43L296.922,161.603L296.883,161.688L296.91,161.678L297.013,161.589L297.186,161.443L297.42,161.256L297.881,160.909L298.619,160.389L299.463,159.826L300.393,159.224L301.885,158.269L303.41,157.283L304.425,156.598L305.4,155.902L306.332,155.184L307.022,154.605L307.484,154.178L307.913,153.745L308.329,153.275L308.577,152.966C308.605,152.929 308.633,152.891 308.66,152.854L308.965,152.438L309.627,151.448L310.243,150.412L310.791,149.388L311.502,147.906L312.334,145.966L313.108,144.096L313.878,142.351L314.468,141.179L314.856,140.495L315.262,139.844L315.658,139.253L315.808,139.038L315.721,139.149L316.286,138.395L317.362,137.069L318.472,135.831L319.646,134.623L320.883,133.443L322.172,132.284L324.201,130.561L327.004,128.302L329.869,126.026L332.04,124.256L333.491,123.022L334.921,121.748L336.334,120.421L337.051,119.712C337.066,119.697 337.082,119.681 337.097,119.666L337.129,119.633L337.271,119.479L337.597,119.049L337.602,117.507L336.64,117.682L336.26,117.914L335.953,118.136L335.645,118.379L335.324,118.65L334.844,119.096L334.337,119.631L333.967,120.082L333.639,120.561L333.351,121.111L333.162,121.711L333.149,122.276L333.243,122.574C333.255,122.602 333.27,122.628 333.286,122.652L333.381,122.79L333.662,123.096L334.012,123.364L334.403,123.581L334.825,123.757L335.27,123.898L335.952,124.056L336.871,124.192L337.741,124.267L338.318,124.299L338.646,124.315L338.917,124.328L339.117,124.342L339.174,124.348L339.347,124.367L339.787,124.396L340.298,124.413L340.861,124.422L341.786,124.43L343.119,124.448L344.474,124.503L345.442,124.583L346.039,124.659L346.591,124.757L347.078,124.879L347.487,125.026L347.802,125.194L347.9,125.27L347.862,125.24L347.978,125.343L348.126,125.527L348.217,125.712L348.275,125.913L348.303,126.129L348.303,126.364L348.278,126.617L348.228,126.892L348.152,127.188L348.051,127.506L347.847,128.041L347.498,128.798L347.083,129.584L346.613,130.397L346.106,131.216L345.586,132.021L345.072,132.792L344.585,133.514L344.248,134.016L344.037,134.336L343.843,134.638L343.664,134.928L343.498,135.213L343.344,135.507L343.249,135.716C343.236,135.744 343.225,135.773 343.214,135.801L342.811,136.831L342.062,138.985L341.417,141.169L340.865,143.358L340.397,145.547L339.999,147.738L339.659,149.927L339.361,152.113L338.953,155.387L338.43,159.736L338.005,162.963L337.675,165.088L337.284,167.202L336.838,169.287L336.595,170.299L336.62,170.193L336.585,170.316L336.577,170.278L336.596,170.154L336.583,170.074L336.435,170.188L336.056,170.58L335.474,171.279L334.909,172.153L334.568,172.906L334.395,173.558L334.348,174.152L334.374,174.48C334.379,174.515 334.386,174.549 334.394,174.581L334.415,174.698L334.518,175.035L334.664,175.377L334.844,175.678L335.148,176.053L335.628,176.487L336.078,176.992L336.697,177.293L337.683,177.654L338.67,178.016L339.286,178.271L339.862,178.553L340.378,178.866L340.822,179.217L341.087,179.494L341.231,179.682L341.363,179.892L341.472,180.112L341.556,180.341L341.617,180.582L341.633,180.675L341.626,180.631L341.688,181.032L341.783,181.78L341.845,182.486L341.878,183.164L341.884,183.814L341.864,184.439L341.821,185.039L341.756,185.616L341.617,186.466L341.365,187.536L341.051,188.533L340.675,189.507L340.245,190.481L339.756,191.482L339.21,192.528L338.595,193.633L337.742,194.798L336.842,196.044L336.033,197.393L335.232,198.844L334.813,199.64C334.805,199.655 334.797,199.671 334.79,199.686L334.553,200.147L334.092,201.068L333.664,201.953L333.276,202.791L332.926,203.584L332.615,204.335L332.34,205.047L332.101,205.721L331.897,206.361L331.728,206.968L331.596,207.545L331.5,208.095L331.444,208.617L331.429,209.111L331.459,209.575L331.537,210.006L331.666,210.398L331.848,210.747L332.079,211.045L332.357,211.29L332.675,211.48L333.023,211.616L333.395,211.703L333.782,211.745L334.343,211.742L335.124,211.647L335.939,211.471L336.746,211.232L337.565,210.862L338.385,210.391L339.568,209.685L340.68,209.104L341.32,208.909L341.925,208.756L342.473,208.655L342.957,208.613L343.372,208.635L343.615,208.689L343.748,208.739L343.889,208.809L344.017,208.896L344.133,209.002L344.237,209.128L344.33,209.278L344.411,209.455L344.478,209.664L344.531,209.907L344.567,210.187L344.583,210.51L344.583,210.665L344.584,210.62L344.575,211.048L344.518,211.824L344.416,212.561L344.265,213.289L344.074,214.008L343.849,214.721L343.443,215.814L342.806,217.268L342.084,218.727L341.289,220.238L340.446,221.814L339.583,223.464L338.738,225.194L337.95,227.008L337.416,228.449L337.101,229.446L336.838,230.432L336.624,231.433L336.463,232.445L336.36,233.467L336.321,234.497L336.348,235.536L336.445,236.583L336.615,237.638L336.733,238.189C336.737,238.207 336.742,238.225 336.747,238.243L336.784,238.383L336.917,238.754L337.186,239.29L337.648,239.964L338.209,240.614L338.84,241.238L339.523,241.843L340.597,242.717L341.684,243.554L342.378,244.085L343.02,244.587L343.59,245.058L344.063,245.49L344.331,245.773L344.459,245.932L344.552,246.072L344.599,246.173L344.598,246.212L344.558,246.135L344.537,245.897L344.551,245.721L344.492,246.152L344.353,246.916L344.183,247.638L343.98,248.351L343.611,249.442L343.025,250.878L342.353,252.296L341.597,253.751L340.325,256.048L338.975,258.451L338.049,260.166L337.147,261.957L336.298,263.83L335.707,265.316L335.346,266.345L335.032,267.359L334.759,268.388L334.529,269.43L334.348,270.482L334.219,271.544L334.145,272.616L334.128,273.184L334.128,273.246L334.129,273.469L334.153,273.998L334.243,274.769L334.455,275.738L334.757,276.656L335.126,277.511L335.545,278.315L336.226,279.441L337.182,280.876L337.874,281.925L338.292,282.61L338.668,283.299L338.99,283.992L339.246,284.69L339.428,285.391L339.481,285.702L339.469,285.641L339.566,286.285L339.71,287.52L339.803,288.737L339.849,289.952L339.854,291.166L339.829,292.377L339.724,294.215L339.476,296.67L339.13,299.127L338.474,302.879L337.49,307.96L336.784,311.857L336.378,314.521L336.066,317.202L335.88,319.907L335.849,321.959L335.885,323.338L335.97,324.7L336.107,326.063L336.199,326.764C336.204,326.801 336.21,326.837 336.217,326.873L336.278,327.188L336.542,328.022L336.936,328.825L337.411,329.547L337.946,330.21L338.525,330.826L339.13,331.399L339.748,331.933L340.361,332.426L340.954,332.879L341.509,333.289L342.009,333.652L342.435,333.964L342.763,334.219L342.92,334.354L342.961,334.398L342.953,334.398L342.863,334.279L342.734,333.951L342.685,333.609L342.696,333.803L342.667,333.836L342.652,333.74L342.642,333.693L342.528,333.88L342.233,334.383L341.894,334.982L341.575,335.589L341.25,336.295L340.949,337.124L340.746,338.041L340.725,338.96L340.934,339.765L341.26,340.288L341.545,340.572L341.717,340.703C341.756,340.73 341.796,340.756 341.838,340.779L341.916,340.822L342.436,340.993L343.341,340.99L344.518,340.615L345.728,339.897L346.74,339.05L347.514,338.235L348.112,337.491L348.599,336.801L349.021,336.14L349.404,335.489L349.765,334.834L350.112,334.167L350.451,333.481L350.787,332.775L351.121,332.044L351.615,330.917L352.285,329.318L352.965,327.615L353.65,325.832L354.339,323.98L355.029,322.071L356.057,319.141L357.404,315.161L358.383,312.182L359.013,310.233L359.617,308.335L360.195,306.499L360.742,304.742L361.255,303.078L361.616,301.898L362.06,300.433L362.265,299.752L362.458,299.106L362.64,298.497L362.808,297.929L362.964,297.402L363.106,296.919L363.234,296.481L363.347,296.091L363.446,295.748L363.529,295.457L363.598,295.215L363.651,295.024L363.691,294.875L363.715,294.783C363.719,294.767 363.723,294.751 363.727,294.734L364.167,292.909L365.037,289.181L365.888,285.389L366.722,281.55L367.544,277.669L368.359,273.75L369.578,267.814L371.222,259.813L372.919,251.756L374.247,245.709L375.166,241.689L376.119,237.676L377.11,233.679L378.142,229.707L379.219,225.764L380.347,221.857L381.528,217.991L382.766,214.173L384.066,210.41L385.431,206.708L386.863,203.074L387.978,200.412L388.741,198.668L389.528,196.931L390.335,195.215L391.16,193.522L392.006,191.852L392.87,190.207L393.755,188.585L394.66,186.992L395.585,185.423L396.495,183.878L397.399,182.355L398.18,180.823L398.959,179.291L399.694,177.735L400.354,176.124L400.697,175.319C401.173,174.707 401.247,174.068 400.862,173.892C400.477,173.715 399.779,174.069 399.303,174.681L398.479,175.378L396.849,176.808L395.351,178.347L393.952,179.959L392.611,181.621L391.446,183.34L390.34,185.083L389.301,186.849L388.291,188.632L387.311,190.43L386.359,192.245L385.434,194.076L384.536,195.921L383.663,197.781L382.815,199.654L381.984,201.556L380.786,204.423L379.274,208.267L377.843,212.154L376.488,216.082L375.203,220.046L373.984,224.039L372.825,228.059L371.721,232.101L370.667,236.159L369.659,240.228L368.691,244.305L367.758,248.387L366.417,254.495L364.713,262.586L363.069,270.589L361.854,276.507L361.044,280.399L360.23,284.244L359.407,288.034L358.57,291.763L357.713,295.437L357.273,297.265L357.29,297.197L357.268,297.281L357.224,297.438L357.162,297.656L357.084,297.931L356.99,298.257L356.88,298.635L356.755,299.062L356.616,299.534L356.464,300.05L356.299,300.607L356.12,301.205L355.93,301.84L355.728,302.512L355.515,303.217L355.292,303.952L354.938,305.111L354.433,306.75L353.893,308.482L353.325,310.288L352.73,312.154L352.116,314.057L351.163,316.958L349.849,320.841L348.852,323.686L348.193,325.51L347.542,327.262L346.906,328.92L346.289,330.466L345.695,331.891L345.268,332.865L345.002,333.449L344.75,333.984L344.516,334.461L344.304,334.875L344.121,335.216L343.977,335.471L343.889,335.623L343.885,335.648L344.011,335.517L344.334,335.211L344.916,334.763L345.719,334.331L346.511,334.125L347.056,334.171L347.241,334.265L347.162,334.221L347.283,334.297L347.301,334.318L347.324,334.368L347.358,334.508L347.355,334.743L347.299,335.031L347.211,335.265L347.152,335.363L347.168,335.3L347.263,335.107L347.628,334.461L348.287,333.258L348.788,332.163L349.091,331.273L349.282,330.352L349.326,329.586L349.315,329.391C349.309,329.27 349.292,329.156 349.266,329.049L349.122,328.659L348.952,328.396L348.802,328.224L348.642,328.071L348.397,327.863L348.024,327.576L347.589,327.256L347.102,326.903L346.577,326.516L346.031,326.1L345.478,325.656L344.937,325.192L344.424,324.711L343.957,324.222L343.554,323.737L343.23,323.272L342.999,322.855L342.844,322.444L342.783,322.127L342.801,322.236L342.723,321.654L342.599,320.452L342.521,319.249L342.487,318.063L342.507,316.268L342.644,313.842L342.895,311.392L343.239,308.926L343.881,305.13L344.821,299.956L345.458,296.021L345.797,293.355L346.029,290.689L346.114,288.688L346.123,287.34L346.078,285.996L345.985,284.654L345.841,283.313L345.645,281.993L345.531,281.359C345.527,281.339 345.524,281.318 345.519,281.297L345.398,280.761L345.109,279.83L344.749,278.967L344.336,278.161L343.883,277.4L343.402,276.672L342.673,275.644L341.726,274.329L341.085,273.354L340.719,272.717L340.41,272.085L340.167,271.457L339.99,270.811L339.907,270.318L339.878,269.976L339.872,269.754L339.872,269.816L339.868,269.435L339.896,268.63L339.965,267.842L340.071,267.071L340.213,266.313L340.388,265.564L340.593,264.822L340.817,264.114L341.211,263.029L341.844,261.528L342.572,259.998L343.375,258.434L344.694,255.968L346.033,253.422L346.903,251.643L347.707,249.81L348.397,247.965L348.824,246.569L349.064,245.609L349.259,244.644L349.401,243.705L349.449,243.279C349.456,243.219 349.461,243.16 349.463,243.103L349.448,242.707L349.356,242.299L349.222,241.987L349.059,241.72L348.871,241.474L348.652,241.23L348.289,240.88L347.738,240.416L347.115,239.939L346.438,239.447L345.728,238.944L344.643,238.17L343.591,237.378L342.951,236.854L342.385,236.34L341.917,235.85L341.559,235.39L341.376,235.082L341.294,234.895L341.253,234.757L341.267,234.811L341.16,234.392L340.987,233.533L340.878,232.698L340.826,231.884L340.828,231.091L340.878,230.317L340.972,229.557L341.107,228.809L341.279,228.068L341.478,227.359L341.842,226.273L342.446,224.772L343.153,223.237L343.938,221.656L344.768,220.023L345.609,218.334L346.416,216.589L347.135,214.818L347.593,213.471L347.854,212.546L348.07,211.613L348.236,210.676L348.353,209.731L348.411,208.808L348.416,208.38C348.417,208.365 348.417,208.35 348.416,208.335L348.409,208.046L348.37,207.543L348.297,207.08L348.188,206.658L348.045,206.275L347.869,205.934L347.659,205.634L347.419,205.375L347.15,205.159L346.855,204.983L346.537,204.846L346.179,204.742L345.625,204.657L344.881,204.649L344.113,204.733L343.333,204.886L342.551,205.091L341.765,205.333L340.701,205.5L339.719,205.578L339.132,205.607L338.593,205.69L338.11,205.831L337.719,205.936L337.398,205.999L337.211,206.018L337.142,206.023L337.093,206.028L337.059,206.034L337.034,206.043L337.012,206.052L336.989,206.056L336.962,206.05L336.933,206.024L336.905,205.969L336.882,205.878L336.87,205.742L336.875,205.558L336.902,205.321L336.954,205.029L337.035,204.682L337.149,204.277L337.296,203.815L337.48,203.293L337.702,202.713L337.96,202.073L338.259,201.373L338.6,200.611L338.99,199.775L339.21,199.314L339.187,199.36L339.49,198.739L340.143,197.471L340.79,196.233L341.326,195L341.873,193.769L342.603,192.538L343.329,191.283L344.019,189.993L344.658,188.663L345.224,187.294L345.705,185.887L346.083,184.466L346.297,183.376L346.406,182.62L346.485,181.852L346.534,181.07L346.553,180.273L346.54,179.458L346.496,178.625L346.421,177.783L346.374,177.369C346.372,177.354 346.369,177.34 346.367,177.325L346.32,177.042L346.205,176.57L346.052,176.137L345.865,175.741L345.649,175.38L345.395,175.038L344.982,174.592L344.388,174.098L343.75,173.683L343.086,173.33L342.413,173.022L341.448,172.624L340.566,172.263L340.042,172.065L339.473,172.031L339.091,171.865L338.872,171.735L338.771,171.669L338.695,171.616L338.64,171.527L338.606,171.419L338.626,171.52L338.616,171.604L338.569,171.723L338.482,171.918L338.305,172.228L338.103,172.458L338.164,172.326L338.526,171.898L339.125,171.182L339.773,170.24L340.177,169.438L340.351,168.928L340.38,168.807C340.389,168.771 340.398,168.736 340.405,168.701L340.608,167.614L340.95,165.479L341.228,163.348L341.473,161.206L341.79,158.003L342.161,153.749L342.464,150.569L342.706,148.462L342.987,146.37L343.319,144.296L343.713,142.244L344.18,140.218L344.738,138.219L345.399,136.227L345.786,135.199L345.751,135.284L345.721,135.343L345.746,135.282L345.822,135.144L345.939,134.948L346.091,134.704L346.271,134.424L346.593,133.933L347.089,133.18L347.637,132.338L348.213,131.427L348.793,130.463L349.356,129.46L349.875,128.434L350.319,127.419L350.589,126.671L350.737,126.165L350.849,125.667L350.92,125.181L350.946,124.713L350.92,124.269L350.838,123.855L350.698,123.477L350.499,123.14L350.256,122.863L350.138,122.76C350.126,122.749 350.114,122.739 350.1,122.73L349.884,122.583L349.435,122.362L348.919,122.188L348.346,122.052L347.726,121.948L347.064,121.869L346.03,121.792L344.632,121.743L343.291,121.725L342.378,121.717L341.842,121.709L341.38,121.694L340.999,121.67L340.826,121.652L340.716,121.641L340.486,121.625L340.212,121.611L339.899,121.597L339.37,121.566L338.586,121.496L337.77,121.373L337.182,121.237L336.825,121.124L336.503,120.992L336.225,120.844L335.997,120.681L335.808,120.488L335.714,120.348L335.757,120.426L335.77,120.544L335.719,120.707L335.638,120.857L335.581,120.923L335.583,120.898L335.619,120.839L335.814,120.622L336.078,120.376L336.237,120.24L336.369,120.135L336.439,120.08L336.351,120.121L335.572,120.204L335.626,118.683L335.889,118.349L335.936,118.301L335.903,118.334L335.949,118.288L335.348,118.873L334.069,120.057L332.743,121.204L331.387,122.32L329.276,123.98L326.365,126.188L323.407,128.441L321.186,130.202L319.698,131.446L318.217,132.754L316.746,134.136L315.295,135.606L313.906,137.126L313.279,137.851C313.25,137.888 313.22,137.925 313.192,137.962L312.74,138.541L312.025,139.575L311.428,140.596L310.906,141.623L310.267,143.079L309.566,144.918L308.94,146.678L308.309,148.366L307.8,149.572L307.446,150.314L307.069,151.014L306.631,151.726L306.34,152.146L306.423,152.034L306.446,152.018L306.354,152.144L306.2,152.32L306.012,152.513L305.611,152.881L304.906,153.455L304.08,154.071L303.173,154.709L301.694,155.707L300.177,156.704L299.178,157.368L298.207,158.032L297.292,158.689L296.649,159.185L296.221,159.539L295.799,159.917L295.381,160.332L294.965,160.804L294.567,161.35L294.231,161.961L294.043,162.476L294.019,162.575C294.009,162.615 294.001,162.654 293.995,162.692L293.829,163.672L293.566,165.628L293.381,167.621L293.261,169.65L293.203,171.707L293.201,173.787L293.247,175.884L293.34,177.99L293.475,180.097L293.64,182.201L293.835,184.294L294.054,186.367L294.293,188.414L294.545,190.426L294.809,192.394L295.075,194.314L295.207,195.253C295.207,195.255 295.207,195.257 295.208,195.258L295.338,196.146L295.617,197.884L295.92,199.579L296.238,201.22L296.569,202.795L296.907,204.293L297.242,205.707L297.568,207.027L297.878,208.241L298.097,209.077L298.234,209.596L298.364,210.083L298.486,210.537L298.598,210.955L298.701,211.337L298.792,211.68L298.873,211.982L298.94,212.241L298.993,212.452L299.029,212.608L299.046,212.68L299.05,212.522L299.916,210.75L299.908,210.76L301.726,209.511L302.033,209.48L302.254,209.553L302.335,209.64L302.334,209.671L302.297,209.628L302.254,209.53L302.18,209.246L302.079,208.71L301.956,208.091L301.823,207.615L301.692,207.287L301.513,206.972L301.3,206.713L301.222,206.641C301.205,206.626 301.188,206.612 301.17,206.599L300.88,206.386L300.318,206.063L299.721,205.84L299.083,205.721L298.4,205.714L297.678,205.822L296.926,206.05L296.163,206.388L295.414,206.82L294.694,207.324L294.015,207.879L293.38,208.469L292.787,209.084L292.205,209.751L291.425,210.741L290.514,212.045L289.696,213.358L288.964,214.656L288.323,215.898L287.9,216.78L287.642,217.347L287.407,217.885L287.196,218.392L287.008,218.865L286.844,219.303L286.703,219.709L286.593,220.06L286.56,220.177C286.553,220.202 286.547,220.226 286.541,220.25L286.348,221.035L286.068,222.511L285.892,223.971L285.811,225.417L285.818,226.85L285.905,228.27L286.066,229.677L286.295,231.069L286.584,232.447L286.928,233.808L287.322,235.151L287.759,236.476L288.233,237.779L288.739,239.059L289.273,240.312L289.826,241.535L290.106,242.131C290.107,242.133 290.108,242.135 290.109,242.137L290.64,243.24L291.723,245.427L292.837,247.598L293.98,249.754L295.741,252.958L298.151,257.191L300.617,261.386L303.106,265.561L305.6,269.719L308.059,273.885L310.481,278.053L312.242,281.199L313.382,283.309L314.504,285.42L315.596,287.542L316.651,289.68L317.669,291.832L318.653,293.995L319.59,296.178L320.478,298.383L321.313,300.611L322.088,302.868L322.79,305.161L323.429,307.482L323.985,309.85L324.236,311.051C324.298,311.374 324.69,311.389 325.112,311.085C325.533,310.78 325.825,310.272 325.764,309.949" style="fill-rule:nonzero;"/>
        </g>
        <g transform="matrix(1.04954,0,0,1.04954,128.863,163.187)">
            <path d="M350.011,315.023L349.949,314.009L349.859,312.005L349.81,310.018L349.797,308.044L349.822,306.078L349.883,304.121L350.035,301.192L350.339,297.307L350.749,293.437L351.248,289.566L351.819,285.684L352.129,283.742C352.131,283.727 352.134,283.712 352.136,283.698L352.17,283.439L352.212,282.755L352.205,282.029L352.164,281.29L352.067,280.171L351.957,279.057L351.895,278.353L351.852,277.698L351.837,277.117L351.855,276.641L351.889,276.406L351.906,276.354L351.906,276.382L351.831,276.578L351.56,277.012L351.011,277.57L350.472,277.902L350.206,277.99L350.155,278.009L350.229,278.044L350.278,278.068L350.248,278.053L350.646,278.258L351.363,278.691L352.023,279.158L352.642,279.638L353.22,280.107L353.761,280.54L354.273,280.912L354.652,281.143L354.918,281.27L355.191,281.363L355.497,281.418L355.871,281.414L356.369,281.295L357.029,280.962L357.739,280.378L358.295,279.708L358.662,279.092L358.911,278.532L359.097,277.988L359.25,277.425L359.382,276.823L359.501,276.167L359.61,275.447L359.711,274.655L359.806,273.785L359.852,273.315L359.852,273.307L359.871,273.099L359.91,272.638L359.95,272.13L359.99,271.578L360.03,270.984L360.071,270.349L360.112,269.674L360.154,268.961L360.218,267.823L360.308,266.184L360.401,264.419L360.5,262.541L360.604,260.561L360.717,258.49L360.839,256.343L360.967,254.132L361.102,251.87L361.245,249.571L361.479,246.076L361.835,241.394L362.126,237.93L362.333,235.666L362.556,233.451L362.791,231.299L363.036,229.225L363.292,227.242L363.562,225.361L363.844,223.596L364.064,222.359L364.213,221.578L364.367,220.833L364.524,220.126L364.684,219.46L364.846,218.837L365.013,218.257L365.183,217.725L365.354,217.243L365.524,216.815L365.692,216.446L365.854,216.14L365.92,216.032L365.893,216.076L366.096,215.768L366.482,215.269L366.885,214.842L367.321,214.447L367.791,214.072L368.296,213.708L369.115,213.173L370.268,212.463L371.17,211.897L371.799,211.472L372.431,211.001L373.082,210.479L373.743,209.866L374.388,209.143L374.726,208.7C374.741,208.679 374.755,208.658 374.769,208.637L375.102,208.165L375.771,207.13L376.394,206.045L376.963,204.937L377.479,203.812L377.944,202.675L378.355,201.529L378.718,200.377L379.037,199.222L379.312,198.065L379.544,196.909L379.739,195.755L379.894,194.605L380.013,193.462L380.096,192.327L380.152,191.198L380.167,190.634C380.167,190.626 380.167,190.618 380.168,190.61L380.167,190.586L380.161,190.477L380.149,190.331L380.132,190.144L380.111,189.916L380.085,189.65L380.041,189.185L379.981,188.454L379.916,187.629L379.832,186.265L379.787,184.828L379.774,183.884L379.774,182.986L379.789,182.166L379.818,181.618L379.844,181.296L379.874,181.01L379.909,180.77L379.946,180.584L379.982,180.471L379.993,180.477L379.827,180.764L379.369,181.125L379.206,181.174L379.347,181.154L379.557,181.151L379.731,181.18L379.892,181.237L380.043,181.321L380.184,181.433L380.315,181.571L380.437,181.735L380.605,182.032L380.788,182.502L380.933,183.035L381.059,183.609L381.237,184.501L381.423,185.372L381.579,185.922L381.735,186.296L381.868,186.527L382.003,186.745L382.168,186.939L382.371,187.102L382.593,187.263L382.875,187.377L383.261,187.348L383.517,187.295C383.553,187.286 383.591,187.275 383.628,187.262L383.821,187.199L384.416,186.909L385.078,186.459L385.695,185.914L386.227,185.301L386.642,184.651L386.93,183.993L387.208,183.357L387.498,182.716L387.809,182.055L388.259,181.02L388.845,179.554L389.406,178.015L389.944,176.437L390.45,174.854L390.925,173.301L391.365,171.813L391.674,170.76L391.867,170.098L392.05,169.472L392.222,168.888L392.384,168.35L392.537,167.862L392.678,167.431L392.806,167.061L392.864,166.906L392.861,166.915L393.437,165.442L394.332,163.279L394.951,161.865L395.59,160.471L396.249,159.098L396.928,157.748L397.629,156.421L398.351,155.118L399.095,153.839L399.861,152.587L400.651,151.36L401.463,150.161L402.299,148.989L403.159,147.845L404.043,146.73L404.953,145.644L405.888,144.588L406.849,143.562L407.838,142.566L408.854,141.6L409.899,140.666L410.974,139.763L412.079,138.891L413.215,138.051L414.384,137.242L415.586,136.466L416.823,135.722L418.095,135.012L419.403,134.335L420.749,133.693L422.133,133.085L422.831,132.799C422.836,132.797 422.841,132.794 422.846,132.792L422.88,132.778L423.028,132.71L423.222,132.619L423.466,132.504L423.76,132.365L424.103,132.203L424.489,132.022L424.915,131.824L425.377,131.611L425.87,131.387L426.658,131.033L427.777,130.546L428.937,130.061L430.103,129.6L431.238,129.184L432.04,128.917L432.542,128.765L433.018,128.635L433.459,128.532L433.858,128.457L434.21,128.412L434.507,128.399L434.744,128.417L434.915,128.463L435.016,128.53L435.052,128.602L435.04,128.664L435.019,128.639L435.018,128.554L435,128.872L434.898,129.368L434.739,129.756L434.539,130.09L434.299,130.404L434.006,130.731L433.649,131.085L433.229,131.465L432.492,132.086L431.429,132.957L430.599,133.671L430.026,134.213L429.479,134.797L428.959,135.451L428.679,135.866C428.658,135.899 428.638,135.932 428.619,135.965L428.263,136.572L427.561,137.925L426.939,139.336L426.405,140.764L425.943,142.207L425.544,143.661L425.196,145.123L424.889,146.59L424.486,148.784L424.004,151.692L423.645,153.833L423.393,155.223L423.121,156.581L422.822,157.898L422.663,158.525L422.677,158.469L422.664,158.515L422.65,158.544L422.618,158.622L422.56,158.759L422.434,159.047L422.215,159.536L421.95,160.12L421.652,160.778L421.172,161.861L420.684,163.01L420.369,163.794L420.081,164.561L419.829,165.306L419.624,166.017L419.505,166.538L419.446,166.884L419.413,167.202L419.407,167.51L419.433,167.806L419.504,168.087L419.576,168.254C419.585,168.271 419.594,168.288 419.604,168.303L419.685,168.435L419.893,168.716L420.136,168.978L420.4,169.208L420.822,169.492L421.44,169.793L422.11,170.026L422.802,170.208L423.845,170.434L424.871,170.667L425.51,170.852L426.114,171.083L426.669,171.372L427.04,171.63L427.265,171.824L427.484,172.047L427.687,172.295L427.873,172.571L428.041,172.877L428.19,173.217L428.318,173.592L428.37,173.78L428.354,173.72L428.384,173.864L428.38,174.037L428.346,174.189L428.287,174.379L428.198,174.614L428.074,174.899L427.91,175.231L427.707,175.609L427.465,176.026L427.187,176.48L426.699,177.232L425.961,178.306L425.146,179.436L424.276,180.615L423.379,181.822L422.482,183.038L421.61,184.249L420.979,185.157L420.573,185.765L420.194,186.358L419.836,186.946L419.504,187.531L419.2,188.115L418.93,188.699L418.701,189.286L418.588,189.635C418.579,189.667 418.57,189.699 418.562,189.73L418.494,189.977L418.369,190.54L418.289,191.099L418.266,191.617L418.307,192.091L418.414,192.514L418.588,192.879L418.825,193.177L419.117,193.406L419.453,193.567L419.819,193.666L420.204,193.711L420.766,193.703L421.541,193.594L422.327,193.41L423.073,193.194L423.762,192.979L424.37,192.792L424.871,192.658L425.133,192.61L425.23,192.605L425.3,192.612L425.316,192.628L425.279,192.643L425.2,192.64L425.103,192.588L425.04,192.528L425.134,192.634L425.236,192.787L425.278,192.898L425.284,192.975L425.267,193.007L425.243,192.986L425.208,192.945L425.198,192.783L425.249,192.574L425.212,192.545L425.021,192.694L424.436,193.173L423.394,193.992L422.486,194.724L421.8,195.313L421.098,195.969L420.367,196.749L419.895,197.33C419.876,197.355 419.857,197.381 419.838,197.406L419.814,197.437L419.806,197.442L419.723,197.541L419.583,197.709L419.403,197.929L419.188,198.191L418.944,198.489L418.675,198.821L418.383,199.184L418.072,199.574L417.578,200.197L416.878,201.096L416.147,202.063L415.409,203.073L414.686,204.111L413.997,205.166L413.497,205.989L413.175,206.561L412.887,207.111L412.621,207.67L412.384,208.238L412.182,208.822L412.026,209.421L411.936,210.034L411.94,210.643L412.069,211.218L412.236,211.56C412.263,211.604 412.293,211.645 412.325,211.683L412.382,211.757L412.632,212L412.965,212.218L413.332,212.371L413.72,212.466L414.12,212.512L414.687,212.511L415.459,212.419L416.245,212.251L417.304,211.938L418.28,211.601L418.826,211.405L419.238,211.266L419.488,211.198L419.482,211.215L419.323,211.253L419.101,211.274L418.759,211.231L418.349,211.011L418.04,210.495L418.003,209.759L418.173,209.075L418.354,208.66L418.46,208.464L417.854,209.512L416.689,211.398L415.487,213.198L414.216,214.989L412.888,216.784L411.508,218.596L409.342,221.375L407.121,224.218L405.617,226.196L404.115,228.231L402.629,230.335L401.175,232.516L399.771,234.781L398.745,236.567L398.083,237.797L397.461,239.02L396.867,240.264L396.566,240.928L396.588,240.88L396.491,241.089L396.369,241.317L396.105,241.774L395.606,242.615L394.989,243.707L394.465,244.751L394.111,245.586L393.835,246.417L393.642,247.282L393.571,248.147L393.653,248.963L393.898,249.689L394.299,250.3L394.6,250.607C394.631,250.636 394.663,250.663 394.696,250.688L394.759,250.735L395.049,250.906L395.564,251.083L396.333,251.157L397.176,251.07L397.985,250.871L398.736,250.613L399.695,250.208L400.547,249.802L401.003,249.577L401.315,249.429L401.454,249.373L401.323,249.436L400.83,249.56L400.213,249.544L399.666,249.272L399.313,248.653L399.289,247.872L399.45,247.221L399.604,246.845L399.695,246.661L399.481,247.077L399.116,247.728L398.745,248.329L398.335,248.946L397.614,249.952L396.529,251.336L395.323,252.767L393.979,254.289L392.542,255.92L391.031,257.658L389.444,259.481L387.78,261.365L386.047,263.315L384.32,265.387L383.024,267.057L382.184,268.236L381.387,269.416L380.615,270.626L379.872,271.867L379.161,273.139L378.49,274.437L377.861,275.764L377.548,276.481C377.536,276.509 377.524,276.537 377.512,276.564L377.426,276.773L377.225,277.286L377.034,277.819L376.867,278.34L376.687,279.047L376.534,279.944L376.469,280.81L376.508,281.595L376.643,282.295L376.863,282.907L377.163,283.426L377.522,283.861L377.932,284.217L378.38,284.498L378.854,284.721L379.348,284.887L380.076,285.066L381.047,285.225L381.988,285.326L382.826,285.413L383.353,285.488L383.633,285.545L383.868,285.61L384.038,285.685L384.14,285.755L384.175,285.807L384.143,285.822L384.076,285.765L384.015,285.617L383.994,285.402L384.047,285.152L384.122,284.958L383.793,285.649L383.127,286.839L382.433,287.939L381.705,289.023L380.936,290.108L380.139,291.206L378.857,292.928L377.093,295.305L375.261,297.82L373.85,299.851L372.901,301.301L372.011,302.777L371.202,304.307L370.819,305.149C370.784,305.216 370.751,305.283 370.72,305.35L370.639,305.563L370.361,306.364L370.175,307.22L370.133,307.951L370.193,308.551L370.317,309.034L370.552,309.577L370.868,310.176L371.051,310.555L371.128,310.765L371.177,310.987L371.187,311.213L371.157,311.451L371.096,311.708L371.073,311.778L371.114,311.654L370.886,312.311L370.431,313.425L369.937,314.423L369.393,315.365L368.809,316.258L368.181,317.109L367.515,317.927L366.807,318.719L366.059,319.49L365.27,320.247L364.44,320.989L363.572,321.719L362.67,322.439L361.738,323.149L360.268,324.211L358.264,325.577L356.246,326.898L354.22,328.209L352.708,329.2L351.697,329.88L350.705,330.581L349.728,331.314L348.765,332.071L347.814,332.865L346.876,333.707L345.951,334.612L345.046,335.596L344.178,336.67L343.676,337.366C342.367,339.242 342.347,341.046 343.631,341.396C344.914,341.746 347.016,340.51 348.324,338.634L348.288,338.663L348.463,338.412L348.742,338.084L349.131,337.685L349.629,337.227L350.225,336.722L350.911,336.179L351.675,335.603L352.507,334.987L353.391,334.335L354.838,333.295L356.921,331.815L359.127,330.224L361.386,328.527L363.091,327.176L364.247,326.214L365.4,325.209L366.543,324.155L367.669,323.052L368.774,321.899L369.846,320.692L370.876,319.432L371.855,318.122L372.771,316.765L373.617,315.366L374.384,313.93L375.068,312.458L375.651,311.008L375.886,310.346C375.9,310.305 375.914,310.263 375.927,310.222L376.08,309.724L376.266,308.927L376.359,308.214L376.388,307.579L376.372,307.016L376.319,306.504L376.228,305.889L376.133,305.263L376.112,304.904L376.127,304.769L376.149,304.723L376.161,304.766L376.141,304.88L376.158,304.871L376.28,304.65L376.181,304.851L376.479,304.37L377.129,303.285L377.808,302.185L378.52,301.087L379.729,299.341L381.533,296.865L383.423,294.255L384.802,292.207L385.705,290.767L386.554,289.284L387.343,287.765L388.046,286.221L388.637,284.717L388.878,284.042C388.905,283.977 388.93,283.912 388.953,283.848L389.124,283.268L389.231,282.459L389.165,281.797L388.966,281.299L388.69,280.939L388.376,280.672L388.036,280.473L387.68,280.321L387.316,280.193L386.935,280.083L386.374,279.94L385.639,279.756L384.94,279.551L384.288,279.309L383.858,279.084L383.628,278.92L383.429,278.752L383.264,278.577L383.131,278.4L383.03,278.221L382.959,278.035L382.912,277.845L382.891,277.637L382.896,277.401L382.929,277.124L383.018,276.748L383.119,276.412L383.189,276.193L383.276,275.95L383.397,275.648L383.488,275.436L383.452,275.519L383.648,275.077L384.097,274.12L384.575,273.184L385.082,272.266L385.618,271.361L386.181,270.468L386.77,269.583L387.363,268.736L388.29,267.436L389.637,265.663L391.064,263.888L392.605,262.152L394.224,260.445L395.877,258.728L397.52,256.964L399.127,255.137L400.701,253.249L402.184,251.331L403.222,249.862L403.896,248.826L404.532,247.77L405.09,246.758L405.305,246.339C405.337,246.277 405.367,246.216 405.396,246.155L405.614,245.644L405.858,244.766L405.86,243.813L405.481,243.073L404.856,242.728L404.114,242.681L403.353,242.835L402.726,243.058L402.235,243.273L401.807,243.478L401.439,243.66L400.948,243.9L400.51,244.1L400.341,244.173L400.267,244.216L400.289,244.25L400.323,244.297L400.358,244.34L400.367,244.36L400.304,244.312L400.4,244.393L400.379,244.399L400.292,244.353L400.243,244.356L400.205,244.39L400.168,244.421L400.144,244.41L400.152,244.328L400.178,244.224L400.361,243.826L400.842,242.971L401.474,241.899L401.988,240.979L402.314,240.332L402.412,240.12C402.42,240.104 402.427,240.088 402.434,240.072L402.641,239.611L403.104,238.634L403.59,237.671L404.081,236.751L404.865,235.37L406.009,233.512L407.232,231.667L408.529,229.826L409.891,227.976L411.307,226.114L413.517,223.243L415.767,220.308L417.282,218.282L418.782,216.195L420.245,214.043L421.661,211.821L422.97,209.589L423.54,208.536C423.577,208.471 423.612,208.405 423.646,208.34L423.907,207.768L424.182,206.818L424.175,205.875L423.829,205.208L423.318,204.889L422.814,204.794L422.374,204.807L421.945,204.877L421.446,205.006L420.897,205.189L420.376,205.386L419.888,205.579L419.198,205.85L418.551,206.082L418.232,206.187L417.965,206.258L417.814,206.286L417.774,206.301L417.756,206.319L417.756,206.345L417.764,206.382L417.737,206.386L417.675,206.317L417.764,206.44L417.834,206.625L417.839,206.823L417.809,206.979L417.771,207.067L417.747,207.075L417.751,207.007L417.787,206.871L417.857,206.675L417.962,206.428L418.084,206.167L418.335,205.682L418.774,204.916L419.283,204.09L419.837,203.237L420.41,202.387L420.984,201.562L421.399,200.982L421.659,200.622L421.906,200.284L422.137,199.971L422.349,199.685L422.54,199.428L422.71,199.201L422.86,199.001L422.999,198.816L423.14,198.626L423.162,198.594L423.105,198.67L422.994,198.777L423.111,198.599L423.396,198.29L423.798,197.907L424.637,197.176L425.951,196.046L426.996,195.077L427.76,194.271L428.531,193.298L429.207,192.16L429.604,191.084L429.709,190.371L429.691,189.909L429.606,189.504L429.465,189.15L429.276,188.837L429.06,188.573L428.96,188.472C428.94,188.451 428.919,188.431 428.897,188.412L428.688,188.266L428.338,188.124L427.97,188.063L427.6,188.06L427.235,188.097L426.853,188.168L426.322,188.303L425.661,188.511L425.023,188.735L424.422,188.95L423.877,189.136L423.411,189.278L423.015,189.37L422.777,189.402L422.675,189.41L422.598,189.412L422.54,189.413L422.492,189.411L422.447,189.402L422.404,189.376L422.362,189.321L422.329,189.221L422.314,189.065L422.324,188.844L422.38,188.514L422.438,188.27L422.412,188.365L422.41,188.341L422.473,188.132L422.582,187.86L422.736,187.531L422.934,187.153L423.173,186.73L423.449,186.27L423.752,185.788L424.269,185L425.047,183.858L425.89,182.654L426.77,181.407L427.658,180.136L428.53,178.857L429.354,177.598L429.922,176.673L430.282,176.051L430.616,175.433L430.92,174.819L431.189,174.21L431.415,173.605L431.588,173.009L431.697,172.43L431.728,171.88L431.68,171.423L431.646,171.28C431.641,171.26 431.636,171.24 431.63,171.22L431.542,170.953L431.354,170.48L431.14,170.05L430.899,169.66L430.636,169.31L430.352,168.997L430.049,168.719L429.72,168.467L429.208,168.152L428.504,167.829L427.78,167.588L427.045,167.406L425.983,167.204L424.978,167.024L424.37,166.89L423.821,166.729L423.328,166.522L423,166.328L422.811,166.183L422.641,166.021L422.481,165.825L422.396,165.697L422.424,165.746L422.434,165.79L422.415,165.778L422.398,165.722L422.391,165.621L422.397,165.48L422.416,165.318L422.475,165L422.613,164.466L422.803,163.854L423.036,163.188L423.297,162.494L423.728,161.418L424.168,160.371L424.447,159.718L424.706,159.117L424.932,158.583L425.077,158.23L425.164,158.008L425.245,157.786L425.31,157.578L425.323,157.531C425.328,157.512 425.333,157.494 425.337,157.475L425.496,156.782L425.774,155.407L426.019,154.016L426.24,152.61L426.545,150.491L426.952,147.659L427.292,145.549L427.55,144.168L427.842,142.812L428.174,141.489L428.553,140.206L428.984,138.972L429.471,137.795L430.038,136.644L430.381,136.035L430.321,136.134L430.358,136.057L430.576,135.749L430.886,135.396L431.266,135.017L431.993,134.37L433.113,133.424L433.991,132.655L434.591,132.083L435.18,131.456L435.736,130.767L436.223,130.026L436.605,129.255L436.856,128.485L436.972,127.762L436.982,127.447C436.984,127.417 436.983,127.388 436.981,127.361L436.942,127.109L436.789,126.792L436.552,126.581L436.256,126.454L435.915,126.393L435.534,126.383L435.118,126.416L434.667,126.486L434.185,126.588L433.675,126.719L433.139,126.877L432.576,127.059L431.703,127.368L430.504,127.831L429.288,128.337L428.088,128.862L426.941,129.385L426.134,129.762L425.63,130.002L425.158,130.228L424.724,130.439L424.331,130.631L423.984,130.801L423.689,130.947L423.451,131.064L423.28,131.148L423.189,131.192L423.154,131.208L423.169,131.201L422.416,131.525L420.956,132.195L419.533,132.902L418.146,133.647L416.795,134.429L415.48,135.247L414.201,136.1L412.957,136.988L411.748,137.91L410.573,138.865L409.433,139.851L408.327,140.868L407.255,141.914L406.216,142.989L405.209,144.092L404.235,145.221L403.293,146.376L402.381,147.557L401.5,148.761L400.648,149.989L399.824,151.24L399.029,152.513L398.26,153.808L397.517,155.124L396.799,156.461L396.105,157.818L395.435,159.194L394.788,160.59L394.163,162.004L393.558,163.439L392.691,165.617L392.139,167.085C392.138,167.088 392.137,167.091 392.136,167.094L392.072,167.271L391.943,167.658L391.805,168.1L391.658,168.593L391.499,169.134L391.332,169.719L391.155,170.343L390.968,171.002L390.672,172.047L390.239,173.524L389.768,175.063L389.256,176.628L388.708,178.183L388.117,179.69L387.486,181.111L386.982,182.095L386.639,182.693L386.259,183.232L385.853,183.687L385.443,184.023L385.145,184.26L384.951,184.42L384.828,184.522L384.737,184.588L384.567,184.671L384.372,184.738L384.483,184.705L384.49,184.714L384.413,184.743L384.274,184.834L384.115,184.897L383.974,184.889L383.828,184.849L383.683,184.773L383.562,184.656L383.383,184.421L383.158,184.02L382.864,183.266L382.596,182.424L382.403,181.856L382.181,181.31L381.927,180.809L381.703,180.475L381.529,180.276L381.332,180.103L381.11,179.96L380.859,179.854L380.578,179.788L380.265,179.769L379.939,179.799L379.794,179.826C379.743,179.835 379.688,179.851 379.631,179.875L379.107,180.264L378.822,180.69L378.729,180.939L378.677,181.165L378.641,181.41L378.615,181.684L378.598,181.989L378.588,182.325L378.585,182.879L378.591,183.703L378.614,184.597L378.652,185.536L378.716,186.969L378.765,188.359L378.79,189.212L378.814,189.966L378.824,190.452L378.829,190.731L378.832,190.967L378.835,191.156L378.835,191.293L378.834,191.364L378.832,191.39L378.833,191.366L378.777,191.928L378.639,193.064L378.458,194.209L378.244,195.353L377.997,196.495L377.718,197.629L377.407,198.753L377.068,199.863L376.702,200.954L376.309,202.024L375.893,203.07L375.459,204.087L375.004,205.076L374.53,206.034L374.038,206.962L373.519,207.882L373.231,208.363L373.274,208.3L373.155,208.512L372.834,209L372.468,209.481L372.043,209.954L371.559,210.395L371.042,210.817L370.194,211.438L369.006,212.241L368.109,212.867L367.508,213.32L366.915,213.817L366.341,214.367L365.797,214.975L365.31,215.616L365.107,215.924C365.097,215.938 365.088,215.953 365.08,215.968L364.956,216.177L364.744,216.584L364.544,217.029L364.352,217.514L364.167,218.04L363.986,218.608L363.809,219.217L363.632,219.867L363.459,220.557L363.289,221.285L363.121,222.05L362.954,222.853L362.71,224.119L362.393,225.916L362.084,227.829L361.784,229.846L361.493,231.953L361.211,234.137L360.938,236.386L360.668,238.69L360.28,242.215L359.794,246.974L359.444,250.536L359.219,252.883L359.003,255.191L358.796,257.447L358.598,259.638L358.407,261.751L358.222,263.774L358.047,265.693L357.881,267.495L357.725,269.165L357.614,270.324L357.543,271.048L357.475,271.732L357.41,272.373L357.347,272.97L357.287,273.522L357.23,274.024L357.175,274.48L357.148,274.693L357.148,274.685L357.089,275.136L356.967,275.975L356.846,276.721L356.725,277.374L356.605,277.934L356.49,278.398L356.385,278.757L356.302,278.998L356.271,279.093L356.345,279.01L356.595,278.756L356.984,278.479L357.309,278.35L357.456,278.341L357.463,278.356L357.384,278.35L357.254,278.306L357.098,278.229L356.807,278.04L356.351,277.679L355.834,277.229L355.257,276.722L354.617,276.188L353.909,275.656L353.142,275.162L352.752,274.947C352.742,274.942 352.732,274.937 352.722,274.932L352.552,274.855L352.223,274.753L351.817,274.72L351.238,274.835L350.429,275.271L349.648,276.005L349.182,276.681L348.946,277.183L348.817,277.575L348.735,277.943L348.669,278.43L348.635,279.068L348.643,279.742L348.679,280.45L348.731,281.182L348.821,282.285L348.896,283.355L348.924,284.004L348.926,284.568L348.9,285.042L348.864,285.302L348.871,285.258L348.541,287.249L347.941,291.204L347.439,295.147L347.046,299.087L346.774,303.027L346.66,305.988L346.63,307.972L346.637,309.962L346.683,311.961L346.773,313.966L346.906,315.976L346.989,316.977C347.038,317.66 347.754,317.776 348.589,317.236C349.423,316.696 350.06,315.705 350.011,315.023" style="fill-rule:nonzero;"/>
        </g>
        <g transform="matrix(1.04954,0,0,1.04954,128.863,163.187)">
            <path d="M342.614,329.575L341.902,329.19L340.444,328.449L338.953,327.761L337.432,327.13L335.878,326.562L334.299,326.046L332.69,325.593L331.06,325.19L329.406,324.845L327.73,324.555L326.037,324.312L324.324,324.127L322.594,323.993L320.851,323.907L319.096,323.868L317.326,323.883L315.546,323.947L313.748,324.077L311.94,324.26L310.121,324.499L308.301,324.78L306.48,325.103L304.66,325.466L302.845,325.862L301.032,326.298L299.225,326.769L297.425,327.272L295.632,327.813L293.845,328.389L292.071,328.993L290.305,329.633L288.55,330.308L286.806,331.018L285.078,331.754L283.362,332.524L281.661,333.328L279.976,334.162L278.309,335.026L276.659,335.922L275.028,336.848L273.417,337.803L271.827,338.789L270.259,339.803L268.714,340.845L267.193,341.917L265.697,343.02L264.226,344.149L262.782,345.304L261.366,346.489L259.981,347.703L258.623,348.941L257.297,350.208L256.004,351.503L254.742,352.823L253.516,354.169L252.327,355.545L251.178,356.946L250.068,358.372L248.997,359.823L247.971,361.299L246.993,362.799L246.063,364.32L245.184,365.863L244.359,367.425L243.951,368.244C243.943,368.262 243.934,368.281 243.926,368.299L243.678,368.815L243.148,369.973L242.617,371.217L242.1,372.519L241.606,373.868L241.141,375.261L240.72,376.684L240.344,378.132L240.022,379.597L239.762,381.07L239.572,382.543L239.462,384.006L239.445,385.447L239.525,386.858L239.656,387.908L239.781,388.598L239.932,389.26L240.114,389.907L240.222,390.24C240.228,390.257 240.234,390.273 240.24,390.289L240.278,390.39L240.417,390.707L240.598,391.073L240.817,391.483L241.074,391.944L241.371,392.46L241.707,393.028L242.08,393.648L242.49,394.319L242.935,395.039L243.415,395.806L243.928,396.616L244.476,397.467L245.054,398.359L245.66,399.289L246.294,400.256L246.953,401.257L247.637,402.29L248.346,403.351L249.079,404.437L249.831,405.549L250.602,406.685L251.79,408.428L253.428,410.81L255.119,413.241L257.718,416.953L261.246,421.924L263.887,425.595L265.625,427.979L267.326,430.298L268.571,431.983L269.386,433.074L270.184,434.14L270.965,435.177L271.726,436.184L272.467,437.159L273.186,438.099L273.883,439.001L274.555,439.864L275.2,440.687L275.816,441.467L276.403,442.203L276.958,442.893L277.481,443.532L277.972,444.12L278.426,444.656L278.845,445.138L279.225,445.565L279.568,445.935L279.873,446.249L280.143,446.507L280.387,446.716L280.535,446.825C280.548,446.835 280.562,446.844 280.575,446.854L281.134,447.209L282.278,447.908L284.013,448.905L286.359,450.151L288.732,451.328L292.305,453.031L295.877,454.749L298.245,455.935L299.417,456.552L299.403,456.543L299.96,456.85L301.042,457.485L302.103,458.163L303.151,458.886L304.184,459.652L305.205,460.458L306.213,461.3L307.206,462.178L308.182,463.091L309.141,464.037L310.083,465.014L311.006,466.021L311.914,467.05L312.804,468.104L313.674,469.18L314.524,470.277L315.352,471.393L316.163,472.523L317.34,474.247L318.834,476.58L320.229,478.943L321.511,481.335L322.687,483.727L323.743,486.111L324.462,487.874L324.904,489.036L325.113,489.612L325.111,489.607L325.156,489.736L325.263,490.05L325.394,490.444L325.548,490.911L325.723,491.445L325.917,492.039L326.129,492.687L326.358,493.382L326.603,494.118L326.86,494.891L327.267,496.104L327.845,497.787L328.456,499.503L329.088,501.202L329.726,502.84L330.207,503.998L330.527,504.726L330.843,505.409L331.157,506.043L331.465,506.623L331.769,507.143L332.068,507.598L332.362,507.984L332.655,508.297L332.955,508.534L333.289,508.688L333.733,508.729L334.199,508.62C334.318,508.577 334.441,508.514 334.563,508.435L334.616,508.401L335.29,507.775L335.73,507.026L335.862,506.547L335.901,506.17L335.902,505.811L335.878,505.439L335.833,505.044L335.77,504.619L335.689,504.164L335.593,503.677L335.481,503.158L335.354,502.609L335.214,502.029L335.061,501.421L334.896,500.785L334.629,499.783L334.239,498.359L333.818,496.847L333.375,495.254L332.917,493.593L332.45,491.875L331.98,490.112L331.515,488.315L330.84,485.578L330.217,482.827L329.842,481.005L329.509,479.203L329.227,477.43L329,475.703L328.834,474.032L328.755,472.826L328.725,472.049L328.714,471.289L328.723,470.554L328.753,469.843L328.804,469.16L328.877,468.506L328.972,467.884L329.089,467.297L329.228,466.749L329.387,466.243L329.564,465.783L329.756,465.376L329.958,465.024L330.163,464.732L330.368,464.495L330.433,464.435L330.367,464.501L330.745,464.135L331.442,463.527L332.139,462.998L332.869,462.516L333.631,462.078L334.426,461.68L335.253,461.323L336.109,461.003L336.993,460.721L337.901,460.474L338.831,460.259L339.779,460.074L341.238,459.847L343.222,459.622L345.237,459.462L347.275,459.338L349.322,459.222L351.362,459.089L353.385,458.907L354.891,458.719L355.888,458.562L356.871,458.376L357.846,458.155L358.81,457.897L359.763,457.594L360.249,457.421C360.253,457.419 360.257,457.418 360.26,457.417L362.453,456.608L366.809,455.043L371.133,453.527L375.425,452.031L379.678,450.525L383.888,448.982L387.016,447.784L389.087,446.961L391.14,446.117L393.179,445.244L395.203,444.339L397.211,443.399L399.204,442.421L401.18,441.4L403.139,440.332L405.08,439.216L407.003,438.049L408.907,436.825L410.792,435.539L412.657,434.188L414.5,432.768L416.321,431.276L418.118,429.707L419.889,428.06L421.635,426.333L423.353,424.521L424.219,423.562C424.24,423.539 424.261,423.515 424.281,423.49L424.605,423.111L425.325,422.166L425.996,421.143L426.581,420.108L427.09,419.067L427.537,418.023L427.93,416.978L428.28,415.933L428.739,414.38L429.272,412.318L429.765,410.292L430.252,408.352L430.502,407.442L430.5,407.45L430.779,406.446L431.318,404.362L431.817,402.218L432.269,400.033L432.671,397.813L433.026,395.562L433.327,393.287L433.566,390.998L433.741,388.702L433.847,386.405L433.881,384.114L433.85,381.829L433.742,379.563L433.55,377.323L433.27,375.118L432.897,372.954L432.683,371.869C432.681,371.86 432.679,371.852 432.676,371.844L432.644,371.693L432.557,371.342L432.451,370.964L432.329,370.566L432.191,370.148L432.038,369.71L431.782,369.02L431.391,368.029L430.944,366.964L430.447,365.832L429.916,364.629L429.355,363.361L428.777,362.026L428.179,360.637L427.548,359.215L426.538,357.051L425.071,354.154L423.397,351.387L421.663,348.705L420.363,346.761L419.504,345.509L418.657,344.305L417.824,343.152L417.011,342.057L416.221,341.027L415.456,340.068L414.72,339.187L414.018,338.389L413.35,337.681L412.866,337.207L412.551,336.917L412.249,336.658L411.953,336.423L411.795,336.306C411.789,336.302 411.783,336.297 411.777,336.293L411.245,335.916L410.1,335.128L408.872,334.311L407.575,333.477L406.218,332.634L404.81,331.791L403.361,330.957L401.881,330.139L400.379,329.348L398.865,328.59L397.347,327.875L395.834,327.211L394.337,326.607L392.861,326.072L391.415,325.613L390.345,325.323L389.637,325.157L389.279,325.082C389.268,325.08 389.258,325.078 389.248,325.076L388.76,324.984L387.72,324.82L386.646,324.7L385.548,324.638L384.44,324.613L383.323,324.626L381.65,324.707L379.394,324.924L377.101,325.272L374.802,325.726L372.513,326.264L370.242,326.871L367.995,327.539L365.777,328.271L363.604,329.03L361.486,329.801L359.418,330.613L357.412,331.44L355.481,332.254L354.519,332.749C353.586,333.061 352.597,334.098 352.31,335.065C352.024,336.032 352.548,336.563 353.481,336.251L354.339,336.137L356.158,335.686L358.036,335.208L359.966,334.699L361.946,334.158L363.951,333.641L365.974,333.158L368.013,332.696L370.055,332.284L372.088,331.94L374.104,331.673L376.1,331.487L378.089,331.382L379.561,331.377L380.518,331.411L381.462,331.476L382.395,331.573L383.325,331.685L384.263,331.831L384.752,331.924L384.721,331.918L385.008,331.977L385.613,332.117L386.565,332.372L387.9,332.793L389.287,333.294L390.711,333.867L392.16,334.502L393.623,335.191L395.091,335.924L396.55,336.693L397.992,337.489L399.406,338.303L400.78,339.126L402.106,339.948L403.372,340.762L404.568,341.558L405.689,342.329L406.223,342.707L406.205,342.694L406.298,342.762L406.524,342.939L406.77,343.148L407.028,343.383L407.448,343.794L408.064,344.444L408.725,345.194L409.427,346.034L410.165,346.958L410.933,347.958L411.727,349.027L412.542,350.156L413.374,351.338L414.216,352.565L415.496,354.477L417.207,357.125L418.922,359.8L420.724,362.344L422.046,364.192L422.898,365.387L423.716,366.551L424.478,367.692L425.173,368.809L425.806,369.885L426.372,370.914L426.88,371.875L427.326,372.765L427.617,373.379L427.787,373.757L427.939,374.111L428.072,374.438L428.185,374.736L428.28,375.013L428.324,375.156L428.317,375.131L428.586,376.085L429.042,378.072L429.412,380.106L429.701,382.178L429.91,384.282L430.04,386.413L430.087,388.567L430.064,390.732L429.975,392.899L429.824,395.061L429.613,397.211L429.344,399.344L429.016,401.453L428.64,403.527L428.218,405.56L427.753,407.555L427.5,408.55C427.5,408.552 427.499,408.555 427.498,408.558L427.255,409.533L426.816,411.477L426.391,413.424L425.931,415.353L425.544,416.763L425.263,417.661L424.959,418.524L424.631,419.343L424.279,420.111L423.903,420.823L423.505,421.475L423.037,422.125L422.719,422.51L422.781,422.438L422.038,423.287L420.492,424.97L418.913,426.58L417.3,428.118L415.654,429.591L413.977,431L412.267,432.351L410.526,433.646L408.754,434.887L406.953,436.077L405.121,437.22L403.262,438.314L401.375,439.365L399.463,440.376L397.526,441.35L395.566,442.291L393.582,443.201L391.578,444.082L389.552,444.939L387.511,445.772L384.413,446.983L380.22,448.552L375.968,450.09L371.664,451.624L367.316,453.174L362.935,454.764L360.74,455.583L360.751,455.579L360.342,455.728L359.477,456.008L358.585,456.253L357.67,456.464L356.735,456.646L355.785,456.8L354.327,456.989L352.332,457.177L350.302,457.317L348.25,457.433L346.188,457.559L344.125,457.724L342.079,457.957L340.56,458.195L339.552,458.392L338.551,458.625L337.557,458.898L336.571,459.215L335.594,459.584L334.625,460.008L333.666,460.494L332.718,461.048L331.785,461.676L330.872,462.379L330.012,463.133L329.633,463.499C329.61,463.52 329.588,463.543 329.567,463.565L329.283,463.872L328.839,464.425L328.458,464.998L328.133,465.585L327.857,466.186L327.623,466.801L327.426,467.434L327.261,468.086L327.126,468.758L327.019,469.451L326.937,470.165L326.88,470.899L326.845,471.654L326.832,472.429L326.84,473.222L326.868,474.036L326.944,475.284L327.106,476.997L327.329,478.76L327.606,480.562L327.926,482.397L328.285,484.253L328.883,487.044L329.531,489.815L329.979,491.634L330.431,493.416L330.881,495.151L331.321,496.827L331.743,498.433L332.137,499.961L332.501,501.396L332.749,502.404L332.902,503.041L333.042,503.647L333.17,504.222L333.284,504.763L333.383,505.268L333.467,505.736L333.535,506.164L333.586,506.548L333.619,506.884L333.635,507.164L333.636,507.373L333.635,507.478L333.682,507.393L333.993,506.947L334.49,506.531L334.437,506.565L334.801,506.38L335.053,506.349L335.049,506.387L334.906,506.338L334.705,506.184L334.473,505.931L334.223,505.587L333.959,505.162L333.685,504.662L333.403,504.096L333.115,503.471L332.822,502.792L332.527,502.069L332.081,500.91L331.488,499.261L330.91,497.538L330.353,495.794L329.826,494.08L329.456,492.845L329.225,492.055L329.008,491.3L328.805,490.588L328.616,489.923L328.443,489.312L328.287,488.761L328.149,488.276L328.029,487.862L327.93,487.527L327.889,487.393C327.889,487.392 327.888,487.39 327.887,487.388L327.695,486.779L327.293,485.551L326.641,483.685L325.679,481.168L324.623,478.617L323.467,476.057L322.225,473.493L320.889,470.956L319.822,469.084L319.079,467.851L318.31,466.637L317.519,465.441L316.705,464.265L315.868,463.11L315.009,461.98L314.125,460.881L313.219,459.809L312.292,458.767L311.345,457.757L310.376,456.781L309.388,455.842L308.376,454.945L307.343,454.089L306.29,453.276L305.218,452.508L304.134,451.79L303.597,451.457C303.592,451.454 303.588,451.451 303.583,451.448L302.422,450.757L300.104,449.441L296.63,447.589L293.19,445.77L290.932,444.532L288.704,443.244L287.056,442.228L285.971,441.518L285.425,441.146L285.465,441.175L285.453,441.168L285.31,441.042L285.101,440.832L284.841,440.547L284.535,440.195L284.185,439.777L283.796,439.298L283.368,438.761L282.904,438.168L282.404,437.523L281.87,436.828L281.305,436.084L280.71,435.294L280.086,434.46L279.437,433.585L278.762,432.67L278.062,431.719L277.338,430.734L276.594,429.717L275.83,428.669L275.049,427.592L274.252,426.489L273.025,424.796L271.345,422.466L269.628,420.071L266.999,416.402L263.464,411.45L260.846,407.766L259.142,405.355L257.48,403.003L256.27,401.287L255.485,400.171L254.718,399.076L253.972,398.008L253.246,396.969L252.542,395.962L251.862,394.987L251.209,394.046L250.585,393.141L249.991,392.274L249.428,391.448L248.896,390.667L248.397,389.932L247.935,389.244L247.512,388.605L247.129,388.018L246.787,387.486L246.491,387.013L246.24,386.601L246.04,386.258L245.894,385.994L245.802,385.811L245.76,385.711L245.778,385.76L245.691,385.532L245.523,385.034L245.378,384.522L245.259,384.013L245.118,383.218L245,382.098L244.961,380.941L244.989,379.758L245.083,378.554L245.237,377.337L245.446,376.115L245.703,374.899L246.002,373.697L246.329,372.52L246.684,371.375L247.06,370.274L247.449,369.224L247.855,368.215L248.074,367.701L248.049,367.756L248.324,367.127L248.941,365.814L249.605,364.513L250.316,363.222L251.073,361.942L251.875,360.673L252.723,359.414L253.619,358.167L254.562,356.932L255.548,355.711L256.576,354.501L257.648,353.306L258.764,352.128L259.919,350.967L261.113,349.821L262.348,348.698L263.618,347.593L264.924,346.507L266.263,345.445L267.636,344.408L269.039,343.393L270.471,342.401L271.932,341.436L273.419,340.498L274.931,339.588L276.468,338.706L278.026,337.855L279.605,337.032L281.203,336.241L282.819,335.484L284.452,334.757L286.1,334.062L287.759,333.408L289.432,332.788L291.115,332.201L292.808,331.649L294.506,331.142L296.211,330.672L297.922,330.238L299.634,329.848L301.348,329.5L303.063,329.19L304.775,328.926L306.486,328.702L308.195,328.518L309.9,328.374L311.607,328.259L313.314,328.176L315.026,328.113L316.733,328.089L318.437,328.101L320.133,328.154L321.819,328.253L323.496,328.391L325.167,328.566L326.824,328.789L328.47,329.052L330.106,329.356L331.724,329.709L333.334,330.097L334.926,330.536L336.506,331.012L338.069,331.536L339.616,332.112L340.386,332.425C340.878,332.656 341.775,332.206 342.391,331.419C343.006,330.632 343.106,329.807 342.614,329.575" style="fill-rule:nonzero;"/>
        </g>
        <g transform="matrix(1.04954,0,0,1.04954,128.863,163.187)">
            <path d="M298.178,401.446L298.306,401.486L298.623,401.6L299.069,401.71L299.65,401.793L300.329,401.897L301.11,401.997L301.971,402.11L302.907,402.234L303.913,402.36L304.973,402.498L306.084,402.642L307.236,402.79L309.019,403.027L311.46,403.356L313.904,403.702L315.697,403.972L316.858,404.155L317.981,404.34L319.059,404.525L320.08,404.712L321.038,404.899L321.92,405.087L322.719,405.277L323.423,405.465L324.025,405.649L324.51,405.829L324.865,406L325.069,406.148L325.099,406.222L325.017,406.061L325.057,405.522L325.048,405.556L325.871,404.244L326.485,403.789L326.515,403.766L326.347,403.81L326.074,403.871L325.726,403.938L325.319,404.008L324.614,404.118L323.548,404.265L322.379,404.409L321.149,404.55L319.9,404.685L318.674,404.809L317.513,404.923L316.708,405.002L316.212,405.051L315.754,405.098L315.339,405.141L314.971,405.181L314.655,405.219L314.393,405.252L314.185,405.283L314.012,405.318L313.627,405.46L312.494,407.525C312.531,407.566 312.576,407.599 312.628,407.623L312.896,407.737L313.525,407.939L314.225,408.091L314.974,408.195L315.763,408.258L316.581,408.293L317.844,408.302L319.556,408.285L321.242,408.265L322.434,408.292L323.177,408.334L323.871,408.407L324.506,408.511L324.788,408.574C324.799,408.576 324.809,408.578 324.82,408.579L324.92,408.595L325.26,408.6L325.618,408.568L325.941,408.525L326.207,408.489L326.374,408.477L326.362,408.489L326.204,408.461L325.992,408.196L326.169,407.426L326.458,407.028L326.735,406.766L326.63,406.848L326.78,406.699L326.687,406.68L326.383,406.695L325.97,406.693L325.495,406.665L324.713,406.589L323.642,406.465L322.875,406.388L322.395,406.357L321.954,406.353L321.537,406.388L321.064,406.509L320.321,406.932L319.484,407.886L319.238,408.467C319.216,408.55 319.202,408.63 319.197,408.706L319.181,408.843L319.223,409.352L319.373,409.814L319.584,410.226L319.841,410.616L320.131,410.991L320.602,411.516L321.091,411.988L321.411,412.264L321.707,412.493L321.977,412.672L322.226,412.799L322.463,412.868L322.866,412.862L324.172,412.112L325.108,410.48L325.084,410.01L325.004,409.789L324.952,409.685C324.946,409.676 324.941,409.666 324.935,409.657L324.898,409.591L324.773,409.403L324.614,409.195L324.43,408.974L324.219,408.739L323.982,408.489L323.586,408.095L322.984,407.543L322.311,406.98L321.587,406.433L320.824,405.926L320.039,405.484L319.242,405.129L318.621,404.934L318.186,404.844L317.75,404.799L317.285,404.806L316.766,404.884L316.152,405.078L315.402,405.465L314.536,406.126L313.72,407.021L313.133,407.951L312.778,408.787L312.577,409.54L312.507,409.95C312.502,409.984 312.498,410.018 312.495,410.051L312.47,410.295L312.461,410.902L312.535,411.492L312.69,412.006L312.917,412.445L313.206,412.809L313.545,413.104L313.925,413.335L314.337,413.508L314.774,413.628L315.23,413.701L315.699,413.73L316.392,413.702L317.332,413.548L318.092,413.334L318.623,413.134L319.127,412.899L319.652,412.604L320.217,412.218L320.839,411.691L321.5,410.962L322.088,410.046L322.426,409.123L322.476,408.382L322.333,407.845L322.079,407.449L321.746,407.14L321.342,406.884L320.863,406.664L320.302,406.472L319.974,406.381C319.959,406.377 319.944,406.374 319.929,406.37L319.697,406.319L319.17,406.253L318.591,406.267L317.918,406.41L317.038,406.806L315.945,407.649L315.022,408.798L314.541,409.797L314.35,410.553L314.3,411.163L314.327,411.702L314.408,412.205L314.532,412.689L314.695,413.159L314.894,413.619L315.127,414.065L315.393,414.495L315.69,414.907L316.018,415.294L316.376,415.653L316.765,415.979L317.185,416.265L317.638,416.507L318.128,416.696L318.661,416.824L319.247,416.878L319.897,416.839L320.626,416.683L321.44,416.376L322.328,415.889L323.248,415.216L324.139,414.387L324.641,413.836C324.681,413.79 324.721,413.743 324.759,413.696L324.885,413.541L325.23,413.09L325.581,412.58L325.893,412.062L326.16,411.542L326.375,411.029L326.532,410.535L326.631,410.068L326.676,409.485L326.591,408.805L326.361,408.224L326.03,407.77L325.626,407.413L325.17,407.133L324.674,406.916L324.15,406.753L323.604,406.636L323.046,406.561L322.483,406.526L321.921,406.527L321.366,406.565L320.819,406.64L320.274,406.757L319.712,406.932L319.077,407.211L318.237,407.748L317.088,408.911L316.309,410.499L316.312,411.502L316.599,412.056L316.998,412.448L317.376,412.711L317.664,412.876L317.973,413.033L318.316,413.188L318.694,413.343L319.109,413.498L319.562,413.653L320.056,413.809L320.592,413.965L321.172,414.122L321.482,414.202C322.322,414.416 323.682,413.603 324.52,412.387C325.358,411.171 325.357,410.012 324.518,409.798L324.231,409.726L323.685,409.581L323.186,409.438L322.732,409.298L322.323,409.161L321.957,409.027L321.634,408.898L321.353,408.774L321.113,408.656L320.924,408.553L320.715,408.424L320.56,408.317L320.532,408.401L320.441,408.966L319.768,410.151L318.903,410.95L318.504,411.163L318.447,411.164L318.58,411.109L318.825,411.046L319.142,410.994L319.505,410.963L319.894,410.955L320.293,410.973L320.689,411.019L321.068,411.091L321.418,411.189L321.725,411.309L321.98,411.445L322.175,411.586L322.308,411.713L322.389,411.803L322.44,411.883L322.458,411.932L322.475,411.917L322.494,411.899L322.512,411.887L322.522,411.893L322.514,411.926L322.478,411.994L322.368,412.147L322.241,412.304L322.359,412.164L322.397,412.145L322.358,412.229L322.352,412.279L322.321,412.336L322.227,412.406L322.062,412.469L321.837,412.506L321.57,412.5L321.277,412.446L320.972,412.341L320.663,412.189L320.359,411.992L320.065,411.757L319.786,411.488L319.527,411.193L319.29,410.877L319.079,410.547L318.896,410.211L318.743,409.878L318.624,409.558L318.539,409.262L318.486,409.009L318.46,408.826L318.441,408.76L318.37,408.897L318.099,409.345L317.484,410.022L316.797,410.485L316.427,410.602L316.372,410.579L316.521,410.552L316.837,410.58L317.071,410.63L317.026,410.619L317.257,410.678L317.67,410.808L317.979,410.935L318.188,411.047L318.305,411.121L318.347,411.122L318.358,410.988L318.43,410.651L318.667,410.132L319.042,409.613L319.39,409.271L319.608,409.113L319.689,409.078L319.662,409.108L319.553,409.171L319.424,409.233L319.126,409.34L318.584,409.454L318.159,409.487L317.898,409.482L317.65,409.455L317.419,409.405L317.208,409.333L317.022,409.241L316.863,409.128L316.731,408.997L316.626,408.848L316.548,408.677L316.497,408.48L316.484,408.193L316.505,407.949L316.493,408.05L316.495,407.975L316.498,407.855L316.42,407.944L316.178,408.246L315.77,408.626L315.371,408.879L315.141,408.958L315.096,408.941L315.188,408.897L315.372,408.866L315.619,408.859L315.895,408.879L316.382,408.97L317.115,409.192L317.881,409.505L318.652,409.885L319.403,410.308L320.108,410.752L320.746,411.195L321.164,411.512L321.406,411.708L321.617,411.889L321.792,412.048L321.926,412.179L322.021,412.283L322.065,412.343L322.048,412.315L322.058,412.319L322.061,412.279L322.07,411.946L322.992,410.409L324.241,409.714L324.546,409.724L324.569,409.749L324.421,409.704L324.191,409.594L323.911,409.432L323.604,409.232L323.115,408.867L322.64,408.451L322.362,408.171L322.129,407.9L321.956,407.66L321.852,407.499L321.799,407.426L321.803,407.294L321.762,407.533L321.539,408.029L320.79,408.834L320.283,409.078L320.301,409.04L320.548,408.99L320.916,408.964L321.363,408.958L322.147,408.976L323.292,409.019L324.161,409.036L324.728,409.028L325.279,408.997L325.83,408.919L326.457,408.731L327.162,408.321L327.265,408.234C327.363,408.155 327.456,408.067 327.542,407.972L327.887,407.513L328.121,406.646L327.896,406.316L327.663,406.252L327.44,406.253L327.182,406.288L326.913,406.337L326.653,406.386L326.44,406.42L326.283,406.433L326.18,406.421L326.212,406.426L325.867,406.363L325.158,406.273L324.405,406.218L323.615,406.185L322.387,406.173L320.717,406.172L319.053,406.164L317.858,406.116L317.106,406.057L316.4,405.97L315.749,405.852L315.161,405.699L314.63,405.503L314.372,405.377L314.506,405.475L313.357,407.521L313.054,407.623L313.109,407.612L313.267,407.595L313.499,407.576L313.792,407.557L314.14,407.537L314.538,407.517L314.98,407.496L315.46,407.474L316.243,407.44L317.375,407.39L318.571,407.337L319.793,407.281L321.003,407.217L322.165,407.145L323.239,407.062L323.967,406.991L324.414,406.937L324.828,406.878L325.215,406.809L325.595,406.72L326.05,406.562L326.958,405.968L327.932,404.515L327.943,404.478C327.998,404.278 328.011,404.095 327.983,403.939L327.865,403.581L327.616,403.254L327.277,402.995L326.842,402.753L326.309,402.516L325.681,402.279L324.96,402.045L324.154,401.811L323.271,401.578L322.319,401.344L321.304,401.115L320.234,400.889L319.117,400.668L317.961,400.452L316.173,400.142L313.735,399.752L311.294,399.398L309.498,399.164L308.336,399.02L307.208,398.89L306.125,398.775L305.097,398.671L304.127,398.587L303.228,398.518L302.409,398.46L301.668,398.433L301.025,398.414L300.459,398.451L299.993,398.522L299.822,398.554C299.204,398.536 298.334,399.168 297.88,399.967C297.426,400.766 297.559,401.428 298.178,401.446" style="fill-rule:nonzero;"/>
        </g>
        <g transform="matrix(1.04954,0,0,1.04954,128.863,163.187)">
            <path d="M372.011,409.128L372.136,409.186L372.423,409.296L372.901,409.43L373.614,409.563L374.399,409.654L375.235,409.719L376.108,409.77L377.451,409.848L378.786,409.967L379.64,410.088L380.452,410.257L381.202,410.485L381.711,410.7L382.021,410.866L382.31,411.054L382.574,411.263L382.81,411.495L383.016,411.751L383.192,412.032L383.335,412.34L383.391,412.496C383.477,412.732 383.82,412.7 384.156,412.426C384.492,412.152 384.695,411.739 384.609,411.504L384.534,411.303L384.362,410.944L384.155,410.618L383.915,410.325L383.645,410.063L383.347,409.829L383.024,409.621L382.674,409.437L382.114,409.204L381.314,408.963L380.463,408.787L379.574,408.661L378.216,408.541L376.873,408.463L376.014,408.413L375.205,408.351L374.463,408.266L373.802,408.145L373.37,408.026L373.114,407.929L372.989,407.872C372.771,407.771 372.375,407.971 372.105,408.318C371.835,408.665 371.793,409.028 372.011,409.128" style="fill-rule:nonzero;"/>
        </g>
        <g transform="matrix(1.04954,0,0,1.04954,128.863,163.187)">
            <path d="M385.098,415.455L385.097,415.455C386.599,415.455 388.668,413.909 389.719,412.001C390.77,410.093 390.405,408.546 388.903,408.545L388.902,408.545C387.4,408.546 385.331,410.093 384.28,412C383.23,413.908 383.596,415.455 385.098,415.455" style="fill-rule:nonzero;"/>
        </g>
        <g transform="matrix(1.04954,0,0,1.04954,128.863,163.187)">
            <path d="M375.006,410.955L375.133,410.972L375.506,411.004L375.945,411.027L376.437,411.043L376.981,411.053L377.577,411.06L378.219,411.063L378.903,411.064L379.999,411.064L381.561,411.057L383.186,411.063L384.834,411.078L386.457,411.107L387.612,411.157L388.343,411.201L389.041,411.26L389.697,411.33L390.297,411.421L390.837,411.529L391.307,411.656L391.7,411.799L392.008,411.956L392.225,412.12L392.353,412.268L392.402,412.379L392.404,412.421L392.408,412.387L392.469,412.237C392.031,413.22 392.362,413.91 393.207,413.779C394.053,413.648 395.093,412.745 395.531,411.763L395.788,411.172L396.018,410.311L396.033,409.596L395.895,409.018L395.649,408.542L395.316,408.142L394.914,407.794L394.447,407.488L393.921,407.218L393.34,406.977L392.708,406.767L392.034,406.578L391.316,406.418L390.557,406.28L389.368,406.12L387.728,405.971L386.046,405.9L384.379,405.89L382.785,405.911L381.665,405.946L380.967,405.973L380.32,405.998L379.729,406.022L379.204,406.041L378.756,406.052L378.397,406.057L378.127,406.054L377.994,406.045C376.982,405.945 375.492,406.964 374.667,408.319C373.842,409.675 373.994,410.855 375.006,410.955" style="fill-rule:nonzero;"/>
        </g>
        <g transform="matrix(1.04954,0,0,1.04954,128.863,163.187)">
            <path d="M383.326,415.893L383.092,416.16L382.674,416.644L382.318,417.059L382.022,417.413L381.778,417.705L381.587,417.941L381.439,418.125L381.327,418.263L381.239,418.378L381.069,418.61L383.26,420.16L383.598,419.812L383.721,419.672L383.844,419.53L383.983,419.368L384.14,419.179L384.316,418.969L384.506,418.737L384.821,418.351L385.276,417.786L385.759,417.195L386.256,416.608L386.754,416.06L387.23,415.588L387.645,415.225L387.767,415.134L387.561,415.276L387.618,415.238L387.095,415.491L386.383,415.444L386.187,415.15L386.167,415.032L386.149,415.076L386.105,415.23L386.034,415.46L385.878,415.917L385.558,416.675L384.97,417.625L384.696,418.553L384.472,419.517L384.377,420.259L384.352,420.764L384.369,421.233L384.433,421.687L384.558,422.114L384.752,422.505L385.028,422.844L385.396,423.113L385.857,423.292L386.406,423.369L387.033,423.336L387.725,423.196L388.47,422.957L389.086,422.705L389.517,422.505L389.747,422.391C389.783,422.373 389.819,422.355 389.855,422.335L390.038,422.235L390.66,421.839L391.407,421.233L392.133,420.458L392.72,419.6L393.101,418.793L393.296,418.103L393.365,417.525L393.325,416.843L393.114,416.049L392.767,415.343L392.335,414.722L391.83,414.19L391.268,413.756L390.656,413.435L390.13,413.273L389.715,413.218L389.269,413.231L388.72,413.342L388.012,413.633L387.135,414.217L386.261,415.087L385.623,416.017L385.245,416.838L385.033,417.551L384.957,417.94C384.953,417.963 384.95,417.985 384.947,418.007L384.923,418.174L384.878,418.538L384.849,418.895L384.836,419.232L384.848,419.678L384.924,420.209L385.081,420.686L385.337,421.084L385.71,421.379L386.213,421.538L386.828,421.532L387.508,421.362L388.194,421.058L388.847,420.666L389.453,420.221L390.011,419.746L390.722,419.045L391.583,418.042L392.357,416.955L392.877,416.065L393.18,415.429L393.404,414.839L393.562,414.24L393.631,413.646L393.584,413.079L393.391,412.583L393.042,412.204L392.554,411.973L391.96,411.893L391.428,411.928L391.048,411.995L390.69,412.083L390.318,412.196L390.1,412.271C390.043,412.292 389.984,412.315 389.926,412.341L389.767,412.407L389.001,412.828L388.125,413.492L387.432,414.172L386.794,414.925L386.295,415.541L386.323,415.479C386.065,415.761 385.839,416.065 385.655,416.375L385.517,416.601L385.234,417.075L384.965,417.539L384.717,417.984L384.49,418.411L384.283,418.82L384.095,419.216L383.926,419.598L383.776,419.971L383.646,420.335L383.536,420.693L383.449,421.046L383.376,421.52L383.378,422.131L383.553,422.726L383.943,423.17L384.512,423.391L385.165,423.401L385.819,423.264L386.443,423.041L387.032,422.768L387.591,422.464L388.355,421.994L389.35,421.304L390.316,420.568L391.205,419.835L391.833,419.284L392.233,418.915L392.589,418.569L392.932,418.218L393.28,417.832L393.677,417.334L394.215,416.472L394.616,414.729L393.831,413.831C393.684,413.794 393.519,413.783 393.341,413.798L393.285,413.802L392.616,413.954L391.313,414.663L389.886,416.065L389.092,417.309L388.688,418.241L388.448,419.037L388.309,419.769L388.257,420.462L388.286,420.996L388.355,421.361L388.465,421.677L388.633,421.977L388.881,422.247L389.237,422.462L389.727,422.579L390.352,422.55L391.077,422.348L391.832,421.99L392.555,421.524L393.218,421L393.824,420.443L394.387,419.862L394.925,419.252L395.452,418.605L395.744,418.229C396.89,416.724 397.038,415.177 396.075,414.774C395.112,414.372 393.402,415.266 392.256,416.771L392.152,416.915L391.934,417.203L391.786,417.391L391.721,417.48L391.756,417.471L391.902,417.38L392.16,417.241L392.501,417.108L392.861,417.038L393.168,417.054L393.384,417.137L393.509,417.246L393.568,417.344L393.586,417.414L393.581,417.449L393.573,417.488L393.548,417.466L393.53,417.329L393.531,417.181L393.525,417.103L393.432,417.224L393.01,417.776L392.003,418.661L391.037,419.131L390.599,419.208L390.659,419.202L390.169,419.169L389.442,418.286L389.857,416.652L390.285,415.998L390.46,415.797L390.482,415.784L390.407,415.874L390.265,416.024L390.094,416.197L389.755,416.518L389.208,417.006L388.642,417.475L388.098,417.891L387.752,418.132L387.614,418.225L387.55,418.276L387.577,418.291L387.702,418.298L387.902,418.345L388.107,418.487L388.231,418.723L388.249,418.972L388.215,419.088L388.198,419.085L388.192,419.069L388.2,419.014L388.223,418.92L388.266,418.789L388.33,418.62L388.416,418.414L388.525,418.174L388.658,417.898L388.816,417.588L388.999,417.243L389.215,416.852L389.345,416.625L388.677,417.521L389.187,416.932L389.592,416.398L389.638,416.299L389.434,416.46L389.089,416.673L388.912,416.733L389.074,416.659L388.9,416.729L388.948,416.707L389.076,416.657L389.175,416.621L389.211,416.601L389.228,416.572L389.231,416.526L389.195,416.45L389.164,416.336L389.163,416.204L389.19,416.087L389.228,416.017L389.256,416.004L389.26,416.048L389.266,416.084L389.21,416.246L389.027,416.577L388.782,416.922L388.61,417.128L388.572,417.184L388.587,417.198L388.663,417.181L388.796,417.155L388.954,417.153L389.091,417.195L389.167,417.269L389.174,417.333L389.133,417.341L389.074,417.261L389.021,417.05L389.002,416.814L389,416.632L389.009,416.42L389.033,416.159L389.053,415.993L389.043,416.06L389.036,416.036L389.011,416.015L388.878,416.217L388.539,416.64L388.01,417.108L387.519,417.389L387.232,417.472L387.133,417.466L387.159,417.445L387.234,417.434L387.461,417.475L387.858,417.65L388.265,417.931L388.642,418.29L388.957,418.693L389.175,419.102L389.298,419.472L389.329,419.668L389.349,419.668L389.41,419.545L389.567,419.287L389.834,418.955L390.136,418.678L390.353,418.538L390.329,418.568L390.145,418.665L390.253,418.609L390.155,418.656L389.959,418.746L389.704,418.854L389.411,418.957L389.198,419.014L389.047,419.041L388.938,419.052L388.852,419.047L388.777,419.025L388.708,418.975L388.646,418.889L388.596,418.761L388.561,418.59L388.545,418.378L388.548,418.151L388.588,417.724L388.684,417.05L388.836,416.318L388.718,415.664L388.853,414.952L388.992,414.442L389.083,414.11L389.164,413.777L389.226,413.424L389.234,413.004L389.005,412.515L388.195,412.388L387.498,412.689L387.439,412.724C387.37,412.768 387.301,412.815 387.233,412.866L386.837,413.161L386.149,413.712L385.459,414.299L384.766,414.905L384.085,415.514L383.436,416.112L382.846,416.676L382.456,417.067L382.221,417.307L382.014,417.526L381.834,417.717L381.688,417.877L381.581,417.995L381.534,418.045L381.767,417.812L383.923,419.395L383.793,419.571L383.821,419.535L383.911,419.422L384.051,419.246L384.241,419.009L384.475,418.707L384.759,418.34L385.088,417.901L385.467,417.391L385.674,417.107C386.521,416.049 386.682,414.919 386.033,414.584C385.385,414.249 384.173,414.835 383.326,415.893" style="fill-rule:nonzero;"/>
        </g>
        <g transform="matrix(1.04954,0,0,1.04954,128.863,163.187)">
            <path d="M382.864,421.451L383.049,421.39L383.366,421.291L383.625,421.214L383.837,421.152L384.09,421.075L384.37,420.959L384.738,420.695L385.027,420.355L385.155,420.155L385.265,419.971L385.389,419.763L385.539,419.519L385.726,419.227L385.833,419.065C386.004,418.806 385.993,418.567 385.809,418.531C385.625,418.496 385.338,418.676 385.167,418.935L385.044,419.121L384.839,419.442L384.676,419.708L384.551,419.918L384.46,420.071L384.422,420.139L384.492,420.096L384.548,420.093L384.384,420.166L384.145,420.239L383.925,420.303L383.652,420.384L383.322,420.488L383.136,420.549C382.897,420.628 382.642,420.893 382.566,421.142C382.491,421.392 382.624,421.53 382.864,421.451" style="fill-rule:nonzero;"/>
        </g>
    </g>
</svg>
