<?xml version="1.0" encoding="UTF-8" standalone="no"?>
<!DOCTYPE svg PUBLIC "-//W3C//DTD SVG 1.1//EN" "http://www.w3.org/Graphics/SVG/1.1/DTD/svg11.dtd">
<svg width="100%" height="100%" viewBox="0 0 850 850" version="1.1" xmlns="http://www.w3.org/2000/svg" xmlns:xlink="http://www.w3.org/1999/xlink" xml:space="preserve" xmlns:serif="http://www.serif.com/" style="fill-rule:evenodd;clip-rule:evenodd;stroke-linecap:round;stroke-linejoin:round;">
    <g id="Layer_1" transform="matrix(1,0,0,1,-75,-75)">
        <path d="M111.868,799.752L113.075,799.305L115.489,798.357L117.895,797.288L120.281,796.092L122.638,794.842L124.967,793.53L127.268,792.151L129.54,790.724L131.784,789.252L134.002,787.736L136.191,786.166L138.353,784.557L140.491,782.91L142.604,781.229L144.694,779.514L146.76,777.766L148.801,775.986L150.823,774.178L152.824,772.347L154.806,770.492L157.737,767.682L161.592,763.864L165.4,759.979L169.161,756.053L174.732,750.125L182.096,742.192L187.609,736.297L191.285,732.428L194.986,728.61L198.717,724.864L202.486,721.204L205.331,718.534L207.237,716.793L209.171,715.065L211.12,713.369L213.087,711.702L215.073,710.068L217.079,708.468L219.107,706.902L221.157,705.373L223.232,703.881L225.333,702.427L227.461,701.012L229.619,699.637L231.809,698.304L234.032,697.013L236.289,695.768L238.583,694.568L240.916,693.415L242.072,692.869L242.029,692.889L242.837,692.517L244.408,691.819L245.973,691.158L247.552,690.521L249.959,689.61L253.206,688.484L256.483,687.461L259.805,686.53L263.167,685.688L266.568,684.931L270.003,684.254L273.469,683.654L276.964,683.127L280.486,682.666L284.03,682.266L287.595,681.925L291.178,681.637L294.775,681.398L298.385,681.203L302.004,681.047L307.451,680.876L314.721,680.737L321.982,680.664L329.219,680.621L336.413,680.566L341.773,680.493L345.328,680.418L348.859,680.317L352.369,680.186L354.121,680.107L354.138,680.107L355.31,680.046L357.689,679.897L360.086,679.713L362.49,679.494L366.098,679.105L370.928,678.474L375.779,677.721L380.636,676.854L385.489,675.879L390.332,674.803L395.159,673.632L399.962,672.372L404.733,671.033L409.465,669.62L414.151,668.14L418.783,666.599L423.355,665.006L427.859,663.366L430.099,662.524C430.112,662.519 430.126,662.513 430.14,662.508L432.011,661.785L435.786,660.251L439.529,658.628L443.213,656.928L446.84,655.153L450.411,653.304L453.927,651.383L457.389,649.392L460.797,647.33L464.152,645.201L467.455,643.007L470.707,640.75L473.907,638.433L477.058,636.056L480.16,633.622L483.212,631.135L486.217,628.595L489.175,626.004L492.087,623.365L494.954,620.681L497.778,617.952L500.559,615.18L503.297,612.37L505.995,609.523L508.654,606.638L511.274,603.721L513.857,600.77L516.404,597.789L518.917,594.78L521.397,591.745L523.846,588.684L526.266,585.6L528.657,582.495L531.021,579.371L533.361,576.228L535.676,573.068L539.099,568.313L543.597,561.923L548.034,555.483L552.412,549.019L558.886,539.312L567.423,526.386L573.795,516.769L578.04,510.43L582.301,504.152L586.586,497.955L590.905,491.849L594.162,487.351L596.345,484.393L597.435,482.934L597.394,482.988L598.652,481.331L601.136,478.179L603.662,475.126L606.26,472.133L608.928,469.203L611.667,466.338L614.473,463.542L617.346,460.816L620.287,458.163L622.513,456.241L624.01,454.988L625.544,453.738L627.095,452.507L628.661,451.297L630.243,450.107L631.84,448.938L633.453,447.79L635.082,446.664L636.725,445.56L638.384,444.479L640.058,443.419L641.747,442.383L643.451,441.371L645.17,440.382L646.902,439.418L648.649,438.478L650.411,437.564L652.187,436.674L653.977,435.811L655.781,434.974L657.598,434.164L659.429,433.38L661.274,432.625L663.131,431.897L665.001,431.198L666.886,430.527L668.781,429.886L670.69,429.275L672.611,428.694L674.544,428.143L676.489,427.624L678.446,427.136L680.413,426.68L682.393,426.256L684.383,425.866L686.385,425.508L688.396,425.185L690.419,424.895L692.451,424.641L694.493,424.421L696.546,424.237L698.607,424.089L700.678,423.977L702.759,423.903L704.847,423.865L705.884,423.861L705.874,423.861L706.742,423.861L708.564,423.867L710.477,423.891L712.46,423.943L714.494,424.035L716.556,424.178L718.628,424.384L720.686,424.662L722.71,425.025L724.181,425.355L725.136,425.606L726.08,425.885L727.001,426.191L727.897,426.527L728.764,426.892L729.6,427.289L730.402,427.717L731.169,428.178L731.897,428.673L732.584,429.203L733.228,429.768L733.827,430.369L734.379,431.008L734.622,431.322C735.468,432.409 737.666,431.802 739.532,429.967C741.398,428.132 742.224,425.764 741.378,424.678L741.045,424.253L740.369,423.482L739.644,422.763L738.874,422.095L738.061,421.475L737.209,420.901L736.321,420.371L735.4,419.883L734.448,419.435L733.47,419.025L732.466,418.652L731.441,418.312L730.396,418.005L729.325,417.727L727.7,417.365L725.517,416.978L723.317,416.683L721.123,416.467L718.955,416.317L716.836,416.222L714.788,416.169L712.834,416.145L710.997,416.139L710.116,416.139L709.013,416.144L706.834,416.184L704.662,416.263L702.496,416.38L700.336,416.536L698.185,416.73L696.039,416.962L693.902,417.231L691.772,417.536L689.65,417.879L687.536,418.257L685.429,418.671L683.332,419.121L681.242,419.607L679.162,420.126L677.09,420.681L675.029,421.269L672.976,421.892L670.933,422.547L668.899,423.236L666.876,423.957L664.863,424.711L662.86,425.497L660.869,426.315L658.888,427.163L656.918,428.043L654.96,428.953L653.014,429.893L651.08,430.863L649.158,431.862L647.249,432.891L645.352,433.948L643.469,435.033L641.599,436.146L639.743,437.286L637.901,438.453L636.072,439.647L634.259,440.867L632.46,442.112L630.677,443.383L628.909,444.679L627.157,445.998L625.421,447.342L623.701,448.709L621.998,450.099L620.292,451.529L617.774,453.709L614.51,456.663L611.318,459.699L608.201,462.812L605.164,465.997L602.206,469.252L599.331,472.572L596.54,475.954L593.866,479.352L592.606,481.012C592.592,481.03 592.579,481.048 592.566,481.066L591.415,482.607L589.141,485.689L585.773,490.342L581.351,496.596L576.985,502.912L572.665,509.276L568.376,515.682L561.991,525.319L553.495,538.183L547.085,547.793L542.784,554.146L538.444,560.447L534.049,566.691L530.712,571.328L528.473,574.384L526.218,577.416L523.944,580.422L521.651,583.4L519.337,586.35L517.002,589.269L514.644,592.156L512.263,595.01L509.856,597.829L507.424,600.61L504.964,603.356L502.477,606.062L499.959,608.728L497.41,611.352L494.829,613.932L492.214,616.469L489.562,618.96L486.873,621.405L484.146,623.802L481.378,626.151L478.566,628.451L475.713,630.698L472.812,632.895L469.864,635.038L466.867,637.127L463.818,639.16L460.716,641.137L457.558,643.056L454.344,644.918L451.07,646.719L447.736,648.457L444.34,650.131L440.879,651.74L437.353,653.281L433.734,654.763L431.86,655.492L431.901,655.476L429.749,656.291L425.358,657.904L420.901,659.473L416.385,660.989L411.816,662.448L407.204,663.841L402.554,665.163L397.874,666.406L393.171,667.566L388.453,668.635L383.726,669.605L378.999,670.471L374.278,671.225L369.561,671.862L366.035,672.258L363.698,672.482L361.369,672.671L359.038,672.828L357.862,672.893L357.879,672.893L356.16,672.978L352.684,673.123L349.177,673.238L345.646,673.329L340.297,673.432L333.087,673.527L325.811,673.612L318.486,673.726L311.135,673.911L305.615,674.121L301.932,674.304L298.251,674.527L294.574,674.796L290.904,675.115L287.242,675.49L283.59,675.926L279.95,676.429L276.323,677.005L272.712,677.658L269.119,678.394L265.545,679.219L261.99,680.138L258.458,681.156L254.949,682.282L251.481,683.514L248.903,684.515L247.183,685.224L245.47,685.965L243.784,686.729L242.971,687.111C242.957,687.117 242.942,687.124 242.928,687.131L241.617,687.764L239.077,689.045L236.574,690.379L234.11,691.764L231.684,693.197L229.295,694.677L226.941,696.202L224.623,697.77L222.339,699.379L220.089,701.025L217.871,702.709L215.686,704.425L213.531,706.173L211.405,707.951L209.308,709.756L207.238,711.587L205.195,713.441L203.163,715.33L200.169,718.192L196.269,722.051L192.443,725.962L188.68,729.914L184.965,733.901L179.483,739.89L172.25,747.853L166.834,753.767L163.214,757.648L159.571,761.468L155.887,765.227L153.093,767.999L151.22,769.813L149.332,771.602L147.429,773.364L145.507,775.1L143.568,776.811L141.609,778.495L139.627,780.149L137.621,781.77L135.589,783.358L133.529,784.912L131.441,786.442L129.322,787.935L127.169,789.39L124.98,790.806L122.753,792.198L120.485,793.559L118.176,794.876L115.811,796.22L113.378,797.581L112.132,798.248C111.696,798.446 111.284,798.944 111.211,799.359C111.138,799.774 111.432,799.95 111.868,799.752" style="fill-rule:nonzero;"/>
        <path d="M110.265,799.431L110.033,799.595L109.441,800.063L108.826,800.617L108.241,801.214L107.693,801.847L107.183,802.507L106.709,803.188L106.27,803.886L105.863,804.599L105.487,805.325L105.141,806.063L104.822,806.811L104.402,807.933L103.926,809.466L103.558,811.033L103.294,812.604L103.138,814.166L103.091,815.703L103.13,816.842L103.193,817.589L103.285,818.31L103.408,819.014L103.561,819.7L103.746,820.363L103.964,821.004L104.214,821.618L104.358,821.925C104.36,821.931 104.363,821.937 104.367,821.943L104.716,822.636L105.466,823.999L106.27,825.308L107.123,826.558L108.023,827.748L108.968,828.879L109.957,829.953L110.987,830.968L112.058,831.927L113.166,832.829L114.312,833.675L115.494,834.464L116.709,835.199L117.956,835.88L119.231,836.508L120.535,837.083L121.865,837.606L123.219,838.078L124.596,838.5L125.994,838.871L127.412,839.192L128.847,839.465L130.299,839.69L131.764,839.866L133.243,839.996L134.732,840.079L136.232,840.116L137.739,840.108L139.252,840.055L140.771,839.957L142.293,839.814L143.816,839.628L144.589,839.517C144.601,839.515 144.614,839.513 144.626,839.511L145.124,839.428L146.187,839.203L147.262,838.915L148.32,838.576L149.36,838.195L150.38,837.78L151.855,837.124L153.769,836.207L155.622,835.301L157.407,834.468L158.696,833.928L159.53,833.618L159.932,833.482L159.881,833.499L160.513,833.298L161.713,832.963L162.914,832.678L164.139,832.427L166.025,832.095L168.58,831.699L171.176,831.286L173.159,830.915L174.506,830.616L175.853,830.268L177.213,829.854L178.586,829.362L179.975,828.777L180.72,828.425C180.739,828.416 180.757,828.406 180.776,828.397L182.286,827.641L185.331,826.081L189.894,823.681L195.969,820.432L202.044,817.207L206.6,814.86L209.639,813.352L212.694,811.891L215.762,810.494L218.846,809.168L221.948,807.924L225.071,806.771L228.22,805.719L229.784,805.241L229.746,805.252L230.699,804.976L232.586,804.473L234.494,804.02L236.435,803.612L238.404,803.253L240.396,802.942L242.406,802.681L244.428,802.472L246.459,802.315L248.494,802.212L250.527,802.164L252.553,802.173L254.569,802.238L256.569,802.361L258.548,802.544L260.503,802.787L261.459,802.929L261.455,802.929L263.613,803.26L267.977,803.887L272.371,804.487L276.774,805.089L281.17,805.721L285.544,806.407L288.8,806.974L290.954,807.383L293.097,807.822L295.225,808.293L296.278,808.541L296.268,808.539L297.216,808.771L299.091,809.263L300.953,809.791L302.809,810.355L305.588,811.262L309.273,812.572L312.939,813.98L316.594,815.468L322.07,817.802L329.371,821.002L334.868,823.386L338.556,824.931L342.266,826.414L346.003,827.817L348.831,828.806L350.73,829.431L352.633,830.025L354.547,830.585L355.515,830.854C355.518,830.854 355.522,830.855 355.525,830.856L356.939,831.236L359.791,831.975L362.662,832.685L365.545,833.366L369.886,834.339L375.7,835.562L381.548,836.685L387.408,837.729L393.279,838.689L399.139,839.591L402.061,840.025L402.052,840.024L403.096,840.185L405.149,840.54L407.189,840.939L409.224,841.377L412.28,842.091L416.345,843.119L420.405,844.195L424.473,845.269L428.56,846.289L431.646,846.991L433.716,847.417L434.76,847.616C434.765,847.617 434.77,847.618 434.776,847.62L435.12,847.68L435.89,847.801L436.738,847.915L437.653,848.021L438.632,848.118L439.675,848.208L440.781,848.291L441.944,848.368L443.165,848.438L444.443,848.502L445.772,848.559L447.154,848.61L448.584,848.655L450.061,848.694L451.582,848.726L453.145,848.753L454.748,848.774L456.388,848.789L458.91,848.805L462.379,848.813L465.956,848.801L469.622,848.768L473.352,848.727L477.131,848.67L480.937,848.603L486.661,848.477L492.339,848.337L496.075,848.228L499.741,848.114L503.324,847.99L506.808,847.851L509.345,847.738L510.996,847.659L512.612,847.576L514.189,847.491L515.726,847.402L517.221,847.31L518.671,847.215L520.075,847.117L521.429,847.016L522.733,846.912L523.983,846.805L525.177,846.695L526.314,846.582L527.391,846.466L528.407,846.347L529.36,846.225L530.248,846.1L531.07,845.972L531.467,845.904C531.475,845.903 531.483,845.901 531.491,845.9L532.925,845.639L535.829,845.059L538.743,844.411L541.651,843.702L544.551,842.937L547.444,842.119L550.327,841.254L553.198,840.346L556.055,839.4L558.898,838.422L561.725,837.415L564.535,836.383L568.707,834.802L574.2,832.648L576.922,831.558L576.911,831.563L578.201,831.052L580.772,830.075L584.717,828.651L590.1,826.766L594.197,825.309L596.951,824.29L599.699,823.224L602.44,822.096L605.165,820.894L607.869,819.601L609.899,818.551L611.255,817.806L612.583,817.039L613.902,816.235L615.211,815.394L616.509,814.511L617.796,813.585L619.07,812.613L619.742,812.078C619.767,812.057 619.792,812.037 619.816,812.016L620.33,811.595L621.437,810.652L622.552,809.658L623.64,808.641L624.702,807.602L625.737,806.543L626.746,805.465L627.727,804.368L629.125,802.725L630.912,800.47L632.622,798.131L634.235,795.747L635.76,793.324L637.198,790.867L638.559,788.38L639.799,785.871L640.619,783.387L641.584,780.878L642.662,778.327L643.693,775.758L644.675,773.177L645.613,770.586L646.95,766.699L648.62,761.506L650.203,756.323L651.726,751.193L653.227,746.146L654.358,742.437L655.116,740.016L655.89,737.626L656.68,735.28L657.077,734.14L657.075,734.146L658.221,730.873L660.492,724.279L662.767,717.679L665.069,711.111L666.837,706.23L668.039,703.008L669.271,699.8L670.537,696.618L671.835,693.469L673.172,690.353L674.553,687.275L675.983,684.24L676.701,682.764L676.683,682.8L677.337,681.481L678.655,678.86L680.683,674.895L683.441,669.541L686.22,664.114L688.953,658.615L690.95,654.44L692.236,651.632L693.474,648.824L694.656,646.007L695.773,643.183L696.815,640.355L697.302,638.923C697.309,638.904 697.316,638.885 697.323,638.865L697.41,638.592L697.56,638.123L697.682,637.744L697.779,637.439L697.859,637.19L697.926,636.98L698.012,636.703L698.098,636.424L698.161,636.214L698.234,635.972L698.321,635.679L698.429,635.316L698.563,634.866L698.665,634.468L698.736,634.168L698.815,633.838L698.901,633.475L698.948,633.282C699.347,632.079 698.754,631.374 697.624,631.708C696.493,632.042 695.252,633.288 694.853,634.491L694.766,634.698L694.604,635.085L694.457,635.437L694.323,635.757L694.154,636.179L693.987,636.641L693.853,637.012L693.746,637.309L693.661,637.544L693.592,637.733L693.502,637.975L693.407,638.228L693.33,638.429L693.236,638.677L693.117,638.987L692.969,639.374L692.784,639.854L692.677,640.135L692.698,640.077L692.161,641.411L691.047,644.111L689.877,646.81L688.656,649.508L687.389,652.206L686.081,654.893L684.052,658.937L681.24,664.346L678.373,669.755L675.498,675.156L673.376,679.195L671.991,681.877L671.317,683.2C671.311,683.212 671.305,683.224 671.299,683.236L670.486,684.863L668.939,688.084L667.452,691.328L666.019,694.593L664.639,697.875L663.308,701.17L662.016,704.477L660.756,707.8L658.934,712.782L656.589,719.414L654.312,726.019L652.056,732.582L650.925,735.854C650.924,735.856 650.923,735.858 650.923,735.86L650.501,737.089L649.69,739.533L648.904,742L648.137,744.492L647.026,748.248L645.577,753.288L644.138,758.346L642.68,763.392L641.163,768.411L639.975,772.135L639.15,774.583L638.296,777.003L637.409,779.39L636.48,781.743L635.34,784.079L633.948,786.373L632.861,788.567L631.772,790.701L630.63,792.777L629.435,794.791L628.181,796.74L626.868,798.623L625.468,800.472L624.363,801.824L623.62,802.683L622.859,803.527L622.077,804.356L621.275,805.169L620.451,805.968L619.602,806.752L618.697,807.55L618.184,807.984L618.258,807.922L617.827,808.281L616.858,809.048L615.855,809.795L614.818,810.525L613.748,811.236L612.648,811.93L611.518,812.607L610.382,813.255L608.612,814.207L606.149,815.433L603.611,816.599L601.01,817.711L598.36,818.78L595.678,819.813L591.595,821.327L586.125,823.326L582.057,824.854L579.384,825.906L578.089,826.437C578.085,826.438 578.082,826.44 578.078,826.441L575.394,827.552L569.955,829.758L565.832,831.377L563.071,832.428L560.297,833.454L557.512,834.45L554.717,835.41L551.914,836.332L549.103,837.21L546.286,838.042L543.462,838.823L540.633,839.549L537.801,840.215L534.953,840.82L533.509,841.1L533.533,841.096L533.189,841.159L532.421,841.289L531.577,841.419L530.659,841.548L529.671,841.675L528.616,841.802L527.498,841.926L526.318,842.049L525.08,842.171L523.786,842.29L522.438,842.407L521.04,842.522L519.593,842.635L518.1,842.745L516.564,842.853L514.986,842.958L513.371,843.06L511.72,843.16L509.18,843.304L505.689,843.485L502.097,843.653L498.423,843.804L494.694,843.931L489.024,844.088L483.33,844.188L479.55,844.229L475.806,844.245L472.115,844.243L468.5,844.211L464.973,844.161L461.554,844.093L459.073,844.026L457.466,843.973L455.896,843.914L454.367,843.851L452.879,843.784L451.437,843.711L450.043,843.633L448.698,843.551L447.405,843.464L446.168,843.371L444.988,843.274L443.868,843.171L442.812,843.063L441.821,842.949L440.898,842.831L440.047,842.709L439.271,842.583L438.563,842.451L438.224,842.38L438.241,842.384L437.251,842.165L435.266,841.695L432.285,840.923L428.304,839.803L424.309,838.626L420.294,837.441L416.252,836.297L413.195,835.5L411.135,835.011L409.061,834.561L406.98,834.157L405.948,833.976C405.945,833.975 405.942,833.975 405.94,833.975L403.057,833.49L397.258,832.521L391.428,831.539L385.573,830.541L379.72,829.493L373.877,828.384L369.521,827.486L366.636,826.854L363.764,826.194L360.905,825.503L359.475,825.144L359.485,825.146L358.542,824.902L356.649,824.382L354.764,823.828L352.889,823.241L350.085,822.303L346.358,820.962L342.648,819.537L338.95,818.047L333.413,815.732L326.036,812.598L320.486,810.306L316.766,808.841L313.026,807.451L309.266,806.154L306.428,805.256L304.522,804.696L302.607,804.172L300.687,803.687L299.732,803.461C299.729,803.461 299.725,803.46 299.722,803.459L298.634,803.213L296.457,802.751L294.268,802.323L292.067,801.925L288.754,801.378L284.324,800.721L279.891,800.122L275.469,799.552L271.074,798.983L266.715,798.388L264.546,798.071C264.544,798.071 264.543,798.071 264.541,798.07L263.52,797.926L261.477,797.688L259.409,797.513L257.319,797.399L255.213,797.346L253.096,797.353L250.97,797.418L248.841,797.54L246.713,797.719L244.589,797.953L242.476,798.241L240.376,798.583L238.294,798.978L236.233,799.424L234.198,799.922L232.21,800.465L231.254,800.748C231.241,800.751 231.229,800.755 231.216,800.759L229.523,801.289L226.206,802.419L222.925,803.651L219.679,804.973L216.465,806.374L213.284,807.842L210.132,809.367L207,810.941L202.361,813.357L196.263,816.629L190.229,819.891L185.731,822.284L182.736,823.836L181.224,824.603L181.28,824.575L180.787,824.818L179.681,825.299L178.536,825.721L177.358,826.092L176.15,826.415L174.927,826.696L173.036,827.063L170.445,827.493L167.809,827.919L165.814,828.285L164.464,828.572L163.102,828.908L161.754,829.296L161.119,829.501C161.102,829.507 161.085,829.512 161.068,829.518L160.527,829.708L159.489,830.106L157.996,830.746L156.106,831.641L154.295,832.539L152.53,833.398L151.221,833.992L150.366,834.348L149.511,834.671L148.652,834.956L147.783,835.2L146.874,835.402L146.374,835.489L146.411,835.483L145.702,835.59L144.258,835.777L142.813,835.923L141.367,836.03L139.923,836.095L138.483,836.117L137.048,836.097L135.62,836.032L134.202,835.923L132.794,835.768L131.398,835.568L130.017,835.322L128.652,835.028L127.304,834.687L125.976,834.298L124.67,833.859L123.386,833.372L122.127,832.834L120.893,832.246L119.688,831.606L118.513,830.915L117.369,830.172L116.257,829.376L115.179,828.529L114.137,827.627L113.132,826.671L112.168,825.659L111.244,824.591L110.364,823.467L109.528,822.286L108.739,821.047L107.993,819.743L107.634,819.057L107.643,819.075L107.523,818.834L107.294,818.311L107.093,817.763L106.918,817.192L106.771,816.6L106.65,815.99L106.555,815.362L106.487,814.732L106.431,813.76L106.442,812.424L106.547,811.075L106.742,809.736L107.021,808.426L107.373,807.153L107.686,806.238L107.909,805.668L108.145,805.126L108.391,804.613L108.645,804.133L108.904,803.69L109.165,803.284L109.425,802.917L109.683,802.588L109.936,802.291L110.193,802.023L110.504,801.746L110.735,801.569C111.518,800.991 112.048,800.044 111.918,799.453C111.788,798.863 111.048,798.853 110.265,799.431" style="fill-rule:nonzero;"/>
        <path d="M777.029,483.384L779.465,481.122C779.996,479.391 779.083,478.422 777.426,478.958C775.768,479.494 773.994,481.332 773.463,483.062L774.894,484.074C774.706,484.69 775.031,485.034 775.62,484.843C776.209,484.652 776.84,483.999 777.029,483.384" style="fill-rule:nonzero;"/>
        <path d="M743.128,424.416L743.334,424.251L743.658,423.967L743.908,423.739L744.1,423.559L744.311,423.364L744.501,423.209L744.663,423.111L744.833,422.985L744.997,422.84L745.21,422.643L745.471,422.393L745.781,422.082L746.136,421.703L746.311,421.482C747.375,419.616 747.067,418.065 745.624,418.019C744.18,417.973 742.147,419.449 741.083,421.315L741.013,421.523L740.942,421.89L740.899,422.192L740.874,422.439L740.855,422.642L740.833,422.818L740.788,423.065L740.731,423.359L740.708,423.609L740.717,423.814L740.734,423.981L740.769,424.185L740.823,424.436L740.872,424.584C740.49,425.343 740.686,425.921 741.309,425.874C741.932,425.828 742.746,425.175 743.128,424.416" style="fill-rule:nonzero;"/>
        <path d="M741.374,427.361L741.373,427.361C743.052,427.361 745.364,425.633 746.539,423.501C747.714,421.368 747.305,419.639 745.627,419.639L745.626,419.639C743.947,419.639 741.634,421.368 740.46,423.501C739.286,425.633 739.695,427.361 741.374,427.361" style="fill-rule:nonzero;"/>
        <path d="M737.508,428.694L737.916,428.398L738.841,427.651L739.777,426.801L740.684,425.906L741.56,424.974L742.394,424.004L743.196,423.013L743.967,422.004L745.048,420.495L746.387,418.447L747.635,416.381L748.775,414.356L749.317,413.342C749.322,413.333 749.326,413.323 749.331,413.313L749.769,412.484L750.661,410.79L751.566,409.076L752.476,407.353L753.875,404.76L755.308,402.199L756.271,400.54L757.26,398.902L758.268,397.307L759.294,395.767L760.333,394.29L761.387,392.886L762.452,391.566L763.526,390.336L764.605,389.201L765.077,388.743L764.949,388.872L765.616,388.235L766.832,387.143L768.062,386.118L769.357,385.095L770.719,384.081L772.145,383.083L773.633,382.102L775.178,381.128L776.779,380.17L778.431,379.236L780.13,378.328L781.872,377.448L783.652,376.597L785.467,375.778L787.312,374.993L789.184,374.241L791.078,373.526L792.99,372.849L794.916,372.209L796.852,371.61L798.795,371.052L800.74,370.535L802.685,370.061L804.626,369.63L806.558,369.245L808.477,368.905L810.381,368.611L812.265,368.365L814.127,368.166L815.962,368.017L817.766,367.916L819.537,367.867L820.391,367.861L820.349,367.861L820.715,367.865L821.407,367.894L822.119,367.951L822.872,368.037L823.657,368.151L824.469,368.295L825.303,368.467L826.154,368.668L827.463,369.025L829.22,369.599L830.515,370.095L831.364,370.457L832.21,370.849L833.039,371.266L833.847,371.708L834.629,372.175L835.381,372.665L836.1,373.177L836.782,373.712L837.422,374.268L838.017,374.842L838.562,375.435L839.056,376.044L839.493,376.668L839.87,377.303L840.186,377.947L840.436,378.596L840.621,379.245L840.739,379.89L840.792,380.526L840.792,380.777C840.833,382.499 842.527,382.876 844.575,381.618C846.623,380.361 848.25,377.945 848.208,376.223L848.188,375.619L848.077,374.579L847.876,373.594L847.594,372.66L847.237,371.773L846.811,370.928L846.323,370.123L845.777,369.355L845.176,368.622L844.526,367.923L843.829,367.255L843.091,366.619L842.315,366.014L841.504,365.439L840.662,364.893L839.794,364.377L838.901,363.891L837.989,363.433L837.06,363.004L836.108,362.601L834.668,362.054L832.758,361.434L831.335,361.048L830.387,360.826L829.45,360.633L828.524,360.472L827.615,360.341L826.723,360.242L825.849,360.176L825.019,360.143L824.651,360.139L824.609,360.139L823.65,360.147L821.74,360.202L819.796,360.312L817.822,360.475L815.821,360.69L813.796,360.956L811.75,361.274L809.687,361.641L807.609,362.057L805.521,362.522L803.424,363.035L801.321,363.595L799.216,364.202L797.112,364.855L795.013,365.554L792.92,366.298L790.836,367.087L788.765,367.921L786.71,368.799L784.672,369.722L782.654,370.689L780.66,371.701L778.692,372.757L776.751,373.86L774.842,375.008L772.967,376.209L771.129,377.469L769.333,378.777L767.581,380.133L765.879,381.542L764.234,383.009L762.706,384.468L762.051,385.128C762.008,385.171 761.965,385.214 761.923,385.257L761.062,386.164L759.552,387.87L758.135,389.616L756.802,391.393L755.545,393.19L754.356,395.005L753.232,396.831L752.163,398.664L751.143,400.497L750.159,402.341L748.779,405.057L747.478,407.724L746.643,409.473L745.84,411.186L745.057,412.86L744.669,413.687L744.683,413.658L744.284,414.502L743.419,416.257L742.5,418.001L741.509,419.729L740.733,420.988L740.214,421.78L739.684,422.543L739.144,423.273L738.605,423.978L738.054,424.649L737.489,425.285L736.871,425.938L736.492,426.306C735.523,427.124 734.965,428.321 735.245,428.98C735.526,429.639 736.539,429.511 737.508,428.694" style="fill-rule:nonzero;"/>
        <path d="M759.979,428.168L760.653,427.18L762.016,425.248L763.423,423.328L764.893,421.407L766.419,419.489L768.006,417.584L769.639,415.694L771.329,413.83L773.064,411.996L774.846,410.2L776.671,408.449L778.536,406.748L780.441,405.105L782.38,403.521L784.355,402.008L786.361,400.568L788.398,399.207L790.465,397.933L792.56,396.748L794.685,395.656L796.837,394.665L798.445,394.002L799.516,393.598L800.62,393.21L801.732,392.851L802.852,392.522L803.978,392.225L805.111,391.96L806.25,391.727L807.396,391.527L808.55,391.363L809.709,391.235L810.874,391.143L812.046,391.089L813.223,391.075L814.405,391.1L815.592,391.167L816.784,391.276L817.98,391.428L819.179,391.626L820.382,391.87L821.585,392.163L822.79,392.506L823.377,392.696C824.757,393.109 827.05,391.788 828.499,389.747C829.947,387.705 830.003,385.716 828.623,385.304L827.936,385.114L826.594,384.772L825.25,384.479L823.907,384.233L822.561,384.036L821.216,383.887L819.869,383.786L818.522,383.732L817.174,383.725L815.826,383.764L814.478,383.847L813.131,383.975L811.784,384.147L810.44,384.362L809.097,384.618L807.757,384.915L806.42,385.255L805.086,385.633L803.757,386.049L802.433,386.502L801.114,386.993L799.774,387.532L797.792,388.4L795.211,389.657L792.666,391.038L790.163,392.535L787.707,394.137L785.304,395.834L782.955,397.617L780.667,399.479L778.441,401.406L776.282,403.398L774.193,405.437L772.176,407.521L770.236,409.64L768.372,411.783L766.593,413.947L764.893,416.12L763.286,418.299L761.764,420.471L760.338,422.631L759.005,424.77L757.789,426.86L757.237,427.863C756.609,428.884 756.713,429.779 757.47,429.863C758.228,429.948 759.35,429.188 759.979,428.168" style="fill-rule:nonzero;"/>
        <path d="M772.814,452.582L773.843,451.91L775.892,450.585L777.991,449.263L780.166,447.956L782.411,446.659L784.724,445.391L787.097,444.152L789.529,442.95L792.012,441.794L794.543,440.682L797.115,439.626L799.724,438.631L802.366,437.697L805.033,436.836L807.722,436.05L810.43,435.342L813.148,434.722L815.872,434.194L818.6,433.759L821.324,433.426L824.041,433.2L826.746,433.082L828.751,433.071L830.078,433.102L831.409,433.163L832.735,433.256L834.056,433.378L835.368,433.534L836.672,433.723L837.967,433.947L839.252,434.205L840.528,434.5L841.794,434.828L843.049,435.192L844.292,435.594L845.523,436.035L846.741,436.515L847.944,437.034L849.137,437.59L850.315,438.187L851.477,438.825L852.623,439.506L853.18,439.857L853.14,439.831L853.49,440.071L854.172,440.572L854.862,441.124L855.56,441.729L856.255,442.381L856.938,443.076L857.601,443.805L858.235,444.563L858.829,445.345L859.378,446.141L859.868,446.948L860.297,447.754L860.651,448.553L860.929,449.329L861.122,450.071L861.237,450.755L861.267,451C861.313,452.496 862.798,452.812 864.583,451.708C866.369,450.603 867.779,448.495 867.733,447L867.736,446.351L867.634,445.234L867.413,444.164L867.096,443.129L866.69,442.126L866.21,441.149L865.664,440.202L865.062,439.284L864.411,438.4L863.721,437.549L862.999,436.739L862.254,435.972L861.494,435.25L860.727,434.578L859.961,433.96L859.211,433.409L858.86,433.169C858.847,433.16 858.833,433.151 858.82,433.143L858.207,432.76L856.985,432.038L855.744,431.362L854.487,430.73L853.213,430.141L851.919,429.599L850.611,429.099L849.288,428.641L847.95,428.223L846.6,427.846L845.237,427.509L843.86,427.214L842.472,426.956L841.073,426.736L839.664,426.553L838.247,426.407L836.822,426.295L835.386,426.221L833.944,426.182L832.484,426.176L830.289,426.23L827.362,426.411L824.42,426.718L821.471,427.142L818.52,427.678L815.571,428.323L812.63,429.067L809.704,429.905L806.795,430.835L803.911,431.85L801.058,432.941L798.239,434.109L795.46,435.345L792.727,436.641L790.044,438L787.417,439.409L784.851,440.867L782.352,442.37L779.925,443.908L777.577,445.489L775.313,447.098L773.168,448.735L772.168,449.553C771.062,450.365 770.311,451.701 770.489,452.538C770.668,453.374 771.708,453.394 772.814,452.582" style="fill-rule:nonzero;"/>
        <path d="M815.937,459.979L816.812,459.996L818.585,460.064L820.396,460.178L822.228,460.359L824.055,460.62L825.396,460.874L826.272,461.075L827.142,461.303L827.994,461.558L828.823,461.844L829.63,462.159L830.411,462.505L831.162,462.884L831.881,463.296L832.564,463.745L833.212,464.227L833.818,464.747L834.382,465.306L834.905,465.9L835.378,466.537L835.808,467.21L836.189,467.926L836.52,468.683L836.803,469.482L837.045,470.319L837.248,471.194L837.438,472.096L837.528,472.53C837.563,473.673 838.699,473.915 840.064,473.07C841.429,472.225 842.507,470.614 842.472,469.47L842.527,468.765L842.533,467.483L842.409,466.299L842.185,465.197L841.87,464.175L841.478,463.225L841.014,462.344L840.487,461.529L839.895,460.783L839.251,460.094L838.551,459.469L837.806,458.899L837.018,458.383L836.188,457.923L835.323,457.511L834.425,457.147L833.498,456.83L832.544,456.557L831.566,456.328L830.57,456.136L829.558,455.983L828.522,455.866L826.957,455.753L824.865,455.714L822.774,455.786L820.708,455.959L818.697,456.226L817.731,456.388C816.916,456.452 815.852,457.308 815.357,458.299C814.861,459.291 815.121,460.043 815.937,459.979" style="fill-rule:nonzero;"/>
        <path d="M783.402,364.476L783.666,363.016L783.711,360.369L783.572,357.818L783.333,355.319L782.907,351.598L782.242,346.658L781.469,341.737L780.595,336.841L779.625,331.97L778.568,327.118L777.433,322.283L776.232,317.459L775.033,312.597L773.792,307.735L772.463,302.908L770.814,298.304L768.873,293.909L767.472,289.07L765.078,282.015L761.997,272.481L759.147,262.746L756.245,253.069L753.26,243.509L751.003,236.409L749.481,231.723L747.963,227.058L746.485,222.393L745.068,217.715L743.726,213.018L743.087,210.665C742.82,209.578 741.419,209.587 739.956,210.688C738.494,211.788 737.525,213.561 737.792,214.649L738.336,217.108L739.466,222.012L740.656,226.905L741.906,231.785L743.223,236.641L744.629,241.455L746.913,248.573L750.189,257.924L753.689,267.127L757.274,276.263L760.558,285.615L762.828,292.749L764.46,297.384L765.474,302.481L766.69,307.389L768.123,312.095L769.527,316.791L770.844,321.516L772.016,326.31L773.099,331.127L774.091,335.964L774.987,340.82L775.783,345.695L776.473,350.589L777.048,355.513L777.399,359.223L777.602,361.695L777.842,364.128L778.202,366.479L778.598,367.524C778.656,368.621 779.779,368.827 781.106,367.986C782.433,367.144 783.461,365.573 783.402,364.476" style="fill-rule:nonzero;"/>
        <path d="M786.355,201.204L786.48,203.087L787.112,205.499L787.529,207.07L787.945,208.622L788.339,210.16L788.681,211.706L788.966,213.26L789.083,214.023L789.077,213.973L789.384,216.479L790.05,221.533L790.778,226.618L791.561,231.724L792.395,236.848L793.275,241.985L794.192,247.134L795.091,252.326L795.991,257.543L796.93,262.747L798.117,267.78L799.648,272.56L800.73,277.66L801.751,282.792L803.08,287.672L804.107,292.745L804.623,295.268C804.623,295.269 804.623,295.271 804.624,295.272L804.696,295.621L804.849,296.354L805.005,297.129L805.173,297.935L805.352,298.77L805.541,299.633L805.846,300.976L806.287,302.858L806.767,304.832L807.278,306.893L807.824,309.026L808.394,311.227L808.99,313.483L809.608,315.785L810.244,318.125L811.228,321.683L812.588,326.461L813.972,331.215L815.006,334.72L815.686,337.011L816.348,339.264L816.986,341.468L817.596,343.614L818.168,345.7L818.696,347.716L819.176,349.654L819.603,351.504L819.886,352.825L820.056,353.671L820.211,354.493L820.349,355.287L820.468,356.052L820.57,356.785L820.655,357.484L820.722,358.148L820.771,358.773L820.801,359.358L820.809,359.62C820.818,360.882 822.031,361.18 823.517,360.285C825.003,359.39 826.201,357.642 826.191,356.38L826.194,356.027L826.186,355.331L826.16,354.607L826.116,353.856L826.055,353.078L825.978,352.272L825.885,351.439L825.779,350.577L825.659,349.69L825.525,348.774L825.298,347.358L824.952,345.394L824.559,343.347L824.123,341.222L823.648,339.03L823.138,336.778L822.589,334.481L822.007,332.145L821.393,329.78L820.414,326.207L819.02,321.443L817.557,316.735L816.436,313.282L815.69,311.029L814.952,308.823L814.227,306.673L813.52,304.588L812.84,302.571L812.186,300.636L811.57,298.784L810.991,297.029L810.588,295.777L810.333,294.978L810.092,294.208L809.865,293.466L809.652,292.756L809.464,292.066L809.376,291.728L809.377,291.732L808.752,289.297L807.508,284.394L806.586,279.224L805.383,274.24L804.278,269.17L803.665,263.736L802.761,258.519L801.67,253.447L800.608,248.373L799.623,243.269L798.74,238.124L797.913,232.981L797.141,227.849L796.429,222.732L795.778,217.636L795.192,212.562L794.923,210.027C794.921,210.01 794.919,209.993 794.917,209.977L794.798,209.113L794.521,207.432L794.191,205.769L793.816,204.123L793.373,202.512L792.858,200.938L791.974,198.666L791.027,197.443C790.712,196.531 789.411,196.633 788.12,197.672C786.83,198.71 786.04,200.292 786.355,201.204" style="fill-rule:nonzero;"/>
        <path d="M786.926,408.998L787.384,412.951L788.585,420.674L789.692,426.364L790.501,430.139L791.396,433.881L792.353,437.62L792.854,439.493C793.123,440.579 794.525,440.567 795.986,439.466C797.448,438.365 798.414,436.593 798.146,435.507L797.712,433.603L796.858,429.815L796.015,426.059L795.155,422.353L793.87,416.833L792.06,409.576L791.074,406.002C790.905,405.126 789.84,405.086 788.695,405.913C787.55,406.74 786.758,408.121 786.926,408.998" style="fill-rule:nonzero;"/>
        <path d="M826.671,399.081L826.797,400.002L826.99,401.817L827.131,403.638L827.233,405.48L827.336,408.288L827.439,412.067L827.626,415.839L827.861,418.669L828.082,420.556L828.354,422.426L828.698,424.278L829.172,426.069L829.826,427.761L830.221,428.593C830.633,429.892 832.435,429.784 834.246,428.352C836.057,426.92 837.191,424.706 836.779,423.407L836.633,422.535L836.339,420.767L836.028,419.035L835.725,417.31L835.468,415.557L835.258,413.784L834.98,411.075L834.62,407.414L834.173,403.769L833.76,401.058L833.428,399.26L833.037,397.483L832.58,395.751L832.329,394.919C832.075,393.738 830.602,393.712 829.04,394.862C827.477,396.011 826.416,397.9 826.671,399.081" style="fill-rule:nonzero;"/>
        <path d="M837.107,473.217L837.466,482.877L838.387,502.096L839.192,516.48L839.818,526.04L840.507,535.584L841.264,545.113L842.093,554.626L843.004,564.123L843.994,573.607L845.075,583.074L846.248,592.527L847.527,601.96L848.909,611.378L850.41,620.774L851.207,625.469L851.206,625.46L851.392,626.6L851.701,628.854L851.943,631.114L852.127,633.392L852.263,635.689L852.36,638.001L852.452,641.501L852.527,646.197L852.622,650.914L852.752,654.461L852.886,656.829L853.069,659.187L853.311,661.536L853.459,662.718C853.46,662.728 853.461,662.738 853.463,662.748L853.825,665.24L854.592,670.229L855.82,677.698L857.548,687.633L859.309,697.552L861.022,707.467L862.226,714.905L862.97,719.867L863.658,724.837L864.277,729.816L864.818,734.804L865.267,739.806L865.453,742.306C865.51,743.142 866.382,743.287 867.401,742.631C868.419,741.974 869.2,740.765 869.143,739.93L868.985,737.376L868.605,732.286L868.143,727.207L867.607,722.139L867.007,717.08L866.35,712.028L865.283,704.466L863.756,694.409L862.18,684.367L860.633,674.33L859.54,666.799L858.86,661.773L858.537,659.252L858.541,659.282L858.418,658.155L858.219,655.864L858.077,653.554L857.982,651.233L857.908,647.711L857.883,642.967L857.871,638.193L857.824,634.606L857.756,632.21L857.646,629.816L857.486,627.427L857.263,625.045L856.968,622.691L856.794,621.54C856.794,621.537 856.793,621.534 856.793,621.531L856.053,616.828L854.651,607.404L853.344,597.973L852.133,588.53L850.999,579.084L849.944,569.631L848.952,560.177L848.02,550.72L847.132,541.267L846.282,531.82L845.459,522.379L844.654,512.951L843.429,498.85L841.788,480.099L840.893,470.783C840.836,469.925 839.942,469.775 838.897,470.447C837.852,471.119 837.05,472.36 837.107,473.217" style="fill-rule:nonzero;"/>
        <path d="M860.624,452.112L860.591,452.803L860.496,454.137L860.362,455.443L860.195,456.731L859.99,458.004L859.754,459.261L859.483,460.505L859.184,461.733L858.851,462.951L858.485,464.157L858.096,465.35L857.676,466.533L857.227,467.706L856.751,468.871L855.984,470.617L854.878,472.909L853.689,475.15L852.421,477.358L851.075,479.535L849.667,481.678L848.202,483.786L846.694,485.859L845.145,487.893L844.371,488.88C843.341,490.262 843.235,491.66 844.134,492.002C845.033,492.345 846.598,491.502 847.628,490.12L848.41,489.02L849.96,486.812L851.51,484.554L853.041,482.244L854.542,479.884L855.994,477.472L857.388,475.01L858.701,472.5L859.914,469.961L860.752,468.034L861.275,466.726L861.766,465.407L862.224,464.08L862.646,462.744L863.024,461.404L863.363,460.056L863.661,458.702L863.909,457.346L864.113,455.985L864.263,454.623L864.365,453.259L864.41,451.896L864.401,450.545L864.376,449.888C864.381,449.002 863.545,448.781 862.509,449.395C861.473,450.009 860.629,451.225 860.624,452.112" style="fill-rule:nonzero;"/>
        <path d="M838.572,381.253L838.906,381.745L839.489,382.694L839.994,383.643L840.435,384.607L840.815,385.584L841.136,386.573L841.399,387.571L841.608,388.578L841.764,389.593L841.869,390.614L841.927,391.638L841.938,392.665L841.905,393.694L841.83,394.723L841.715,395.75L841.562,396.776L841.373,397.796L841.149,398.811L840.893,399.82L840.607,400.821L840.292,401.812L839.951,402.792L839.585,403.76L839.196,404.713L838.786,405.651L838.357,406.572L837.912,407.473L837.451,408.354L836.979,409.212L836.495,410.045L836.003,410.852L835.506,411.631L835.279,411.973C833.887,414.086 833.976,416.034 835.479,416.325C836.981,416.616 839.328,415.139 840.721,413.027L841.088,412.468L841.764,411.402L842.424,410.311L843.066,409.196L843.688,408.059L844.289,406.901L844.867,405.723L845.419,404.529L845.943,403.317L846.439,402.091L846.903,400.852L847.334,399.603L847.729,398.344L848.086,397.078L848.404,395.806L848.68,394.53L848.911,393.253L849.097,391.977L849.234,390.702L849.321,389.432L849.356,388.168L849.337,386.913L849.261,385.667L849.128,384.434L848.934,383.215L848.679,382.011L848.36,380.825L847.977,379.659L847.525,378.514L847.005,377.392L846.415,376.294L845.764,375.24L845.428,374.747C844.646,373.598 842.477,374.124 840.584,375.921C838.69,377.718 837.79,380.105 838.572,381.253" style="fill-rule:nonzero;"/>
        <path d="M774.874,484.361L774.873,484.361C776.552,484.361 778.864,482.633 780.039,480.501C781.214,478.368 780.805,476.639 779.127,476.639L779.126,476.639C777.447,476.639 775.134,478.368 773.96,480.501C772.786,482.633 773.195,484.361 774.874,484.361" style="fill-rule:nonzero;"/>
        <path d="M772.874,483.861L772.873,483.861C774.552,483.861 776.864,482.133 778.039,480.001C779.214,477.868 778.805,476.139 777.127,476.139L777.126,476.139C775.447,476.139 773.134,477.868 771.96,480.001C770.786,482.133 771.195,483.861 772.874,483.861" style="fill-rule:nonzero;"/>
        <path d="M778.935,477.798L779.932,477.118L781.946,475.769L783.991,474.394L786.072,473.014L788.191,471.645L790.344,470.302L792.53,469L794.746,467.763L796.991,466.598L799.262,465.524L800.961,464.797L802.094,464.35L803.253,463.927L804.415,463.539L805.583,463.187L806.757,462.87L807.931,462.598L809.11,462.367L810.289,462.186L811.469,462.05L812.648,461.97L813.826,461.942L814.394,461.95C815.684,461.937 817.449,460.605 818.335,458.976C819.222,457.347 818.895,456.037 817.606,456.05L816.905,456.072L815.547,456.148L814.19,456.275L812.838,456.444L811.487,456.661L810.141,456.919L808.798,457.222L807.46,457.562L806.125,457.945L804.795,458.368L803.471,458.826L802.133,459.328L800.151,460.14L797.567,461.318L795.025,462.605L792.532,463.987L790.096,465.442L787.723,466.964L785.423,468.535L783.202,470.142L781.067,471.768L779.037,473.405L778.065,474.202C776.733,475.202 775.848,476.817 776.088,477.81C776.328,478.803 777.602,478.798 778.935,477.798" style="fill-rule:nonzero;"/>
        <path d="M794.493,474.223L794.706,475.248L795.049,477.258L795.296,479.268L795.468,481.29L795.56,483.334L795.59,485.396L795.547,488.526L795.42,492.715L795.353,496.89L795.416,501.066L795.551,504.234L795.702,506.365L795.801,507.442C795.801,507.444 795.801,507.446 795.802,507.448L795.986,509.401L796.292,513.273L796.527,517.137L796.718,520.999L796.937,526.801L797.21,534.507L797.472,542.231L797.705,548.048L797.897,551.943L798.128,555.844L798.419,559.749L798.766,563.669L799.195,567.594L799.441,569.572C799.442,569.583 799.444,569.595 799.445,569.606L799.649,571.024L800.164,573.919L800.789,576.815L801.498,579.689L802.265,582.538L803.063,585.361L803.869,588.155L804.658,590.916L805.036,592.28L805.033,592.269L805.095,592.498L805.22,592.99L805.355,593.548L805.499,594.171L805.653,594.858L805.815,595.605L805.985,596.411L806.163,597.272L806.348,598.187L806.54,599.152L806.739,600.166L806.944,601.227L807.154,602.332L807.37,603.478L807.591,604.665L807.817,605.889L808.164,607.792L808.638,610.441L809.122,613.204L809.615,616.061L810.115,618.995L810.619,621.99L811.377,626.559L812.376,632.702L813.1,637.274L813.569,640.273L814.023,643.212L814.459,646.075L814.875,648.843L815.172,650.847L815.362,652.144L815.545,653.408L815.722,654.637L815.891,655.829L816.053,656.981L816.207,658.091L816.352,659.157L816.489,660.177L816.617,661.148L816.735,662.068L816.844,662.935L816.942,663.747L817.031,664.501L817.108,665.195L817.174,665.825L817.229,666.389L817.272,666.883L817.288,667.096L817.287,667.085L817.315,667.479L817.37,668.296L817.423,669.165L817.475,670.085L817.526,671.055L817.576,672.072L817.627,673.135L817.676,674.242L817.727,675.39L817.778,676.577L817.855,678.43L817.961,681.022L818.071,683.738L818.187,686.566L818.311,689.491L818.443,692.497L818.587,695.571L818.746,698.696L818.922,701.858L819.214,706.639L819.549,711.429L819.8,714.603L820.076,717.739L820.376,720.827L820.702,723.855L821.06,726.803L821.446,729.661L821.756,731.742L821.974,733.096L822.199,734.415L822.435,735.701L822.679,736.954L822.933,738.171L823.195,739.352L823.467,740.493L823.75,741.596L824.042,742.655L824.344,743.672L824.658,744.644L824.985,745.569L825.324,746.445L825.676,747.273L826.042,748.049L826.422,748.773L826.819,749.444L827.033,749.774C827.683,750.784 829.538,750.36 831.177,748.828C832.815,747.296 833.617,745.236 832.967,744.226L832.811,743.981L832.484,743.413L832.163,742.782L831.848,742.09L831.541,741.339L831.241,740.531L830.95,739.67L830.666,738.757L830.39,737.794L830.122,736.783L829.864,735.727L829.613,734.626L829.371,733.482L829.138,732.299L828.913,731.078L828.695,729.821L828.484,728.531L828.28,727.212L827.989,725.175L827.624,722.358L827.288,719.446L826.974,716.456L826.683,713.4L826.416,710.292L826.168,707.153L825.829,702.405L825.53,697.654L825.35,694.511L825.183,691.406L825.024,688.353L824.876,685.365L824.738,682.455L824.608,679.639L824.484,676.929L824.364,674.342L824.277,672.49L824.219,671.301L824.161,670.15L824.103,669.039L824.044,667.97L823.986,666.944L823.926,665.962L823.866,665.028L823.806,664.141L823.744,663.307L823.713,662.915C823.713,662.911 823.712,662.907 823.712,662.904L823.691,662.653L823.64,662.12L823.578,661.528L823.505,660.876L823.42,660.165L823.324,659.398L823.218,658.577L823.101,657.701L822.975,656.775L822.839,655.8L822.693,654.777L822.539,653.709L822.376,652.598L822.206,651.445L822.027,650.254L821.841,649.026L821.647,647.763L821.447,646.467L821.135,644.465L820.698,641.703L820.241,638.849L819.765,635.917L819.274,632.927L818.515,628.367L817.482,622.237L816.7,617.676L816.18,614.685L815.664,611.754L815.156,608.898L814.657,606.137L814.174,603.485L813.823,601.577L813.595,600.349L813.371,599.157L813.152,598.004L812.938,596.893L812.73,595.825L812.528,594.803L812.332,593.827L812.143,592.902L811.961,592.028L811.786,591.206L811.619,590.44L811.459,589.731L811.307,589.079L811.163,588.487L811.028,587.961L810.967,587.731C810.966,587.727 810.965,587.724 810.964,587.72L810.582,586.334L809.797,583.561L809,580.778L808.217,577.988L807.476,575.194L806.8,572.403L806.214,569.618L805.744,566.823L805.555,565.394L805.559,565.428L805.341,563.502L804.983,559.617L804.708,555.727L804.519,551.822L804.388,547.912L804.313,543.995L804.271,538.095L804.28,530.192L804.253,522.272L804.103,516.353L803.936,512.4L803.695,508.45L803.383,504.507L803.198,502.552L803.199,502.558L803.108,501.578L802.965,499.587L802.834,496.557L802.768,492.452L802.678,488.337L802.476,484.241L802.243,481.168L802.046,479.103L801.806,477.029L801.521,474.944L801.167,472.858L800.745,470.787L800.507,469.777C800.229,468.526 798.658,468.508 796.997,469.736C795.337,470.963 794.216,472.972 794.493,474.223" style="fill-rule:nonzero;"/>
        <path d="M837.896,749.679L838.715,749.408L840.261,748.937L841.783,748.523L843.315,748.152L844.858,747.824L846.411,747.536L847.974,747.285L849.547,747.071L851.944,746.81L855.166,746.567L858.421,746.427L861.845,746.141L863.649,745.876C865.119,745.87 867.14,744.354 868.163,742.49C869.185,740.626 868.822,739.119 867.351,739.124L865.765,738.872L862.458,738.71L859.035,738.86L855.625,739.12L853.07,739.401L851.351,739.637L849.627,739.915L847.897,740.239L846.16,740.611L844.414,741.037L842.658,741.519L840.925,742.049L840.104,742.321C838.148,742.968 836.068,745.14 835.459,747.172C834.849,749.203 835.94,750.326 837.896,749.679" style="fill-rule:nonzero;"/>
        <path d="M829.345,758.721L829.519,759.474L829.914,761.019L830.359,762.566L830.845,764.099L831.37,765.619L831.93,767.129L832.824,769.368L834.109,772.329L835.474,775.269L837.608,779.635L839.771,783.979L841.181,786.863L842.536,789.744L843.809,792.626L844.692,794.784L845.24,796.22L845.756,797.664L846.233,799.11L846.67,800.557L847.062,802.006L847.406,803.457L847.7,804.909L847.824,805.619L847.817,805.57L847.828,805.646L847.839,805.754L847.86,806.017L847.889,806.524L847.917,807.167L847.948,807.918L847.982,808.747L848.046,810.081L848.137,811.461L848.218,812.382L848.32,813.265L848.448,814.101L848.609,814.877L848.765,815.435L848.897,815.802L849.046,816.133L849.232,816.451L849.476,816.758L849.818,817.047L850.149,817.225C850.369,817.319 850.626,817.365 850.911,817.361L850.949,817.36L854.72,815.318L856.479,812.761L856.819,811.809L856.979,811.165L857.096,810.573L857.198,809.965L857.293,809.321L857.385,808.635L857.474,807.906L857.561,807.138L857.647,806.335L857.771,805.08L857.931,803.328L858.082,801.534L858.221,799.75L858.347,798.027L858.432,796.804L858.483,796.033L858.529,795.307L858.571,794.633L858.608,794.013L858.639,793.456L858.665,792.967L858.685,792.552L858.699,792.212L858.707,791.948L858.709,791.816L858.709,791.799L858.713,791.109L858.739,789.731L858.789,788.319L858.864,786.865L858.963,785.373L859.085,783.845L859.23,782.285L859.397,780.697L859.585,779.082L859.794,777.448L860.145,774.951L860.68,771.583L861.284,768.196L861.954,764.808L862.682,761.447L863.464,758.141L864.293,754.915L864.938,752.579L865.379,751.065L865.83,749.578L866.288,748.131L866.752,746.728L867.064,745.417L867.131,744.218L867.016,743.101L866.891,742.582C867.352,741.417 866.878,740.659 865.833,740.89C864.789,741.12 863.569,742.252 863.109,743.418L862.476,744.186L861.352,745.723L860.423,747.275L859.752,748.807L859.249,750.333L858.755,751.894L858.273,753.487L857.798,755.121L857.111,757.616L856.241,761.004L855.425,764.464L854.667,767.97L853.971,771.497L853.343,775.024L852.79,778.517L852.426,781.102L852.208,782.812L852.012,784.501L851.837,786.168L851.686,787.808L851.558,789.42L851.453,791.001L851.374,792.546L851.321,794.054L851.294,795.509L851.291,796.201L851.291,796.184L851.291,796.211L851.286,796.407L851.273,796.706L851.255,797.094L851.23,797.562L851.2,798.101L851.164,798.705L851.123,799.367L851.077,800.078L851.027,800.832L850.944,802.032L850.821,803.724L850.684,805.472L850.537,807.221L850.383,808.92L850.263,810.13L850.182,810.887L850.102,811.599L850.022,812.254L849.944,812.845L849.869,813.357L849.802,813.772L849.751,814.056L849.744,814.128L849.919,813.72L851.517,811.522L855.129,809.639L855.089,809.639L855.851,809.775L856.05,809.896L856.142,810.005L856.155,810.045L856.125,810.017L856.077,809.926L856.025,809.802L855.934,809.504L855.813,808.949L855.707,808.274L855.618,807.513L855.545,806.7L855.459,805.405L855.396,804.109L855.362,803.283L855.331,802.509L855.299,801.801L855.262,801.176L855.226,800.759L855.195,800.506L855.183,800.43C855.181,800.413 855.178,800.397 855.176,800.381L855.032,799.57L854.71,797.992L854.338,796.431L853.918,794.885L853.455,793.351L852.951,791.83L852.411,790.32L851.835,788.813L850.919,786.577L849.616,783.63L848.241,780.708L846.822,777.805L844.669,773.481L842.56,769.167L841.226,766.298L839.977,763.421L839.111,761.257L838.577,759.819L838.079,758.378L837.62,756.936L837.204,755.494L836.829,754.034L836.655,753.279C836.305,751.766 834.384,751.758 832.366,753.261C830.348,754.764 828.995,757.209 829.345,758.721" style="fill-rule:nonzero;"/>
        <path d="M793.412,516.25L792.86,516.564L792.185,517.692L791.24,518.898L791.117,519.854L790.32,520.479C789.614,522.429 790.493,523.632 792.284,523.166C794.076,522.699 796.101,520.741 796.808,518.791L796.306,518.604L796.795,517.943L796.537,517.563L796.672,517.166L796.588,516.75C797.364,515.539 797.281,514.445 796.404,514.307C795.527,514.169 794.187,515.039 793.412,516.25" style="fill-rule:nonzero;"/>
        <path d="M751.5,205.5C758.001,202.728 764.71,202.572 771.5,201.5C774.243,201.067 776.842,199.759 779.5,199C780.822,198.622 782.271,198.615 783.5,198C784.245,197.627 784.755,196.873 785.5,196.5C786.239,196.131 790.642,196.217 791,195.5C791.453,194.593 789.014,195 788,195C785.159,195 781.722,195.184 779,196C775.047,197.186 770.58,198.417 766.5,199C765.84,199.094 765.151,198.855 764.5,199C763.624,199.195 762.866,199.764 762,200C760.863,200.31 758.262,200.459 757,201C754.152,202.221 751.498,204.001 748.5,205" style="fill-opacity:0;fill-rule:nonzero;stroke:black;stroke-width:5.5px;"/>
        <path d="M754.5,197C755.731,189.257 771.462,197.057 775.5,191C776.245,189.882 772.842,190.429 771.5,190.5C769.639,190.598 767.842,191.217 766,191.5C760.697,192.316 750.428,193.429 746,194C744.995,194.13 743.978,194.233 743,194.5C742.134,194.736 741.398,195.5 740.5,195.5C739.755,195.5 741.815,194.794 742.5,194.5C747.908,192.182 753.196,190.467 759,189.5C762.639,188.893 765.06,188.72 764.5,189C760.452,191.024 750.136,191.72 746.5,192C742.595,192.3 743.374,191.532 739.5,192.5C739.015,192.621 740.511,192.605 741,192.5C751.324,190.288 741.476,191.504 753.5,189.5C755.724,189.129 770.641,187.679 773,186.5C773.596,186.202 771.664,186.445 771,186.5C769.661,186.612 768.333,186.833 767,187C759.541,187.932 751.85,188.367 744.5,190C743.471,190.229 740.487,191.29 741.5,191C752.753,187.785 763.168,184.816 775,184C776.829,183.874 778.671,184.131 780.5,184C781.026,183.962 782.511,183.628 782,183.5C779.55,182.888 776.232,184.054 774,184.5C759.494,187.401 772.52,184.766 758,187C756.32,187.258 754.656,187.618 753,188C752.486,188.119 750.975,188.548 751.5,188.5C760.821,187.653 769.909,185.053 779,183C780.658,182.626 785.414,181.057 784,182C782.44,183.04 769.792,185.812 769,186C739.094,193.083 777.331,184.011 748.5,191C746.339,191.524 744.143,191.905 742,192.5C741.135,192.74 739.099,192.697 739.5,193.5C739.864,194.228 744.491,193.102 747.5,192.5C753.993,191.201 760.417,189.731 767,189C768.5,188.833 772.337,187.244 771.5,188.5C769.668,191.247 758.637,193.889 756.5,194.5C755.213,194.868 742.66,198.313 740.5,199C739.143,199.432 736.5,199.076 736.5,200.5C736.5,201.728 746.217,201.082 747,201C754.349,200.226 760.514,198.496 767.5,196.5C768.977,196.078 770.531,195.952 772,195.5C772.712,195.281 774.333,195.167 774,194.5C773.369,193.239 763.354,197.458 762,198" style="fill-opacity:0;fill-rule:nonzero;stroke:black;stroke-width:5.5px;"/>
        <path d="M734,181.5C731.313,178.559 731.23,175.15 730.5,171.5C730.333,170.667 730.167,169.833 730,169C729.667,168.167 729.195,167.376 729,166.5C728.597,164.686 729.108,164.569 729.5,163C730.302,159.793 731.371,158.064 734.5,156.5C740.044,153.728 753.029,153.078 759.5,152C762.23,151.545 774.741,148.861 776.5,151.5C777.624,153.187 777.561,156.122 778.5,158C778.935,158.869 779.605,159.612 780,160.5C780.763,162.216 780.168,163.836 781,165.5C781.629,166.758 782.812,167.997 783,169.5C783.305,171.943 782.595,174.572 783,177C783.658,180.949 783.5,176.1 783.5,180" style="fill-opacity:0;fill-rule:nonzero;stroke:black;stroke-width:5.5px;"/>
        <path d="M755.734,429.719L755.517,429.975L755.006,430.791L754.556,431.695L754.197,432.595L753.911,433.496L753.681,434.407L753.498,435.333L753.352,436.278L753.194,437.269L753.053,438.291L752.95,439.33L752.891,440.378L752.875,441.432L752.899,442.49L753.009,444.058L753.211,445.62L753.391,446.658L753.601,447.671L753.855,448.657L754.138,449.622L754.451,450.562L754.803,451.464L755.183,452.334L755.589,453.168L756.032,453.954L756.501,454.696L756.997,455.391L757.524,456.031L758.082,456.613L758.669,457.134L759.287,457.592L759.631,457.81C759.683,457.843 759.739,457.872 759.798,457.896L759.865,457.923L760.426,458.032L761.04,458.011L761.613,457.917L762.188,457.78L762.786,457.611L763.415,457.413L764.08,457.187L764.78,456.936L765.513,456.663L766.278,456.365L767.07,456.049L768.293,455.548L769.978,454.838L771.692,454.097L773.387,453.356L775.023,452.637L776.188,452.121L776.924,451.8L777.621,451.494L778.274,451.206L778.878,450.947L779.429,450.709L779.924,450.494L780.357,450.305L780.726,450.146L781.032,450.01L781.18,449.941C782.638,449.222 783.963,447.546 784.139,446.198C784.315,444.849 783.277,444.339 781.82,445.059L781.753,445.096L781.51,445.224L781.18,445.392L780.776,445.59L780.303,445.815L779.77,446.067L779.182,446.342L778.548,446.625L777.87,446.925L777.158,447.238L776.032,447.714L774.45,448.368L772.82,449.022L771.187,449.656L769.589,450.258L768.442,450.676L767.719,450.932L767.032,451.169L766.389,451.385L765.798,451.576L765.268,451.738L764.81,451.867L764.437,451.963L764.17,452.021L764.04,452.047L764.1,452.067L764.268,452.132L764.202,452.104L764.369,452.19L764.158,452.054L763.693,451.7L763.234,451.278L762.785,450.791L762.344,450.249L761.916,449.653L761.504,449.006L761.11,448.313L760.725,447.586L760.361,446.821L760.018,446.022L759.687,445.204L759.377,444.364L759.091,443.502L758.816,442.637L758.566,441.773L758.232,440.454L757.938,439.136L757.77,438.28L757.625,437.437L757.501,436.616L757.399,435.821L757.325,435.051L757.303,434.3L757.364,433.565L757.458,432.877L757.578,432.252L757.715,431.701L757.856,431.241L757.982,430.887L758.125,430.555L758.266,430.281C758.936,429.284 758.914,428.351 758.214,428.196C757.515,428.041 756.405,428.723 755.734,429.719" style="fill-rule:nonzero;"/>
        <path d="M782.25,473.135L781.882,473.358L781.083,473.875L779.896,474.724L778.347,475.958L776.832,477.332L775.38,478.792L774.006,480.332L772.702,481.926L771.479,483.566L770.323,485.235L769.241,486.93L768.218,488.637L767.255,490.353L766.345,492.07L765.481,493.783L764.275,496.313L763.501,498.01C763.493,498.029 763.485,498.048 763.477,498.067L763.119,498.88L762.397,500.607L761.708,502.365L761.069,504.122L760.187,506.734L759.134,510.222L758.187,513.717L757.326,517.196L756.145,522.366L755.013,527.493L754.251,530.86L753.449,534.188L752.589,537.467L751.652,540.688L750.893,543.041L750.357,544.574L749.784,546.108L749.18,547.622L748.544,549.113L747.871,550.582L747.54,551.269L747.566,551.217L746.894,552.576L745.519,555.309L744.087,558.09L742.602,560.924L741.066,563.799L739.486,566.704L737.868,569.626L736.223,572.555L733.706,576.944L731.163,581.275L729.468,584.107L727.77,586.897L726.083,589.625L724.412,592.28L722.764,594.849L721.958,596.087L721.995,596.031L721.177,597.26L719.541,599.594L717.824,601.917L716.016,604.277L713.163,607.892L710.234,611.574L708.259,614.089L706.299,616.647L704.372,619.251L702.503,621.908L700.717,624.618L699.434,626.71L698.613,628.134L697.84,629.55L697.105,630.979L696.411,632.423L695.763,633.881L695.165,635.35L694.619,636.832L694.357,637.605C693.921,638.874 694.527,639.633 695.71,639.299C696.893,638.965 698.206,637.665 698.643,636.395L698.856,635.785L699.335,634.521L699.859,633.268L700.425,632.025L701.032,630.791L701.679,629.564L702.364,628.343L703.072,627.148L704.204,625.346L705.841,622.923L707.586,620.503L709.424,618.083L711.338,615.66L713.306,613.229L716.33,609.544L719.353,605.829L721.351,603.309L723.303,600.751L725.158,598.193L726.005,596.969C726.017,596.95 726.03,596.931 726.042,596.913L726.92,595.613L728.682,592.968L730.467,590.241L732.269,587.443L734.08,584.584L735.9,581.667L738.613,577.231L741.29,572.752L743.051,569.747L744.78,566.744L746.473,563.755L748.123,560.789L749.724,557.855L751.265,554.967L752.735,552.148L753.434,550.783C753.443,550.766 753.452,550.748 753.46,550.731L753.915,549.818L754.744,548.067L755.519,546.316L756.242,544.566L756.917,542.816L757.557,541.048L758.436,538.417L759.482,534.942L760.417,531.478L761.269,528.028L762.065,524.593L763.192,519.5L764.316,514.464L765.093,511.166L765.92,507.92L766.823,504.714L767.556,502.344L768.074,500.801L768.614,499.278L769.197,497.743L769.523,496.933L769.499,496.99L770.125,495.464L771.112,493.152L771.781,491.648L772.47,490.17L773.178,488.723L773.904,487.314L774.657,485.946L775.429,484.621L776.233,483.345L777.062,482.112L777.934,480.925L778.848,479.772L779.825,478.655L780.901,477.533L781.775,476.71L782.394,476.161L782.75,475.865C783.731,475.162 784.414,473.981 784.275,473.227C784.137,472.474 783.23,472.432 782.25,473.135" style="fill-rule:nonzero;"/>
        <path d="M789.492,521.136L789.394,521.308L789.256,521.492L789.182,521.542L789.167,521.503L789.21,521.407L789.28,521.306L789.328,521.239L789.319,521.207L789.158,521.201L788.818,521.17L788.368,521.098L787.82,520.978L787.524,520.904L787.521,520.904L786.97,520.778L785.879,520.571L784.825,520.422L783.812,520.333L782.836,520.307L781.898,520.336L780.992,520.422L780.114,520.565L779.258,520.769L778.417,521.04L777.583,521.385L776.755,521.811L775.93,522.326L775.115,522.938L774.328,523.641L773.591,524.421L772.93,525.251L772.356,526.104L771.875,526.961L771.478,527.808L771.157,528.642L770.901,529.466L770.702,530.279L770.552,531.088L770.448,531.893L770.385,532.697L770.36,533.499L770.372,534.302L770.452,535.492L770.665,537.089L770.997,538.693L771.436,540.28L771.975,541.839L772.607,543.359L773.325,544.828L774.122,546.233L774.773,547.244L775.231,547.893L775.703,548.509L776.194,549.098L776.702,549.658L777.23,550.184L777.772,550.68L778.328,551.143L778.906,551.563L779.497,551.948L780.101,552.295L780.72,552.602L781.362,552.856L782.017,553.067L782.69,553.23L783.383,553.339L784.103,553.385L784.847,553.371L785.621,553.289L786.431,553.123L786.917,552.99C786.987,552.971 787.059,552.95 787.131,552.926L787.258,552.877L787.997,552.543L789.018,551.884L790.014,550.987L790.8,550.039L791.333,549.195L791.775,548.253L792.128,547.179L792.356,546.207L792.519,545.315L792.667,544.46L792.829,543.638L793.022,542.861L793.26,542.149L793.549,541.533L793.759,541.209L793.874,541.069L794.035,540.905L794.202,540.765L794.389,540.646L794.602,540.535L794.857,540.434L795.161,540.343L795.27,540.337C796.695,539.595 797.952,537.948 798.079,536.657C798.206,535.366 797.154,534.921 795.73,535.663L795.223,535.978L794.369,536.566L793.56,537.19L792.799,537.847L792.096,538.534L791.453,539.233L790.879,539.937L790.327,540.692L789.66,541.747L788.976,543.018L788.432,544.219L787.994,545.344L787.637,546.383L787.338,547.311L787.087,548.09L786.895,548.646L786.783,548.921L786.822,548.853L787.051,548.518L787.5,548.016L788.122,547.497L788.724,547.144L788.995,547.038L788.869,547.074L789.083,547.01L789,547.026L788.668,547.074L788.295,547.098L787.893,547.085L787.467,547.033L787.016,546.947L786.549,546.822L786.072,546.653L785.588,546.443L785.092,546.202L784.593,545.923L784.094,545.605L783.598,545.251L783.097,544.871L782.602,544.459L782.114,544.016L781.629,543.55L781.152,543.057L780.683,542.542L780.229,542.012L779.57,541.174L778.738,539.982L777.975,538.73L777.291,537.434L776.693,536.108L776.189,534.772L775.786,533.443L775.489,532.125L775.341,531.157L775.28,530.542L775.246,529.948L775.24,529.379L775.262,528.838L775.308,528.333L775.377,527.867L775.462,527.45L775.558,527.086L775.657,526.78L775.75,526.531L775.832,526.333L775.909,526.168L775.997,526.012L776.121,525.843L776.306,525.648L776.571,525.429L776.926,525.193L777.37,524.955L777.903,524.724L778.52,524.51L779.215,524.324L779.984,524.172L780.824,524.059L781.733,523.988L782.711,523.959L783.759,523.975L784.881,524.042L785.479,524.096L785.476,524.095L785.853,524.13L786.586,524.171L787.326,524.156L788.084,524.038L788.686,523.848L789.156,523.629L789.658,523.315L790.158,522.904L790.608,522.43L790.974,521.939L791.257,521.46L791.45,521.031L791.508,520.864C791.809,520.209 791.602,519.74 791.046,519.815C790.489,519.89 789.793,520.482 789.492,521.136" style="fill-rule:nonzero;"/>
        <path d="M779.166,546.96L782.166,547.96C782.335,548.017 782.622,547.856 782.806,547.602C782.99,547.348 783.003,547.096 782.834,547.04L779.834,546.04C779.665,545.983 779.378,546.144 779.194,546.398C779.01,546.652 778.997,546.904 779.166,546.96" style="fill-rule:nonzero;"/>
        <path d="M782.134,549.105L782.307,549.121L782.636,549.144L782.949,549.148L783.259,549.124L783.581,549.057L783.929,548.928L784.309,548.714L784.701,548.408L784.921,548.198C785.214,547.909 785.341,547.538 785.207,547.369C785.073,547.2 784.727,547.297 784.435,547.586L784.403,547.625L784.303,547.724L784.196,547.802L784.051,547.868L783.86,547.914L783.626,547.936L783.353,547.933L783.039,547.911L782.866,547.895C782.616,547.872 782.249,548.124 782.047,548.458C781.845,548.792 781.884,549.082 782.134,549.105" style="fill-rule:nonzero;"/>
    </g>
</svg>
