<?xml version="1.0" encoding="UTF-8"?>
<!DOCTYPE svg PUBLIC "-//W3C//DTD SVG 1.1//EN" "http://www.w3.org/Graphics/SVG/1.1/DTD/svg11.dtd">
<svg version="1.1" xmlns="http://www.w3.org/2000/svg" xmlns:xlink="http://www.w3.org/1999/xlink" x="0" y="0" width="1000" height="1000" viewBox="0, 0, 1000, 1000">
  <g id="Background">
    <rect x="0" y="0" width="1000" height="1000" fill="#FFFFFF"/>
  </g>
  <g id="Layer_1">
    <path d="M111.868,799.752 L113.075,799.305 L115.489,798.357 L117.895,797.288 L120.281,796.092 L122.638,794.842 L124.967,793.53 L127.268,792.151 L129.54,790.724 L131.784,789.252 L134.002,787.736 L136.191,786.166 L138.353,784.557 L140.491,782.91 L142.604,781.229 L144.694,779.514 L146.76,777.766 L148.801,775.986 L150.823,774.178 L152.824,772.347 L154.806,770.492 L157.737,767.682 L161.592,763.864 L165.4,759.979 L169.161,756.053 L174.732,750.125 L182.096,742.192 L187.609,736.297 L191.285,732.428 L194.986,728.61 L198.717,724.864 L202.486,721.204 L205.331,718.534 L207.237,716.793 L209.171,715.065 L211.12,713.369 L213.087,711.702 L215.073,710.068 L217.079,708.468 L219.107,706.902 L221.157,705.373 L223.232,703.881 L225.333,702.427 L227.461,701.012 L229.619,699.637 L231.809,698.304 L234.032,697.013 L236.289,695.768 L238.583,694.568 L240.916,693.415 L242.072,692.869 L242.029,692.889 L242.837,692.517 L244.408,691.819 L245.973,691.158 L247.552,690.521 L249.959,689.61 L253.206,688.484 L256.483,687.461 L259.805,686.53 L263.167,685.688 L266.568,684.931 L270.003,684.254 L273.469,683.654 L276.964,683.127 L280.486,682.666 L284.03,682.266 L287.595,681.925 L291.178,681.637 L294.775,681.398 L298.385,681.203 L302.004,681.047 L307.451,680.876 L314.721,680.737 L321.982,680.664 L329.219,680.621 L336.413,680.566 L341.773,680.493 L345.328,680.418 L348.859,680.317 L352.369,680.186 L354.121,680.107 L354.121,680.107 C354.127,680.107 354.132,680.107 354.138,680.107 L354.138,680.107 L355.31,680.046 L357.689,679.897 L360.086,679.713 L362.49,679.494 L366.098,679.105 L370.928,678.474 L375.779,677.721 L380.636,676.854 L385.489,675.879 L390.332,674.803 L395.159,673.632 L399.962,672.372 L404.733,671.033 L409.465,669.62 L414.151,668.14 L418.783,666.599 L423.355,665.006 L427.859,663.366 L430.099,662.524 L430.099,662.524 C430.112,662.519 430.126,662.513 430.14,662.508 L430.14,662.508 L432.011,661.785 L435.786,660.251 L439.529,658.628 L443.213,656.928 L446.84,655.153 L450.411,653.304 L453.927,651.383 L457.389,649.392 L460.797,647.33 L464.152,645.201 L467.455,643.007 L470.707,640.75 L473.907,638.433 L477.058,636.056 L480.16,633.622 L483.212,631.135 L486.217,628.595 L489.175,626.004 L492.087,623.365 L494.954,620.681 L497.778,617.952 L500.559,615.18 L503.297,612.37 L505.995,609.523 L508.654,606.638 L511.274,603.721 L513.857,600.77 L516.404,597.789 L518.917,594.78 L521.397,591.745 L523.846,588.684 L526.266,585.6 L528.657,582.495 L531.021,579.371 L533.361,576.228 L535.676,573.068 L539.099,568.313 L543.597,561.923 L548.034,555.483 L552.412,549.019 L558.886,539.312 L567.423,526.386 L573.795,516.769 L578.04,510.43 L582.301,504.152 L586.586,497.955 L590.905,491.849 L594.162,487.351 L596.345,484.393 L597.435,482.934 L597.394,482.988 L598.652,481.331 L601.136,478.179 L603.662,475.126 L606.26,472.133 L608.928,469.203 L611.667,466.338 L614.473,463.542 L617.346,460.816 L620.287,458.163 L622.513,456.241 L624.01,454.988 L625.544,453.738 L627.095,452.507 L628.661,451.297 L630.243,450.107 L631.84,448.938 L633.453,447.79 L635.082,446.664 L636.725,445.56 L638.384,444.479 L640.058,443.419 L641.747,442.383 L643.451,441.371 L645.17,440.382 L646.902,439.418 L648.649,438.478 L650.411,437.564 L652.187,436.674 L653.977,435.811 L655.781,434.974 L657.598,434.164 L659.429,433.38 L661.274,432.625 L663.131,431.897 L665.001,431.198 L666.886,430.527 L668.781,429.886 L670.69,429.275 L672.611,428.694 L674.544,428.143 L676.489,427.624 L678.446,427.136 L680.413,426.68 L682.393,426.256 L684.383,425.866 L686.385,425.508 L688.396,425.185 L690.419,424.895 L692.451,424.641 L694.493,424.421 L696.546,424.237 L698.607,424.089 L700.678,423.977 L702.759,423.903 L704.847,423.865 L705.884,423.861 L705.874,423.861 L706.742,423.861 L708.564,423.867 L710.477,423.891 L712.46,423.943 L714.494,424.035 L716.556,424.178 L718.628,424.384 L720.686,424.662 L722.71,425.025 L724.181,425.355 L725.136,425.606 L726.08,425.885 L727.001,426.191 L727.897,426.527 L728.764,426.892 L729.6,427.289 L730.402,427.717 L731.169,428.178 L731.897,428.673 L732.584,429.203 L733.228,429.768 L733.827,430.369 L734.379,431.008 L734.622,431.322 L734.622,431.322 C735.468,432.409 737.666,431.802 739.532,429.967 C741.398,428.132 742.224,425.764 741.378,424.678 L741.045,424.253 L740.369,423.482 L739.644,422.763 L738.874,422.095 L738.061,421.475 L737.209,420.901 L736.321,420.371 L735.4,419.883 L734.448,419.435 L733.47,419.025 L732.466,418.652 L731.441,418.312 L730.396,418.005 L729.325,417.727 L727.7,417.365 L725.517,416.978 L723.317,416.683 L721.123,416.467 L718.955,416.317 L716.836,416.222 L714.788,416.169 L712.834,416.145 L710.997,416.139 L710.126,416.139 L710.126,416.139 C710.123,416.139 710.119,416.139 710.116,416.139 L710.116,416.139 L709.013,416.144 L706.834,416.184 L704.662,416.263 L702.496,416.38 L700.336,416.536 L698.185,416.73 L696.039,416.962 L693.902,417.231 L691.772,417.536 L689.65,417.879 L687.536,418.257 L685.429,418.671 L683.332,419.121 L681.242,419.607 L679.162,420.126 L677.09,420.681 L675.029,421.269 L672.976,421.892 L670.933,422.547 L668.899,423.236 L666.876,423.957 L664.863,424.711 L662.86,425.497 L660.869,426.315 L658.888,427.163 L656.918,428.043 L654.96,428.953 L653.014,429.893 L651.08,430.863 L649.158,431.862 L647.249,432.891 L645.352,433.948 L643.469,435.033 L641.599,436.146 L639.743,437.286 L637.901,438.453 L636.072,439.647 L634.259,440.867 L632.46,442.112 L630.677,443.383 L628.909,444.679 L627.157,445.998 L625.421,447.342 L623.701,448.709 L621.998,450.099 L620.292,451.529 L617.774,453.709 L614.51,456.663 L611.318,459.699 L608.201,462.812 L605.164,465.997 L602.206,469.252 L599.331,472.572 L596.54,475.954 L593.866,479.352 L592.606,481.012 L592.606,481.012 C592.592,481.03 592.579,481.048 592.566,481.066 L592.566,481.066 L591.415,482.607 L589.141,485.689 L585.773,490.342 L581.351,496.596 L576.985,502.912 L572.665,509.276 L568.376,515.682 L561.991,525.319 L553.495,538.183 L547.085,547.793 L542.784,554.146 L538.444,560.447 L534.049,566.691 L530.712,571.328 L528.473,574.384 L526.218,577.416 L523.944,580.422 L521.651,583.4 L519.337,586.35 L517.002,589.269 L514.644,592.156 L512.263,595.01 L509.856,597.829 L507.424,600.61 L504.964,603.356 L502.477,606.062 L499.959,608.728 L497.41,611.352 L494.829,613.932 L492.214,616.469 L489.562,618.96 L486.873,621.405 L484.146,623.802 L481.378,626.151 L478.566,628.451 L475.713,630.698 L472.812,632.895 L469.864,635.038 L466.867,637.127 L463.818,639.16 L460.716,641.137 L457.558,643.056 L454.344,644.918 L451.07,646.719 L447.736,648.457 L444.34,650.131 L440.879,651.74 L437.353,653.281 L433.734,654.763 L431.86,655.492 L431.901,655.476 L429.749,656.291 L425.358,657.904 L420.901,659.473 L416.385,660.989 L411.816,662.448 L407.204,663.841 L402.554,665.163 L397.874,666.406 L393.171,667.566 L388.453,668.635 L383.726,669.605 L378.999,670.471 L374.278,671.225 L369.561,671.862 L366.035,672.258 L363.698,672.482 L361.369,672.671 L359.038,672.828 L357.862,672.893 L357.879,672.893 L356.16,672.978 L352.684,673.123 L349.177,673.238 L345.646,673.329 L340.297,673.432 L333.087,673.527 L325.811,673.612 L318.486,673.726 L311.135,673.911 L305.615,674.121 L301.932,674.304 L298.251,674.527 L294.574,674.796 L290.904,675.115 L287.242,675.49 L283.59,675.926 L279.95,676.429 L276.323,677.005 L272.712,677.658 L269.119,678.394 L265.545,679.219 L261.99,680.138 L258.458,681.156 L254.949,682.282 L251.481,683.514 L248.903,684.515 L247.183,685.224 L245.47,685.965 L243.784,686.729 L242.971,687.111 L242.971,687.111 C242.957,687.117 242.942,687.124 242.928,687.131 L242.928,687.131 L241.617,687.764 L239.077,689.045 L236.574,690.379 L234.11,691.764 L231.684,693.197 L229.295,694.677 L226.941,696.202 L224.623,697.77 L222.339,699.379 L220.089,701.025 L217.871,702.709 L215.686,704.425 L213.531,706.173 L211.405,707.951 L209.308,709.756 L207.238,711.587 L205.195,713.441 L203.163,715.33 L200.169,718.192 L196.269,722.051 L192.443,725.962 L188.68,729.914 L184.965,733.901 L179.483,739.89 L172.25,747.853 L166.834,753.767 L163.214,757.648 L159.571,761.468 L155.887,765.227 L153.093,767.999 L151.22,769.813 L149.332,771.602 L147.429,773.364 L145.507,775.1 L143.568,776.811 L141.609,778.495 L139.627,780.149 L137.621,781.77 L135.589,783.358 L133.529,784.912 L131.441,786.442 L129.322,787.935 L127.169,789.39 L124.98,790.806 L122.753,792.198 L120.485,793.559 L118.176,794.876 L115.811,796.22 L113.378,797.581 L112.132,798.248 C111.696,798.446 111.284,798.944 111.211,799.359 C111.138,799.774 111.432,799.95 111.868,799.752 L111.868,799.752" fill="#000000"/>
    <path d="M110.265,799.431 L110.033,799.595 L109.441,800.063 L108.826,800.617 L108.241,801.214 L107.693,801.847 L107.183,802.507 L106.709,803.188 L106.27,803.886 L105.863,804.599 L105.487,805.325 L105.141,806.063 L104.822,806.811 L104.402,807.933 L103.926,809.466 L103.558,811.033 L103.294,812.604 L103.138,814.166 L103.091,815.703 L103.13,816.842 L103.193,817.589 L103.285,818.31 L103.408,819.014 L103.561,819.7 L103.746,820.363 L103.964,821.004 L104.214,821.618 L104.358,821.925 L104.358,821.925 C104.36,821.931 104.363,821.937 104.367,821.943 L104.367,821.943 L104.716,822.636 L105.466,823.999 L106.27,825.308 L107.123,826.558 L108.023,827.748 L108.968,828.879 L109.957,829.953 L110.987,830.968 L112.058,831.927 L113.166,832.829 L114.312,833.675 L115.494,834.464 L116.709,835.199 L117.956,835.88 L119.231,836.508 L120.535,837.083 L121.865,837.606 L123.219,838.078 L124.596,838.5 L125.994,838.871 L127.412,839.192 L128.847,839.465 L130.299,839.69 L131.764,839.866 L133.243,839.996 L134.732,840.079 L136.232,840.116 L137.739,840.108 L139.252,840.055 L140.771,839.957 L142.293,839.814 L143.816,839.628 L144.589,839.517 L144.589,839.517 C144.601,839.515 144.614,839.513 144.626,839.511 L144.626,839.511 L145.124,839.428 L146.187,839.203 L147.262,838.915 L148.32,838.576 L149.36,838.195 L150.38,837.78 L151.855,837.124 L153.769,836.207 L155.622,835.301 L157.407,834.468 L158.696,833.928 L159.53,833.618 L159.932,833.482 L159.881,833.499 L160.513,833.298 L161.713,832.963 L162.914,832.678 L164.139,832.427 L166.025,832.095 L168.58,831.699 L171.176,831.286 L173.159,830.915 L174.506,830.616 L175.853,830.268 L177.213,829.854 L178.586,829.362 L179.975,828.777 L180.72,828.425 L180.72,828.425 C180.739,828.416 180.757,828.406 180.776,828.397 L180.776,828.397 L182.286,827.641 L185.331,826.081 L189.894,823.681 L195.969,820.432 L202.044,817.207 L206.6,814.86 L209.639,813.352 L212.694,811.891 L215.762,810.494 L218.846,809.168 L221.948,807.924 L225.071,806.771 L228.22,805.719 L229.784,805.241 L229.746,805.252 L230.699,804.976 L232.586,804.473 L234.494,804.02 L236.435,803.612 L238.404,803.253 L240.396,802.942 L242.406,802.681 L244.428,802.472 L246.459,802.315 L248.494,802.212 L250.527,802.164 L252.553,802.173 L254.569,802.238 L256.569,802.361 L258.548,802.544 L260.503,802.787 L261.459,802.929 L261.455,802.929 L263.613,803.26 L267.977,803.887 L272.371,804.487 L276.774,805.089 L281.17,805.721 L285.544,806.407 L288.8,806.974 L290.954,807.383 L293.097,807.822 L295.225,808.293 L296.278,808.541 L296.268,808.539 L297.216,808.771 L299.091,809.263 L300.953,809.791 L302.809,810.355 L305.588,811.262 L309.273,812.572 L312.939,813.98 L316.594,815.468 L322.07,817.802 L329.371,821.002 L334.868,823.386 L338.556,824.931 L342.266,826.414 L346.003,827.817 L348.831,828.806 L350.73,829.431 L352.633,830.025 L354.547,830.585 L355.515,830.854 L355.515,830.854 C355.518,830.854 355.522,830.855 355.525,830.856 L355.525,830.856 L356.939,831.236 L359.791,831.975 L362.662,832.685 L365.545,833.366 L369.886,834.339 L375.7,835.562 L381.548,836.685 L387.408,837.729 L393.279,838.689 L399.139,839.591 L402.061,840.025 L402.052,840.024 L403.096,840.185 L405.149,840.54 L407.189,840.939 L409.224,841.377 L412.28,842.091 L416.345,843.119 L420.405,844.195 L424.473,845.269 L428.56,846.289 L431.646,846.991 L433.716,847.417 L434.76,847.616 L434.76,847.616 C434.765,847.617 434.77,847.618 434.776,847.62 L434.776,847.62 L435.12,847.68 L435.89,847.801 L436.738,847.915 L437.653,848.021 L438.632,848.118 L439.675,848.208 L440.781,848.291 L441.944,848.368 L443.165,848.438 L444.443,848.502 L445.772,848.559 L447.154,848.61 L448.584,848.655 L450.061,848.694 L451.582,848.726 L453.145,848.753 L454.748,848.774 L456.388,848.789 L458.91,848.805 L462.379,848.813 L465.956,848.801 L469.622,848.768 L473.352,848.727 L477.131,848.67 L480.937,848.603 L486.661,848.477 L492.339,848.337 L496.075,848.228 L499.741,848.114 L503.324,847.99 L506.808,847.851 L509.345,847.738 L510.996,847.659 L512.612,847.576 L514.189,847.491 L515.726,847.402 L517.221,847.31 L518.671,847.215 L520.075,847.117 L521.429,847.016 L522.733,846.912 L523.983,846.805 L525.177,846.695 L526.314,846.582 L527.391,846.466 L528.407,846.347 L529.36,846.225 L530.248,846.1 L531.07,845.972 L531.467,845.904 L531.467,845.904 C531.475,845.903 531.483,845.901 531.491,845.9 L531.491,845.9 L532.925,845.639 L535.829,845.059 L538.743,844.411 L541.651,843.702 L544.551,842.937 L547.444,842.119 L550.327,841.254 L553.198,840.346 L556.055,839.4 L558.898,838.422 L561.725,837.415 L564.535,836.383 L568.707,834.802 L574.2,832.648 L576.922,831.558 L576.911,831.563 L578.201,831.052 L580.772,830.075 L584.717,828.651 L590.1,826.766 L594.197,825.309 L596.951,824.29 L599.699,823.224 L602.44,822.096 L605.165,820.894 L607.869,819.601 L609.899,818.551 L611.255,817.806 L612.583,817.039 L613.902,816.235 L615.211,815.394 L616.509,814.511 L617.796,813.585 L619.07,812.613 L619.742,812.078 L619.742,812.078 C619.767,812.057 619.792,812.037 619.816,812.016 L619.816,812.016 L620.33,811.595 L621.437,810.652 L622.552,809.658 L623.64,808.641 L624.702,807.602 L625.737,806.543 L626.746,805.465 L627.727,804.368 L629.125,802.725 L630.912,800.47 L632.622,798.131 L634.235,795.747 L635.76,793.324 L637.198,790.867 L638.559,788.38 L639.799,785.871 L640.619,783.387 L641.584,780.878 L642.662,778.327 L643.693,775.758 L644.675,773.177 L645.613,770.586 L646.95,766.699 L648.62,761.506 L650.203,756.323 L651.726,751.193 L653.227,746.146 L654.358,742.437 L655.116,740.016 L655.89,737.626 L656.68,735.28 L657.077,734.14 L657.075,734.146 L658.221,730.873 L660.492,724.279 L662.767,717.679 L665.069,711.111 L666.837,706.23 L668.039,703.008 L669.271,699.8 L670.537,696.618 L671.835,693.469 L673.172,690.353 L674.553,687.275 L675.983,684.24 L676.701,682.764 L676.683,682.8 L677.337,681.481 L678.655,678.86 L680.683,674.895 L683.441,669.541 L686.22,664.114 L688.953,658.615 L690.95,654.44 L692.236,651.632 L693.474,648.824 L694.656,646.007 L695.773,643.183 L696.815,640.355 L697.302,638.923 L697.302,638.923 C697.309,638.904 697.316,638.885 697.323,638.865 L697.323,638.865 L697.41,638.592 L697.56,638.123 L697.682,637.744 L697.779,637.439 L697.859,637.19 L697.926,636.98 L698.012,636.703 L698.098,636.424 L698.161,636.214 L698.234,635.972 L698.321,635.679 L698.429,635.316 L698.563,634.866 L698.665,634.468 L698.736,634.168 L698.815,633.838 L698.901,633.475 L698.948,633.282 L698.948,633.282 C699.347,632.079 698.754,631.374 697.624,631.708 C696.493,632.042 695.252,633.288 694.853,634.491 L694.766,634.698 L694.604,635.085 L694.457,635.437 L694.323,635.757 L694.154,636.179 L693.987,636.641 L693.853,637.012 L693.746,637.309 L693.661,637.544 L693.592,637.733 L693.502,637.975 L693.407,638.228 L693.33,638.429 L693.236,638.677 L693.117,638.987 L692.969,639.374 L692.784,639.854 L692.677,640.135 L692.698,640.077 L692.161,641.411 L691.047,644.111 L689.877,646.81 L688.656,649.508 L687.389,652.206 L686.081,654.893 L684.052,658.937 L681.24,664.346 L678.373,669.755 L675.498,675.156 L673.376,679.195 L671.991,681.877 L671.317,683.2 L671.317,683.2 C671.311,683.212 671.305,683.224 671.299,683.236 L671.299,683.236 L670.486,684.863 L668.939,688.084 L667.452,691.328 L666.019,694.593 L664.639,697.875 L663.308,701.17 L662.016,704.477 L660.756,707.8 L658.934,712.782 L656.589,719.414 L654.312,726.019 L652.056,732.582 L650.925,735.854 L650.925,735.854 C650.924,735.856 650.923,735.858 650.923,735.86 L650.923,735.86 L650.501,737.089 L649.69,739.533 L648.904,742 L648.137,744.492 L647.026,748.248 L645.577,753.288 L644.138,758.346 L642.68,763.392 L641.163,768.411 L639.975,772.135 L639.15,774.583 L638.296,777.003 L637.409,779.39 L636.48,781.743 L635.34,784.079 L633.948,786.373 L632.861,788.567 L631.772,790.701 L630.63,792.777 L629.435,794.791 L628.181,796.74 L626.868,798.623 L625.468,800.472 L624.363,801.824 L623.62,802.683 L622.859,803.527 L622.077,804.356 L621.275,805.169 L620.451,805.968 L619.602,806.752 L618.697,807.55 L618.184,807.984 L618.258,807.922 L617.827,808.281 L616.858,809.048 L615.855,809.795 L614.818,810.525 L613.748,811.236 L612.648,811.93 L611.518,812.607 L610.382,813.255 L608.612,814.207 L606.149,815.433 L603.611,816.599 L601.01,817.711 L598.36,818.78 L595.678,819.813 L591.595,821.327 L586.125,823.326 L582.057,824.854 L579.384,825.906 L578.089,826.437 L578.089,826.437 C578.085,826.438 578.082,826.44 578.078,826.441 L578.078,826.441 L575.394,827.552 L569.955,829.758 L565.832,831.377 L563.071,832.428 L560.297,833.454 L557.512,834.45 L554.717,835.41 L551.914,836.332 L549.103,837.21 L546.286,838.042 L543.462,838.823 L540.633,839.549 L537.801,840.215 L534.953,840.82 L533.509,841.1 L533.533,841.096 L533.189,841.159 L532.421,841.289 L531.577,841.419 L530.659,841.548 L529.671,841.675 L528.616,841.802 L527.498,841.926 L526.318,842.049 L525.08,842.171 L523.786,842.29 L522.438,842.407 L521.04,842.522 L519.593,842.635 L518.1,842.745 L516.564,842.853 L514.986,842.958 L513.371,843.06 L511.72,843.16 L509.18,843.304 L505.689,843.485 L502.097,843.653 L498.423,843.804 L494.694,843.931 L489.024,844.088 L483.33,844.188 L479.55,844.229 L475.806,844.245 L472.115,844.243 L468.5,844.211 L464.973,844.161 L461.554,844.093 L459.073,844.026 L457.466,843.973 L455.896,843.914 L454.367,843.851 L452.879,843.784 L451.437,843.711 L450.043,843.633 L448.698,843.551 L447.405,843.464 L446.168,843.371 L444.988,843.274 L443.868,843.171 L442.812,843.063 L441.821,842.949 L440.898,842.831 L440.047,842.709 L439.271,842.583 L438.563,842.451 L438.224,842.38 L438.241,842.384 L437.251,842.165 L435.266,841.695 L432.285,840.923 L428.304,839.803 L424.309,838.626 L420.294,837.441 L416.252,836.297 L413.195,835.5 L411.135,835.011 L409.061,834.561 L406.98,834.157 L405.948,833.976 L405.948,833.976 C405.945,833.975 405.942,833.975 405.94,833.975 L405.94,833.975 L403.057,833.49 L397.258,832.521 L391.428,831.539 L385.573,830.541 L379.72,829.493 L373.877,828.384 L369.521,827.486 L366.636,826.854 L363.764,826.194 L360.905,825.503 L359.475,825.144 L359.485,825.146 L358.542,824.902 L356.649,824.382 L354.764,823.828 L352.889,823.241 L350.085,822.303 L346.358,820.962 L342.648,819.537 L338.95,818.047 L333.413,815.732 L326.036,812.598 L320.486,810.306 L316.766,808.841 L313.026,807.451 L309.266,806.154 L306.428,805.256 L304.522,804.696 L302.607,804.172 L300.687,803.687 L299.732,803.461 L299.732,803.461 C299.729,803.461 299.725,803.46 299.722,803.459 L299.722,803.459 L298.634,803.213 L296.457,802.751 L294.268,802.323 L292.067,801.925 L288.754,801.378 L284.324,800.721 L279.891,800.122 L275.469,799.552 L271.074,798.983 L266.715,798.388 L264.546,798.071 L264.546,798.071 C264.544,798.071 264.543,798.071 264.541,798.07 L264.541,798.07 L263.52,797.926 L261.477,797.688 L259.409,797.513 L257.319,797.399 L255.213,797.346 L253.096,797.353 L250.97,797.418 L248.841,797.54 L246.713,797.719 L244.589,797.953 L242.476,798.241 L240.376,798.583 L238.294,798.978 L236.233,799.424 L234.198,799.922 L232.21,800.465 L231.254,800.748 L231.254,800.748 C231.241,800.751 231.229,800.755 231.216,800.759 L231.216,800.759 L229.523,801.289 L226.206,802.419 L222.925,803.651 L219.679,804.973 L216.465,806.374 L213.284,807.842 L210.132,809.367 L207,810.941 L202.361,813.357 L196.263,816.629 L190.229,819.891 L185.731,822.284 L182.736,823.836 L181.224,824.603 L181.28,824.575 L180.787,824.818 L179.681,825.299 L178.536,825.721 L177.358,826.092 L176.15,826.415 L174.927,826.696 L173.036,827.063 L170.445,827.493 L167.809,827.919 L165.814,828.285 L164.464,828.572 L163.102,828.908 L161.754,829.296 L161.119,829.501 L161.119,829.501 C161.102,829.507 161.085,829.512 161.068,829.518 L161.068,829.518 L160.527,829.708 L159.489,830.106 L157.996,830.746 L156.106,831.641 L154.295,832.539 L152.53,833.398 L151.221,833.992 L150.366,834.348 L149.511,834.671 L148.652,834.956 L147.783,835.2 L146.874,835.402 L146.374,835.489 L146.411,835.483 L145.702,835.59 L144.258,835.777 L142.813,835.923 L141.367,836.03 L139.923,836.095 L138.483,836.117 L137.048,836.097 L135.62,836.032 L134.202,835.923 L132.794,835.768 L131.398,835.568 L130.017,835.322 L128.652,835.028 L127.304,834.687 L125.976,834.298 L124.67,833.859 L123.386,833.372 L122.127,832.834 L120.893,832.246 L119.688,831.606 L118.513,830.915 L117.369,830.172 L116.257,829.376 L115.179,828.529 L114.137,827.627 L113.132,826.671 L112.168,825.659 L111.244,824.591 L110.364,823.467 L109.528,822.286 L108.739,821.047 L107.993,819.743 L107.634,819.057 L107.643,819.075 L107.523,818.834 L107.294,818.311 L107.093,817.763 L106.918,817.192 L106.771,816.6 L106.65,815.99 L106.555,815.362 L106.487,814.732 L106.431,813.76 L106.442,812.424 L106.547,811.075 L106.742,809.736 L107.021,808.426 L107.373,807.153 L107.686,806.238 L107.909,805.668 L108.145,805.126 L108.391,804.613 L108.645,804.133 L108.904,803.69 L109.165,803.284 L109.425,802.917 L109.683,802.588 L109.936,802.291 L110.193,802.023 L110.504,801.746 L110.735,801.569 C111.518,800.991 112.048,800.044 111.918,799.453 C111.788,798.863 111.048,798.853 110.265,799.431 L110.265,799.431" fill="#000000"/>
    <path d="M777.029,483.384 L779.465,481.122 L779.465,481.122 C779.996,479.391 779.083,478.422 777.426,478.958 C775.768,479.494 773.994,481.332 773.463,483.062 L774.894,484.074 C774.894,484.074 774.894,484.074 774.894,484.074 C774.706,484.69 775.031,485.034 775.62,484.843 C776.209,484.652 776.84,483.999 777.029,483.384 L777.029,483.384" fill="#000000"/>
    <path d="M743.128,424.416 L743.334,424.251 L743.658,423.967 L743.908,423.739 L744.1,423.559 L744.311,423.364 L744.501,423.209 L744.663,423.111 L744.833,422.985 L744.997,422.84 L745.21,422.643 L745.471,422.393 L745.781,422.082 L746.136,421.703 L746.311,421.482 L746.311,421.482 C747.375,419.616 747.067,418.065 745.624,418.019 C744.18,417.973 742.147,419.449 741.083,421.315 C741.083,421.315 741.083,421.315 741.083,421.315 L741.013,421.523 L740.942,421.89 L740.899,422.192 L740.874,422.439 L740.855,422.642 L740.833,422.818 L740.788,423.065 L740.731,423.359 L740.708,423.609 L740.717,423.814 L740.734,423.981 L740.769,424.185 L740.823,424.436 L740.872,424.584 C740.49,425.343 740.686,425.921 741.309,425.874 C741.932,425.828 742.746,425.175 743.128,424.416 L743.128,424.416" fill="#000000"/>
    <path d="M741.374,427.361 L741.373,427.361 L741.373,427.361 C743.052,427.361 745.364,425.633 746.539,423.501 C747.714,421.368 747.305,419.639 745.627,419.639 L745.626,419.639 C743.947,419.639 741.634,421.368 740.46,423.501 C739.286,425.633 739.695,427.361 741.374,427.361 L741.374,427.361" fill="#000000"/>
    <path d="M737.508,428.694 L737.916,428.398 L738.841,427.651 L739.777,426.801 L740.684,425.906 L741.56,424.974 L742.394,424.004 L743.196,423.013 L743.967,422.004 L745.048,420.495 L746.387,418.447 L747.635,416.381 L748.775,414.356 L749.317,413.342 L749.317,413.342 C749.322,413.333 749.326,413.323 749.331,413.313 L749.331,413.313 L749.769,412.484 L750.661,410.79 L751.566,409.076 L752.476,407.353 L753.875,404.76 L755.308,402.199 L756.271,400.54 L757.26,398.902 L758.268,397.307 L759.294,395.767 L760.333,394.29 L761.387,392.886 L762.452,391.566 L763.526,390.336 L764.605,389.201 L765.077,388.743 L764.949,388.872 L765.616,388.235 L766.832,387.143 L768.062,386.118 L769.357,385.095 L770.719,384.081 L772.145,383.083 L773.633,382.102 L775.178,381.128 L776.779,380.17 L778.431,379.236 L780.13,378.328 L781.872,377.448 L783.652,376.597 L785.467,375.778 L787.312,374.993 L789.184,374.241 L791.078,373.526 L792.99,372.849 L794.916,372.209 L796.852,371.61 L798.795,371.052 L800.74,370.535 L802.685,370.061 L804.626,369.63 L806.558,369.245 L808.477,368.905 L810.381,368.611 L812.265,368.365 L814.127,368.166 L815.962,368.017 L817.766,367.916 L819.537,367.867 L820.391,367.861 L820.349,367.861 L820.715,367.865 L821.407,367.894 L822.119,367.951 L822.872,368.037 L823.657,368.151 L824.469,368.295 L825.303,368.467 L826.154,368.668 L827.463,369.025 L829.22,369.599 L830.515,370.095 L831.364,370.457 L832.21,370.849 L833.039,371.266 L833.847,371.708 L834.629,372.175 L835.381,372.665 L836.1,373.177 L836.782,373.712 L837.422,374.268 L838.017,374.842 L838.562,375.435 L839.056,376.044 L839.493,376.668 L839.87,377.303 L840.186,377.947 L840.436,378.596 L840.621,379.245 L840.739,379.89 L840.792,380.526 L840.792,380.777 L840.792,380.777 C840.833,382.499 842.527,382.876 844.575,381.618 C846.623,380.361 848.25,377.945 848.208,376.223 C848.208,376.223 848.208,376.223 848.208,376.223 L848.188,375.619 L848.077,374.579 L847.876,373.594 L847.594,372.66 L847.237,371.773 L846.811,370.928 L846.323,370.123 L845.777,369.355 L845.176,368.622 L844.526,367.923 L843.829,367.255 L843.091,366.619 L842.315,366.014 L841.504,365.439 L840.662,364.893 L839.794,364.377 L838.901,363.891 L837.989,363.433 L837.06,363.004 L836.108,362.601 L834.668,362.054 L832.758,361.434 L831.335,361.048 L830.387,360.826 L829.45,360.633 L828.524,360.472 L827.615,360.341 L826.723,360.242 L825.849,360.176 L825.019,360.143 L824.651,360.139 L824.651,360.139 C824.637,360.139 824.623,360.139 824.609,360.139 L824.609,360.139 L823.65,360.147 L821.74,360.202 L819.796,360.312 L817.822,360.475 L815.821,360.69 L813.796,360.956 L811.75,361.274 L809.687,361.641 L807.609,362.057 L805.521,362.522 L803.424,363.035 L801.321,363.595 L799.216,364.202 L797.112,364.855 L795.013,365.554 L792.92,366.298 L790.836,367.087 L788.765,367.921 L786.71,368.799 L784.672,369.722 L782.654,370.689 L780.66,371.701 L778.692,372.757 L776.751,373.86 L774.842,375.008 L772.967,376.209 L771.129,377.469 L769.333,378.777 L767.581,380.133 L765.879,381.542 L764.234,383.009 L762.706,384.468 L762.051,385.128 L762.051,385.128 C762.008,385.171 761.965,385.214 761.923,385.257 L761.923,385.257 L761.062,386.164 L759.552,387.87 L758.135,389.616 L756.802,391.393 L755.545,393.19 L754.356,395.005 L753.232,396.831 L752.163,398.664 L751.143,400.497 L750.159,402.341 L748.779,405.057 L747.478,407.724 L746.643,409.473 L745.84,411.186 L745.057,412.86 L744.669,413.687 L744.683,413.658 L744.284,414.502 L743.419,416.257 L742.5,418.001 L741.509,419.729 L740.733,420.988 L740.214,421.78 L739.684,422.543 L739.144,423.273 L738.605,423.978 L738.054,424.649 L737.489,425.285 L736.871,425.938 L736.492,426.306 C736.492,426.306 736.492,426.306 736.492,426.306 C735.523,427.124 734.965,428.321 735.245,428.98 C735.526,429.639 736.539,429.511 737.508,428.694 L737.508,428.694" fill="#000000"/>
    <path d="M759.979,428.168 L760.653,427.18 L762.016,425.248 L763.423,423.328 L764.893,421.407 L766.419,419.489 L768.006,417.584 L769.639,415.694 L771.329,413.83 L773.064,411.996 L774.846,410.2 L776.671,408.449 L778.536,406.748 L780.441,405.105 L782.38,403.521 L784.355,402.008 L786.361,400.568 L788.398,399.207 L790.465,397.933 L792.56,396.748 L794.685,395.656 L796.837,394.665 L798.445,394.002 L799.516,393.598 L800.62,393.21 L801.732,392.851 L802.852,392.522 L803.978,392.225 L805.111,391.96 L806.25,391.727 L807.396,391.527 L808.55,391.363 L809.709,391.235 L810.874,391.143 L812.046,391.089 L813.223,391.075 L814.405,391.1 L815.592,391.167 L816.784,391.276 L817.98,391.428 L819.179,391.626 L820.382,391.87 L821.585,392.163 L822.79,392.506 L823.377,392.696 L823.377,392.696 C824.757,393.109 827.05,391.788 828.499,389.747 C829.947,387.705 830.003,385.716 828.623,385.304 L827.936,385.114 L826.594,384.772 L825.25,384.479 L823.907,384.233 L822.561,384.036 L821.216,383.887 L819.869,383.786 L818.522,383.732 L817.174,383.725 L815.826,383.764 L814.478,383.847 L813.131,383.975 L811.784,384.147 L810.44,384.362 L809.097,384.618 L807.757,384.915 L806.42,385.255 L805.086,385.633 L803.757,386.049 L802.433,386.502 L801.114,386.993 L799.774,387.532 L797.792,388.4 L795.211,389.657 L792.666,391.038 L790.163,392.535 L787.707,394.137 L785.304,395.834 L782.955,397.617 L780.667,399.479 L778.441,401.406 L776.282,403.398 L774.193,405.437 L772.176,407.521 L770.236,409.64 L768.372,411.783 L766.593,413.947 L764.893,416.12 L763.286,418.299 L761.764,420.471 L760.338,422.631 L759.005,424.77 L757.789,426.86 L757.237,427.863 C757.237,427.863 757.237,427.863 757.237,427.863 C756.609,428.884 756.713,429.779 757.47,429.863 C758.228,429.948 759.35,429.188 759.979,428.168 L759.979,428.168" fill="#000000"/>
    <path d="M772.814,452.582 L773.843,451.91 L775.892,450.585 L777.991,449.263 L780.166,447.956 L782.411,446.659 L784.724,445.391 L787.097,444.152 L789.529,442.95 L792.012,441.794 L794.543,440.682 L797.115,439.626 L799.724,438.631 L802.366,437.697 L805.033,436.836 L807.722,436.05 L810.43,435.342 L813.148,434.722 L815.872,434.194 L818.6,433.759 L821.324,433.426 L824.041,433.2 L826.746,433.082 L828.751,433.071 L830.078,433.102 L831.409,433.163 L832.735,433.256 L834.056,433.378 L835.368,433.534 L836.672,433.723 L837.967,433.947 L839.252,434.205 L840.528,434.5 L841.794,434.828 L843.049,435.192 L844.292,435.594 L845.523,436.035 L846.741,436.515 L847.944,437.034 L849.137,437.59 L850.315,438.187 L851.477,438.825 L852.623,439.506 L853.18,439.857 L853.14,439.831 L853.49,440.071 L854.172,440.572 L854.862,441.124 L855.56,441.729 L856.255,442.381 L856.938,443.076 L857.601,443.805 L858.235,444.563 L858.829,445.345 L859.378,446.141 L859.868,446.948 L860.297,447.754 L860.651,448.553 L860.929,449.329 L861.122,450.071 L861.237,450.755 L861.267,451 L861.267,451 C861.313,452.496 862.798,452.812 864.583,451.708 C866.369,450.603 867.779,448.495 867.733,447 C867.733,447 867.733,447 867.733,447 L867.736,446.351 L867.634,445.234 L867.413,444.164 L867.096,443.129 L866.69,442.126 L866.21,441.149 L865.664,440.202 L865.062,439.284 L864.411,438.4 L863.721,437.549 L862.999,436.739 L862.254,435.972 L861.494,435.25 L860.727,434.578 L859.961,433.96 L859.211,433.409 L858.86,433.169 L858.86,433.169 C858.847,433.16 858.833,433.151 858.82,433.143 L858.82,433.143 L858.207,432.76 L856.985,432.038 L855.744,431.362 L854.487,430.73 L853.213,430.141 L851.919,429.599 L850.611,429.099 L849.288,428.641 L847.95,428.223 L846.6,427.846 L845.237,427.509 L843.86,427.214 L842.472,426.956 L841.073,426.736 L839.664,426.553 L838.247,426.407 L836.822,426.295 L835.386,426.221 L833.944,426.182 L832.484,426.176 L830.289,426.23 L827.362,426.411 L824.42,426.718 L821.471,427.142 L818.52,427.678 L815.571,428.323 L812.63,429.067 L809.704,429.905 L806.795,430.835 L803.911,431.85 L801.058,432.941 L798.239,434.109 L795.46,435.345 L792.727,436.641 L790.044,438 L787.417,439.409 L784.851,440.867 L782.352,442.37 L779.925,443.908 L777.577,445.489 L775.313,447.098 L773.168,448.735 L772.168,449.553 C771.062,450.365 770.311,451.701 770.489,452.538 C770.668,453.374 771.708,453.394 772.814,452.582 L772.814,452.582" fill="#000000"/>
    <path d="M815.937,459.979 L816.812,459.996 L818.585,460.064 L820.396,460.178 L822.228,460.359 L824.055,460.62 L825.396,460.874 L826.272,461.075 L827.142,461.303 L827.994,461.558 L828.823,461.844 L829.63,462.159 L830.411,462.505 L831.162,462.884 L831.881,463.296 L832.564,463.745 L833.212,464.227 L833.818,464.747 L834.382,465.306 L834.905,465.9 L835.378,466.537 L835.808,467.21 L836.189,467.926 L836.52,468.683 L836.803,469.482 L837.045,470.319 L837.248,471.194 L837.438,472.096 L837.528,472.53 L837.528,472.53 C837.563,473.673 838.699,473.915 840.064,473.07 C841.429,472.225 842.507,470.614 842.472,469.47 C842.472,469.47 842.472,469.47 842.472,469.47 L842.527,468.765 L842.533,467.483 L842.409,466.299 L842.185,465.197 L841.87,464.175 L841.478,463.225 L841.014,462.344 L840.487,461.529 L839.895,460.783 L839.251,460.094 L838.551,459.469 L837.806,458.899 L837.018,458.383 L836.188,457.923 L835.323,457.511 L834.425,457.147 L833.498,456.83 L832.544,456.557 L831.566,456.328 L830.57,456.136 L829.558,455.983 L828.522,455.866 L826.957,455.753 L824.865,455.714 L822.774,455.786 L820.708,455.959 L818.697,456.226 L817.731,456.388 C816.916,456.452 815.852,457.308 815.357,458.299 C814.861,459.291 815.121,460.043 815.937,459.979 L815.937,459.979" fill="#000000"/>
    <path d="M783.402,364.476 L783.666,363.016 L783.711,360.369 L783.572,357.818 L783.333,355.319 L782.907,351.598 L782.242,346.658 L781.469,341.737 L780.595,336.841 L779.625,331.97 L778.568,327.118 L777.433,322.283 L776.232,317.459 L775.033,312.597 L773.792,307.735 L772.463,302.908 L770.814,298.304 L768.873,293.909 L767.472,289.07 L765.078,282.015 L761.997,272.481 L759.147,262.746 L756.245,253.069 L753.26,243.509 L751.003,236.409 L749.481,231.723 L747.963,227.058 L746.485,222.393 L745.068,217.715 L743.726,213.018 L743.087,210.665 L743.087,210.665 C742.82,209.578 741.419,209.587 739.956,210.688 C738.494,211.788 737.525,213.561 737.792,214.649 C737.792,214.649 737.792,214.649 737.792,214.649 L738.336,217.108 L739.466,222.012 L740.656,226.905 L741.906,231.785 L743.223,236.641 L744.629,241.455 L746.913,248.573 L750.189,257.924 L753.689,267.127 L757.274,276.263 L760.558,285.615 L762.828,292.749 L764.46,297.384 L765.474,302.481 L766.69,307.389 L768.123,312.095 L769.527,316.791 L770.844,321.516 L772.016,326.31 L773.099,331.127 L774.091,335.964 L774.987,340.82 L775.783,345.695 L776.473,350.589 L777.048,355.513 L777.399,359.223 L777.602,361.695 L777.842,364.128 L778.202,366.479 L778.598,367.524 C778.656,368.621 779.779,368.827 781.106,367.986 C782.433,367.144 783.461,365.573 783.402,364.476 L783.402,364.476" fill="#000000"/>
    <path d="M786.355,201.204 L786.48,203.087 L787.112,205.499 L787.529,207.07 L787.945,208.622 L788.339,210.16 L788.681,211.706 L788.966,213.26 L789.083,214.023 L789.077,213.973 L789.384,216.479 L790.05,221.533 L790.778,226.618 L791.561,231.724 L792.395,236.848 L793.275,241.985 L794.192,247.134 L795.091,252.326 L795.991,257.543 L796.93,262.747 L798.117,267.78 L799.648,272.56 L800.73,277.66 L801.751,282.792 L803.08,287.672 L804.107,292.745 L804.623,295.268 L804.623,295.268 C804.623,295.269 804.623,295.271 804.624,295.272 L804.624,295.272 L804.696,295.621 L804.849,296.354 L805.005,297.129 L805.173,297.935 L805.352,298.77 L805.541,299.633 L805.846,300.976 L806.287,302.858 L806.767,304.832 L807.278,306.893 L807.824,309.026 L808.394,311.227 L808.99,313.483 L809.608,315.785 L810.244,318.125 L811.228,321.683 L812.588,326.461 L813.972,331.215 L815.006,334.72 L815.686,337.011 L816.348,339.264 L816.986,341.468 L817.596,343.614 L818.168,345.7 L818.696,347.716 L819.176,349.654 L819.603,351.504 L819.886,352.825 L820.056,353.671 L820.211,354.493 L820.349,355.287 L820.468,356.052 L820.57,356.785 L820.655,357.484 L820.722,358.148 L820.771,358.773 L820.801,359.358 L820.809,359.62 L820.809,359.62 C820.818,360.882 822.031,361.18 823.517,360.285 C825.003,359.39 826.201,357.642 826.191,356.38 L826.194,356.027 L826.186,355.331 L826.16,354.607 L826.116,353.856 L826.055,353.078 L825.978,352.272 L825.885,351.439 L825.779,350.577 L825.659,349.69 L825.525,348.774 L825.298,347.358 L824.952,345.394 L824.559,343.347 L824.123,341.222 L823.648,339.03 L823.138,336.778 L822.589,334.481 L822.007,332.145 L821.393,329.78 L820.414,326.207 L819.02,321.443 L817.557,316.735 L816.436,313.282 L815.69,311.029 L814.952,308.823 L814.227,306.673 L813.52,304.588 L812.84,302.571 L812.186,300.636 L811.57,298.784 L810.991,297.029 L810.588,295.777 L810.333,294.978 L810.092,294.208 L809.865,293.466 L809.652,292.756 L809.464,292.066 L809.376,291.728 L809.377,291.732 L808.752,289.297 L807.508,284.394 L806.586,279.224 L805.383,274.24 L804.278,269.17 L803.665,263.736 L802.761,258.519 L801.67,253.447 L800.608,248.373 L799.623,243.269 L798.74,238.124 L797.913,232.981 L797.141,227.849 L796.429,222.732 L795.778,217.636 L795.192,212.562 L794.923,210.027 L794.923,210.027 C794.921,210.01 794.919,209.993 794.917,209.977 L794.917,209.977 L794.798,209.113 L794.521,207.432 L794.191,205.769 L793.816,204.123 L793.373,202.512 L792.858,200.938 L791.974,198.666 L791.027,197.443 C790.712,196.531 789.411,196.633 788.12,197.672 C786.83,198.71 786.04,200.292 786.355,201.204 L786.355,201.204" fill="#000000"/>
    <path d="M786.926,408.998 L787.384,412.951 L788.585,420.674 L789.692,426.364 L790.501,430.139 L791.396,433.881 L792.353,437.62 L792.854,439.493 L792.854,439.493 C793.123,440.579 794.525,440.567 795.986,439.466 C797.448,438.365 798.414,436.593 798.146,435.507 L797.712,433.603 L796.858,429.815 L796.015,426.059 L795.155,422.353 L793.87,416.833 L792.06,409.576 L791.074,406.002 C791.074,406.002 791.074,406.002 791.074,406.002 C790.905,405.126 789.84,405.086 788.695,405.913 C787.55,406.74 786.758,408.121 786.926,408.998 L786.926,408.998" fill="#000000"/>
    <path d="M826.671,399.081 L826.797,400.002 L826.99,401.817 L827.131,403.638 L827.233,405.48 L827.336,408.288 L827.439,412.067 L827.626,415.839 L827.861,418.669 L828.082,420.556 L828.354,422.426 L828.698,424.278 L829.172,426.069 L829.826,427.761 L830.221,428.593 L830.221,428.593 C830.633,429.892 832.435,429.784 834.246,428.352 C836.057,426.92 837.191,424.706 836.779,423.407 L836.633,422.535 L836.339,420.767 L836.028,419.035 L835.725,417.31 L835.468,415.557 L835.258,413.784 L834.98,411.075 L834.62,407.414 L834.173,403.769 L833.76,401.058 L833.428,399.26 L833.037,397.483 L832.58,395.751 L832.329,394.919 C832.075,393.738 830.602,393.712 829.04,394.862 C827.477,396.011 826.416,397.9 826.671,399.081 L826.671,399.081" fill="#000000"/>
    <path d="M837.107,473.217 L837.466,482.877 L838.387,502.096 L839.192,516.48 L839.818,526.04 L840.507,535.584 L841.264,545.113 L842.093,554.626 L843.004,564.123 L843.994,573.607 L845.075,583.074 L846.248,592.527 L847.527,601.96 L848.909,611.378 L850.41,620.774 L851.207,625.469 L851.206,625.46 L851.392,626.6 L851.701,628.854 L851.943,631.114 L852.127,633.392 L852.263,635.689 L852.36,638.001 L852.452,641.501 L852.527,646.197 L852.622,650.914 L852.752,654.461 L852.886,656.829 L853.069,659.187 L853.311,661.536 L853.459,662.718 L853.459,662.718 C853.46,662.728 853.461,662.738 853.463,662.748 L853.463,662.748 L853.825,665.24 L854.592,670.229 L855.82,677.698 L857.548,687.633 L859.309,697.552 L861.022,707.467 L862.226,714.905 L862.97,719.867 L863.658,724.837 L864.277,729.816 L864.818,734.804 L865.267,739.806 L865.453,742.306 L865.453,742.306 C865.51,743.142 866.382,743.287 867.401,742.631 C868.419,741.974 869.2,740.765 869.143,739.93 L868.985,737.376 L868.605,732.286 L868.143,727.207 L867.607,722.139 L867.007,717.08 L866.35,712.028 L865.283,704.466 L863.756,694.409 L862.18,684.367 L860.633,674.33 L859.54,666.799 L858.86,661.773 L858.537,659.252 L858.541,659.282 L858.418,658.155 L858.219,655.864 L858.077,653.554 L857.982,651.233 L857.908,647.711 L857.883,642.967 L857.871,638.193 L857.824,634.606 L857.756,632.21 L857.646,629.816 L857.486,627.427 L857.263,625.045 L856.968,622.691 L856.794,621.54 L856.794,621.54 C856.794,621.537 856.793,621.534 856.793,621.531 L856.793,621.531 L856.053,616.828 L854.651,607.404 L853.344,597.973 L852.133,588.53 L850.999,579.084 L849.944,569.631 L848.952,560.177 L848.02,550.72 L847.132,541.267 L846.282,531.82 L845.459,522.379 L844.654,512.951 L843.429,498.85 L841.788,480.099 L840.893,470.783 C840.836,469.925 839.942,469.775 838.897,470.447 C837.852,471.119 837.05,472.36 837.107,473.217 L837.107,473.217" fill="#000000"/>
    <path d="M860.624,452.112 L860.591,452.803 L860.496,454.137 L860.362,455.443 L860.195,456.731 L859.99,458.004 L859.754,459.261 L859.483,460.505 L859.184,461.733 L858.851,462.951 L858.485,464.157 L858.096,465.35 L857.676,466.533 L857.227,467.706 L856.751,468.871 L855.984,470.617 L854.878,472.909 L853.689,475.15 L852.421,477.358 L851.075,479.535 L849.667,481.678 L848.202,483.786 L846.694,485.859 L845.145,487.893 L844.371,488.88 L844.371,488.88 C843.341,490.262 843.235,491.66 844.134,492.002 C845.033,492.345 846.598,491.502 847.628,490.12 C847.628,490.12 847.628,490.12 847.628,490.12 L848.41,489.02 L849.96,486.812 L851.51,484.554 L853.041,482.244 L854.542,479.884 L855.994,477.472 L857.388,475.01 L858.701,472.5 L859.914,469.961 L860.752,468.034 L861.275,466.726 L861.766,465.407 L862.224,464.08 L862.646,462.744 L863.024,461.404 L863.363,460.056 L863.661,458.702 L863.909,457.346 L864.113,455.985 L864.263,454.623 L864.365,453.259 L864.41,451.896 L864.401,450.545 L864.376,449.888 C864.381,449.002 863.545,448.781 862.509,449.395 C861.473,450.009 860.629,451.225 860.624,452.112 L860.624,452.112" fill="#000000"/>
    <path d="M838.572,381.253 L838.906,381.745 L839.489,382.694 L839.994,383.643 L840.435,384.607 L840.815,385.584 L841.136,386.573 L841.399,387.571 L841.608,388.578 L841.764,389.593 L841.869,390.614 L841.927,391.638 L841.938,392.665 L841.905,393.694 L841.83,394.723 L841.715,395.75 L841.562,396.776 L841.373,397.796 L841.149,398.811 L840.893,399.82 L840.607,400.821 L840.292,401.812 L839.951,402.792 L839.585,403.76 L839.196,404.713 L838.786,405.651 L838.357,406.572 L837.912,407.473 L837.451,408.354 L836.979,409.212 L836.495,410.045 L836.003,410.852 L835.506,411.631 L835.279,411.973 L835.279,411.973 C833.887,414.086 833.976,416.034 835.479,416.325 C836.981,416.616 839.328,415.139 840.721,413.027 C840.721,413.027 840.721,413.027 840.721,413.027 L841.088,412.468 L841.764,411.402 L842.424,410.311 L843.066,409.196 L843.688,408.059 L844.289,406.901 L844.867,405.723 L845.419,404.529 L845.943,403.317 L846.439,402.091 L846.903,400.852 L847.334,399.603 L847.729,398.344 L848.086,397.078 L848.404,395.806 L848.68,394.53 L848.911,393.253 L849.097,391.977 L849.234,390.702 L849.321,389.432 L849.356,388.168 L849.337,386.913 L849.261,385.667 L849.128,384.434 L848.934,383.215 L848.679,382.011 L848.36,380.825 L847.977,379.659 L847.525,378.514 L847.005,377.392 L846.415,376.294 L845.764,375.24 L845.428,374.747 C844.646,373.598 842.477,374.124 840.584,375.921 C838.69,377.718 837.79,380.105 838.572,381.253 L838.572,381.253" fill="#000000"/>
    <path d="M774.874,484.361 L774.873,484.361 L774.873,484.361 C776.552,484.361 778.864,482.633 780.039,480.501 C781.214,478.368 780.805,476.639 779.127,476.639 L779.126,476.639 C777.447,476.639 775.134,478.368 773.96,480.501 C772.786,482.633 773.195,484.361 774.874,484.361 L774.874,484.361" fill="#000000"/>
    <path d="M772.874,483.861 L772.873,483.861 L772.873,483.861 C774.552,483.861 776.864,482.133 778.039,480.001 C779.214,477.868 778.805,476.139 777.127,476.139 L777.126,476.139 C775.447,476.139 773.134,477.868 771.96,480.001 C770.786,482.133 771.195,483.861 772.874,483.861 L772.874,483.861" fill="#000000"/>
    <path d="M778.935,477.798 L779.932,477.118 L781.946,475.769 L783.991,474.394 L786.072,473.014 L788.191,471.645 L790.344,470.302 L792.53,469 L794.746,467.763 L796.991,466.598 L799.262,465.524 L800.961,464.797 L802.094,464.35 L803.253,463.927 L804.415,463.539 L805.583,463.187 L806.757,462.87 L807.931,462.598 L809.11,462.367 L810.289,462.186 L811.469,462.05 L812.648,461.97 L813.826,461.942 L814.394,461.95 L814.394,461.95 C815.684,461.937 817.449,460.605 818.335,458.976 C819.222,457.347 818.895,456.037 817.606,456.05 L816.905,456.072 L815.547,456.148 L814.19,456.275 L812.838,456.444 L811.487,456.661 L810.141,456.919 L808.798,457.222 L807.46,457.562 L806.125,457.945 L804.795,458.368 L803.471,458.826 L802.133,459.328 L800.151,460.14 L797.567,461.318 L795.025,462.605 L792.532,463.987 L790.096,465.442 L787.723,466.964 L785.423,468.535 L783.202,470.142 L781.067,471.768 L779.037,473.405 L778.065,474.202 C776.733,475.202 775.848,476.817 776.088,477.81 C776.328,478.803 777.602,478.798 778.935,477.798 L778.935,477.798" fill="#000000"/>
    <path d="M794.493,474.223 L794.706,475.248 L795.049,477.258 L795.296,479.268 L795.468,481.29 L795.56,483.334 L795.59,485.396 L795.547,488.526 L795.42,492.715 L795.353,496.89 L795.416,501.066 L795.551,504.234 L795.702,506.365 L795.801,507.442 L795.801,507.442 C795.801,507.444 795.801,507.446 795.802,507.448 L795.802,507.448 L795.986,509.401 L796.292,513.273 L796.527,517.137 L796.718,520.999 L796.937,526.801 L797.21,534.507 L797.472,542.231 L797.705,548.048 L797.897,551.943 L798.128,555.844 L798.419,559.749 L798.766,563.669 L799.195,567.594 L799.441,569.572 L799.441,569.572 C799.442,569.583 799.444,569.595 799.445,569.606 L799.445,569.606 L799.649,571.024 L800.164,573.919 L800.789,576.815 L801.498,579.689 L802.265,582.538 L803.063,585.361 L803.869,588.155 L804.658,590.916 L805.036,592.28 L805.033,592.269 L805.095,592.498 L805.22,592.99 L805.355,593.548 L805.499,594.171 L805.653,594.858 L805.815,595.605 L805.985,596.411 L806.163,597.272 L806.348,598.187 L806.54,599.152 L806.739,600.166 L806.944,601.227 L807.154,602.332 L807.37,603.478 L807.591,604.665 L807.817,605.889 L808.164,607.792 L808.638,610.441 L809.122,613.204 L809.615,616.061 L810.115,618.995 L810.619,621.99 L811.377,626.559 L812.376,632.702 L813.1,637.274 L813.569,640.273 L814.023,643.212 L814.459,646.075 L814.875,648.843 L815.172,650.847 L815.362,652.144 L815.545,653.408 L815.722,654.637 L815.891,655.829 L816.053,656.981 L816.207,658.091 L816.352,659.157 L816.489,660.177 L816.617,661.148 L816.735,662.068 L816.844,662.935 L816.942,663.747 L817.031,664.501 L817.108,665.195 L817.174,665.825 L817.229,666.389 L817.272,666.883 L817.288,667.096 L817.287,667.085 L817.315,667.479 L817.37,668.296 L817.423,669.165 L817.475,670.085 L817.526,671.055 L817.576,672.072 L817.627,673.135 L817.676,674.242 L817.727,675.39 L817.778,676.577 L817.855,678.43 L817.961,681.022 L818.071,683.738 L818.187,686.566 L818.311,689.491 L818.443,692.497 L818.587,695.571 L818.746,698.696 L818.922,701.858 L819.214,706.639 L819.549,711.429 L819.8,714.603 L820.076,717.739 L820.376,720.827 L820.702,723.855 L821.06,726.803 L821.446,729.661 L821.756,731.742 L821.974,733.096 L822.199,734.415 L822.435,735.701 L822.679,736.954 L822.933,738.171 L823.195,739.352 L823.467,740.493 L823.75,741.596 L824.042,742.655 L824.344,743.672 L824.658,744.644 L824.985,745.569 L825.324,746.445 L825.676,747.273 L826.042,748.049 L826.422,748.773 L826.819,749.444 L827.033,749.774 L827.033,749.774 C827.683,750.784 829.538,750.36 831.177,748.828 C832.815,747.296 833.617,745.236 832.967,744.226 C832.967,744.226 832.967,744.226 832.967,744.226 L832.811,743.981 L832.484,743.413 L832.163,742.782 L831.848,742.09 L831.541,741.339 L831.241,740.531 L830.95,739.67 L830.666,738.757 L830.39,737.794 L830.122,736.783 L829.864,735.727 L829.613,734.626 L829.371,733.482 L829.138,732.299 L828.913,731.078 L828.695,729.821 L828.484,728.531 L828.28,727.212 L827.989,725.175 L827.624,722.358 L827.288,719.446 L826.974,716.456 L826.683,713.4 L826.416,710.292 L826.168,707.153 L825.829,702.405 L825.53,697.654 L825.35,694.511 L825.183,691.406 L825.024,688.353 L824.876,685.365 L824.738,682.455 L824.608,679.639 L824.484,676.929 L824.364,674.342 L824.277,672.49 L824.219,671.301 L824.161,670.15 L824.103,669.039 L824.044,667.97 L823.986,666.944 L823.926,665.962 L823.866,665.028 L823.806,664.141 L823.744,663.307 L823.713,662.915 L823.713,662.915 C823.713,662.911 823.712,662.907 823.712,662.904 L823.712,662.904 L823.691,662.653 L823.64,662.12 L823.578,661.528 L823.505,660.876 L823.42,660.165 L823.324,659.398 L823.218,658.577 L823.101,657.701 L822.975,656.775 L822.839,655.8 L822.693,654.777 L822.539,653.709 L822.376,652.598 L822.206,651.445 L822.027,650.254 L821.841,649.026 L821.647,647.763 L821.447,646.467 L821.135,644.465 L820.698,641.703 L820.241,638.849 L819.765,635.917 L819.274,632.927 L818.515,628.367 L817.482,622.237 L816.7,617.676 L816.18,614.685 L815.664,611.754 L815.156,608.898 L814.657,606.137 L814.174,603.485 L813.823,601.577 L813.595,600.349 L813.371,599.157 L813.152,598.004 L812.938,596.893 L812.73,595.825 L812.528,594.803 L812.332,593.827 L812.143,592.902 L811.961,592.028 L811.786,591.206 L811.619,590.44 L811.459,589.731 L811.307,589.079 L811.163,588.487 L811.028,587.961 L810.967,587.731 L810.967,587.731 C810.966,587.727 810.965,587.724 810.964,587.72 L810.964,587.72 L810.582,586.334 L809.797,583.561 L809,580.778 L808.217,577.988 L807.476,575.194 L806.8,572.403 L806.214,569.618 L805.744,566.823 L805.555,565.394 L805.559,565.428 L805.341,563.502 L804.983,559.617 L804.708,555.727 L804.519,551.822 L804.388,547.912 L804.313,543.995 L804.271,538.095 L804.28,530.192 L804.253,522.272 L804.103,516.353 L803.936,512.4 L803.695,508.45 L803.383,504.507 L803.198,502.552 L803.199,502.558 L803.108,501.578 L802.965,499.587 L802.834,496.557 L802.768,492.452 L802.678,488.337 L802.476,484.241 L802.243,481.168 L802.046,479.103 L801.806,477.029 L801.521,474.944 L801.167,472.858 L800.745,470.787 L800.507,469.777 C800.507,469.777 800.507,469.777 800.507,469.777 C800.229,468.526 798.658,468.508 796.997,469.736 C795.337,470.963 794.216,472.972 794.493,474.223 L794.493,474.223" fill="#000000"/>
    <path d="M837.896,749.679 L838.715,749.408 L840.261,748.937 L841.783,748.523 L843.315,748.152 L844.858,747.824 L846.411,747.536 L847.974,747.285 L849.547,747.071 L851.944,746.81 L855.166,746.567 L858.421,746.427 L861.845,746.141 L863.649,745.876 L863.649,745.876 C865.119,745.87 867.14,744.354 868.163,742.49 C869.185,740.626 868.822,739.119 867.351,739.124 L865.765,738.872 L862.458,738.71 L859.035,738.86 L855.625,739.12 L853.07,739.401 L851.351,739.637 L849.627,739.915 L847.897,740.239 L846.16,740.611 L844.414,741.037 L842.658,741.519 L840.925,742.049 L840.104,742.321 C840.104,742.321 840.104,742.321 840.104,742.321 C838.148,742.968 836.068,745.14 835.459,747.172 C834.849,749.203 835.94,750.326 837.896,749.679 L837.896,749.679" fill="#000000"/>
    <path d="M829.345,758.721 L829.519,759.474 L829.914,761.019 L830.359,762.566 L830.845,764.099 L831.37,765.619 L831.93,767.129 L832.824,769.368 L834.109,772.329 L835.474,775.269 L837.608,779.635 L839.771,783.979 L841.181,786.863 L842.536,789.744 L843.809,792.626 L844.692,794.784 L845.24,796.22 L845.756,797.664 L846.233,799.11 L846.67,800.557 L847.062,802.006 L847.406,803.457 L847.7,804.909 L847.824,805.619 L847.817,805.57 L847.828,805.646 L847.839,805.754 L847.86,806.017 L847.889,806.524 L847.917,807.167 L847.948,807.918 L847.982,808.747 L848.046,810.081 L848.137,811.461 L848.218,812.382 L848.32,813.265 L848.448,814.101 L848.609,814.877 L848.765,815.435 L848.897,815.802 L849.046,816.133 L849.232,816.451 L849.476,816.758 L849.818,817.047 L850.149,817.225 L850.149,817.225 C850.369,817.319 850.626,817.365 850.911,817.361 L850.911,817.361 L850.949,817.36 L854.72,815.318 L856.479,812.761 L856.819,811.809 L856.979,811.165 L857.096,810.573 L857.198,809.965 L857.293,809.321 L857.385,808.635 L857.474,807.906 L857.561,807.138 L857.647,806.335 L857.771,805.08 L857.931,803.328 L858.082,801.534 L858.221,799.75 L858.347,798.027 L858.432,796.804 L858.483,796.033 L858.529,795.307 L858.571,794.633 L858.608,794.013 L858.639,793.456 L858.665,792.967 L858.685,792.552 L858.699,792.212 L858.707,791.948 L858.709,791.816 L858.709,791.816 C858.709,791.811 858.709,791.805 858.709,791.799 L858.709,791.799 L858.713,791.109 L858.739,789.731 L858.789,788.319 L858.864,786.865 L858.963,785.373 L859.085,783.845 L859.23,782.285 L859.397,780.697 L859.585,779.082 L859.794,777.448 L860.145,774.951 L860.68,771.583 L861.284,768.196 L861.954,764.808 L862.682,761.447 L863.464,758.141 L864.293,754.915 L864.938,752.579 L865.379,751.065 L865.83,749.578 L866.288,748.131 L866.752,746.728 L867.064,745.417 L867.131,744.218 L867.016,743.101 L866.891,742.582 L866.891,742.582 C867.352,741.417 866.878,740.659 865.833,740.89 C864.789,741.12 863.569,742.252 863.109,743.418 L862.476,744.186 L861.352,745.723 L860.423,747.275 L859.752,748.807 L859.249,750.333 L858.755,751.894 L858.273,753.487 L857.798,755.121 L857.111,757.616 L856.241,761.004 L855.425,764.464 L854.667,767.97 L853.971,771.497 L853.343,775.024 L852.79,778.517 L852.426,781.102 L852.208,782.812 L852.012,784.501 L851.837,786.168 L851.686,787.808 L851.558,789.42 L851.453,791.001 L851.374,792.546 L851.321,794.054 L851.294,795.509 L851.291,796.201 L851.291,796.184 L851.291,796.211 L851.286,796.407 L851.273,796.706 L851.255,797.094 L851.23,797.562 L851.2,798.101 L851.164,798.705 L851.123,799.367 L851.077,800.078 L851.027,800.832 L850.944,802.032 L850.821,803.724 L850.684,805.472 L850.537,807.221 L850.383,808.92 L850.263,810.13 L850.182,810.887 L850.102,811.599 L850.022,812.254 L849.944,812.845 L849.869,813.357 L849.802,813.772 L849.751,814.056 L849.744,814.128 L849.919,813.72 L851.517,811.522 L855.129,809.639 L855.089,809.639 L855.851,809.775 L856.05,809.896 L856.142,810.005 L856.155,810.045 L856.125,810.017 L856.077,809.926 L856.025,809.802 L855.934,809.504 L855.813,808.949 L855.707,808.274 L855.618,807.513 L855.545,806.7 L855.459,805.405 L855.396,804.109 L855.362,803.283 L855.331,802.509 L855.299,801.801 L855.262,801.176 L855.226,800.759 L855.195,800.506 L855.183,800.43 L855.183,800.43 C855.181,800.413 855.178,800.397 855.176,800.381 L855.176,800.381 L855.032,799.57 L854.71,797.992 L854.338,796.431 L853.918,794.885 L853.455,793.351 L852.951,791.83 L852.411,790.32 L851.835,788.813 L850.919,786.577 L849.616,783.63 L848.241,780.708 L846.822,777.805 L844.669,773.481 L842.56,769.167 L841.226,766.298 L839.977,763.421 L839.111,761.257 L838.577,759.819 L838.079,758.378 L837.62,756.936 L837.204,755.494 L836.829,754.034 L836.655,753.279 C836.655,753.279 836.655,753.279 836.655,753.279 C836.305,751.766 834.384,751.758 832.366,753.261 C830.348,754.764 828.995,757.209 829.345,758.721 L829.345,758.721" fill="#000000"/>
    <path d="M793.412,516.25 L792.86,516.564 L792.185,517.692 L791.24,518.898 L791.117,519.854 L790.32,520.479 L790.32,520.479 C789.614,522.429 790.493,523.632 792.284,523.166 C794.076,522.699 796.101,520.741 796.808,518.791 L796.306,518.604 L796.795,517.943 L796.537,517.563 L796.672,517.166 L796.588,516.75 C797.364,515.539 797.281,514.445 796.404,514.307 C795.527,514.169 794.187,515.039 793.412,516.25 L793.412,516.25" fill="#000000"/>
    <path d="M751.5,205.5 C758.001,202.728 764.71,202.572 771.5,201.5 C774.243,201.067 776.842,199.759 779.5,199 C780.822,198.622 782.271,198.615 783.5,198 C784.245,197.627 784.755,196.873 785.5,196.5 C786.239,196.131 790.642,196.217 791,195.5 C791.453,194.593 789.014,195 788,195 C785.159,195 781.722,195.184 779,196 C775.047,197.186 770.58,198.417 766.5,199 C765.84,199.094 765.151,198.855 764.5,199 C763.624,199.195 762.866,199.764 762,200 C760.863,200.31 758.262,200.459 757,201 C754.152,202.221 751.498,204.001 748.5,205" fill-opacity="0" stroke="#000000" stroke-width="5.5" stroke-linecap="round" stroke-linejoin="round"/>
    <path d="M754.5,197 C755.731,189.257 771.462,197.057 775.5,191 C776.245,189.882 772.842,190.429 771.5,190.5 C769.639,190.598 767.842,191.217 766,191.5 C760.697,192.316 750.428,193.429 746,194 C744.995,194.13 743.978,194.233 743,194.5 C742.134,194.736 741.398,195.5 740.5,195.5 C739.755,195.5 741.815,194.794 742.5,194.5 C747.908,192.182 753.196,190.467 759,189.5 C762.639,188.893 765.06,188.72 764.5,189 C760.452,191.024 750.136,191.72 746.5,192 C742.595,192.3 743.374,191.532 739.5,192.5 C739.015,192.621 740.511,192.605 741,192.5 C751.324,190.288 741.476,191.504 753.5,189.5 C755.724,189.129 770.641,187.679 773,186.5 C773.596,186.202 771.664,186.445 771,186.5 C769.661,186.612 768.333,186.833 767,187 C759.541,187.932 751.85,188.367 744.5,190 C743.471,190.229 740.487,191.29 741.5,191 C752.753,187.785 763.168,184.816 775,184 C776.829,183.874 778.671,184.131 780.5,184 C781.026,183.962 782.511,183.628 782,183.5 C779.55,182.888 776.232,184.054 774,184.5 C759.494,187.401 772.52,184.766 758,187 C756.32,187.258 754.656,187.618 753,188 C752.486,188.119 750.975,188.548 751.5,188.5 C760.821,187.653 769.909,185.053 779,183 C780.658,182.626 785.414,181.057 784,182 C782.44,183.04 769.792,185.812 769,186 C739.094,193.083 777.331,184.011 748.5,191 C746.339,191.524 744.143,191.905 742,192.5 C741.135,192.74 739.099,192.697 739.5,193.5 C739.864,194.228 744.491,193.102 747.5,192.5 C753.993,191.201 760.417,189.731 767,189 C768.5,188.833 772.337,187.244 771.5,188.5 C769.668,191.247 758.637,193.889 756.5,194.5 C755.213,194.868 742.66,198.313 740.5,199 C739.143,199.432 736.5,199.076 736.5,200.5 C736.5,201.728 746.217,201.082 747,201 C754.349,200.226 760.514,198.496 767.5,196.5 C768.977,196.078 770.531,195.952 772,195.5 C772.712,195.281 774.333,195.167 774,194.5 C773.369,193.239 763.354,197.458 762,198" fill-opacity="0" stroke="#000000" stroke-width="5.5" stroke-linecap="round" stroke-linejoin="round"/>
    <path d="M734,181.5 C731.313,178.559 731.23,175.15 730.5,171.5 C730.333,170.667 730.167,169.833 730,169 C729.667,168.167 729.195,167.376 729,166.5 C728.597,164.686 729.108,164.569 729.5,163 C730.302,159.793 731.371,158.064 734.5,156.5 C740.044,153.728 753.029,153.078 759.5,152 C762.23,151.545 774.741,148.861 776.5,151.5 C777.624,153.187 777.561,156.122 778.5,158 C778.935,158.869 779.605,159.612 780,160.5 C780.763,162.216 780.168,163.836 781,165.5 C781.629,166.758 782.812,167.997 783,169.5 C783.305,171.943 782.595,174.572 783,177 C783.658,180.949 783.5,176.1 783.5,180" fill-opacity="0" stroke="#000000" stroke-width="5.5" stroke-linecap="round" stroke-linejoin="round"/>
    <path d="M755.734,429.719 L755.517,429.975 L755.006,430.791 L754.556,431.695 L754.197,432.595 L753.911,433.496 L753.681,434.407 L753.498,435.333 L753.352,436.278 L753.194,437.269 L753.053,438.291 L752.95,439.33 L752.891,440.378 L752.875,441.432 L752.899,442.49 L753.009,444.058 L753.211,445.62 L753.391,446.658 L753.601,447.671 L753.855,448.657 L754.138,449.622 L754.451,450.562 L754.803,451.464 L755.183,452.334 L755.589,453.168 L756.032,453.954 L756.501,454.696 L756.997,455.391 L757.524,456.031 L758.082,456.613 L758.669,457.134 L759.287,457.592 L759.631,457.81 L759.631,457.81 C759.683,457.843 759.739,457.872 759.798,457.896 L759.798,457.896 L759.865,457.923 L760.426,458.032 L761.04,458.011 L761.613,457.917 L762.188,457.78 L762.786,457.611 L763.415,457.413 L764.08,457.187 L764.78,456.936 L765.513,456.663 L766.278,456.365 L767.07,456.049 L768.293,455.548 L769.978,454.838 L771.692,454.097 L773.387,453.356 L775.023,452.637 L776.188,452.121 L776.924,451.8 L777.621,451.494 L778.274,451.206 L778.878,450.947 L779.429,450.709 L779.924,450.494 L780.357,450.305 L780.726,450.146 L781.032,450.01 L781.18,449.941 L781.18,449.941 C782.638,449.222 783.963,447.546 784.139,446.198 C784.315,444.849 783.277,444.339 781.82,445.059 L781.753,445.096 L781.51,445.224 L781.18,445.392 L780.776,445.59 L780.303,445.815 L779.77,446.067 L779.182,446.342 L778.548,446.625 L777.87,446.925 L777.158,447.238 L776.032,447.714 L774.45,448.368 L772.82,449.022 L771.187,449.656 L769.589,450.258 L768.442,450.676 L767.719,450.932 L767.032,451.169 L766.389,451.385 L765.798,451.576 L765.268,451.738 L764.81,451.867 L764.437,451.963 L764.17,452.021 L764.04,452.047 L764.1,452.067 L764.268,452.132 L764.202,452.104 L764.369,452.19 L764.158,452.054 L763.693,451.7 L763.234,451.278 L762.785,450.791 L762.344,450.249 L761.916,449.653 L761.504,449.006 L761.11,448.313 L760.725,447.586 L760.361,446.821 L760.018,446.022 L759.687,445.204 L759.377,444.364 L759.091,443.502 L758.816,442.637 L758.566,441.773 L758.232,440.454 L757.938,439.136 L757.77,438.28 L757.625,437.437 L757.501,436.616 L757.399,435.821 L757.325,435.051 L757.303,434.3 L757.364,433.565 L757.458,432.877 L757.578,432.252 L757.715,431.701 L757.856,431.241 L757.982,430.887 L758.125,430.555 L758.266,430.281 C758.266,430.281 758.266,430.281 758.266,430.281 C758.936,429.284 758.914,428.351 758.214,428.196 C757.515,428.041 756.405,428.723 755.734,429.719 L755.734,429.719" fill="#000000"/>
    <path d="M782.25,473.135 L781.882,473.358 L781.083,473.875 L779.896,474.724 L778.347,475.958 L776.832,477.332 L775.38,478.792 L774.006,480.332 L772.702,481.926 L771.479,483.566 L770.323,485.235 L769.241,486.93 L768.218,488.637 L767.255,490.353 L766.345,492.07 L765.481,493.783 L764.275,496.313 L763.501,498.01 L763.501,498.01 C763.493,498.029 763.485,498.048 763.477,498.067 L763.477,498.067 L763.119,498.88 L762.397,500.607 L761.708,502.365 L761.069,504.122 L760.187,506.734 L759.134,510.222 L758.187,513.717 L757.326,517.196 L756.145,522.366 L755.013,527.493 L754.251,530.86 L753.449,534.188 L752.589,537.467 L751.652,540.688 L750.893,543.041 L750.357,544.574 L749.784,546.108 L749.18,547.622 L748.544,549.113 L747.871,550.582 L747.54,551.269 L747.566,551.217 L746.894,552.576 L745.519,555.309 L744.087,558.09 L742.602,560.924 L741.066,563.799 L739.486,566.704 L737.868,569.626 L736.223,572.555 L733.706,576.944 L731.163,581.275 L729.468,584.107 L727.77,586.897 L726.083,589.625 L724.412,592.28 L722.764,594.849 L721.958,596.087 L721.995,596.031 L721.177,597.26 L719.541,599.594 L717.824,601.917 L716.016,604.277 L713.163,607.892 L710.234,611.574 L708.259,614.089 L706.299,616.647 L704.372,619.251 L702.503,621.908 L700.717,624.618 L699.434,626.71 L698.613,628.134 L697.84,629.55 L697.105,630.979 L696.411,632.423 L695.763,633.881 L695.165,635.35 L694.619,636.832 L694.357,637.605 L694.357,637.605 C693.921,638.874 694.527,639.633 695.71,639.299 C696.893,638.965 698.206,637.665 698.643,636.395 L698.856,635.785 L699.335,634.521 L699.859,633.268 L700.425,632.025 L701.032,630.791 L701.679,629.564 L702.364,628.343 L703.072,627.148 L704.204,625.346 L705.841,622.923 L707.586,620.503 L709.424,618.083 L711.338,615.66 L713.306,613.229 L716.33,609.544 L719.353,605.829 L721.351,603.309 L723.303,600.751 L725.158,598.193 L726.005,596.969 L726.005,596.969 C726.017,596.95 726.03,596.931 726.042,596.913 L726.042,596.913 L726.92,595.613 L728.682,592.968 L730.467,590.241 L732.269,587.443 L734.08,584.584 L735.9,581.667 L738.613,577.231 L741.29,572.752 L743.051,569.747 L744.78,566.744 L746.473,563.755 L748.123,560.789 L749.724,557.855 L751.265,554.967 L752.735,552.148 L753.434,550.783 L753.434,550.783 C753.443,550.766 753.452,550.748 753.46,550.731 L753.46,550.731 L753.915,549.818 L754.744,548.067 L755.519,546.316 L756.242,544.566 L756.917,542.816 L757.557,541.048 L758.436,538.417 L759.482,534.942 L760.417,531.478 L761.269,528.028 L762.065,524.593 L763.192,519.5 L764.316,514.464 L765.093,511.166 L765.92,507.92 L766.823,504.714 L767.556,502.344 L768.074,500.801 L768.614,499.278 L769.197,497.743 L769.523,496.933 L769.499,496.99 L770.125,495.464 L771.112,493.152 L771.781,491.648 L772.47,490.17 L773.178,488.723 L773.904,487.314 L774.657,485.946 L775.429,484.621 L776.233,483.345 L777.062,482.112 L777.934,480.925 L778.848,479.772 L779.825,478.655 L780.901,477.533 L781.775,476.71 L782.394,476.161 L782.75,475.865 C783.731,475.162 784.414,473.981 784.275,473.227 C784.137,472.474 783.23,472.432 782.25,473.135 L782.25,473.135" fill="#000000"/>
    <path d="M789.492,521.136 L789.394,521.308 L789.256,521.492 L789.182,521.542 L789.167,521.503 L789.21,521.407 L789.28,521.306 L789.328,521.239 L789.319,521.207 L789.158,521.201 L788.818,521.17 L788.368,521.098 L787.82,520.978 L787.524,520.904 L787.524,520.904 C787.523,520.904 787.522,520.904 787.521,520.904 L787.521,520.904 L786.97,520.778 L785.879,520.571 L784.825,520.422 L783.812,520.333 L782.836,520.307 L781.898,520.336 L780.992,520.422 L780.114,520.565 L779.258,520.769 L778.417,521.04 L777.583,521.385 L776.755,521.811 L775.93,522.326 L775.115,522.938 L774.328,523.641 L773.591,524.421 L772.93,525.251 L772.356,526.104 L771.875,526.961 L771.478,527.808 L771.157,528.642 L770.901,529.466 L770.702,530.279 L770.552,531.088 L770.448,531.893 L770.385,532.697 L770.36,533.499 L770.372,534.302 L770.452,535.492 L770.665,537.089 L770.997,538.693 L771.436,540.28 L771.975,541.839 L772.607,543.359 L773.325,544.828 L774.122,546.233 L774.773,547.244 L775.231,547.893 L775.703,548.509 L776.194,549.098 L776.702,549.658 L777.23,550.184 L777.772,550.68 L778.328,551.143 L778.906,551.563 L779.497,551.948 L780.101,552.295 L780.72,552.602 L781.362,552.856 L782.017,553.067 L782.69,553.23 L783.383,553.339 L784.103,553.385 L784.847,553.371 L785.621,553.289 L786.431,553.123 L786.917,552.99 L786.917,552.99 C786.987,552.971 787.059,552.95 787.131,552.926 L787.131,552.926 L787.258,552.877 L787.997,552.543 L789.018,551.884 L790.014,550.987 L790.8,550.039 L791.333,549.195 L791.775,548.253 L792.128,547.179 L792.356,546.207 L792.519,545.315 L792.667,544.46 L792.829,543.638 L793.022,542.861 L793.26,542.149 L793.549,541.533 L793.759,541.209 L793.874,541.069 L794.035,540.905 L794.202,540.765 L794.389,540.646 L794.602,540.535 L794.857,540.434 L795.161,540.343 L795.27,540.337 L795.27,540.337 C796.695,539.595 797.952,537.948 798.079,536.657 C798.206,535.366 797.154,534.921 795.73,535.663 C795.73,535.663 795.73,535.663 795.73,535.663 L795.223,535.978 L794.369,536.566 L793.56,537.19 L792.799,537.847 L792.096,538.534 L791.453,539.233 L790.879,539.937 L790.327,540.692 L789.66,541.747 L788.976,543.018 L788.432,544.219 L787.994,545.344 L787.637,546.383 L787.338,547.311 L787.087,548.09 L786.895,548.646 L786.783,548.921 L786.822,548.853 L787.051,548.518 L787.5,548.016 L788.122,547.497 L788.724,547.144 L788.995,547.038 L788.869,547.074 L789.083,547.01 L789,547.026 L788.668,547.074 L788.295,547.098 L787.893,547.085 L787.467,547.033 L787.016,546.947 L786.549,546.822 L786.072,546.653 L785.588,546.443 L785.092,546.202 L784.593,545.923 L784.094,545.605 L783.598,545.251 L783.097,544.871 L782.602,544.459 L782.114,544.016 L781.629,543.55 L781.152,543.057 L780.683,542.542 L780.229,542.012 L779.57,541.174 L778.738,539.982 L777.975,538.73 L777.291,537.434 L776.693,536.108 L776.189,534.772 L775.786,533.443 L775.489,532.125 L775.341,531.157 L775.28,530.542 L775.246,529.948 L775.24,529.379 L775.262,528.838 L775.308,528.333 L775.377,527.867 L775.462,527.45 L775.558,527.086 L775.657,526.78 L775.75,526.531 L775.832,526.333 L775.909,526.168 L775.997,526.012 L776.121,525.843 L776.306,525.648 L776.571,525.429 L776.926,525.193 L777.37,524.955 L777.903,524.724 L778.52,524.51 L779.215,524.324 L779.984,524.172 L780.824,524.059 L781.733,523.988 L782.711,523.959 L783.759,523.975 L784.881,524.042 L785.479,524.096 L785.476,524.095 L785.853,524.13 L786.586,524.171 L787.326,524.156 L788.084,524.038 L788.686,523.848 L789.156,523.629 L789.658,523.315 L790.158,522.904 L790.608,522.43 L790.974,521.939 L791.257,521.46 L791.45,521.031 L791.508,520.864 C791.508,520.864 791.508,520.864 791.508,520.864 C791.809,520.209 791.602,519.74 791.046,519.815 C790.489,519.89 789.793,520.482 789.492,521.136 L789.492,521.136" fill="#000000"/>
    <path d="M779.166,546.96 L780.666,547.46 L782.166,547.96 L782.166,547.96 C782.335,548.017 782.622,547.856 782.806,547.602 C782.99,547.348 783.003,547.096 782.834,547.04 C782.834,547.04 782.834,547.04 782.834,547.04 L781.334,546.54 L779.834,546.04 C779.834,546.04 779.834,546.04 779.834,546.04 C779.665,545.983 779.378,546.144 779.194,546.398 C779.01,546.652 778.997,546.904 779.166,546.96 L779.166,546.96" fill="#000000"/>
    <path d="M782.134,549.105 L782.307,549.121 L782.636,549.144 L782.949,549.148 L783.259,549.124 L783.581,549.057 L783.929,548.928 L784.309,548.714 L784.701,548.408 L784.921,548.198 L784.921,548.198 C785.214,547.909 785.341,547.538 785.207,547.369 C785.073,547.2 784.727,547.297 784.435,547.586 C784.435,547.586 784.435,547.586 784.435,547.586 L784.403,547.625 L784.303,547.724 L784.196,547.802 L784.051,547.868 L783.86,547.914 L783.626,547.936 L783.353,547.933 L783.039,547.911 L782.866,547.895 C782.616,547.872 782.249,548.124 782.047,548.458 C781.845,548.792 781.884,549.082 782.134,549.105 L782.134,549.105" fill="#000000"/>
  </g>
</svg>
