<?xml version="1.0" encoding="UTF-8"?>
<!DOCTYPE svg PUBLIC "-//W3C//DTD SVG 1.1//EN" "http://www.w3.org/Graphics/SVG/1.1/DTD/svg11.dtd">
<svg version="1.1" xmlns="http://www.w3.org/2000/svg" xmlns:xlink="http://www.w3.org/1999/xlink" x="0" y="0" width="1000" height="1000" viewBox="0, 0, 1000, 1000">
  <g id="Background">
    <rect x="0" y="0" width="1000" height="1000" fill="none"/>
  </g>
  <g id="Layer_1">
    <path d="M289.659,355.767 L295.749,355.747 L307.948,355.719 L320.172,355.688 L332.418,355.629 L344.682,355.518 L356.957,355.331 L369.238,355.045 L378.454,354.75 L384.599,354.51 L390.74,354.231 L396.878,353.91 L403.014,353.545 L409.146,353.132 L415.275,352.668 L421.401,352.15 L427.52,351.576 L433.635,350.942 L439.743,350.244 L445.845,349.481 L451.939,348.649 L458.026,347.744 L464.105,346.764 L470.174,345.705 L476.234,344.565 L482.285,343.34 L485.32,342.692 L485.32,342.692 C485.329,342.69 485.339,342.688 485.349,342.686 L485.349,342.686 L486.687,342.39 L489.399,341.761 L492.114,341.095 L494.819,340.397 L498.844,339.298 L504.184,337.744 L509.499,336.105 L514.782,334.403 L522.645,331.781 L533.07,328.247 L540.851,325.656 L546.018,323.997 L551.191,322.408 L556.369,320.91 L560.249,319.86 L562.835,319.198 L565.436,318.567 L568.044,317.97 L569.336,317.689 L569.336,317.689 C571.406,317.238 573.828,314.997 574.747,312.683 C575.666,310.37 574.733,308.861 572.664,309.311 C572.664,309.311 572.664,309.311 572.664,309.311 L571.291,309.611 L568.58,310.232 L565.878,310.889 L563.177,311.581 L559.15,312.672 L553.828,314.213 L548.54,315.838 L543.275,317.529 L535.442,320.137 L525.064,323.656 L517.295,326.247 L512.125,327.913 L506.95,329.511 L501.755,331.024 L497.843,332.092 L495.238,332.765 L492.626,333.407 L489.993,334.018 L488.651,334.314 L488.68,334.308 L485.726,334.939 L479.778,336.144 L473.813,337.267 L467.834,338.31 L461.841,339.277 L455.833,340.171 L449.813,340.994 L443.782,341.749 L437.739,342.439 L431.686,343.067 L425.623,343.636 L419.552,344.15 L413.472,344.61 L407.385,345.02 L401.291,345.383 L395.191,345.702 L389.087,345.979 L382.982,346.218 L373.814,346.512 L361.577,346.797 L349.335,346.983 L337.095,347.094 L324.86,347.153 L312.637,347.185 L300.433,347.212 L294.341,347.233 C294.341,347.233 294.341,347.233 294.341,347.233 C292.483,347.239 289.928,349.155 288.635,351.512 C287.342,353.868 287.8,355.774 289.659,355.767 L289.659,355.767" fill="#000000"/>
    <path d="M286.362,364.382 L287.06,366.982 L288.486,372.138 L289.915,377.275 L291.348,382.397 L292.756,387.525 L294.112,392.68 L295.414,397.861 L296.662,403.064 L297.856,408.29 L298.996,413.536 L300.081,418.799 L301.11,424.08 L302.084,429.376 L303.002,434.686 L303.863,440.008 L304.668,445.339 L305.416,450.681 L306.105,456.028 L306.737,461.38 L307.311,466.737 L307.825,472.096 L308.281,477.456 L308.677,482.813 L309.014,488.168 L309.29,493.519 L309.505,498.863 L309.659,504.2 L309.753,509.527 L309.784,514.843 L309.753,520.146 L309.66,525.434 L309.504,530.706 L309.403,533.326 L309.403,533.314 L309.39,533.61 L309.362,534.231 L309.328,534.9 L309.29,535.618 L309.248,536.384 L309.202,537.195 L309.152,538.05 L309.098,538.946 L309.041,539.883 L308.981,540.858 L308.886,542.388 L308.751,544.546 L308.609,546.825 L308.461,549.212 L308.31,551.694 L308.158,554.258 L308.006,556.891 L307.857,559.579 L307.712,562.31 L307.509,566.452 L307.274,572.001 L307.133,576.13 L307.059,578.842 L307.005,581.502 L306.971,584.099 L306.961,586.622 L306.977,589.058 L307.019,591.394 L307.07,593.079 L307.115,594.167 L307.167,595.218 L307.228,596.237 L307.297,597.221 L307.376,598.17 L307.464,599.082 L307.59,599.937 L307.842,600.673 L308.097,601.371 L308.366,602.022 L308.691,602.595 L309.015,603.128 L309.382,603.588 L309.586,603.807 L309.586,603.807 C309.953,604.96 311.556,604.862 313.166,603.588 C314.775,602.314 315.782,600.347 315.414,599.194 L315.455,598.902 L315.513,598.262 L315.549,597.592 L315.607,596.863 L315.629,596.115 L315.657,595.319 L315.702,594.473 L315.639,593.659 L315.557,592.818 L315.483,591.934 L315.417,591.009 L315.359,590.044 L315.309,589.042 L315.267,588.01 L315.218,586.395 L315.176,584.13 L315.161,581.755 L315.17,579.286 L315.203,576.735 L315.256,574.117 L315.328,571.45 L315.468,567.373 L315.701,561.867 L315.903,557.749 L316.046,555.036 L316.195,552.362 L316.346,549.741 L316.498,547.186 L316.648,544.711 L316.796,542.326 L316.938,540.048 L317.073,537.889 L317.168,536.354 L317.229,535.374 L317.286,534.432 L317.34,533.527 L317.391,532.662 L317.438,531.838 L317.481,531.056 L317.52,530.319 L317.554,529.627 L317.584,528.984 L317.597,528.686 L317.597,528.686 C317.597,528.682 317.597,528.678 317.597,528.674 L317.597,528.674 L317.701,525.997 L317.858,520.65 L317.952,515.289 L317.983,509.917 L317.951,504.533 L317.857,499.141 L317.7,493.741 L317.482,488.334 L317.202,482.923 L316.862,477.509 L316.461,472.094 L316.001,466.679 L315.48,461.266 L314.901,455.857 L314.262,450.451 L313.566,445.052 L312.811,439.663 L311.999,434.281 L311.129,428.911 L310.203,423.555 L309.22,418.213 L308.182,412.886 L307.087,407.576 L305.938,402.287 L304.733,397.018 L303.475,391.771 L302.162,386.548 L300.795,381.351 L299.375,376.18 L297.875,371.06 L296.266,366.015 L294.549,361.052 L293.638,358.618 C293.177,357.179 291.175,357.303 289.166,358.895 C287.157,360.487 285.901,362.943 286.362,364.382 L286.362,364.382" fill="#000000"/>
    <path d="M314.919,611.757 L316.172,611.875 L318.738,612.065 L321.322,612.193 L323.905,612.269 L327.762,612.309 L332.893,612.285 L337.992,612.249 L341.775,612.267 L344.271,612.319 L346.758,612.415 L349.228,612.566 L351.681,612.781 L354.117,613.071 L355.31,613.244 L355.264,613.236 L356.488,613.442 L358.849,613.926 L361.2,614.487 L363.577,615.093 L365.99,615.702 L368.449,616.274 L370.34,616.654 L371.631,616.875 L372.933,617.059 L374.257,617.203 L374.949,617.259 L374.949,617.259 C374.959,617.26 374.969,617.261 374.979,617.262 L374.979,617.262 L377.672,617.446 L383.084,617.772 L388.508,618.037 L393.934,618.238 L399.363,618.374 L404.793,618.444 L410.224,618.446 L415.654,618.379 L421.082,618.241 L426.507,618.031 L431.929,617.747 L437.346,617.388 L442.757,616.952 L448.163,616.438 L453.559,615.844 L458.947,615.169 L464.326,614.411 L469.694,613.569 L475.051,612.64 L480.395,611.624 L485.726,610.519 L491.042,609.324 L496.343,608.036 L501.628,606.654 L506.895,605.177 L512.144,603.602 L517.375,601.928 L522.586,600.154 L527.774,598.278 L532.943,596.298 L538.087,594.212 L543.208,592.018 L545.787,590.869 L545.787,590.869 C545.8,590.863 545.814,590.857 545.828,590.85 L545.828,590.85 L547.949,589.886 L552.248,587.894 L556.579,585.829 L560.919,583.693 L565.26,581.481 L569.591,579.188 L573.903,576.809 L578.186,574.338 L581.392,572.411 L583.524,571.089 L585.625,569.751 L587.713,568.386 L589.787,566.993 L591.842,565.552 L593.878,564.075 L595.865,562.43 L597.807,560.705 L599.702,558.924 L601.536,557.075 L603.315,555.197 L605.017,553.26 L606.669,551.339 L608.276,549.442 L609.855,547.589 L610.636,546.671 L610.636,546.671 C610.799,546.509 610.871,546.302 610.795,546.207 C610.72,546.113 610.527,546.168 610.364,546.329 L609.478,547.063 L607.67,548.468 L605.823,549.771 L603.958,550.992 L602.082,552.142 L600.224,553.295 L598.366,554.422 L596.514,555.565 L594.658,556.711 L592.8,557.886 L590.945,559.178 L589.066,560.457 L587.165,561.735 L585.24,562.995 L583.294,564.235 L581.345,565.446 L578.375,567.234 L574.332,569.569 L570.235,571.833 L566.093,574.027 L561.919,576.156 L557.722,578.222 L553.515,580.228 L549.297,582.184 L547.172,583.15 L547.213,583.131 L544.796,584.21 L539.881,586.318 L534.933,588.326 L529.954,590.236 L524.943,592.049 L519.905,593.767 L514.839,595.389 L509.745,596.919 L504.627,598.356 L499.484,599.702 L494.319,600.958 L489.131,602.126 L483.924,603.206 L478.697,604.201 L473.452,605.111 L468.191,605.937 L462.915,606.682 L457.623,607.345 L452.319,607.93 L447.004,608.436 L441.678,608.866 L436.342,609.22 L430.998,609.5 L425.646,609.708 L420.289,609.845 L414.928,609.911 L409.562,609.91 L404.194,609.841 L398.826,609.707 L393.457,609.508 L388.089,609.247 L382.717,608.923 L380.021,608.738 L380.051,608.741 L379.48,608.695 L378.298,608.569 L377.115,608.403 L375.94,608.205 L374.165,607.85 L371.777,607.295 L369.371,606.687 L366.937,606.068 L364.463,605.479 L361.963,604.97 L360.736,604.763 L360.736,604.763 C360.721,604.761 360.706,604.758 360.69,604.756 L360.69,604.756 L359.387,604.569 L356.812,604.265 L354.235,604.041 L351.657,603.885 L349.08,603.786 L346.501,603.732 L342.656,603.715 L337.569,603.75 L332.519,603.775 L328.758,603.736 L326.274,603.664 L323.807,603.544 L321.338,603.362 L320.081,603.243 C318.322,603.077 315.74,604.849 314.315,607.199 C312.889,609.55 313.16,611.591 314.919,611.757 L314.919,611.757" fill="#000000"/>
    <path d="M570.413,320.215 L570.679,322.928 L571.148,328.335 L571.542,333.742 L571.868,339.156 L572.134,344.578 L572.346,350.008 L572.511,355.445 L572.635,360.888 L572.761,369.068 L572.851,379.988 L572.902,390.92 L572.969,401.863 L573.106,412.812 L573.288,421.027 L573.46,426.507 L573.681,431.98 L573.958,437.451 L574.297,442.919 L574.705,448.381 L575.19,453.839 L575.758,459.29 L576.417,464.736 L577.173,470.172 L578.033,475.6 L579.004,481.019 L580.093,486.427 L581.307,491.825 L581.966,494.531 L581.966,494.531 C581.969,494.541 581.971,494.552 581.974,494.562 L581.974,494.562 L582.36,496.049 L583.229,499.055 L584.2,502.044 L585.261,504.998 L586.401,507.922 L587.61,510.815 L588.879,513.681 L590.198,516.523 L591.559,519.342 L592.95,522.14 L595.075,526.297 L597.931,531.787 L600.744,537.225 L602.108,539.921 L602.089,539.883 L602.212,540.143 L602.38,540.576 L602.504,540.989 L602.618,541.411 L602.762,542.111 L602.911,543.112 L603.049,544.2 L603.228,545.396 L603.472,546.333 L603.691,546.984 L603.95,547.612 L604.262,548.233 L604.453,548.567 L604.453,548.567 C605.069,549.87 607.156,549.553 609.115,547.859 C611.074,546.165 612.162,543.736 611.547,542.433 C611.547,542.433 611.547,542.433 611.547,542.433 L611.484,542.23 L611.359,541.759 L611.267,541.276 L611.206,540.798 L611.139,540.019 L611.034,538.899 L610.944,537.666 L610.817,536.367 L610.661,535.372 L610.505,534.686 L610.289,534.011 L610.034,533.379 L609.911,533.117 L609.911,533.117 C609.905,533.104 609.898,533.091 609.892,533.079 L609.892,533.079 L608.515,530.356 L605.698,524.911 L602.852,519.442 L600.744,515.316 L599.369,512.553 L598.03,509.78 L596.736,506.993 L595.495,504.192 L594.317,501.376 L593.211,498.545 L592.187,495.696 L591.253,492.829 L590.413,489.927 L590.026,488.438 L590.034,488.469 L589.392,485.835 L588.198,480.533 L587.126,475.217 L586.171,469.889 L585.324,464.549 L584.579,459.196 L583.929,453.833 L583.368,448.458 L582.889,443.073 L582.486,437.677 L582.15,432.272 L581.876,426.858 L581.657,421.434 L581.486,416.007 L581.305,407.846 L581.168,396.936 L581.102,386.001 L581.051,375.049 L580.96,364.087 L580.833,355.864 L580.708,350.378 L580.541,344.893 L580.327,339.408 L580.057,333.924 L579.727,328.443 L579.327,322.966 L578.853,317.502 L578.587,314.785 C578.587,314.785 578.587,314.785 578.587,314.785 C578.408,312.967 576.434,312.708 574.176,314.207 C571.919,315.707 570.234,318.396 570.413,320.215 L570.413,320.215" fill="#000000"/>
    <path d="M259.91,325.763 L261.489,325.839 L264.673,325.997 L267.895,326.16 L271.154,326.33 L276.189,326.45 L283.035,326.596 L290.017,326.729 L297.112,326.866 L304.308,327.001 L311.597,327.127 L318.966,327.238 L326.405,327.326 L333.904,327.385 L341.453,327.407 L349.042,327.388 L356.66,327.318 L364.296,327.192 L371.94,327.003 L379.582,326.744 L387.213,326.408 L394.821,325.988 L402.396,325.477 L408.056,325.03 L411.816,324.7 L415.557,324.344 L419.283,323.96 L422.993,323.547 L426.686,323.106 L430.36,322.634 L434.014,322.132 L437.647,321.597 L441.258,321.03 L444.846,320.428 L448.409,319.792 L451.946,319.121 L455.456,318.413 L458.939,317.667 L462.393,316.883 L465.816,316.06 L469.208,315.195 L472.568,314.289 L475.894,313.341 L479.186,312.349 L482.443,311.312 L485.663,310.229 L488.847,309.099 L490.446,308.508 L490.433,308.513 L491.489,308.125 L493.518,307.429 L495.55,306.785 L497.614,306.172 L500.778,305.291 L505.053,304.152 L509.38,302.982 L512.668,302.028 L514.889,301.332 L517.104,300.582 L519.325,299.762 L521.556,298.857 L523.794,297.853 L524.976,297.281 L524.976,297.281 C525.019,297.26 525.063,297.238 525.106,297.215 L525.106,297.215 L525.148,297.194 L525.388,297.066 L525.627,296.934 L525.869,296.798 L526.129,296.651 L526.413,296.49 L526.722,296.314 L527.055,296.126 L527.595,295.82 L528.38,295.381 L529.209,294.922 L530.063,294.458 L530.915,294.006 L531.735,293.584 L532.494,293.211 L532.984,292.983 L533.257,292.863 L533.509,292.758 L533.712,292.68 L533.855,292.633 L533.923,292.617 L533.898,292.632 L533.753,292.669 L533.456,292.702 L532.987,292.652 L532.54,292.44 L532.297,292.21 L532.321,292.239 L532.223,292.112 L532.187,292.06 L532.2,292.114 L532.235,292.245 L532.281,292.435 L532.366,292.823 L532.491,293.478 L532.627,294.27 L532.771,295.19 L532.923,296.223 L533.079,297.356 L533.24,298.576 L533.404,299.872 L533.57,301.233 L533.737,302.648 L533.903,304.106 L534.152,306.351 L534.476,309.394 L534.783,312.413 L534.999,314.612 L535.134,316.026 L535.262,317.387 L535.38,318.685 L535.489,319.908 L535.587,321.045 L535.674,322.086 L535.748,323.02 L535.809,323.833 L535.845,324.354 L535.864,324.656 L535.879,324.922 L535.891,325.146 L535.898,325.325 L535.901,325.451 L535.9,325.468 L535.9,325.468 C535.915,327.391 537.762,327.844 540.026,326.481 C542.29,325.118 544.114,322.454 544.1,320.532 L544.098,320.412 L544.093,320.202 L544.083,319.967 L544.07,319.703 L544.052,319.407 L544.031,319.077 L543.993,318.525 L543.93,317.686 L543.855,316.734 L543.767,315.678 L543.668,314.527 L543.558,313.292 L543.438,311.983 L543.31,310.611 L543.173,309.184 L542.956,306.968 L542.646,303.927 L542.32,300.862 L542.069,298.598 L541.9,297.124 L541.731,295.691 L541.563,294.308 L541.396,292.986 L541.231,291.735 L541.069,290.565 L540.91,289.484 L540.755,288.5 L540.603,287.62 L540.455,286.855 L540.345,286.356 L540.267,286.044 L540.181,285.749 L540.079,285.454 L539.933,285.134 L539.729,284.821 L539.703,284.79 L539.703,284.79 C539.631,284.704 539.55,284.627 539.46,284.56 L539.46,284.56 L538.932,284.288 L538.231,284.168 L537.615,284.196 L537.07,284.29 L536.569,284.419 L536.092,284.57 L535.627,284.738 L535.164,284.921 L534.699,285.118 L534.21,285.337 L533.484,285.678 L532.52,286.154 L531.544,286.658 L530.574,287.174 L529.628,287.688 L528.728,288.186 L527.902,288.649 L527.341,288.966 L527.002,289.158 L526.695,289.333 L526.425,289.486 L526.201,289.613 L526.032,289.708 L525.942,289.758 L525.939,289.761 L525.894,289.784 L526.024,289.719 L525.183,290.132 L523.336,290.968 L521.431,291.747 L519.473,292.474 L517.47,293.154 L515.443,293.792 L512.309,294.702 L508.015,295.864 L503.643,297.029 L500.334,297.953 L498.099,298.617 L495.851,299.333 L493.626,300.099 L492.567,300.487 L492.567,300.487 C492.563,300.489 492.559,300.49 492.554,300.492 L492.554,300.492 L491.082,301.037 L488.058,302.112 L484.986,303.146 L481.869,304.14 L478.708,305.094 L475.503,306.008 L472.259,306.884 L468.975,307.721 L465.653,308.521 L462.295,309.284 L458.903,310.011 L455.477,310.702 L452.019,311.359 L448.531,311.982 L445.015,312.572 L441.471,313.129 L437.901,313.655 L434.307,314.149 L430.69,314.614 L427.051,315.049 L423.392,315.456 L419.714,315.835 L416.019,316.188 L412.312,316.513 L406.722,316.955 L399.218,317.462 L391.673,317.878 L384.1,318.212 L376.508,318.47 L368.909,318.658 L361.313,318.784 L353.73,318.853 L346.171,318.873 L338.647,318.85 L331.168,318.791 L323.745,318.703 L316.388,318.593 L309.108,318.467 L301.914,318.332 L294.818,318.195 L287.829,318.062 L280.944,317.967 L275.853,317.928 L272.447,318.007 L269.075,318.092 L265.742,318.186 L264.09,318.237 C264.09,318.237 264.09,318.237 264.09,318.237 C262.461,318.225 260.205,319.899 259.05,321.977 C257.896,324.055 258.281,325.75 259.91,325.763 L259.91,325.763" fill="#000000"/>
    <path d="M259.092,331.619 L260.133,334.947 L262.22,341.556 L264.263,348.157 L266.232,354.781 L268.126,361.427 L269.947,368.094 L271.695,374.782 L273.37,381.488 L274.972,388.213 L276.503,394.955 L277.962,401.715 L279.351,408.491 L280.668,415.281 L281.916,422.085 L283.094,428.904 L284.203,435.734 L285.243,442.576 L286.215,449.428 L287.119,456.291 L287.955,463.163 L288.725,470.042 L289.428,476.928 L290.064,483.822 L290.635,490.721 L291.141,497.624 L291.582,504.531 L291.959,511.441 L292.272,518.353 L292.521,525.266 L292.707,532.18 L292.831,539.092 L292.922,545.986 L292.955,549.42 L292.955,549.39 L292.955,549.529 L292.949,549.784 L292.937,550.08 L292.93,550.427 L292.917,550.824 L292.898,551.268 L292.872,551.757 L292.84,552.286 L292.802,552.854 L292.759,553.458 L292.684,554.429 L292.566,555.83 L292.431,557.338 L292.279,558.941 L292.114,560.627 L291.935,562.383 L291.747,564.194 L291.448,566.99 L291.031,570.792 L290.606,574.587 L290.291,577.368 L290.087,579.167 L289.889,580.908 L289.7,582.578 L289.384,584.23 L289.052,585.799 L288.732,587.262 L288.512,588.278 L288.374,588.914 L288.245,589.514 L288.126,590.077 L288.016,590.601 L287.917,591.087 L287.827,591.532 L287.749,591.936 L287.682,592.299 L287.627,592.623 L287.583,592.911 L287.552,593.174 L287.535,593.437 L287.549,593.786 L287.679,594.303 L287.679,594.303 C287.732,594.426 287.798,594.536 287.879,594.632 L287.879,594.632 L288.08,594.932 L288.578,595.57 L289.149,596.188 L289.769,596.766 L290.433,597.307 L291.138,597.815 L291.881,598.291 L292.657,598.737 L293.492,599.117 L294.357,599.467 L295.244,599.792 L296.154,600.091 L297.574,600.445 L299.512,600.85 L301.484,601.191 L303.452,601.477 L305.39,601.718 L307.273,601.927 L309.072,602.114 L310.931,602.012 L312.287,601.849 L313.141,601.739 L314.202,601.24 L315.439,600.407 L316.371,599.478 L316.371,599.478 C316.762,599.541 317.36,599.155 317.707,598.614 C318.054,598.074 318.019,597.585 317.629,597.522 C317.629,597.522 317.629,597.522 317.629,597.522 L317.925,596.491 L317.824,595.461 L317.463,594.776 L316.819,594.486 L315.798,594.059 L314.278,593.605 L312.509,593.421 L310.686,593.219 L308.832,592.989 L306.976,592.721 L305.142,592.407 L303.346,592.034 L302.044,591.711 L301.188,591.51 L300.357,591.292 L299.558,591.055 L298.79,590.8 L298.029,590.561 L297.307,590.299 L296.629,590.013 L295.996,589.704 L295.412,589.371 L294.878,589.015 L294.378,588.614 L294.121,588.368 L294.321,588.697 L294.436,589.178 L294.433,589.373 L294.419,589.377 L294.409,589.278 L294.404,589.105 L294.404,588.871 L294.409,588.584 L294.419,588.248 L294.433,587.867 L294.452,587.442 L294.474,586.977 L294.501,586.473 L294.531,585.932 L294.564,585.358 L294.621,584.432 L294.71,583.09 L294.824,581.631 L294.989,580.055 L295.309,578.325 L295.643,576.521 L295.991,574.652 L296.53,571.761 L297.263,567.809 L297.995,563.842 L298.528,560.921 L298.871,559.021 L299.2,557.175 L299.512,555.396 L299.805,553.696 L300.075,552.087 L300.319,550.584 L300.483,549.533 L300.584,548.869 L300.677,548.236 L300.761,547.636 L300.836,547.068 L300.903,546.535 L300.959,546.035 L301.006,545.567 L301.03,545.136 L301.043,544.754 L301.045,544.61 L301.045,544.61 C301.045,544.6 301.045,544.59 301.045,544.58 L301.045,544.58 L301.063,541.078 L301.03,534.097 L300.905,527.131 L300.717,520.167 L300.465,513.202 L300.15,506.24 L299.77,499.28 L299.326,492.324 L298.816,485.371 L298.241,478.424 L297.6,471.482 L296.892,464.547 L296.117,457.62 L295.274,450.702 L294.364,443.793 L293.386,436.893 L292.338,430.006 L291.222,423.129 L290.036,416.266 L288.779,409.417 L287.453,402.581 L286.055,395.762 L284.586,388.959 L283.045,382.172 L281.432,375.404 L279.746,368.654 L277.987,361.925 L276.154,355.215 L274.248,348.528 L272.267,341.862 L270.211,335.219 L268.048,328.633 L266.908,325.381 C266.398,323.844 264.235,323.995 262.077,325.718 C259.918,327.441 258.582,330.083 259.092,331.619 L259.092,331.619" fill="#000000"/>
    <path d="M228.818,301.762 L231.447,301.603 L236.702,301.311 L244.604,300.932 L255.177,300.518 L265.786,300.183 L276.429,299.901 L287.097,299.645 L297.786,299.388 L308.488,299.103 L319.196,298.764 L329.905,298.342 L337.937,297.956 L343.291,297.659 L348.638,297.326 L353.98,296.954 L359.318,296.54 L364.651,296.079 L369.977,295.569 L375.297,295.007 L380.608,294.387 L385.912,293.709 L391.207,292.967 L396.492,292.158 L399.142,291.726 L399.142,291.726 C399.152,291.724 399.161,291.722 399.171,291.721 L399.171,291.721 L400.906,291.423 L404.418,290.775 L407.939,290.067 L411.449,289.309 L414.95,288.507 L418.44,287.668 L423.648,286.355 L430.565,284.53 L437.449,282.664 L444.293,280.809 L451.097,279.014 L454.472,278.156 L454.468,278.158 L455.386,277.925 L457.281,277.429 L459.216,276.897 L461.173,276.333 L463.147,275.734 L465.133,275.102 L467.126,274.433 L469.121,273.727 L471.113,272.983 L473.098,272.199 L475.07,271.374 L477.025,270.506 L478.96,269.591 L480.871,268.628 L482.756,267.612 L484.609,266.541 L485.579,265.949 L485.579,265.949 C485.667,265.895 485.756,265.838 485.844,265.779 L485.844,265.779 L485.862,265.767 L486.111,265.595 L486.258,265.49 L486.388,265.399 L486.609,265.246 L486.925,265.039 L487.182,264.889 L487.295,264.844 L487.109,264.951 L486.75,265.092 L486.318,265.195 L485.721,265.21 L485.208,265.049 L485,264.909 L485.11,264.998 L485.228,265.119 L485.328,265.252 L485.441,265.425 L485.562,265.64 L485.686,265.896 L485.812,266.192 L485.936,266.525 L486.123,267.111 L486.353,268.001 L486.56,268.998 L486.748,270.11 L486.916,271.323 L487.067,272.625 L487.201,274.008 L487.32,275.459 L487.428,276.97 L487.525,278.53 L487.659,280.946 L487.829,284.248 L488.007,287.58 L488.161,290.062 L488.278,291.694 L488.411,293.293 L488.562,294.851 L488.734,296.363 L488.931,297.82 L489.157,299.214 L489.415,300.538 L489.709,301.784 L490.046,302.947 L490.334,303.774 L490.548,304.304 L490.772,304.794 L491.012,305.259 L491.151,305.501 L491.151,305.501 C491.931,306.849 494.286,306.374 496.412,304.44 C498.538,302.507 499.629,299.847 498.849,298.499 C498.849,298.499 498.849,298.499 498.849,298.499 L498.775,298.376 L498.608,298.061 L498.445,297.71 L498.292,297.341 L498.067,296.712 L497.783,295.746 L497.524,294.667 L497.292,293.486 L497.084,292.212 L496.9,290.857 L496.736,289.43 L496.592,287.941 L496.464,286.401 L496.35,284.82 L496.199,282.384 L496.021,279.065 L495.85,275.74 L495.714,273.286 L495.613,271.68 L495.501,270.111 L495.375,268.585 L495.232,267.111 L495.067,265.695 L494.877,264.346 L494.658,263.069 L494.403,261.87 L494.112,260.772 L493.866,260.015 L493.679,259.528 L493.476,259.065 L493.253,258.627 L493.006,258.214 L492.732,257.829 L492.424,257.474 L492.112,257.181 L492,257.091 L492,257.091 C491.935,257.039 491.865,256.992 491.791,256.951 L491.791,256.951 L491.176,256.734 L490.313,256.705 L489.546,256.849 L488.793,257.102 L487.933,257.491 L487.058,257.97 L486.313,258.431 L485.706,258.834 L485.348,259.082 L485.166,259.211 L485.078,259.274 L485.176,259.207 L485.156,259.221 L485.421,259.051 L484.769,259.453 L483.295,260.312 L481.747,261.152 L480.134,261.97 L478.462,262.763 L476.742,263.53 L474.981,264.269 L473.187,264.98 L471.366,265.662 L469.526,266.314 L467.674,266.937 L465.816,267.53 L463.959,268.093 L462.111,268.627 L460.277,269.131 L458.452,269.61 L457.532,269.842 L457.532,269.842 C457.531,269.843 457.53,269.843 457.528,269.844 L457.528,269.844 L454.079,270.72 L447.219,272.531 L440.376,274.385 L433.547,276.236 L426.721,278.038 L421.602,279.329 L418.196,280.148 L414.792,280.928 L411.389,281.664 L407.986,282.349 L404.565,282.982 L402.829,283.279 L402.858,283.274 L400.276,283.696 L395.077,284.492 L389.862,285.224 L384.632,285.893 L379.388,286.505 L374.132,287.061 L368.863,287.566 L363.583,288.022 L358.293,288.433 L352.993,288.802 L347.685,289.133 L342.375,289.428 L334.392,289.812 L323.726,290.232 L313.045,290.57 L302.358,290.855 L291.67,291.112 L280.987,291.368 L270.317,291.651 L259.665,291.987 L249.041,292.404 L241.096,292.785 L235.812,293.079 L233.181,293.238 C231.264,293.354 228.733,295.357 227.529,297.711 C226.324,300.065 226.901,301.879 228.818,301.762 L228.818,301.762" fill="#000000"/>
    <path d="M230.156,312.45 L230.829,315.412 L232.284,321.205 L233.717,326.969 L235.093,332.74 L236.405,338.526 L237.657,344.324 L238.85,350.135 L239.988,355.958 L241.072,361.791 L242.106,367.636 L243.091,373.49 L244.031,379.354 L244.928,385.228 L245.784,391.109 L246.602,396.998 L247.385,402.894 L248.498,411.755 L249.881,423.586 L251.167,435.433 L252.376,447.293 L254.09,465.1 L256.297,488.842 L257.412,500.703 L257.41,500.685 L257.428,500.895 L257.455,501.322 L257.476,501.828 L257.492,502.426 L257.502,503.107 L257.506,503.867 L257.504,504.7 L257.496,505.602 L257.483,506.571 L257.464,507.601 L257.44,508.691 L257.411,509.838 L257.378,511.036 L257.339,512.286 L257.296,513.581 L257.249,514.92 L257.198,516.301 L257.144,517.72 L257.055,519.916 L256.926,522.948 L256.786,526.082 L256.637,529.294 L256.48,532.561 L256.235,537.518 L255.983,542.473 L255.817,545.736 L255.658,548.94 L255.501,552.064 L255.349,555.087 L255.275,557.253 L255.242,558.646 L255.211,560.002 L255.182,561.317 L255.153,562.589 L255.126,563.815 L255.101,564.994 L255.089,566.114 L255.085,567.177 L255.081,568.184 L255.079,569.133 L255.078,570.02 L255.078,570.843 L255.079,571.6 L255.103,572.276 L255.131,572.88 L255.158,573.412 L255.204,573.861 L255.273,574.221 L255.332,574.518 L255.379,574.763 L255.423,575.013 L255.516,575.411 L255.516,575.411 C255.571,575.566 255.65,575.701 255.751,575.813 L255.751,575.813 L255.889,575.905 L256.342,576.206 L256.859,576.537 L257.434,576.874 L258.043,577.266 L258.723,577.673 L259.471,578.096 L260.291,578.523 L261.169,578.962 L262.101,579.413 L263.08,579.872 L264.108,580.33 L265.715,581.017 L267.949,581.934 L270.251,582.825 L272.558,583.681 L274.261,584.291 L275.375,584.672 L276.469,585.021 L277.526,585.355 L278.54,585.667 L279.513,585.946 L280.426,586.206 L281.273,586.443 L282.049,586.658 L282.745,586.847 L283.357,587.01 L283.877,587.146 L284.107,587.204 L284.107,587.204 C285.711,587.609 288.306,586.056 289.904,583.735 C291.502,581.413 291.498,579.202 289.894,578.796 L289.689,578.745 L289.191,578.615 L288.598,578.457 L287.915,578.271 L287.153,578.061 L286.317,577.826 L285.414,577.57 L284.454,577.294 L283.43,577.013 L282.358,576.72 L281.248,576.413 L280.095,576.111 L278.311,575.652 L275.878,575.021 L273.439,574.378 L271.043,573.741 L269.316,573.265 L268.214,572.954 L267.152,572.656 L266.147,572.361 L265.207,572.073 L264.338,571.791 L263.544,571.529 L262.841,571.278 L262.239,571.041 L261.791,570.783 L261.486,570.556 L261.33,570.338 L261.249,570.187 L261.484,570.589 L261.561,570.941 L261.582,570.957 L261.619,570.785 L261.681,570.487 L261.763,570.081 L261.835,569.596 L261.899,569.033 L261.974,568.388 L262.055,567.665 L262.124,566.879 L262.2,566.021 L262.285,565.094 L262.376,564.101 L262.474,563.046 L262.578,561.931 L262.683,560.762 L262.78,559.547 L262.882,558.281 L262.988,556.967 L263.098,555.608 L263.211,554.208 L263.329,552.768 L263.486,550.555 L263.653,547.523 L263.825,544.388 L264.001,541.172 L264.174,537.9 L264.426,532.936 L264.672,527.968 L264.829,524.691 L264.979,521.468 L265.12,518.321 L265.25,515.274 L265.339,513.068 L265.394,511.638 L265.445,510.246 L265.492,508.893 L265.536,507.582 L265.575,506.318 L265.609,505.101 L265.638,503.935 L265.663,502.821 L265.682,501.763 L265.696,500.762 L265.704,499.822 L265.705,498.944 L265.701,498.129 L265.689,497.379 L265.671,496.693 L265.643,496.07 L265.608,495.528 L265.59,495.315 L265.59,495.315 C265.589,495.309 265.589,495.303 265.588,495.297 L265.588,495.297 L264.473,483.44 L262.265,459.682 L260.548,441.847 L259.335,429.954 L258.045,418.068 L256.657,406.194 L255.54,397.301 L254.753,391.376 L253.931,385.456 L253.07,379.542 L252.168,373.636 L251.222,367.736 L250.23,361.844 L249.19,355.961 L248.098,350.088 L246.952,344.224 L245.75,338.371 L244.488,332.529 L243.166,326.7 L241.779,320.882 L240.318,315.084 L238.74,309.344 L237.844,306.55 C237.419,304.993 235.353,305.051 233.23,306.681 C231.107,308.31 229.731,310.893 230.156,312.45 L230.156,312.45" fill="#000000"/>
    <path d="M473.76,258.181 L473.661,256.726 L473.216,254.156 L472.828,251.645 L472.54,249.12 L472.338,246.578 L472.206,244.018 L472.133,241.441 L472.103,238.844 L472.1,237.547 L472.095,237.726 L472.1,237.629 L472.093,237.803 L472.119,237.741 L472.222,237.263 L472.314,236.521 L472.223,235.578 L471.734,234.722 L471.033,234.326 L470.515,234.238 L470.515,234.238 C470.407,234.231 470.295,234.231 470.179,234.238 L470.179,234.238 L469.949,234.252 L468.916,234.444 L467.64,234.908 L466.418,235.555 L465.328,236.278 L464.387,237 L463.27,237.952 L462.032,239.063 L461.334,239.667 L461.059,239.879 L460.856,240.013 L460.773,240.04 L460.805,239.988 L460.91,239.901 L461.132,239.818 L461.323,239.78 L460.714,239.886 L459.57,240.054 L457.832,240.247 L455.462,240.412 L453.048,240.499 L450.583,240.537 L448.083,240.556 L445.555,240.589 L443.006,240.668 L441.703,240.736 L441.703,240.736 C441.688,240.737 441.673,240.738 441.658,240.739 L441.658,240.739 L440.598,240.812 L438.426,240.997 L436.243,241.231 L434.065,241.509 L431.894,241.828 L429.73,242.183 L426.508,242.777 L422.226,243.666 L417.956,244.646 L411.606,246.218 L403.191,248.38 L396.925,249.935 L392.78,250.889 L388.632,251.756 L385.535,252.33 L383.477,252.672 L381.404,252.981 L379.33,253.252 L377.254,253.481 L375.173,253.666 L374.148,253.74 L374.148,253.74 L373.009,253.822 L370.691,254.022 L368.373,254.264 L366.068,254.541 L362.643,255.009 L358.107,255.705 L353.599,256.444 L349.121,257.182 L344.662,257.878 L341.332,258.348 L339.118,258.626 L338.016,258.752 L338.049,258.749 L335.371,259.028 L330.056,259.487 L324.729,259.851 L319.375,260.156 L314.001,260.437 L308.611,260.729 L303.211,261.068 L297.805,261.49 L295.083,261.745 L295.083,261.745 C295.074,261.746 295.064,261.747 295.055,261.748 L295.055,261.748 L290.021,262.263 L279.916,263.346 L269.802,264.447 L259.689,265.507 L252.113,266.24 L247.069,266.686 L242.022,267.09 L236.979,267.444 L231.939,267.741 L226.902,267.975 L221.869,268.137 L216.841,268.222 L214.34,268.232 L214.362,268.232 L214.08,268.231 L213.494,268.221 L212.844,268.2 L212.127,268.171 L211.351,268.133 L210.523,268.088 L209.649,268.036 L208.736,267.978 L207.302,267.883 L205.31,267.744 L203.262,267.598 L201.203,267.453 L199.174,267.314 L197.22,267.19 L195.825,267.111 L194.937,267.066 L194.093,267.028 L193.294,267 L192.545,266.981 L191.848,266.972 L191.204,266.975 L190.614,266.991 L190.067,267.024 L189.542,267.08 L188.962,267.185 L188.033,267.479 L186.304,268.469 L186.304,268.469 C185.713,268.909 185.151,269.441 184.659,270.027 L184.659,270.027 L184.6,270.096 L183.332,272.057 L182.789,273.683 L182.708,274.61 L182.758,275.256 L182.86,275.791 L182.994,276.281 L183.155,276.756 L183.338,277.23 L183.543,277.709 L183.883,278.432 L184.395,279.428 L184.962,280.449 L185.561,281.47 L186.173,282.474 L186.782,283.439 L187.369,284.345 L187.783,284.974 L188.042,285.364 L188.284,285.724 L188.507,286.055 L188.708,286.353 L188.885,286.614 L189.036,286.836 L189.157,287.015 L189.204,287.086 L189.181,287.05 L189.343,287.308 L189.563,287.734 L189.722,288.139 L189.85,288.559 L190.007,289.261 L190.155,290.264 L190.285,291.361 L190.461,292.582 L190.67,293.586 L190.872,294.294 L191.127,294.976 L191.448,295.647 L191.657,296.01 L191.657,296.01 C191.663,296.021 191.67,296.032 191.676,296.042 L191.676,296.042 L192.463,297.31 L193.976,299.804 L195.414,302.258 L196.778,304.687 L198.071,307.099 L199.292,309.505 L200.442,311.915 L201.521,314.337 L202.53,316.782 L203.47,319.261 L204.341,321.783 L205.145,324.358 L205.881,326.997 L206.387,329.016 L206.704,330.386 L207.006,331.784 L207.291,333.206 L207.56,334.652 L207.813,336.124 L207.932,336.862 L207.932,336.862 C207.932,336.863 207.933,336.865 207.933,336.867 L207.933,336.867 L208.156,338.237 L208.646,341.004 L209.184,343.764 L209.765,346.511 L210.385,349.244 L211.04,351.966 L212.079,356.021 L213.551,361.402 L215.096,366.757 L216.68,372.093 L218.273,377.416 L219.845,382.733 L221.365,388.054 L222.803,393.384 L223.808,397.388 L224.436,400.059 L225.028,402.743 L225.579,405.434 L226.086,408.133 L226.544,410.84 L226.949,413.556 L227.299,416.282 L227.59,419.019 L227.818,421.766 L227.906,423.128 L227.904,423.099 L227.982,424.547 L228.095,427.407 L228.159,430.262 L228.182,433.126 L228.155,437.443 L228.04,443.221 L227.889,449.023 L227.758,454.854 L227.705,460.711 L227.752,465.126 L227.839,468.082 L227.903,469.569 L227.903,469.569 C227.903,469.575 227.903,469.581 227.904,469.587 L227.904,469.587 L228.048,472.534 L228.349,478.456 L228.643,484.391 L228.903,490.325 L229.1,496.252 L229.207,502.165 L229.212,506.576 L229.173,509.502 L229.097,512.427 L228.979,515.343 L228.905,516.784 L228.907,516.737 L228.877,517.199 L228.791,518.092 L228.669,519.05 L228.51,520.1 L228.317,521.233 L228.093,522.441 L227.839,523.716 L227.559,525.05 L227.257,526.435 L226.934,527.866 L226.42,530.089 L225.697,533.144 L224.954,536.261 L224.214,539.398 L223.676,541.74 L223.331,543.288 L223.002,544.81 L222.692,546.307 L222.403,547.772 L222.139,549.2 L221.903,550.587 L221.699,551.929 L221.529,553.22 L221.398,554.456 L221.31,555.635 L221.27,556.754 L221.283,557.808 L221.333,558.58 L221.391,559.085 L221.43,559.346 L221.43,559.346 C221.434,559.372 221.438,559.397 221.443,559.422 L221.443,559.422 L221.481,559.627 L221.614,560.166 L221.797,560.718 L222.018,561.239 L222.273,561.734 L222.56,562.206 L223.033,562.857 L223.763,563.676 L224.605,564.45 L225.537,565.168 L226.55,565.836 L227.638,566.459 L228.792,567.038 L230.005,567.576 L231.27,568.073 L232.58,568.53 L233.928,568.947 L235.305,569.325 L236.705,569.664 L238.12,569.963 L239.544,570.223 L240.967,570.442 L242.385,570.621 L243.788,570.759 L245.172,570.855 L246.529,570.91 L247.854,570.921 L249.141,570.887 L250.389,570.808 L251.595,570.679 L252.761,570.496 L253.898,570.25 L255.054,569.835 L255.99,569.419 L256.675,569.071 L257.333,568.666 L258.029,568.178 L258.52,567.809 L258.52,567.809 C260.54,566.359 261.945,563.925 261.658,562.374 C261.37,560.822 259.5,560.74 257.48,562.191 C257.48,562.191 257.48,562.191 257.48,562.191 L257.708,562.01 L257.835,561.883 L257.868,561.816 L257.874,561.783 L257.695,561.798 L257.194,561.88 L256.496,562.042 L255.664,562.179 L254.725,562.285 L253.697,562.355 L252.594,562.386 L251.432,562.379 L250.219,562.332 L248.967,562.247 L247.685,562.123 L246.384,561.96 L245.072,561.759 L243.759,561.521 L242.452,561.247 L241.163,560.937 L239.898,560.591 L238.667,560.212 L237.478,559.8 L236.341,559.357 L235.264,558.883 L234.256,558.382 L233.328,557.857 L232.485,557.309 L231.738,556.745 L231.095,556.171 L230.549,555.578 L230.212,555.128 L230.033,554.846 L229.884,554.572 L229.764,554.31 L229.672,554.062 L229.597,553.786 L229.557,553.577 L229.57,553.654 L229.553,553.551 L229.519,553.29 L229.481,552.825 L229.465,552.071 L229.492,551.21 L229.56,550.251 L229.669,549.203 L229.816,548.073 L229.998,546.871 L230.213,545.602 L230.458,544.275 L230.729,542.896 L231.024,541.472 L231.34,540.008 L231.672,538.518 L232.198,536.229 L232.931,533.116 L233.678,529.983 L234.413,526.882 L234.939,524.605 L235.274,523.116 L235.592,521.657 L235.89,520.234 L236.164,518.853 L236.412,517.517 L236.63,516.229 L236.814,514.994 L236.96,513.814 L237.062,512.727 L237.093,512.262 L237.093,512.262 C237.094,512.247 237.095,512.231 237.095,512.216 L237.095,512.216 L237.173,510.701 L237.294,507.697 L237.372,504.691 L237.412,501.678 L237.406,497.167 L237.297,491.169 L237.097,485.184 L236.836,479.217 L236.541,473.276 L236.241,467.364 L236.096,464.413 L236.097,464.431 L236.036,463.019 L235.951,460.172 L235.904,455.874 L235.956,450.1 L236.087,444.29 L236.239,438.45 L236.354,432.59 L236.381,428.185 L236.357,425.239 L236.29,422.289 L236.174,419.35 L236.096,417.9 L236.096,417.9 C236.095,417.891 236.095,417.881 236.094,417.872 L236.094,417.872 L235.999,416.415 L235.76,413.55 L235.457,410.707 L235.093,407.884 L234.674,405.08 L234.202,402.294 L233.682,399.525 L233.117,396.771 L232.512,394.031 L231.869,391.298 L230.846,387.227 L229.392,381.84 L227.863,376.485 L226.287,371.154 L224.696,365.84 L223.121,360.534 L221.591,355.229 L220.135,349.914 L219.111,345.915 L218.468,343.247 L217.861,340.574 L217.294,337.896 L216.77,335.21 L216.291,332.507 L216.067,331.133 L216.068,331.138 L215.941,330.354 L215.678,328.82 L215.397,327.313 L215.098,325.83 L214.783,324.372 L214.449,322.928 L213.915,320.805 L213.145,318.053 L212.306,315.37 L211.398,312.747 L210.421,310.174 L209.374,307.641 L208.259,305.139 L207.074,302.659 L205.82,300.189 L204.496,297.721 L203.104,295.244 L201.642,292.748 L200.112,290.227 L199.324,288.957 L199.343,288.989 L199.249,288.838 L199.052,288.454 L198.891,288.049 L198.765,287.642 L198.608,286.935 L198.448,285.827 L198.296,284.573 L198.085,283.243 L197.843,282.23 L197.613,281.531 L197.322,280.844 L196.982,280.209 L196.819,279.95 L196.819,279.95 C196.812,279.938 196.804,279.926 196.796,279.914 L196.796,279.914 L196.743,279.835 L196.619,279.651 L196.468,279.428 L196.292,279.169 L196.094,278.876 L195.876,278.553 L195.639,278.2 L195.388,277.822 L194.987,277.214 L194.42,276.337 L193.834,275.409 L193.249,274.453 L192.687,273.495 L192.167,272.561 L191.707,271.672 L191.414,271.053 L191.254,270.683 L191.122,270.351 L191.023,270.07 L190.957,269.856 L190.923,269.748 L190.907,269.816 L190.834,270.236 L190.377,271.432 L189.281,273.044 L189.342,272.973 L187.696,274.53 L186.081,275.436 L185.526,275.585 L185.506,275.576 L185.716,275.547 L186.069,275.524 L186.531,275.509 L187.082,275.506 L187.711,275.514 L188.408,275.531 L189.167,275.558 L189.979,275.594 L190.836,275.637 L192.2,275.715 L194.131,275.837 L196.148,275.975 L198.206,276.121 L200.26,276.267 L202.268,276.407 L203.717,276.503 L204.648,276.562 L205.545,276.615 L206.403,276.662 L207.217,276.701 L207.983,276.733 L208.7,276.754 L209.352,276.766 L209.638,276.767 L209.638,276.767 C209.645,276.767 209.653,276.767 209.66,276.767 L209.66,276.767 L212.229,276.756 L217.343,276.669 L222.455,276.504 L227.564,276.266 L232.67,275.965 L237.773,275.606 L242.869,275.198 L247.965,274.748 L255.591,274.009 L265.729,272.947 L275.832,271.847 L285.907,270.767 L290.945,270.252 L290.917,270.254 L293.543,270.007 L298.859,269.592 L304.209,269.256 L309.587,268.964 L314.989,268.682 L320.41,268.372 L325.845,268 L331.27,267.531 L333.951,267.251 L333.951,267.251 C333.962,267.25 333.973,267.249 333.984,267.247 L333.984,267.247 L335.153,267.113 L337.467,266.821 L340.899,266.337 L345.417,265.631 L349.889,264.894 L354.325,264.166 L358.75,263.487 L362.068,263.033 L364.274,262.767 L366.483,262.535 L368.71,262.342 L369.852,262.26 L369.852,262.26 C369.852,262.26 369.852,262.26 369.852,262.26 L369.852,262.26 L370.979,262.178 L373.192,261.979 L375.398,261.735 L377.595,261.447 L379.783,261.12 L381.975,260.754 L385.238,260.147 L389.542,259.246 L393.822,258.259 L400.156,256.688 L408.5,254.544 L414.713,253.004 L418.824,252.059 L422.937,251.202 L426.022,250.633 L428.069,250.296 L430.115,249.995 L432.162,249.732 L434.21,249.511 L436.279,249.333 L437.342,249.26 L437.297,249.263 L438.474,249.2 L440.921,249.123 L443.422,249.091 L445.966,249.071 L448.545,249.03 L451.158,248.933 L453.78,248.744 L455.754,248.521 L457.065,248.325 L457.677,248.219 L457.677,248.219 C457.74,248.209 457.804,248.196 457.868,248.181 L457.868,248.181 L458.651,247.971 L459.878,247.489 L461.033,246.875 L462.072,246.203 L462.987,245.526 L463.824,244.844 L464.781,244.012 L465.711,243.171 L466.182,242.753 L466.278,242.657 L466.206,242.672 L465.979,242.747 L465.675,242.802 L465.589,242.776 L465.821,242.762 L465.485,242.762 L465.055,242.679 L464.497,242.328 L464.148,241.613 L464.13,240.973 L464.193,240.633 L464.145,240.87 L463.993,241.549 L463.911,242.173 L463.905,242.273 L463.905,242.273 C463.902,242.334 463.9,242.394 463.9,242.452 L463.9,242.452 L463.904,243.805 L463.936,246.499 L464.014,249.204 L464.156,251.914 L464.375,254.628 L464.688,257.343 L465.111,260.052 L465.715,262.682 L466.241,263.819 C466.613,265.367 468.599,265.36 470.675,263.803 C472.752,262.246 474.133,259.729 473.76,258.181 L473.76,258.181" fill="#000000"/>
  </g>
</svg>
