<?xml version="1.0" encoding="UTF-8"?>
<!DOCTYPE svg PUBLIC "-//W3C//DTD SVG 1.1//EN" "http://www.w3.org/Graphics/SVG/1.1/DTD/svg11.dtd">
<svg version="1.1" xmlns="http://www.w3.org/2000/svg" xmlns:xlink="http://www.w3.org/1999/xlink" x="0" y="0" width="1000" height="1000" viewBox="0, 0, 1000, 1000">
  <g id="Background">
    <rect x="0" y="0" width="1000" height="1000" fill="#FFFFFF"/>
  </g>
  <g id="Layer_1">
    <path d="M325.142,386.442 L325.327,387.156 L325.657,388.579 L325.949,390.017 L326.206,391.479 L326.532,392.883 L326.904,394.247 L327.251,395.633 L327.572,397.037 L328.011,399.183 L328.519,402.089 L328.954,405.023 L329.384,407.941 L329.76,410.872 L330.091,413.801 L330.389,416.714 L330.664,419.594 L330.928,422.429 L331.19,425.202 L331.464,427.899 L331.683,429.867 L331.839,431.152 L331.921,431.788 L331.921,431.788 L332.288,434.645 L332.971,440.381 L333.59,446.16 L334.145,451.987 L334.637,457.86 L335.068,463.772 L335.436,469.722 L335.743,475.704 L335.99,481.717 L336.176,487.754 L336.302,493.814 L336.368,499.892 L336.376,505.984 L336.326,512.086 L336.217,518.196 L336.051,524.31 L335.828,530.422 L335.549,536.531 L335.213,542.631 L334.822,548.72 L334.377,554.792 L333.876,560.846 L333.322,566.877 L332.714,572.881 L332.054,578.855 L331.341,584.793 L330.576,590.694 L329.759,596.553 L328.892,602.366 L327.974,608.13 L327.007,613.84 L325.99,619.493 L325.466,622.286 L325.472,622.253 L325.449,622.367 L325.405,622.577 L325.347,622.837 L325.272,623.158 L325.181,623.535 L325.077,623.961 L324.96,624.433 L324.831,624.949 L324.689,625.505 L324.537,626.099 L324.375,626.73 L324.203,627.395 L323.927,628.455 L323.532,629.971 L323.108,631.592 L322.66,633.305 L322.192,635.097 L321.708,636.954 L320.964,639.833 L319.957,643.778 L318.964,647.754 L318.248,650.696 L317.792,652.616 L317.36,654.483 L316.955,656.287 L316.58,658.017 L316.24,659.662 L316.009,660.839 L315.867,661.596 L315.738,662.319 L315.62,663.014 L315.514,663.68 L315.421,664.316 L315.341,664.923 L315.275,665.501 L315.223,666.049 L315.188,666.569 L315.169,667.063 L315.171,667.536 L315.197,667.993 L315.256,668.443 L315.366,668.898 L315.564,669.367 L315.793,669.705 L315.793,669.705 C315.833,669.753 315.875,669.798 315.92,669.84 L315.92,669.84 L316.062,669.973 L316.499,670.317 L317.019,670.647 L317.586,670.942 L318.197,671.209 L318.854,671.453 L319.556,671.68 L320.303,671.889 L321.093,672.085 L321.927,672.267 L322.802,672.438 L323.718,672.597 L324.674,672.746 L325.668,672.885 L326.697,673.015 L327.761,673.136 L328.859,673.249 L329.988,673.354 L331.731,673.496 L334.151,673.661 L336.669,673.8 L339.264,673.916 L341.921,674.011 L344.626,674.087 L347.361,674.146 L351.487,674.209 L355.6,674.248 L358.308,674.264 L360.967,674.275 L363.563,674.284 L366.08,674.292 L368.503,674.301 L370.814,674.314 L372.998,674.334 L374.54,674.354 L375.519,674.37 L376.458,674.389 L377.354,674.412 L378.203,674.437 L379.004,674.466 L379.755,674.499 L380.452,674.535 L381.093,674.576 L381.675,674.62 L382.194,674.669 L382.646,674.721 L382.83,674.747 L382.824,674.746 L384.172,674.932 L386.902,675.275 L389.641,675.575 L392.383,675.831 L395.125,676.047 L397.868,676.224 L401.977,676.421 L407.46,676.57 L412.951,676.604 L418.44,676.539 L423.925,676.393 L429.405,676.182 L434.88,675.925 L443.074,675.487 L453.973,674.896 L462.118,674.521 L467.525,674.334 L470.217,674.266 L470.199,674.267 L471.752,674.239 L474.83,674.213 L479.44,674.238 L485.586,674.353 L491.739,674.511 L497.913,674.657 L504.114,674.736 L508.796,674.716 L511.937,674.652 L515.082,674.539 L518.241,674.37 L519.84,674.261 L519.84,674.261 C519.85,674.26 519.859,674.259 519.869,674.259 L519.869,674.259 L521.977,674.096 L526.231,673.719 L530.494,673.277 L534.755,672.772 L539.013,672.205 L543.267,671.576 L547.515,670.885 L551.758,670.135 L555.993,669.324 L560.22,668.454 L564.439,667.526 L568.647,666.54 L572.845,665.497 L577.032,664.397 L581.204,663.241 L585.364,662.031 L589.509,660.765 L593.639,659.446 L597.752,658.074 L601.848,656.649 L605.925,655.172 L609.984,653.644 L614.021,652.066 L618.038,650.437 L622.033,648.759 L626.005,647.033 L629.953,645.258 L633.876,643.436 L637.773,641.567 L641.644,639.653 L645.488,637.683 L649.368,634.967 L651.294,633.659 L651.294,633.659 C652.936,632.777 654.36,630.87 654.474,629.401 C654.588,627.932 653.349,627.458 651.706,628.34 C651.706,628.34 651.706,628.34 651.706,628.34 L649.915,629.032 L646.314,630.25 L642.618,632.128 L638.89,633.973 L635.133,635.776 L631.348,637.534 L627.535,639.249 L623.697,640.919 L619.833,642.543 L615.945,644.12 L612.033,645.65 L608.1,647.132 L604.144,648.565 L600.169,649.949 L596.174,651.283 L592.161,652.565 L588.131,653.797 L584.084,654.975 L580.021,656.101 L575.945,657.173 L571.855,658.19 L567.752,659.152 L563.638,660.058 L559.513,660.908 L555.379,661.7 L551.236,662.434 L547.086,663.109 L542.929,663.724 L538.766,664.28 L534.599,664.774 L530.428,665.207 L526.243,665.578 L524.131,665.741 L524.16,665.739 L522.646,665.843 L519.588,666.008 L516.529,666.119 L513.475,666.182 L508.883,666.202 L502.737,666.124 L496.574,665.978 L490.385,665.819 L484.169,665.703 L479.487,665.679 L476.357,665.705 L474.801,665.733 L474.801,665.733 C474.795,665.733 474.789,665.733 474.783,665.733 L474.783,665.733 L472.039,665.803 L466.566,665.992 L458.376,666.369 L447.48,666.96 L439.322,667.396 L433.898,667.652 L428.483,667.86 L423.078,668.005 L417.685,668.069 L412.302,668.038 L406.923,667.893 L402.894,667.699 L400.216,667.527 L397.542,667.317 L394.871,667.068 L392.202,666.777 L389.528,666.441 L388.176,666.254 L388.176,666.254 C388.174,666.254 388.172,666.254 388.17,666.253 L388.17,666.253 L387.899,666.217 L387.352,666.155 L386.756,666.1 L386.111,666.051 L385.419,666.007 L384.678,665.969 L383.891,665.935 L383.058,665.905 L382.183,665.878 L381.266,665.856 L380.308,665.836 L379.31,665.82 L377.747,665.799 L375.546,665.78 L373.225,665.766 L370.799,665.757 L368.282,665.749 L365.691,665.741 L363.042,665.73 L360.352,665.713 L356.269,665.675 L352.176,665.612 L349.472,665.554 L346.806,665.479 L344.193,665.387 L341.65,665.273 L339.194,665.138 L336.836,664.977 L335.143,664.839 L334.059,664.739 L333.01,664.632 L331.999,664.517 L331.028,664.395 L330.099,664.266 L329.216,664.128 L328.379,663.983 L327.592,663.831 L326.858,663.672 L326.178,663.506 L325.558,663.334 L325,663.157 L324.506,662.978 L324.082,662.799 L323.731,662.625 L323.456,662.464 L323.224,662.294 L323.079,662.159 L323.207,662.295 L323.349,662.527 L323.4,662.706 L323.399,662.766 L323.384,662.722 L323.37,662.589 L323.365,662.378 L323.373,662.097 L323.394,661.756 L323.43,661.359 L323.48,660.911 L323.545,660.415 L323.624,659.874 L323.715,659.294 L323.82,658.673 L323.937,658.017 L324.065,657.334 L324.278,656.245 L324.6,654.684 L324.96,653.023 L325.352,651.277 L325.773,649.461 L326.216,647.592 L326.918,644.706 L327.898,640.78 L328.897,636.865 L329.638,634.001 L330.12,632.151 L330.587,630.363 L331.035,628.65 L331.46,627.024 L331.858,625.499 L332.136,624.429 L332.311,623.752 L332.477,623.106 L332.634,622.494 L332.781,621.916 L332.917,621.373 L333.043,620.866 L333.158,620.395 L333.262,619.96 L333.355,619.559 L333.437,619.189 L333.505,618.864 L333.528,618.747 L333.528,618.747 C333.53,618.736 333.532,618.725 333.534,618.714 L333.534,618.714 L334.071,615.857 L335.102,610.12 L336.083,604.33 L337.012,598.489 L337.89,592.601 L338.717,586.67 L339.49,580.698 L340.212,574.69 L340.879,568.65 L341.493,562.581 L342.053,556.485 L342.558,550.369 L343.009,544.233 L343.403,538.084 L343.741,531.923 L344.023,525.756 L344.248,519.584 L344.415,513.413 L344.525,507.245 L344.576,501.084 L344.568,494.935 L344.5,488.801 L344.372,482.685 L344.184,476.589 L343.935,470.521 L343.625,464.481 L343.253,458.475 L342.818,452.504 L342.32,446.575 L341.759,440.689 L341.134,434.85 L340.446,429.072 L340.079,426.211 L340.079,426.211 C339.849,424.428 337.837,424.23 335.584,425.769 C333.332,427.309 331.692,430.004 331.921,431.788 C332.151,433.572 334.163,433.77 336.416,432.231 C338.668,430.691 340.308,427.996 340.079,426.212 L340.079,426.212 L340.001,425.61 L339.851,424.375 L339.636,422.456 L339.366,419.792 L339.104,417.028 L338.84,414.181 L338.561,411.266 L338.258,408.3 L337.917,405.299 L337.529,402.277 L337.082,399.253 L336.501,396.284 L335.835,393.358 L335.276,391.195 L334.871,389.765 L334.438,388.351 L333.977,386.955 L333.41,385.641 L332.716,384.431 L331.991,383.249 L331.24,382.105 L330.858,381.558 C330.381,380.496 328.715,380.729 327.136,382.078 C325.558,383.426 324.665,385.38 325.142,386.442 L325.142,386.442" fill="#000000"/>
    <path d="M331.269,383.231 L333.266,383.424 L337.275,383.783 L343.299,384.238 L351.34,384.707 L359.39,385.022 L367.454,385.168 L375.516,385.175 L383.601,385.001 L391.691,384.678 L399.774,384.23 L407.852,383.658 L415.921,382.968 L423.981,382.163 L432.034,381.247 L440.076,380.223 L448.108,379.096 L456.128,377.869 L464.136,376.546 L472.132,375.131 L480.112,373.628 L488.08,372.04 L496.032,370.371 L503.968,368.625 L511.888,366.806 L519.79,364.918 L527.675,362.964 L535.541,360.948 L543.386,358.875 L551.212,356.747 L559.016,354.57 L566.799,352.345 L574.559,350.078 L582.296,347.772 L586.161,346.604 L586.161,346.604 C586.173,346.6 586.184,346.597 586.195,346.593 L586.195,346.593 L586.342,346.548 L586.744,346.417 L587.194,346.263 L587.673,346.093 L588.183,345.906 L588.728,345.703 L589.307,345.483 L589.92,345.248 L590.567,344.997 L591.247,344.731 L591.958,344.451 L592.701,344.158 L593.473,343.851 L594.273,343.532 L595.521,343.033 L597.272,342.331 L599.11,341.594 L601.021,340.828 L602.994,340.04 L605.015,339.236 L607.072,338.422 L610.202,337.197 L613.339,335.979 L615.411,335.177 L617.459,334.397 L619.466,333.647 L621.416,332.934 L623.296,332.266 L625.097,331.638 L626.378,331.201 L627.194,330.931 L627.989,330.676 L628.753,330.437 L629.482,330.218 L630.176,330.019 L630.832,329.839 L631.448,329.681 L632.02,329.545 L632.546,329.432 L633.024,329.339 L633.45,329.267 L633.819,329.219 L634.126,329.193 L634.366,329.188 L634.533,329.198 L634.622,329.217 L634.628,329.23 L634.533,329.194 L633.949,328.583 L633.955,328.594 L633.81,328.118 L633.806,328.077 L633.812,328.214 L633.809,328.455 L633.798,328.776 L633.782,329.166 L633.759,329.622 L633.732,330.137 L633.698,330.709 L633.66,331.336 L633.618,332.013 L633.572,332.741 L633.521,333.515 L633.467,334.333 L633.409,335.193 L633.317,336.559 L633.206,338.491 L633.103,340.541 L633.032,342.678 L632.958,344.905 L632.88,347.205 L632.76,350.756 L632.597,355.588 L632.475,359.209 L632.397,361.591 L632.32,363.926 L632.248,366.197 L632.179,368.388 L632.116,370.48 L632.059,372.458 L632.02,373.857 L631.997,374.746 L631.975,375.596 L631.956,376.405 L631.938,377.172 L631.923,377.896 L631.91,378.573 L631.9,379.202 L631.892,379.782 L631.887,380.31 L631.885,380.786 L631.885,381.209 L631.889,381.578 L631.897,381.898 L631.902,382.057 L631.902,382.057 C631.903,382.069 631.903,382.08 631.904,382.091 L631.904,382.091 L632.038,384.74 L632.388,390.075 L632.832,395.41 L633.358,400.733 L633.951,406.044 L634.599,411.346 L635.644,419.279 L637.106,429.839 L638.552,440.382 L639.562,448.277 L640.175,453.532 L640.727,458.79 L641.203,464.047 L641.409,466.664 L641.407,466.645 L641.545,468.588 L641.781,472.453 L641.97,476.31 L642.116,480.169 L642.259,485.97 L642.325,493.707 L642.271,501.446 L642.122,509.194 L641.77,520.841 L641.193,536.389 L640.785,548.073 L640.572,555.878 L640.433,563.687 L640.396,571.503 L640.448,577.375 L640.527,581.294 L640.646,585.207 L640.806,589.122 L640.904,591.088 L640.904,591.088 C640.904,591.098 640.905,591.109 640.905,591.119 L640.905,591.119 L640.974,592.236 L641.166,594.531 L641.421,596.829 L641.727,599.108 L642.252,602.488 L643.028,606.959 L643.81,611.391 L644.35,614.681 L644.666,616.853 L644.939,619.019 L645.157,621.174 L645.311,623.317 L645.391,625.445 L645.4,626.476 L645.4,626.476 C645.419,628.395 647.27,628.843 649.534,627.476 C651.799,626.109 653.619,623.444 653.6,621.524 C653.6,621.524 653.6,621.524 653.6,621.524 L653.587,620.333 L653.496,618.022 L653.33,615.731 L653.098,613.457 L652.813,611.197 L652.484,608.945 L651.935,605.6 L651.155,601.181 L650.392,596.789 L649.881,593.507 L649.589,591.336 L649.347,589.175 L649.163,587.002 L649.095,585.881 L649.096,585.912 L649.001,583.995 L648.842,580.141 L648.725,576.284 L648.647,572.431 L648.595,566.641 L648.632,558.904 L648.769,551.154 L648.981,543.396 L649.388,531.728 L649.967,516.134 L650.32,504.421 L650.471,496.597 L650.525,488.766 L650.457,480.935 L650.311,475.061 L650.163,471.139 L649.97,467.216 L649.731,463.301 L649.593,461.355 L649.593,461.355 C649.592,461.349 649.592,461.343 649.591,461.336 L649.591,461.336 L649.381,458.656 L648.898,453.33 L648.34,448.014 L647.72,442.705 L646.704,434.768 L645.258,424.218 L643.799,413.69 L642.76,405.801 L642.118,400.551 L641.532,395.302 L641.013,390.058 L640.576,384.815 L640.231,379.56 L640.096,376.909 L640.098,376.943 L640.094,376.868 L640.088,376.625 L640.085,376.308 L640.084,375.923 L640.086,375.477 L640.091,374.971 L640.099,374.411 L640.109,373.796 L640.121,373.131 L640.136,372.42 L640.153,371.661 L640.172,370.859 L640.194,370.016 L640.217,369.135 L640.256,367.745 L640.313,365.775 L640.376,363.688 L640.444,361.503 L640.516,359.235 L640.593,356.904 L640.671,354.525 L640.792,350.906 L640.956,346.074 L641.076,342.521 L641.154,340.219 L641.228,337.989 L641.299,335.849 L641.327,333.837 L641.337,331.956 L641.326,330.646 L641.319,329.818 L641.312,329.03 L641.304,328.283 L641.296,327.58 L641.289,326.921 L641.281,326.31 L641.273,325.748 L641.266,325.235 L641.258,324.775 L641.252,324.365 L641.245,324.006 L641.241,323.69 L641.24,323.401 L641.222,323.065 L641.057,322.431 L641.051,322.417 L641.051,322.417 C640.922,322.148 640.724,321.942 640.467,321.806 L640.467,321.806 L640.171,321.665 L639.699,321.51 L639.208,321.417 L638.699,321.371 L638.168,321.361 L637.613,321.382 L637.034,321.43 L636.425,321.502 L635.788,321.6 L635.121,321.722 L634.425,321.864 L633.701,322.025 L632.948,322.205 L632.169,322.402 L631.362,322.617 L630.531,322.847 L629.675,323.092 L628.788,323.355 L627.423,323.774 L625.541,324.381 L623.587,325.045 L621.575,325.748 L619.517,326.484 L617.426,327.248 L615.308,328.034 L612.122,329.253 L608.958,330.491 L606.879,331.313 L604.842,332.124 L602.859,332.916 L600.944,333.684 L599.109,334.42 L597.366,335.118 L596.129,335.613 L595.341,335.927 L594.583,336.228 L593.859,336.514 L593.171,336.786 L592.519,337.041 L591.906,337.278 L591.334,337.498 L590.808,337.698 L590.328,337.877 L589.9,338.034 L589.527,338.167 L589.218,338.274 L588.954,338.36 L588.805,338.407 L588.839,338.396 L585.007,339.554 L577.318,341.846 L569.608,344.099 L561.879,346.308 L554.131,348.471 L546.365,350.582 L538.581,352.64 L530.78,354.639 L522.964,356.576 L515.13,358.448 L507.283,360.251 L499.42,361.981 L491.544,363.634 L483.654,365.207 L475.752,366.696 L467.838,368.097 L459.913,369.407 L451.977,370.622 L444.03,371.738 L436.075,372.751 L428.11,373.658 L420.137,374.455 L412.156,375.138 L404.169,375.703 L396.175,376.148 L388.175,376.468 L380.16,376.677 L372.113,376.802 L364.061,376.79 L355.987,376.668 L347.899,376.41 L341.825,376.126 L337.768,375.898 L335.731,375.769 C334.177,375.646 331.919,377.216 330.687,379.276 C329.455,381.337 329.715,383.107 331.269,383.231 L331.269,383.231" fill="#000000"/>
    <path d="M286.377,356.743 L288.348,356.929 L292.311,357.242 L296.276,357.489 L300.238,357.664 L304.199,357.769 L308.151,357.819 L312.102,357.806 L316.049,357.736 L319.993,357.612 L323.935,357.432 L327.877,357.199 L331.821,356.91 L335.773,356.553 L339.724,356.149 L345.696,355.345 L353.646,354.159 L361.583,352.868 L369.499,351.499 L377.394,350.077 L389.197,347.902 L400.96,345.754 L408.771,344.381 L412.663,343.722 L412.643,343.725 L414.154,343.479 L417.147,343.018 L421.644,342.388 L427.658,341.637 L433.688,340.955 L439.74,340.303 L445.81,339.647 L451.897,338.948 L457.997,338.17 L461.068,337.737 L461.068,337.737 C461.082,337.735 461.096,337.733 461.11,337.731 L461.11,337.731 L462.626,337.498 L465.717,336.963 L468.814,336.35 L471.892,335.672 L474.95,334.938 L477.991,334.156 L482.507,332.915 L488.485,331.168 L494.418,329.376 L500.303,327.607 L504.683,326.335 L507.585,325.529 L509.026,325.142 L508.986,325.153 L510.203,324.839 L512.571,324.278 L514.937,323.774 L517.326,323.314 L520.961,322.687 L525.851,321.94 L530.783,321.237 L535.756,320.515 L539.514,319.92 L542.037,319.482 L544.557,319.003 L547.083,318.473 L548.37,318.181 L548.37,318.181 C548.39,318.176 548.41,318.172 548.431,318.167 L548.431,318.167 L549.836,317.825 L552.72,317.044 L555.588,316.167 L558.406,315.216 L561.175,314.204 L563.898,313.143 L566.58,312.046 L569.223,310.926 L573.117,309.231 L578.24,306.99 L582.034,305.377 L584.539,304.355 L587.058,303.378 L589.586,302.459 L590.835,302.005 L590.835,302.005 C590.865,301.995 590.896,301.984 590.927,301.973 L590.927,301.973 L591.028,301.934 L591.536,301.723 L592.042,301.486 L592.514,301.252 L592.98,301.012 L593.447,300.77 L594.147,300.407 L595.046,299.954 L595.608,299.686 L595.884,299.564 L596.097,299.48 L596.189,299.447 L596.104,299.474 L595.765,299.528 L595.266,299.487 L594.905,299.352 L594.964,299.379 L594.797,299.278 L594.716,299.204 L594.73,299.236 L594.787,299.36 L594.866,299.563 L594.956,299.834 L595.054,300.167 L595.155,300.555 L595.261,300.993 L595.374,301.474 L595.481,302.004 L595.558,302.596 L595.628,303.231 L595.712,304.272 L595.804,305.78 L595.877,307.41 L595.93,309.151 L595.973,310.983 L596.013,312.885 L596.11,314.806 L596.235,317.778 L596.363,321.822 L596.431,324.851 L596.463,326.844 L596.483,328.803 L596.492,330.712 L596.49,332.557 L596.477,334.322 L596.453,335.994 L596.417,337.557 L596.371,338.997 L596.329,339.981 L596.298,340.586 L596.264,341.155 L596.228,341.681 L596.189,342.159 L596.149,342.586 L596.108,342.957 L596.067,343.264 L596.03,343.496 L596,343.632 L596.006,343.592 L596.006,343.592 C595.494,345.779 596.867,346.839 599.073,345.959 C601.278,345.08 603.481,342.595 603.994,340.408 C603.994,340.408 603.994,340.408 603.994,340.408 L604.058,340.119 L604.14,339.683 L604.208,339.244 L604.267,338.785 L604.32,338.297 L604.368,337.778 L604.412,337.224 L604.452,336.636 L604.489,336.014 L604.523,335.353 L604.567,334.304 L604.615,332.804 L604.652,331.191 L604.677,329.476 L604.69,327.672 L604.692,325.793 L604.682,323.851 L604.661,321.86 L604.629,319.829 L604.56,316.746 L604.429,312.644 L604.302,309.628 L604.204,307.667 L604.027,305.807 L603.833,304.023 L603.627,302.324 L603.419,300.714 L603.21,299.213 L603.053,298.164 L602.957,297.492 L602.863,296.849 L602.793,296.221 L602.723,295.623 L602.642,295.066 L602.551,294.545 L602.451,294.059 L602.34,293.605 L602.211,293.179 L602.055,292.774 L601.85,292.382 L601.547,291.99 L601.152,291.682 L601.095,291.648 L601.095,291.648 C600.984,291.59 600.864,291.545 600.734,291.513 L600.734,291.513 L600.078,291.433 L599.31,291.5 L598.661,291.647 L598.071,291.827 L597.505,292.034 L596.926,292.269 L596.107,292.626 L595.084,293.098 L594.37,293.436 L593.946,293.638 L593.585,293.807 L593.314,293.93 L593.182,293.988 L593.176,293.992 L593.073,294.027 L593.165,293.995 L591.755,294.447 L589.015,295.436 L586.32,296.474 L583.653,297.556 L579.746,299.217 L574.644,301.449 L570.852,303.1 L568.341,304.165 L565.831,305.194 L563.315,306.176 L560.784,307.105 L558.23,307.971 L555.644,308.766 L552.977,309.491 L551.569,309.833 L551.63,309.819 L550.469,310.083 L548.086,310.585 L545.68,311.043 L543.263,311.464 L539.593,312.045 L534.638,312.765 L529.637,313.478 L524.612,314.247 L520.834,314.9 L518.298,315.39 L515.755,315.934 L513.234,316.533 L512.014,316.847 L512.014,316.847 C512.001,316.851 511.987,316.854 511.974,316.858 L511.974,316.858 L510.458,317.264 L507.455,318.099 L502.992,319.395 L497.096,321.168 L491.242,322.937 L485.403,324.644 L481.023,325.849 L478.113,326.599 L475.201,327.299 L472.286,327.943 L469.364,328.523 L466.409,329.036 L464.89,329.269 L464.932,329.263 L461.95,329.684 L455.932,330.453 L449.888,331.147 L443.82,331.803 L437.733,332.458 L431.627,333.15 L425.515,333.914 L420.927,334.557 L417.869,335.028 L416.357,335.275 L416.357,335.275 C416.35,335.276 416.343,335.277 416.337,335.278 L416.337,335.278 L412.401,335.944 L404.542,337.326 L392.768,339.476 L380.995,341.645 L373.148,343.059 L365.302,344.417 L357.457,345.693 L349.602,346.865 L343.706,347.66 L339.739,348.229 L335.766,348.764 L331.778,349.279 L327.784,349.756 L323.783,350.185 L319.778,350.563 L315.769,350.881 L311.758,351.136 L307.742,351.328 L303.728,351.442 L299.708,351.487 L295.684,351.458 L291.652,351.344 L289.623,351.257 C288.473,351.178 286.815,352.343 285.919,353.858 C285.022,355.373 285.228,356.665 286.377,356.743 L286.377,356.743" fill="#000000"/>
    <path d="M284.893,359.117 L285.052,359.105 L285.182,359.224 L285.148,359.441 L285.005,359.692 L284.774,359.944 L284.511,360.129 L284.293,360.19 L284.12,360.215 L284.001,360.248 L283.921,360.323 L283.887,360.462 L283.89,360.711 L283.897,361.062 L283.898,361.495 L283.926,362.246 L283.969,363.343 L284.041,364.202 L284.135,364.796 L284.21,365.116 L284.21,365.116 C284.216,365.133 284.222,365.151 284.228,365.168 L284.228,365.168 L284.406,365.888 L284.837,367.326 L285.544,369.461 L286.599,372.24 L287.733,374.957 L288.89,377.622 L290.083,380.195 L290.908,382.12 L291.414,383.4 L291.882,384.693 L292.304,385.991 L292.491,386.625 L292.484,386.599 L292.773,387.631 L293.315,389.674 L293.815,391.71 L294.278,393.749 L294.911,396.822 L295.644,400.928 L296.266,405.038 L296.795,409.163 L297.248,413.301 L297.641,417.455 L298.154,423.717 L298.784,432.106 L299.288,438.43 L299.672,442.668 L300.114,446.912 L300.63,451.165 L300.924,453.307 L300.924,453.307 C300.925,453.312 300.925,453.316 300.926,453.321 L300.926,453.321 L302.288,462.863 L304.965,481.918 L306.89,496.187 L308.115,505.694 L309.28,515.202 L310.376,524.711 L311.392,534.226 L312.317,543.747 L313.141,553.278 L313.853,562.82 L314.308,569.981 L314.57,574.758 L314.8,579.545 L314.994,584.335 L315.152,589.131 L315.272,593.932 L315.354,598.738 L315.395,603.55 L315.4,605.952 L315.4,605.927 L315.399,606.145 L315.388,606.557 L315.368,606.995 L315.337,607.478 L315.296,608.001 L315.246,608.563 L315.185,609.16 L315.116,609.791 L314.993,610.804 L314.801,612.248 L314.577,613.787 L314.326,615.415 L314.048,617.118 L313.749,618.884 L313.43,620.7 L313.094,622.556 L312.565,625.392 L311.831,629.197 L311.271,632.015 L310.9,633.858 L310.532,635.662 L310.172,637.413 L309.822,639.098 L309.485,640.708 L309.164,642.232 L308.862,643.655 L308.583,644.969 L308.389,645.876 L308.269,646.44 L308.155,646.971 L308.049,647.467 L307.951,647.927 L307.861,648.349 L307.779,648.733 L307.706,649.078 L307.643,649.381 L307.588,649.644 L307.542,649.867 L307.505,650.054 L307.475,650.216 L307.443,650.406 L307.403,650.809 L307.403,650.809 C307.395,650.997 307.404,651.176 307.429,651.342 L307.429,651.342 L307.474,651.639 L307.587,652.261 L307.726,652.867 L307.893,653.437 L308.093,653.975 L308.331,654.478 L308.609,654.946 L308.93,655.374 L309.289,655.761 L309.687,656.106 L310.116,656.413 L310.575,656.685 L311.059,656.929 L311.569,657.152 L312.105,657.361 L312.67,657.562 L312.971,657.664 L312.971,657.664 C314.497,658.18 317.09,656.734 318.763,654.435 C320.436,652.135 320.555,649.852 319.029,649.336 L318.776,649.251 L318.301,649.083 L317.884,648.923 L317.524,648.77 L317.217,648.622 L316.96,648.477 L316.744,648.335 L316.562,648.191 L316.404,648.04 L316.265,647.873 L316.137,647.681 L316.018,647.451 L315.906,647.174 L315.802,646.84 L315.707,646.444 L315.617,645.957 L315.571,645.658 L315.597,646.191 L315.558,646.568 L315.546,646.631 L315.558,646.567 L315.585,646.431 L315.624,646.237 L315.675,645.994 L315.736,645.701 L315.807,645.366 L315.888,644.988 L315.977,644.568 L316.075,644.11 L316.181,643.613 L316.295,643.082 L316.416,642.515 L316.61,641.603 L316.891,640.282 L317.195,638.848 L317.518,637.314 L317.858,635.691 L318.211,633.99 L318.575,632.223 L318.947,630.4 L319.324,628.53 L319.891,625.668 L320.636,621.809 L321.173,618.928 L321.516,617.031 L321.844,615.166 L322.153,613.346 L322.44,611.579 L322.703,609.878 L322.938,608.25 L323.143,606.714 L323.274,605.625 L323.351,604.925 L323.418,604.251 L323.476,603.603 L323.524,602.98 L323.561,602.385 L323.586,601.816 L323.598,601.294 L323.6,601.073 L323.6,601.073 C323.6,601.065 323.6,601.056 323.6,601.048 L323.6,601.048 L323.594,598.608 L323.552,593.748 L323.47,588.895 L323.348,584.049 L323.189,579.211 L322.993,574.38 L322.761,569.556 L322.496,564.733 L322.037,557.513 L321.32,547.909 L320.491,538.325 L319.561,528.756 L318.541,519.201 L317.441,509.656 L316.272,500.118 L315.044,490.584 L313.115,476.288 L310.436,457.223 L309.074,447.679 L309.076,447.693 L308.792,445.624 L308.285,441.456 L307.85,437.278 L307.47,433.095 L306.968,426.796 L306.336,418.372 L305.817,412.045 L305.416,407.819 L304.953,403.588 L304.409,399.358 L303.767,395.127 L303.012,390.909 L302.361,387.751 L301.881,385.641 L301.363,383.533 L300.806,381.436 L300.516,380.401 L300.516,380.401 C300.514,380.392 300.511,380.384 300.509,380.375 L300.509,380.375 L300.291,379.641 L299.829,378.229 L299.325,376.841 L298.781,375.468 L297.916,373.454 L296.699,370.83 L295.356,368.331 L293.995,365.884 L292.654,363.466 L291.687,361.663 L291.083,360.448 L290.772,359.832 L290.79,359.884 L290.733,359.8 L290.601,359.506 L290.405,358.887 L290.149,357.892 L289.939,357.107 L289.749,356.586 L289.524,356.072 L289.239,355.572 L288.851,355.108 L288.334,354.756 L287.826,354.599 L287.361,354.567 L286.824,354.63 L286.211,354.882 L285.599,355.266 L285.042,355.72 L284.559,356.214 L284.204,356.688 L284.107,356.883 C283.232,357.59 282.699,358.664 282.916,359.28 C283.133,359.897 284.018,359.824 284.893,359.117 L284.893,359.117" fill="#000000"/>
    <path d="M253.051,346.716 L254.901,346.687 L258.658,346.573 L262.456,346.382 L266.27,346.103 L270.089,345.728 L273.9,345.247 L276.754,344.811 L278.653,344.481 L280.533,344.122 L282.402,343.729 L283.346,343.517 L283.346,343.517 C283.357,343.514 283.367,343.512 283.378,343.509 L283.378,343.509 L285.161,343.089 L288.758,342.178 L292.347,341.198 L295.911,340.162 L301.207,338.536 L308.219,336.279 L315.193,334.008 L320.4,332.352 L323.862,331.291 L327.332,330.275 L330.809,329.314 L334.297,328.421 L337.802,327.603 L339.54,327.23 L339.527,327.233 L342.922,326.516 L349.719,325.035 L356.508,323.494 L363.284,321.892 L370.046,320.245 L376.839,318.444 L387.033,315.605 L400.463,312.138 L413.817,308.825 L427.321,305.131 L437.513,302.261 L444.294,300.444 L447.674,299.583 L447.658,299.587 L450.753,298.863 L456.915,297.47 L463.082,296.111 L469.268,294.74 L475.464,293.327 L481.673,291.828 L486.344,290.624 L489.469,289.77 L492.587,288.876 L495.706,287.932 L497.284,287.435 L497.284,287.435 C497.297,287.43 497.31,287.426 497.323,287.422 L497.323,287.422 L497.469,287.374 L497.854,287.245 L498.289,287.093 L498.76,286.925 L499.269,286.739 L499.818,286.537 L500.406,286.318 L501.034,286.082 L501.698,285.831 L502.4,285.566 L503.137,285.285 L503.908,284.992 L504.711,284.686 L505.547,284.367 L506.411,284.038 L507.303,283.699 L508.691,283.171 L510.623,282.44 L512.638,281.682 L514.721,280.904 L516.858,280.115 L519.038,279.318 L522.36,278.123 L525.71,276.893 L527.923,276.095 L530.128,275.279 L532.305,274.459 L534.439,273.646 L536.505,272.881 L537.986,272.376 L538.937,272.069 L539.861,271.801 L540.757,271.552 L541.619,271.33 L542.446,271.137 L543.237,270.967 L543.991,270.819 L544.705,270.692 L545.378,270.587 L546.008,270.506 L546.589,270.449 L547.122,270.414 L547.602,270.402 L548.028,270.413 L548.394,270.445 L548.698,270.495 L548.938,270.561 L549.112,270.636 L549.218,270.711 L549.201,270.714 L549.131,270.659 L549.265,270.775 L549.465,270.98 L549.652,271.214 L549.846,271.497 L550.044,271.827 L550.244,272.202 L550.443,272.62 L550.64,273.079 L550.834,273.579 L551.025,274.116 L551.306,274.999 L551.653,276.292 L551.974,277.701 L552.273,279.22 L552.534,280.847 L552.77,282.561 L552.963,284.362 L553.107,286.244 L553.197,288.197 L553.508,290.028 L554.331,291.538 L554.89,294.271 L555.387,297.019 L555.68,298.843 L555.95,300.651 L556.195,302.429 L556.41,304.169 L556.601,305.857 L556.763,307.485 L556.899,309.041 L557.007,310.516 L557.065,311.911 L557.058,313.223 L556.938,314.466 L555.399,316.064 L554.491,316.987 L554.552,317.366 L554.592,317.711 L554.605,317.853 L554.605,317.853 C554.363,319.361 555.463,319.978 557.061,319.231 C558.66,318.483 560.152,316.655 560.395,315.147 L560.475,314.874 L560.642,314.329 L560.823,313.744 L560.028,313.629 L558.643,313.542 L558.7,312.309 L558.839,310.903 L559.008,309.358 L559.193,307.694 L559.372,305.932 L559.54,304.086 L559.701,302.163 L559.848,300.177 L559.986,298.136 L560.112,296.053 L560.22,293.934 L560.363,290.72 L560.473,287.494 L560.944,285.071 L560.859,283.023 L560.508,281.173 L560.166,279.351 L559.826,277.566 L559.482,275.835 L559.115,274.177 L558.736,272.595 L558.331,271.106 L557.902,269.727 L557.567,268.766 L557.331,268.155 L557.085,267.575 L556.829,267.026 L556.562,266.509 L556.282,266.024 L555.987,265.574 L555.674,265.158 L555.342,264.778 L555.007,264.456 L554.869,264.341 L554.869,264.341 C554.847,264.322 554.823,264.304 554.799,264.286 L554.799,264.286 L554.54,264.114 L554.082,263.888 L553.585,263.722 L553.053,263.607 L552.486,263.535 L551.887,263.499 L551.254,263.497 L550.588,263.526 L549.889,263.582 L549.158,263.665 L548.396,263.772 L547.603,263.9 L546.78,264.051 L545.929,264.223 L545.049,264.414 L544.144,264.619 L543.218,264.834 L542.269,265.057 L541.299,265.295 L540.308,265.525 L538.793,265.882 L536.73,266.362 L534.606,266.891 L532.423,267.495 L530.193,268.172 L527.924,268.922 L524.519,270.089 L521.133,271.335 L518.911,272.169 L516.735,272.995 L514.62,273.806 L512.58,274.595 L510.627,275.354 L509.229,275.901 L508.331,276.252 L507.463,276.592 L506.627,276.92 L505.824,277.234 L505.057,277.535 L504.327,277.82 L503.637,278.089 L502.987,278.342 L502.382,278.575 L501.822,278.79 L501.312,278.984 L500.854,279.156 L500.452,279.304 L500.114,279.427 L499.827,279.528 L499.677,279.578 L499.716,279.565 L498.233,280.051 L495.22,280.999 L492.194,281.903 L489.166,282.767 L484.589,284.008 L478.435,285.575 L472.241,287.078 L466.013,288.554 L459.75,290.052 L453.471,291.606 L450.342,292.413 L450.342,292.413 C450.337,292.414 450.331,292.416 450.326,292.417 L450.326,292.417 L446.931,293.259 L440.184,294.894 L430.132,297.293 L416.707,300.734 L403.169,304.596 L389.702,308.249 L379.698,310.659 L373.003,312.292 L366.255,314.012 L359.493,315.699 L352.71,317.359 L345.899,318.976 L342.473,319.767 L342.473,319.767 C342.469,319.768 342.464,319.769 342.46,319.77 L342.46,319.77 L340.579,320.213 L336.889,321.153 L333.235,322.169 L329.614,323.247 L326.023,324.376 L322.453,325.546 L317.154,327.349 L310.156,329.785 L303.185,332.186 L297.951,333.914 L294.461,335.009 L290.959,336.047 L287.424,337.024 L285.622,337.491 L285.654,337.483 L284.78,337.701 L282.989,338.119 L281.179,338.509 L279.361,338.868 L276.6,339.357 L272.869,339.917 L269.109,340.377 L265.338,340.741 L261.574,341.019 L257.824,341.214 L255.949,341.284 C254.751,341.317 253.131,342.559 252.33,344.059 C251.53,345.558 251.852,346.748 253.051,346.716 L253.051,346.716" fill="#000000"/>
    <path d="M255.064,354.256 L256.406,359.565 L259.642,369.825 L262.189,377.455 L263.86,382.56 L265.501,387.683 L267.103,392.821 L268.658,397.972 L270.156,403.135 L271.589,408.309 L272.95,413.492 L274.228,418.683 L275.417,423.882 L276.507,429.085 L277.489,434.293 L277.936,436.886 L277.933,436.866 L278.168,438.311 L278.604,441.183 L279.192,445.502 L279.885,451.283 L280.52,457.086 L281.143,462.911 L281.803,468.752 L282.549,474.601 L283.194,478.994 L283.677,481.926 L283.938,483.397 L283.938,483.397 C283.939,483.4 283.939,483.404 283.94,483.407 L283.94,483.407 L285.013,489.312 L287.14,501.126 L289.203,512.942 L290.681,521.807 L291.623,527.717 L292.523,533.633 L293.378,539.553 L294.179,545.476 L294.923,551.403 L295.604,557.335 L296.216,563.273 L296.753,569.215 L297.21,575.164 L297.406,578.131 L297.406,578.124 L297.414,578.248 L297.432,578.532 L297.453,578.86 L297.478,579.229 L297.505,579.638 L297.535,580.085 L297.568,580.568 L297.603,581.087 L297.66,581.93 L297.744,583.166 L297.836,584.519 L297.935,585.977 L298.04,587.53 L298.15,589.166 L298.265,590.873 L298.382,592.64 L298.562,595.379 L298.804,599.132 L299.042,602.918 L299.213,605.722 L299.321,607.552 L299.424,609.34 L299.52,611.072 L299.609,612.738 L299.689,614.323 L299.76,615.817 L299.821,617.209 L299.871,618.485 L299.908,619.634 L299.927,620.4 L299.936,620.861 L299.941,621.283 L299.942,621.663 L299.94,621.996 L299.934,622.276 L299.926,622.499 L299.915,622.652 L299.913,622.66 L299.928,622.523 L299.876,622.934 L299.751,623.527 L299.579,624.137 L299.347,624.867 L299.059,625.711 L298.727,626.66 L298.188,628.234 L297.655,629.973 L297.326,631.264 L297.076,632.558 L296.922,633.876 L296.894,635.197 L296.975,636.214 L297.089,636.889 L297.244,637.51 L297.447,638.113 L297.697,638.695 L297.998,639.256 L298.184,639.555 L298.184,639.555 C298.202,639.583 298.221,639.611 298.24,639.637 L298.24,639.637 L298.333,639.764 L298.667,640.142 L299.068,640.505 L299.493,640.827 L300.154,641.255 L301.102,641.784 L302.077,642.27 L303.01,642.709 L303.644,643.005 L304.015,643.183 L304.337,643.343 L304.596,643.483 L304.681,643.533 L304.681,643.533 C306.009,644.303 308.573,643.123 310.406,640.896 C312.239,638.668 312.648,636.238 311.32,635.467 L311.145,635.367 L310.807,635.187 L310.438,635.003 L310.042,634.814 L309.416,634.522 L308.544,634.112 L307.689,633.689 L306.908,633.26 L306.413,632.947 L306.164,632.767 L305.986,632.622 L305.854,632.491 L305.76,632.363 L305.816,632.445 L305.731,632.318 L305.555,632.009 L305.411,631.699 L305.297,631.388 L305.21,631.076 L305.15,630.8 L305.093,630.36 L305.082,629.691 L305.147,628.977 L305.282,628.212 L305.47,627.427 L305.885,626.051 L306.398,624.552 L306.768,623.495 L307.142,622.384 L307.499,621.224 L307.807,620.02 L308.02,618.89 L308.072,618.477 L308.072,618.477 C308.078,618.431 308.083,618.385 308.087,618.34 L308.087,618.34 L308.102,618.149 L308.121,617.835 L308.133,617.503 L308.139,617.141 L308.142,616.748 L308.14,616.322 L308.134,615.86 L308.125,615.361 L308.104,614.555 L308.066,613.372 L308.015,612.068 L307.954,610.655 L307.882,609.142 L307.8,607.542 L307.711,605.866 L307.614,604.124 L307.511,602.328 L307.402,600.488 L307.231,597.673 L306.993,593.878 L306.75,590.118 L306.57,587.376 L306.452,585.606 L306.337,583.897 L306.227,582.259 L306.122,580.705 L306.023,579.246 L305.931,577.893 L305.847,576.658 L305.79,575.817 L305.755,575.298 L305.722,574.816 L305.692,574.372 L305.665,573.967 L305.641,573.602 L305.62,573.28 L305.602,573.001 L305.594,572.876 L305.594,572.876 C305.594,572.874 305.594,572.871 305.594,572.869 L305.594,572.869 L305.394,569.846 L304.931,563.827 L304.387,557.821 L303.769,551.827 L303.083,545.843 L302.333,539.869 L301.525,533.905 L300.666,527.95 L299.76,522.002 L298.813,516.059 L297.329,507.161 L295.262,495.321 L293.134,483.5 L292.06,477.593 L292.062,477.603 L291.811,476.187 L291.34,473.335 L290.707,469.031 L289.969,463.252 L289.312,457.44 L288.688,451.604 L288.048,445.75 L287.344,439.892 L286.746,435.502 L286.303,432.581 L286.067,431.134 L286.067,431.134 C286.066,431.127 286.065,431.12 286.064,431.114 L286.064,431.114 L285.605,428.451 L284.605,423.158 L283.498,417.878 L282.294,412.613 L281,407.361 L279.626,402.125 L278.179,396.906 L276.669,391.702 L275.105,386.518 L273.493,381.353 L271.845,376.207 L270.166,371.08 L267.614,363.434 L264.001,353.476 L261.936,348.744 C261.936,348.744 261.936,348.744 261.936,348.744 C261.479,347.398 259.57,347.541 257.672,349.063 C255.774,350.585 254.607,352.911 255.064,354.256 L255.064,354.256" fill="#000000"/>
    <path d="M206.356,336.897 L210.007,336.173 L217.331,334.612 L224.657,332.897 L231.959,331.08 L239.239,329.159 L246.494,327.153 L253.727,325.06 L260.938,322.888 L268.127,320.644 L275.297,318.33 L282.447,315.953 L289.579,313.517 L296.695,311.027 L303.796,308.489 L310.893,305.857 L317.98,303.173 L328.586,299.072 L342.693,293.515 L356.77,287.895 L370.822,282.251 L384.862,276.622 L398.901,271.047 L409.432,266.924 L416.456,264.214 L423.489,261.538 L430.53,258.9 L434.048,257.6 L434.023,257.609 L435.345,257.13 L437.949,256.223 L441.884,254.928 L447.185,253.279 L452.53,251.663 L457.912,250.014 L461.97,248.715 L464.687,247.799 L467.394,246.844 L470.098,245.836 L472.801,244.762 L475.497,243.628 L476.879,243.014 L476.879,243.014 C476.944,242.985 477.008,242.954 477.074,242.922 L477.074,242.922 L477.218,242.851 L477.953,242.437 L478.991,241.722 L480.081,240.835 L480.825,240.191 L481.134,239.969 L480.917,240.189 L480.471,240.501 L480.047,240.732 L479.618,240.894 L479.28,240.965 L479.083,240.984 L478.957,240.962 L478.708,240.824 L478.733,240.842 L478.57,240.72 L478.55,240.718 L478.608,240.827 L478.705,241.012 L478.83,241.258 L478.977,241.557 L479.143,241.906 L479.328,242.301 L479.53,242.739 L479.748,243.219 L479.982,243.738 L480.229,244.296 L480.491,244.888 L480.767,245.515 L481.073,246.16 L481.391,246.834 L481.723,247.538 L482.242,248.645 L482.971,250.207 L483.74,251.858 L484.542,253.586 L485.375,255.379 L486.234,257.226 L487.113,259.114 L488.461,262 L490.289,265.884 L491.664,268.777 L492.575,270.674 L493.475,272.53 L494.36,274.336 L495.225,276.08 L496.067,277.75 L496.882,279.336 L497.664,280.825 L498.228,281.875 L498.593,282.54 L498.946,283.174 L499.289,283.776 L499.621,284.346 L499.942,284.882 L500.251,285.384 L500.549,285.851 L500.698,286.076 L500.698,286.076 C501.544,287.362 503.933,286.803 506.033,284.828 C508.133,282.853 509.149,280.209 508.302,278.924 L508.177,278.733 L507.905,278.309 L507.617,277.842 L507.315,277.337 L506.998,276.794 L506.669,276.215 L506.327,275.603 L505.975,274.961 L505.425,273.939 L504.656,272.475 L503.853,270.911 L503.02,269.259 L502.162,267.53 L501.283,265.737 L500.388,263.891 L499.483,262.006 L498.114,259.125 L496.289,255.249 L494.944,252.368 L494.065,250.482 L493.207,248.636 L492.374,246.842 L491.57,245.112 L490.8,243.458 L490.069,241.891 L489.548,240.779 L489.214,240.071 L488.893,239.391 L488.584,238.74 L488.272,238.135 L487.974,237.561 L487.69,237.02 L487.422,236.513 L487.17,236.041 L486.934,235.604 L486.714,235.204 L486.511,234.842 L486.323,234.516 L486.15,234.224 L485.987,233.965 L485.824,233.724 L485.623,233.469 L485.321,233.195 L485.292,233.176 L485.292,233.176 C485.215,233.123 485.132,233.077 485.043,233.039 L485.043,233.039 L484.63,232.891 L483.863,232.77 L482.96,232.833 L481.969,233.105 L480.988,233.548 L479.985,234.161 L478.937,234.963 L478.138,235.683 L477.769,236.059 L477.734,236.151 L477.916,236.071 L478.074,236.004 L477.926,236.079 L478.121,235.986 L476.935,236.536 L474.46,237.621 L471.948,238.636 L469.401,239.604 L466.823,240.526 L464.228,241.406 L460.275,242.68 L454.926,244.321 L449.52,245.954 L444.089,247.637 L440.013,248.973 L437.302,249.913 L435.977,250.391 L435.977,250.391 C435.969,250.394 435.96,250.397 435.952,250.4 L435.952,250.4 L432.4,251.705 L425.318,254.338 L418.25,257.007 L411.19,259.709 L400.623,263.806 L386.57,269.332 L372.542,274.895 L358.525,280.461 L344.511,285.99 L330.483,291.448 L319.946,295.473 L312.912,298.126 L305.865,300.754 L298.795,303.389 L291.711,305.979 L284.611,308.517 L277.495,311 L270.361,313.422 L263.206,315.782 L256.03,318.071 L248.829,320.287 L241.603,322.428 L234.351,324.484 L227.066,326.463 L219.748,328.355 L212.368,330.202 L208.644,331.103 C208.644,331.103 208.644,331.103 208.644,331.103 C207.21,331.42 205.536,332.973 204.904,334.573 C204.272,336.173 204.922,337.213 206.356,336.897 L206.356,336.897" fill="#000000"/>
    <path d="M210.887,347.813 L211.599,349.197 L213.042,351.979 L214.576,354.735 L216.113,357.549 L217.657,360.416 L219.194,363.346 L220.725,366.335 L222.249,369.383 L223.764,372.486 L225.271,375.643 L226.769,378.852 L228.257,382.111 L229.735,385.418 L231.202,388.77 L232.658,392.166 L234.103,395.603 L235.534,399.08 L236.953,402.596 L238.358,406.145 L239.75,409.729 L241.126,413.345 L242.488,416.99 L243.834,420.662 L245.163,424.359 L246.476,428.08 L247.771,431.822 L249.681,437.473 L252.162,445.062 L254.563,452.698 L256.881,460.366 L259.111,468.049 L261.248,475.733 L263.289,483.401 L264.754,489.128 L265.697,492.931 L266.615,496.724 L267.505,500.501 L268.368,504.261 L269.203,508.002 L270.01,511.721 L270.787,515.417 L271.534,519.086 L272.25,522.729 L272.936,526.341 L273.591,529.922 L274.214,533.469 L274.804,536.98 L275.361,540.453 L275.885,543.886 L276.374,547.276 L276.829,550.623 L277.249,553.923 L277.633,557.175 L277.981,560.375 L278.293,563.523 L278.567,566.617 L278.803,569.652 L278.907,571.14 L278.906,571.129 L278.912,571.222 L278.925,571.433 L278.94,571.69 L278.956,571.992 L278.974,572.338 L278.994,572.724 L279.027,573.379 L279.077,574.375 L279.132,575.506 L279.192,576.757 L279.257,578.117 L279.326,579.572 L279.4,581.111 L279.478,582.721 L279.559,584.391 L279.686,586.981 L279.865,590.529 L280.052,594.096 L280.195,596.727 L280.292,598.437 L280.388,600.098 L280.485,601.697 L280.582,603.222 L280.677,604.664 L280.772,606.008 L280.866,607.245 L280.958,608.362 L281.049,609.35 L281.116,610.007 L281.162,610.405 L281.207,610.762 L281.253,611.086 L281.3,611.38 L281.352,611.648 L281.414,611.907 L281.506,612.192 L281.631,612.466 L281.631,612.466 C281.659,612.516 281.688,612.564 281.72,612.609 L281.72,612.609 L281.829,612.765 L282.121,613.14 L282.615,613.671 L283.361,614.311 L284.198,614.887 L285.097,615.391 L286.046,615.833 L287.031,616.218 L288.042,616.552 L289.068,616.839 L290.097,617.082 L291.118,617.284 L292.12,617.448 L293.09,617.576 L294.02,617.67 L294.898,617.731 L295.715,617.762 L296.123,617.767 L296.123,617.767 C297.968,617.786 300.528,615.89 301.841,613.534 C303.153,611.177 302.721,609.251 300.876,609.233 L300.604,609.231 L299.943,609.208 L299.207,609.158 L298.411,609.08 L297.573,608.972 L296.705,608.832 L295.822,608.66 L294.939,608.454 L294.07,608.215 L293.229,607.941 L292.428,607.635 L291.685,607.296 L291.01,606.93 L290.418,606.539 L289.902,606.116 L289.578,605.783 L289.39,605.549 L289.28,605.391 L289.369,605.534 L289.457,605.741 L289.475,605.818 L289.461,605.772 L289.434,605.643 L289.402,605.449 L289.366,605.199 L289.327,604.897 L289.288,604.554 L289.226,603.955 L289.139,603.014 L289.05,601.93 L288.958,600.722 L288.865,599.398 L288.77,597.975 L288.674,596.464 L288.578,594.877 L288.482,593.227 L288.386,591.526 L288.244,588.908 L288.058,585.35 L287.879,581.809 L287.752,579.223 L287.671,577.555 L287.593,575.946 L287.519,574.407 L287.45,572.951 L287.385,571.591 L287.324,570.337 L287.269,569.203 L287.22,568.199 L287.187,567.54 L287.166,567.146 L287.147,566.79 L287.13,566.474 L287.114,566.198 L287.1,565.966 L287.094,565.871 L287.094,565.871 C287.094,565.867 287.093,565.863 287.093,565.86 L287.093,565.86 L286.987,564.328 L286.745,561.236 L286.467,558.093 L286.15,554.896 L285.797,551.649 L285.407,548.355 L284.982,545.014 L284.522,541.629 L284.027,538.201 L283.497,534.733 L282.935,531.226 L282.339,527.683 L281.711,524.105 L281.051,520.494 L280.359,516.853 L279.637,513.183 L278.884,509.486 L278.102,505.764 L277.29,502.02 L276.449,498.255 L275.581,494.47 L274.684,490.669 L273.761,486.853 L272.81,483.021 L271.336,477.256 L269.283,469.546 L267.134,461.82 L264.892,454.095 L262.562,446.386 L260.148,438.71 L257.655,431.085 L255.736,425.409 L254.433,421.646 L253.113,417.905 L251.776,414.186 L250.423,410.493 L249.053,406.827 L247.668,403.19 L246.269,399.585 L244.854,396.012 L243.427,392.475 L241.985,388.975 L240.531,385.514 L239.065,382.095 L237.587,378.718 L236.098,375.387 L234.598,372.102 L233.088,368.868 L231.568,365.684 L230.039,362.553 L228.502,359.478 L226.956,356.459 L225.402,353.5 L223.842,350.602 L222.263,347.778 L220.669,345.026 L218.973,342.437 L218.113,341.187 C218.113,341.187 218.113,341.187 218.113,341.187 C217.363,339.933 215.138,340.399 213.143,342.229 C211.148,344.058 210.138,346.558 210.887,347.813 L210.887,347.813" fill="#000000"/>
  </g>
</svg>
